G04 #@! TF.GenerationSoftware,KiCad,Pcbnew,(5.1.12)-1*
G04 #@! TF.CreationDate,2022-05-09T10:01:21-03:00*
G04 #@! TF.ProjectId,BBBMINI_PCB_V2,4242424d-494e-4495-9f50-43425f56322e,rev?*
G04 #@! TF.SameCoordinates,Original*
G04 #@! TF.FileFunction,Legend,Bot*
G04 #@! TF.FilePolarity,Positive*
%FSLAX46Y46*%
G04 Gerber Fmt 4.6, Leading zero omitted, Abs format (unit mm)*
G04 Created by KiCad (PCBNEW (5.1.12)-1) date 2022-05-09 10:01:21*
%MOMM*%
%LPD*%
G01*
G04 APERTURE LIST*
%ADD10C,0.200000*%
%ADD11C,0.150000*%
%ADD12C,0.300000*%
G04 APERTURE END LIST*
D10*
X152790100Y-95623400D02*
X135645100Y-95623400D01*
X152790100Y-68318400D02*
X135645100Y-68318400D01*
X152790100Y-95623400D02*
X152790100Y-68318400D01*
X135645100Y-68318400D02*
X135645100Y-95623400D01*
D11*
X123228100Y-68224400D02*
X123228100Y-114452400D01*
D12*
X122890671Y-68445542D02*
X121390671Y-68445542D01*
X122890671Y-69088400D02*
X122104957Y-69088400D01*
X121962100Y-69016971D01*
X121890671Y-68874114D01*
X121890671Y-68659828D01*
X121962100Y-68516971D01*
X122033528Y-68445542D01*
X121890671Y-69588400D02*
X121890671Y-70159828D01*
X121390671Y-69802685D02*
X122676385Y-69802685D01*
X122819242Y-69874114D01*
X122890671Y-70016971D01*
X122890671Y-70159828D01*
X121890671Y-70445542D02*
X121890671Y-71016971D01*
X121390671Y-70659828D02*
X122676385Y-70659828D01*
X122819242Y-70731257D01*
X122890671Y-70874114D01*
X122890671Y-71016971D01*
X121890671Y-71516971D02*
X123390671Y-71516971D01*
X121962100Y-71516971D02*
X121890671Y-71659828D01*
X121890671Y-71945542D01*
X121962100Y-72088400D01*
X122033528Y-72159828D01*
X122176385Y-72231257D01*
X122604957Y-72231257D01*
X122747814Y-72159828D01*
X122819242Y-72088400D01*
X122890671Y-71945542D01*
X122890671Y-71659828D01*
X122819242Y-71516971D01*
X122819242Y-72802685D02*
X122890671Y-72945542D01*
X122890671Y-73231257D01*
X122819242Y-73374114D01*
X122676385Y-73445542D01*
X122604957Y-73445542D01*
X122462100Y-73374114D01*
X122390671Y-73231257D01*
X122390671Y-73016971D01*
X122319242Y-72874114D01*
X122176385Y-72802685D01*
X122104957Y-72802685D01*
X121962100Y-72874114D01*
X121890671Y-73016971D01*
X121890671Y-73231257D01*
X121962100Y-73374114D01*
X122747814Y-74088400D02*
X122819242Y-74159828D01*
X122890671Y-74088400D01*
X122819242Y-74016971D01*
X122747814Y-74088400D01*
X122890671Y-74088400D01*
X121962100Y-74088400D02*
X122033528Y-74159828D01*
X122104957Y-74088400D01*
X122033528Y-74016971D01*
X121962100Y-74088400D01*
X122104957Y-74088400D01*
X121319242Y-75874114D02*
X123247814Y-74588400D01*
X121319242Y-77445542D02*
X123247814Y-76159828D01*
X121890671Y-78588400D02*
X123104957Y-78588400D01*
X123247814Y-78516971D01*
X123319242Y-78445542D01*
X123390671Y-78302685D01*
X123390671Y-78088400D01*
X123319242Y-77945542D01*
X122819242Y-78588400D02*
X122890671Y-78445542D01*
X122890671Y-78159828D01*
X122819242Y-78016971D01*
X122747814Y-77945542D01*
X122604957Y-77874114D01*
X122176385Y-77874114D01*
X122033528Y-77945542D01*
X121962100Y-78016971D01*
X121890671Y-78159828D01*
X121890671Y-78445542D01*
X121962100Y-78588400D01*
X122890671Y-79302685D02*
X121890671Y-79302685D01*
X121390671Y-79302685D02*
X121462100Y-79231257D01*
X121533528Y-79302685D01*
X121462100Y-79374114D01*
X121390671Y-79302685D01*
X121533528Y-79302685D01*
X121890671Y-79802685D02*
X121890671Y-80374114D01*
X121390671Y-80016971D02*
X122676385Y-80016971D01*
X122819242Y-80088400D01*
X122890671Y-80231257D01*
X122890671Y-80374114D01*
X122890671Y-80874114D02*
X121390671Y-80874114D01*
X122890671Y-81516971D02*
X122104957Y-81516971D01*
X121962100Y-81445542D01*
X121890671Y-81302685D01*
X121890671Y-81088400D01*
X121962100Y-80945542D01*
X122033528Y-80874114D01*
X121890671Y-82874114D02*
X122890671Y-82874114D01*
X121890671Y-82231257D02*
X122676385Y-82231257D01*
X122819242Y-82302685D01*
X122890671Y-82445542D01*
X122890671Y-82659828D01*
X122819242Y-82802685D01*
X122747814Y-82874114D01*
X122890671Y-83588400D02*
X121390671Y-83588400D01*
X121962100Y-83588400D02*
X121890671Y-83731257D01*
X121890671Y-84016971D01*
X121962100Y-84159828D01*
X122033528Y-84231257D01*
X122176385Y-84302685D01*
X122604957Y-84302685D01*
X122747814Y-84231257D01*
X122819242Y-84159828D01*
X122890671Y-84016971D01*
X122890671Y-83731257D01*
X122819242Y-83588400D01*
X122747814Y-84945542D02*
X122819242Y-85016971D01*
X122890671Y-84945542D01*
X122819242Y-84874114D01*
X122747814Y-84945542D01*
X122890671Y-84945542D01*
X122819242Y-86302685D02*
X122890671Y-86159828D01*
X122890671Y-85874114D01*
X122819242Y-85731257D01*
X122747814Y-85659828D01*
X122604957Y-85588400D01*
X122176385Y-85588400D01*
X122033528Y-85659828D01*
X121962100Y-85731257D01*
X121890671Y-85874114D01*
X121890671Y-86159828D01*
X121962100Y-86302685D01*
X122890671Y-87159828D02*
X122819242Y-87016971D01*
X122747814Y-86945542D01*
X122604957Y-86874114D01*
X122176385Y-86874114D01*
X122033528Y-86945542D01*
X121962100Y-87016971D01*
X121890671Y-87159828D01*
X121890671Y-87374114D01*
X121962100Y-87516971D01*
X122033528Y-87588400D01*
X122176385Y-87659828D01*
X122604957Y-87659828D01*
X122747814Y-87588400D01*
X122819242Y-87516971D01*
X122890671Y-87374114D01*
X122890671Y-87159828D01*
X122890671Y-88302685D02*
X121890671Y-88302685D01*
X122033528Y-88302685D02*
X121962100Y-88374114D01*
X121890671Y-88516971D01*
X121890671Y-88731257D01*
X121962100Y-88874114D01*
X122104957Y-88945542D01*
X122890671Y-88945542D01*
X122104957Y-88945542D02*
X121962100Y-89016971D01*
X121890671Y-89159828D01*
X121890671Y-89374114D01*
X121962100Y-89516971D01*
X122104957Y-89588400D01*
X122890671Y-89588400D01*
X121319242Y-91374114D02*
X123247814Y-90088400D01*
X121890671Y-91874114D02*
X123176385Y-91874114D01*
X123319242Y-91802685D01*
X123390671Y-91659828D01*
X123390671Y-91588400D01*
X121390671Y-91874114D02*
X121462100Y-91802685D01*
X121533528Y-91874114D01*
X121462100Y-91945542D01*
X121390671Y-91874114D01*
X121533528Y-91874114D01*
X121890671Y-93231257D02*
X122890671Y-93231257D01*
X121890671Y-92588400D02*
X122676385Y-92588400D01*
X122819242Y-92659828D01*
X122890671Y-92802685D01*
X122890671Y-93016971D01*
X122819242Y-93159828D01*
X122747814Y-93231257D01*
X121890671Y-93802685D02*
X122890671Y-94159828D01*
X121890671Y-94516971D01*
X122890671Y-95088400D02*
X121890671Y-95088400D01*
X121390671Y-95088400D02*
X121462100Y-95016971D01*
X121533528Y-95088400D01*
X121462100Y-95159828D01*
X121390671Y-95088400D01*
X121533528Y-95088400D01*
X121890671Y-95802685D02*
X122890671Y-95802685D01*
X122033528Y-95802685D02*
X121962100Y-95874114D01*
X121890671Y-96016971D01*
X121890671Y-96231257D01*
X121962100Y-96374114D01*
X122104957Y-96445542D01*
X122890671Y-96445542D01*
X122819242Y-97088400D02*
X122890671Y-97231257D01*
X122890671Y-97516971D01*
X122819242Y-97659828D01*
X122676385Y-97731257D01*
X122604957Y-97731257D01*
X122462100Y-97659828D01*
X122390671Y-97516971D01*
X122390671Y-97302685D01*
X122319242Y-97159828D01*
X122176385Y-97088400D01*
X122104957Y-97088400D01*
X121962100Y-97159828D01*
X121890671Y-97302685D01*
X121890671Y-97516971D01*
X121962100Y-97659828D01*
X122890671Y-98374114D02*
X121390671Y-98374114D01*
X122319242Y-98516971D02*
X122890671Y-98945542D01*
X121890671Y-98945542D02*
X122462100Y-98374114D01*
X122890671Y-99588400D02*
X121890671Y-99588400D01*
X121390671Y-99588400D02*
X121462100Y-99516971D01*
X121533528Y-99588400D01*
X121462100Y-99659828D01*
X121390671Y-99588400D01*
X121533528Y-99588400D01*
X121319242Y-101374114D02*
X123247814Y-100088400D01*
X122104957Y-102374114D02*
X122176385Y-102588400D01*
X122247814Y-102659828D01*
X122390671Y-102731257D01*
X122604957Y-102731257D01*
X122747814Y-102659828D01*
X122819242Y-102588400D01*
X122890671Y-102445542D01*
X122890671Y-101874114D01*
X121390671Y-101874114D01*
X121390671Y-102374114D01*
X121462100Y-102516971D01*
X121533528Y-102588400D01*
X121676385Y-102659828D01*
X121819242Y-102659828D01*
X121962100Y-102588400D01*
X122033528Y-102516971D01*
X122104957Y-102374114D01*
X122104957Y-101874114D01*
X122104957Y-103874114D02*
X122176385Y-104088400D01*
X122247814Y-104159828D01*
X122390671Y-104231257D01*
X122604957Y-104231257D01*
X122747814Y-104159828D01*
X122819242Y-104088400D01*
X122890671Y-103945542D01*
X122890671Y-103374114D01*
X121390671Y-103374114D01*
X121390671Y-103874114D01*
X121462100Y-104016971D01*
X121533528Y-104088400D01*
X121676385Y-104159828D01*
X121819242Y-104159828D01*
X121962100Y-104088400D01*
X122033528Y-104016971D01*
X122104957Y-103874114D01*
X122104957Y-103374114D01*
X122104957Y-105374114D02*
X122176385Y-105588400D01*
X122247814Y-105659828D01*
X122390671Y-105731257D01*
X122604957Y-105731257D01*
X122747814Y-105659828D01*
X122819242Y-105588400D01*
X122890671Y-105445542D01*
X122890671Y-104874114D01*
X121390671Y-104874114D01*
X121390671Y-105374114D01*
X121462100Y-105516971D01*
X121533528Y-105588400D01*
X121676385Y-105659828D01*
X121819242Y-105659828D01*
X121962100Y-105588400D01*
X122033528Y-105516971D01*
X122104957Y-105374114D01*
X122104957Y-104874114D01*
X122890671Y-106374114D02*
X121390671Y-106374114D01*
X122462100Y-106874114D01*
X121390671Y-107374114D01*
X122890671Y-107374114D01*
X122890671Y-108088400D02*
X121390671Y-108088400D01*
X122890671Y-108802685D02*
X121390671Y-108802685D01*
X122890671Y-109659828D01*
X121390671Y-109659828D01*
X122890671Y-110374114D02*
X121390671Y-110374114D01*
X123033528Y-110731257D02*
X123033528Y-111874114D01*
X121390671Y-112016971D02*
X122890671Y-112516971D01*
X121390671Y-113016971D01*
X121533528Y-113445542D02*
X121462100Y-113516971D01*
X121390671Y-113659828D01*
X121390671Y-114016971D01*
X121462100Y-114159828D01*
X121533528Y-114231257D01*
X121676385Y-114302685D01*
X121819242Y-114302685D01*
X122033528Y-114231257D01*
X122890671Y-113374114D01*
X122890671Y-114302685D01*
D11*
X139890100Y-118672400D02*
X139850100Y-96882400D01*
X154770100Y-118662400D02*
X139890100Y-118672400D01*
X154770100Y-96882400D02*
X154770100Y-118662400D01*
X140080100Y-96882400D02*
X154770100Y-96882400D01*
D10*
X123725100Y-118223400D02*
X137949100Y-118223400D01*
X137949100Y-118223400D02*
X137949100Y-98538400D01*
X123725100Y-98538400D02*
X123725100Y-118223400D01*
X137949100Y-98538400D02*
X123725100Y-98538400D01*
M02*
