G04 #@! TF.GenerationSoftware,KiCad,Pcbnew,(5.1.12)-1*
G04 #@! TF.CreationDate,2022-05-09T10:01:21-03:00*
G04 #@! TF.ProjectId,BBBMINI_PCB_V2,4242424d-494e-4495-9f50-43425f56322e,rev?*
G04 #@! TF.SameCoordinates,Original*
G04 #@! TF.FileFunction,Copper,L1,Top*
G04 #@! TF.FilePolarity,Positive*
%FSLAX46Y46*%
G04 Gerber Fmt 4.6, Leading zero omitted, Abs format (unit mm)*
G04 Created by KiCad (PCBNEW (5.1.12)-1) date 2022-05-09 10:01:21*
%MOMM*%
%LPD*%
G01*
G04 APERTURE LIST*
G04 #@! TA.AperFunction,ComponentPad*
%ADD10C,1.800000*%
G04 #@! TD*
G04 #@! TA.AperFunction,ComponentPad*
%ADD11R,1.800000X1.800000*%
G04 #@! TD*
G04 #@! TA.AperFunction,ComponentPad*
%ADD12O,1.600000X1.600000*%
G04 #@! TD*
G04 #@! TA.AperFunction,ComponentPad*
%ADD13C,1.600000*%
G04 #@! TD*
G04 #@! TA.AperFunction,ComponentPad*
%ADD14C,4.064000*%
G04 #@! TD*
G04 #@! TA.AperFunction,ComponentPad*
%ADD15O,1.700000X1.700000*%
G04 #@! TD*
G04 #@! TA.AperFunction,ComponentPad*
%ADD16R,1.700000X1.700000*%
G04 #@! TD*
G04 #@! TA.AperFunction,ComponentPad*
%ADD17R,1.500000X1.050000*%
G04 #@! TD*
G04 #@! TA.AperFunction,ComponentPad*
%ADD18O,1.500000X1.050000*%
G04 #@! TD*
G04 #@! TA.AperFunction,ComponentPad*
%ADD19R,1.727200X1.727200*%
G04 #@! TD*
G04 #@! TA.AperFunction,ComponentPad*
%ADD20O,1.727200X1.727200*%
G04 #@! TD*
G04 #@! TA.AperFunction,ViaPad*
%ADD21C,0.600000*%
G04 #@! TD*
G04 #@! TA.AperFunction,Conductor*
%ADD22C,0.250000*%
G04 #@! TD*
G04 #@! TA.AperFunction,Conductor*
%ADD23C,0.254000*%
G04 #@! TD*
G04 #@! TA.AperFunction,Conductor*
%ADD24C,0.100000*%
G04 #@! TD*
G04 APERTURE END LIST*
D10*
X166620000Y-54352400D03*
D11*
X166620000Y-51812400D03*
D10*
X160840000Y-54282400D03*
D11*
X160840000Y-51742400D03*
D10*
X155570000Y-54352400D03*
D11*
X155570000Y-51812400D03*
D12*
X160120000Y-67762400D03*
D13*
X157580000Y-67762400D03*
D12*
X160120000Y-64812400D03*
D13*
X157580000Y-64812400D03*
D12*
X160120000Y-61772400D03*
D13*
X157580000Y-61772400D03*
D14*
X134660000Y-114682000D03*
X152110000Y-116012000D03*
X152100000Y-99722400D03*
X148170000Y-71562400D03*
X148280000Y-92342400D03*
D15*
X123230000Y-54112400D03*
X123230000Y-51572400D03*
X123230000Y-49032400D03*
D16*
X123230000Y-46492400D03*
D15*
X159840000Y-101932400D03*
X159840000Y-99392400D03*
X159840000Y-96852400D03*
X159840000Y-94312400D03*
X159840000Y-91772400D03*
X159840000Y-89232400D03*
D16*
X159840000Y-86692400D03*
D12*
X125830000Y-58482400D03*
D13*
X125830000Y-61022400D03*
D12*
X128920000Y-58462400D03*
D13*
X128920000Y-61002400D03*
D15*
X122480000Y-125072000D03*
D16*
X122480000Y-122532000D03*
D17*
X161040000Y-121922000D03*
D18*
X161040000Y-124462000D03*
X161040000Y-123192000D03*
D12*
X152020000Y-88062400D03*
D13*
X144400000Y-88062400D03*
D15*
X159790000Y-80032400D03*
X159790000Y-77492400D03*
D16*
X159790000Y-74952400D03*
D12*
X152020000Y-85062400D03*
D13*
X144400000Y-85062400D03*
D12*
X152020000Y-82072400D03*
D13*
X144400000Y-82072400D03*
D12*
X152020000Y-79062400D03*
D13*
X144400000Y-79062400D03*
D12*
X152020000Y-76062400D03*
D13*
X144400000Y-76062400D03*
D15*
X159810000Y-116182000D03*
X159810000Y-113642000D03*
X159810000Y-111102000D03*
D16*
X159810000Y-108562000D03*
D15*
X142030000Y-116612400D03*
X142030000Y-114072400D03*
X142030000Y-111532400D03*
X142030000Y-108992400D03*
X142030000Y-106452400D03*
X142030000Y-103912400D03*
X142030000Y-101372400D03*
D16*
X142030000Y-98832400D03*
D15*
X131150000Y-54422400D03*
X131150000Y-51882400D03*
X131150000Y-49342400D03*
D16*
X131150000Y-46802400D03*
D15*
X137860000Y-93362400D03*
X137860000Y-90822400D03*
X137860000Y-88282400D03*
X137860000Y-85742400D03*
X137860000Y-83202400D03*
X137860000Y-80662400D03*
X137860000Y-78122400D03*
X137860000Y-75582400D03*
X137860000Y-73042400D03*
D16*
X137860000Y-70502400D03*
D15*
X125980000Y-115982000D03*
X125980000Y-113442000D03*
X125980000Y-110902000D03*
X125980000Y-108362000D03*
X125980000Y-105822000D03*
X125980000Y-103282000D03*
D16*
X125980000Y-100742000D03*
D15*
X130060000Y-93552400D03*
X130060000Y-91012400D03*
X130060000Y-88472400D03*
X130060000Y-85932400D03*
D16*
X130060000Y-83392400D03*
D15*
X125410000Y-93552400D03*
X125410000Y-91012400D03*
X125410000Y-88472400D03*
X125410000Y-85932400D03*
D16*
X125410000Y-83392400D03*
D15*
X129230000Y-76252400D03*
X129230000Y-73712400D03*
X129230000Y-71172400D03*
X129230000Y-68632400D03*
D16*
X129230000Y-66092400D03*
D15*
X125320000Y-76222400D03*
X125320000Y-73682400D03*
X125320000Y-71142400D03*
X125320000Y-68602400D03*
D16*
X125320000Y-66062400D03*
D15*
X117010000Y-58232400D03*
D16*
X117010000Y-55692400D03*
D15*
X155750000Y-124122000D03*
X155750000Y-126662000D03*
X153210000Y-124122000D03*
X153210000Y-126662000D03*
X150670000Y-124122000D03*
X150670000Y-126662000D03*
X148130000Y-124122000D03*
X148130000Y-126662000D03*
X145590000Y-124122000D03*
X145590000Y-126662000D03*
X143050000Y-124122000D03*
X143050000Y-126662000D03*
X140510000Y-124122000D03*
X140510000Y-126662000D03*
X137970000Y-124122000D03*
X137970000Y-126662000D03*
X135430000Y-124122000D03*
X135430000Y-126662000D03*
X132890000Y-124122000D03*
X132890000Y-126662000D03*
X130350000Y-124122000D03*
X130350000Y-126662000D03*
X127810000Y-124122000D03*
D16*
X127810000Y-126662000D03*
D15*
X155760000Y-121502000D03*
X153220000Y-121502000D03*
X150680000Y-121502000D03*
X148140000Y-121502000D03*
X145600000Y-121502000D03*
X143060000Y-121502000D03*
X140520000Y-121502000D03*
X137980000Y-121502000D03*
X135440000Y-121502000D03*
X132900000Y-121502000D03*
X130360000Y-121502000D03*
D16*
X127820000Y-121502000D03*
D19*
X164630000Y-62382400D03*
D20*
X167170000Y-62382400D03*
X164630000Y-64922400D03*
X167170000Y-64922400D03*
X164630000Y-67462400D03*
X167170000Y-67462400D03*
X164630000Y-70002400D03*
X167170000Y-70002400D03*
X164630000Y-72542400D03*
X167170000Y-72542400D03*
X164630000Y-75082400D03*
X167170000Y-75082400D03*
X164630000Y-77622400D03*
X167170000Y-77622400D03*
X164630000Y-80162400D03*
X167170000Y-80162400D03*
X164630000Y-82702400D03*
X167170000Y-82702400D03*
X164630000Y-85242400D03*
X167170000Y-85242400D03*
X164630000Y-87782400D03*
X167170000Y-87782400D03*
X164630000Y-90322400D03*
X167170000Y-90322400D03*
X164630000Y-92862400D03*
X167170000Y-92862400D03*
X164630000Y-95402400D03*
X167170000Y-95402400D03*
X164630000Y-97942400D03*
X167170000Y-97942400D03*
X164630000Y-100482400D03*
X167170000Y-100482400D03*
X164630000Y-103022400D03*
X167170000Y-103022400D03*
X164630000Y-105562400D03*
X167170000Y-105562400D03*
X164630000Y-108102400D03*
X167170000Y-108102400D03*
X164630000Y-110642400D03*
X167170000Y-110642400D03*
X164630000Y-113182400D03*
X167170000Y-113182400D03*
X164630000Y-115722400D03*
X167170000Y-115722400D03*
X164630000Y-118262400D03*
X167170000Y-118262400D03*
D19*
X116370000Y-62382400D03*
D20*
X118910000Y-62382400D03*
X116370000Y-64922400D03*
X118910000Y-64922400D03*
X116370000Y-67462400D03*
X118910000Y-67462400D03*
X116370000Y-70002400D03*
X118910000Y-70002400D03*
X116370000Y-72542400D03*
X118910000Y-72542400D03*
X116370000Y-75082400D03*
X118910000Y-75082400D03*
X116370000Y-77622400D03*
X118910000Y-77622400D03*
X116370000Y-80162400D03*
X118910000Y-80162400D03*
X116370000Y-82702400D03*
X118910000Y-82702400D03*
X116370000Y-85242400D03*
X118910000Y-85242400D03*
X116370000Y-87782400D03*
X118910000Y-87782400D03*
X116370000Y-90322400D03*
X118910000Y-90322400D03*
X116370000Y-92862400D03*
X118910000Y-92862400D03*
X116370000Y-95402400D03*
X118910000Y-95402400D03*
X116370000Y-97942400D03*
X118910000Y-97942400D03*
X116370000Y-100482400D03*
X118910000Y-100482400D03*
X116370000Y-103022400D03*
X118910000Y-103022400D03*
X116370000Y-105562400D03*
X118910000Y-105562400D03*
X116370000Y-108102400D03*
X118910000Y-108102400D03*
X116370000Y-110642400D03*
X118910000Y-110642400D03*
X116370000Y-113182400D03*
X118910000Y-113182400D03*
X116370000Y-115722400D03*
X118910000Y-115722400D03*
X116370000Y-118262400D03*
X118910000Y-118262400D03*
D21*
X155416300Y-112980500D03*
X121778000Y-78903400D03*
X123564600Y-88494300D03*
X132298100Y-106654200D03*
D22*
X128089700Y-85137400D02*
X128884700Y-85932400D01*
X126585300Y-85932400D02*
X127380300Y-85137400D01*
X127380300Y-85137400D02*
X128089700Y-85137400D01*
X129230000Y-69807700D02*
X129597300Y-69807700D01*
X129597300Y-69807700D02*
X130412700Y-70623100D01*
X130412700Y-70623100D02*
X130412700Y-78705700D01*
X130412700Y-78705700D02*
X128089700Y-81028700D01*
X128089700Y-81028700D02*
X128089700Y-85137400D01*
X130060000Y-85932400D02*
X128884700Y-85932400D01*
X129230000Y-68632400D02*
X129230000Y-69807700D01*
X126585300Y-85932400D02*
X126585300Y-98961400D01*
X126585300Y-98961400D02*
X125980000Y-99566700D01*
X125980000Y-100742000D02*
X125980000Y-99566700D01*
X125410000Y-85932400D02*
X126585300Y-85932400D01*
X130060000Y-83392400D02*
X130060000Y-82217100D01*
X129230000Y-66092400D02*
X128054700Y-66092400D01*
X125320000Y-66062400D02*
X128024700Y-66062400D01*
X128024700Y-66062400D02*
X128054700Y-66092400D01*
X129230000Y-66092400D02*
X129230000Y-64917100D01*
X131150000Y-46802400D02*
X131150000Y-47977700D01*
X131150000Y-47977700D02*
X130782700Y-47977700D01*
X130782700Y-47977700D02*
X129973800Y-48786600D01*
X129973800Y-48786600D02*
X129973800Y-56191200D01*
X129973800Y-56191200D02*
X130076500Y-56293900D01*
X130076500Y-56293900D02*
X130076500Y-64070600D01*
X130076500Y-64070600D02*
X129230000Y-64917100D01*
X130060000Y-82217100D02*
X130863100Y-81414000D01*
X130863100Y-81414000D02*
X130863100Y-68533500D01*
X130863100Y-68533500D02*
X129597300Y-67267700D01*
X129597300Y-67267700D02*
X129230000Y-67267700D01*
X129230000Y-66092400D02*
X129230000Y-67267700D01*
X117558900Y-70002400D02*
X117721100Y-70002400D01*
X117721100Y-70002400D02*
X117721100Y-72894600D01*
X117721100Y-72894600D02*
X116803300Y-73812400D01*
X116803300Y-73812400D02*
X115890700Y-73812400D01*
X115890700Y-73812400D02*
X115124800Y-74578300D01*
X115124800Y-74578300D02*
X115124800Y-113650300D01*
X115124800Y-113650300D02*
X115845900Y-114371400D01*
X115845900Y-114371400D02*
X116701400Y-114371400D01*
X116701400Y-114371400D02*
X117640000Y-115310000D01*
X117640000Y-115310000D02*
X117640000Y-118867300D01*
X117640000Y-118867300D02*
X121304700Y-122532000D01*
X118910000Y-70002400D02*
X117721100Y-70002400D01*
X116370000Y-70002400D02*
X117558900Y-70002400D01*
X122480000Y-122532000D02*
X121304700Y-122532000D01*
X117010000Y-55692400D02*
X117010000Y-56867700D01*
X116370000Y-72542400D02*
X116370000Y-71353500D01*
X116370000Y-71353500D02*
X115998500Y-71353500D01*
X115998500Y-71353500D02*
X115158200Y-70513200D01*
X115158200Y-70513200D02*
X115158200Y-58352200D01*
X115158200Y-58352200D02*
X116642700Y-56867700D01*
X116642700Y-56867700D02*
X117010000Y-56867700D01*
X140142700Y-125486700D02*
X139287600Y-124631600D01*
X139287600Y-124631600D02*
X139287600Y-117622800D01*
X139287600Y-117622800D02*
X141662700Y-115247700D01*
X141662700Y-115247700D02*
X142030000Y-115247700D01*
X140510000Y-125486700D02*
X140142700Y-125486700D01*
X139145300Y-126662000D02*
X139145300Y-126484100D01*
X139145300Y-126484100D02*
X140142700Y-125486700D01*
X137970000Y-126662000D02*
X139145300Y-126662000D01*
X165297600Y-63571300D02*
X165818900Y-64092600D01*
X165818900Y-64092600D02*
X165818900Y-73056800D01*
X165818900Y-73056800D02*
X165144300Y-73731400D01*
X165144300Y-73731400D02*
X164229100Y-73731400D01*
X164229100Y-73731400D02*
X160965300Y-76995200D01*
X160965300Y-76995200D02*
X160965300Y-78049200D01*
X160965300Y-78049200D02*
X160157400Y-78857100D01*
X160157400Y-78857100D02*
X159790000Y-78857100D01*
X164630000Y-63571300D02*
X165297600Y-63571300D01*
X165297600Y-63571300D02*
X165981100Y-62887800D01*
X165981100Y-62887800D02*
X165981100Y-62382400D01*
X167170000Y-62382400D02*
X165981100Y-62382400D01*
X142030000Y-114072400D02*
X142030000Y-112897100D01*
X142030000Y-101372400D02*
X142030000Y-102547700D01*
X142030000Y-102547700D02*
X142397300Y-102547700D01*
X142397300Y-102547700D02*
X143205300Y-103355700D01*
X143205300Y-103355700D02*
X143205300Y-112089200D01*
X143205300Y-112089200D02*
X142397400Y-112897100D01*
X142397400Y-112897100D02*
X142030000Y-112897100D01*
X142030000Y-114072400D02*
X142030000Y-115247700D01*
X140510000Y-126662000D02*
X140510000Y-125486700D01*
X130350000Y-126662000D02*
X129174700Y-126662000D01*
X127810000Y-126074300D02*
X128587000Y-126074300D01*
X128587000Y-126074300D02*
X129174700Y-126662000D01*
X127810000Y-126074300D02*
X127810000Y-125486700D01*
X127810000Y-126662000D02*
X127810000Y-126074300D01*
X118910000Y-62382400D02*
X117721100Y-62382400D01*
X116370000Y-61787900D02*
X117126600Y-61787900D01*
X117126600Y-61787900D02*
X117721100Y-62382400D01*
X116370000Y-61787900D02*
X116370000Y-61193500D01*
X116370000Y-62382400D02*
X116370000Y-61787900D01*
X116370000Y-118262400D02*
X116370000Y-115722400D01*
X164630000Y-62382400D02*
X164630000Y-63571300D01*
X159790000Y-80032400D02*
X159790000Y-78857100D01*
X159810000Y-116182000D02*
X159810000Y-117357300D01*
X130060000Y-88472400D02*
X130060000Y-89647700D01*
X125980000Y-103282000D02*
X125980000Y-102106700D01*
X125980000Y-102106700D02*
X126788100Y-102106700D01*
X126788100Y-102106700D02*
X128884700Y-100010100D01*
X128884700Y-100010100D02*
X128884700Y-90455600D01*
X128884700Y-90455600D02*
X129692600Y-89647700D01*
X129692600Y-89647700D02*
X130060000Y-89647700D01*
X137860000Y-73042400D02*
X137860000Y-71867100D01*
X131150000Y-54422400D02*
X131150000Y-65965100D01*
X131150000Y-65965100D02*
X137052000Y-71867100D01*
X137052000Y-71867100D02*
X137860000Y-71867100D01*
X127810000Y-125486700D02*
X127442700Y-125486700D01*
X127442700Y-125486700D02*
X125980000Y-124024000D01*
X125980000Y-124024000D02*
X125980000Y-115982000D01*
X159810000Y-116182000D02*
X159810000Y-115006700D01*
X159840000Y-101932400D02*
X159840000Y-103107700D01*
X159840000Y-103107700D02*
X160985300Y-104253000D01*
X160985300Y-104253000D02*
X160985300Y-114198800D01*
X160985300Y-114198800D02*
X160177400Y-115006700D01*
X160177400Y-115006700D02*
X159810000Y-115006700D01*
X161040000Y-124462000D02*
X162115300Y-124462000D01*
X162115300Y-124462000D02*
X162115300Y-119662600D01*
X162115300Y-119662600D02*
X159810000Y-117357300D01*
X152020000Y-82072400D02*
X152020000Y-85062400D01*
X137860000Y-74217700D02*
X138227300Y-74217700D01*
X138227300Y-74217700D02*
X139035300Y-75025700D01*
X139035300Y-75025700D02*
X139035300Y-86299200D01*
X139035300Y-86299200D02*
X138227400Y-87107100D01*
X138227400Y-87107100D02*
X137860000Y-87107100D01*
X137860000Y-88282400D02*
X137860000Y-87107100D01*
X137860000Y-73042400D02*
X137860000Y-74217700D01*
X118910000Y-115722400D02*
X118910000Y-114533500D01*
X118910000Y-103022400D02*
X118910000Y-104211300D01*
X118910000Y-104211300D02*
X118538500Y-104211300D01*
X118538500Y-104211300D02*
X117721100Y-105028700D01*
X117721100Y-105028700D02*
X117721100Y-113716200D01*
X117721100Y-113716200D02*
X118538400Y-114533500D01*
X118538400Y-114533500D02*
X118910000Y-114533500D01*
X116370000Y-61193500D02*
X117010000Y-60553500D01*
X117010000Y-60553500D02*
X117010000Y-58232400D01*
X150680000Y-121502000D02*
X151855300Y-121502000D01*
X164630000Y-115722400D02*
X164630000Y-116911300D01*
X164630000Y-116911300D02*
X164258400Y-116911300D01*
X164258400Y-116911300D02*
X163441100Y-117728600D01*
X163441100Y-117728600D02*
X163441100Y-123784800D01*
X163441100Y-123784800D02*
X161876400Y-125349500D01*
X161876400Y-125349500D02*
X160344500Y-125349500D01*
X160344500Y-125349500D02*
X157672300Y-122677300D01*
X157672300Y-122677300D02*
X152663200Y-122677300D01*
X152663200Y-122677300D02*
X151855300Y-121869400D01*
X151855300Y-121869400D02*
X151855300Y-121502000D01*
X164630000Y-97942400D02*
X163441100Y-97942400D01*
X163441100Y-97942400D02*
X160721100Y-100662400D01*
X160721100Y-100662400D02*
X159414900Y-100662400D01*
X159414900Y-100662400D02*
X155416300Y-104661000D01*
X155416300Y-104661000D02*
X155416300Y-112980500D01*
X130360000Y-121502000D02*
X130360000Y-113577000D01*
X130360000Y-113577000D02*
X140836700Y-103100300D01*
X140836700Y-103100300D02*
X140836700Y-89961500D01*
X140836700Y-89961500D02*
X143865900Y-86932300D01*
X143865900Y-86932300D02*
X148249900Y-86932300D01*
X148249900Y-86932300D02*
X154447800Y-93130200D01*
X154447800Y-93130200D02*
X161168900Y-93130200D01*
X161168900Y-93130200D02*
X163441100Y-95402400D01*
X164630000Y-95402400D02*
X163441100Y-95402400D01*
X127820000Y-121502000D02*
X127820000Y-115480100D01*
X127820000Y-115480100D02*
X140386400Y-102913700D01*
X140386400Y-102913700D02*
X140386400Y-89774900D01*
X140386400Y-89774900D02*
X143694000Y-86467300D01*
X143694000Y-86467300D02*
X153114100Y-86467300D01*
X153114100Y-86467300D02*
X157149200Y-90502400D01*
X157149200Y-90502400D02*
X160550000Y-90502400D01*
X160550000Y-90502400D02*
X164261100Y-94213500D01*
X164261100Y-94213500D02*
X165163800Y-94213500D01*
X165163800Y-94213500D02*
X165981100Y-95030800D01*
X165981100Y-95030800D02*
X165981100Y-95402400D01*
X167170000Y-95402400D02*
X165981100Y-95402400D01*
X148140000Y-121502000D02*
X149315300Y-121502000D01*
X167170000Y-115722400D02*
X167170000Y-116911300D01*
X167170000Y-116911300D02*
X166798400Y-116911300D01*
X166798400Y-116911300D02*
X165981100Y-117728600D01*
X165981100Y-117728600D02*
X165981100Y-121955200D01*
X165981100Y-121955200D02*
X160098900Y-127837400D01*
X160098900Y-127837400D02*
X155179400Y-127837400D01*
X155179400Y-127837400D02*
X154385400Y-127043400D01*
X154385400Y-127043400D02*
X154385400Y-126136400D01*
X154385400Y-126136400D02*
X153546400Y-125297400D01*
X153546400Y-125297400D02*
X152684400Y-125297400D01*
X152684400Y-125297400D02*
X151940000Y-124553000D01*
X151940000Y-124553000D02*
X151940000Y-123664200D01*
X151940000Y-123664200D02*
X150953100Y-122677300D01*
X150953100Y-122677300D02*
X150123200Y-122677300D01*
X150123200Y-122677300D02*
X149315300Y-121869400D01*
X149315300Y-121869400D02*
X149315300Y-121502000D01*
X125320000Y-76222400D02*
X125320000Y-75047100D01*
X125320000Y-75047100D02*
X124952700Y-75047100D01*
X124952700Y-75047100D02*
X123693300Y-73787700D01*
X123693300Y-73787700D02*
X123693300Y-63159100D01*
X123693300Y-63159100D02*
X125830000Y-61022400D01*
X128920000Y-58462400D02*
X128920000Y-59587700D01*
X125320000Y-73682400D02*
X125320000Y-72507100D01*
X125320000Y-72507100D02*
X124952700Y-72507100D01*
X124952700Y-72507100D02*
X124144600Y-71699000D01*
X124144600Y-71699000D02*
X124144600Y-65067700D01*
X124144600Y-65067700D02*
X127794700Y-61417600D01*
X127794700Y-61417600D02*
X127794700Y-60431600D01*
X127794700Y-60431600D02*
X128638600Y-59587700D01*
X128638600Y-59587700D02*
X128920000Y-59587700D01*
X128054700Y-73712400D02*
X128024700Y-73682400D01*
X128024700Y-73682400D02*
X125320000Y-73682400D01*
X129230000Y-73712400D02*
X128054700Y-73712400D01*
X125410000Y-93552400D02*
X125410000Y-92377100D01*
X121778000Y-78903400D02*
X124234700Y-81360100D01*
X124234700Y-81360100D02*
X124234700Y-91569200D01*
X124234700Y-91569200D02*
X125042600Y-92377100D01*
X125042600Y-92377100D02*
X125410000Y-92377100D01*
X118910000Y-95402400D02*
X118910000Y-94213500D01*
X118910000Y-94213500D02*
X119281500Y-94213500D01*
X119281500Y-94213500D02*
X123564600Y-89930400D01*
X123564600Y-89930400D02*
X123564600Y-88494300D01*
X124804700Y-109557000D02*
X124804700Y-111458800D01*
X124804700Y-111458800D02*
X125612600Y-112266700D01*
X125612600Y-112266700D02*
X125980000Y-112266700D01*
X116370000Y-99131300D02*
X116741600Y-99131300D01*
X116741600Y-99131300D02*
X117558900Y-99948600D01*
X117558900Y-99948600D02*
X117558900Y-100834600D01*
X117558900Y-100834600D02*
X118476700Y-101752400D01*
X118476700Y-101752400D02*
X119326300Y-101752400D01*
X119326300Y-101752400D02*
X124804700Y-107230800D01*
X124804700Y-107230800D02*
X124804700Y-109557000D01*
X124804700Y-109557000D02*
X126460700Y-109557000D01*
X126460700Y-109557000D02*
X136684700Y-99333000D01*
X136684700Y-99333000D02*
X136684700Y-85185600D01*
X136684700Y-85185600D02*
X137492600Y-84377700D01*
X137492600Y-84377700D02*
X137860000Y-84377700D01*
X137860000Y-83202400D02*
X137860000Y-84377700D01*
X125980000Y-113442000D02*
X125980000Y-112266700D01*
X116370000Y-97942400D02*
X116370000Y-99131300D01*
X137860000Y-79297700D02*
X137492700Y-79297700D01*
X137492700Y-79297700D02*
X135711200Y-81079200D01*
X135711200Y-81079200D02*
X135711200Y-98043100D01*
X135711200Y-98043100D02*
X125980000Y-107774300D01*
X137860000Y-78122400D02*
X137860000Y-79297700D01*
X125980000Y-107774300D02*
X125980000Y-107186700D01*
X125980000Y-108362000D02*
X125980000Y-107774300D01*
X118910000Y-97942400D02*
X118910000Y-99131300D01*
X118910000Y-99131300D02*
X119281600Y-99131300D01*
X119281600Y-99131300D02*
X120098900Y-99948600D01*
X120098900Y-99948600D02*
X120098900Y-101604900D01*
X120098900Y-101604900D02*
X125680700Y-107186700D01*
X125680700Y-107186700D02*
X125980000Y-107186700D01*
X125980000Y-104646700D02*
X126347300Y-104646700D01*
X126347300Y-104646700D02*
X132649200Y-98344800D01*
X132649200Y-98344800D02*
X132649200Y-81601200D01*
X132649200Y-81601200D02*
X137492700Y-76757700D01*
X137492700Y-76757700D02*
X137860000Y-76757700D01*
X125980000Y-105822000D02*
X125980000Y-104646700D01*
X137860000Y-75582400D02*
X137860000Y-76757700D01*
X132298100Y-106654200D02*
X139551600Y-99400700D01*
X139551600Y-99400700D02*
X139551600Y-89910800D01*
X139551600Y-89910800D02*
X144400000Y-85062400D01*
X150894700Y-79062400D02*
X144894700Y-85062400D01*
X144894700Y-85062400D02*
X144400000Y-85062400D01*
X152020000Y-79062400D02*
X150894700Y-79062400D01*
X144400000Y-82072400D02*
X139035400Y-87437000D01*
X139035400Y-87437000D02*
X139035400Y-99032600D01*
X139035400Y-99032600D02*
X131091100Y-106976900D01*
X131091100Y-106976900D02*
X131091100Y-109996600D01*
X131091100Y-109996600D02*
X126465600Y-114622100D01*
X126465600Y-114622100D02*
X124078600Y-114622100D01*
X124078600Y-114622100D02*
X120098900Y-110642400D01*
X118910000Y-110642400D02*
X120098900Y-110642400D01*
X150894700Y-76062400D02*
X144884700Y-82072400D01*
X144884700Y-82072400D02*
X144400000Y-82072400D01*
X152020000Y-76062400D02*
X150894700Y-76062400D01*
X144400000Y-79062400D02*
X142525400Y-77187800D01*
X142525400Y-77187800D02*
X142525400Y-71902000D01*
X142525400Y-71902000D02*
X132511900Y-61888500D01*
X132511900Y-61888500D02*
X132511900Y-51568000D01*
X132511900Y-51568000D02*
X131461600Y-50517700D01*
X131461600Y-50517700D02*
X131150000Y-50517700D01*
X131150000Y-49342400D02*
X131150000Y-50517700D01*
X144400000Y-88062400D02*
X144400000Y-103061400D01*
X144400000Y-103061400D02*
X159964700Y-118626100D01*
X159964700Y-118626100D02*
X159964700Y-123192000D01*
X161040000Y-123192000D02*
X159964700Y-123192000D01*
X123230000Y-49032400D02*
X123230000Y-50207700D01*
X116370000Y-87782400D02*
X116370000Y-86593500D01*
X116370000Y-86593500D02*
X116741600Y-86593500D01*
X116741600Y-86593500D02*
X117558900Y-85776200D01*
X117558900Y-85776200D02*
X117558900Y-84890200D01*
X117558900Y-84890200D02*
X118476700Y-83972400D01*
X118476700Y-83972400D02*
X119389300Y-83972400D01*
X119389300Y-83972400D02*
X120186800Y-83174900D01*
X120186800Y-83174900D02*
X120186800Y-52883600D01*
X120186800Y-52883600D02*
X122862700Y-50207700D01*
X122862700Y-50207700D02*
X123230000Y-50207700D01*
X118910000Y-86593500D02*
X119281500Y-86593500D01*
X119281500Y-86593500D02*
X121152700Y-84722300D01*
X121152700Y-84722300D02*
X121152700Y-54457700D01*
X121152700Y-54457700D02*
X122862700Y-52747700D01*
X122862700Y-52747700D02*
X123230000Y-52747700D01*
X123230000Y-51572400D02*
X123230000Y-52747700D01*
X118910000Y-87782400D02*
X118910000Y-86593500D01*
X164630000Y-72542400D02*
X164630000Y-71353500D01*
X164630000Y-71353500D02*
X164258400Y-71353500D01*
X164258400Y-71353500D02*
X163441100Y-70536200D01*
X163441100Y-70536200D02*
X163441100Y-69486300D01*
X163441100Y-69486300D02*
X160097600Y-66142800D01*
X160097600Y-66142800D02*
X159785600Y-66142800D01*
X159785600Y-66142800D02*
X158850000Y-65207200D01*
X158850000Y-65207200D02*
X158850000Y-63042400D01*
X158850000Y-63042400D02*
X157580000Y-61772400D01*
X159840000Y-86692400D02*
X159840000Y-85517100D01*
X164630000Y-82702400D02*
X163441100Y-82702400D01*
X163441100Y-82702400D02*
X160626400Y-85517100D01*
X160626400Y-85517100D02*
X159840000Y-85517100D01*
X159840000Y-89232400D02*
X159840000Y-88057100D01*
X167170000Y-82702400D02*
X165981100Y-82702400D01*
X165981100Y-82702400D02*
X165981100Y-83074000D01*
X165981100Y-83074000D02*
X165163800Y-83891300D01*
X165163800Y-83891300D02*
X164290000Y-83891300D01*
X164290000Y-83891300D02*
X161015300Y-87166000D01*
X161015300Y-87166000D02*
X161015300Y-87723000D01*
X161015300Y-87723000D02*
X160681200Y-88057100D01*
X160681200Y-88057100D02*
X159840000Y-88057100D01*
X160120000Y-61772400D02*
X160120000Y-58902400D01*
X160120000Y-58902400D02*
X155570000Y-54352400D01*
D23*
X123514801Y-115133103D02*
X123538599Y-115162101D01*
X123654324Y-115257074D01*
X123786353Y-115327646D01*
X123929614Y-115371103D01*
X124041267Y-115382100D01*
X124041275Y-115382100D01*
X124078600Y-115385776D01*
X124115925Y-115382100D01*
X124628806Y-115382100D01*
X124583175Y-115477901D01*
X124538524Y-115625110D01*
X124659845Y-115855000D01*
X125853000Y-115855000D01*
X125853000Y-115835000D01*
X126107000Y-115835000D01*
X126107000Y-115855000D01*
X126127000Y-115855000D01*
X126127000Y-116109000D01*
X126107000Y-116109000D01*
X126107000Y-117302814D01*
X126336891Y-117423481D01*
X126611252Y-117326157D01*
X126861355Y-117177178D01*
X127060001Y-116998122D01*
X127060000Y-120013928D01*
X126970000Y-120013928D01*
X126845518Y-120026188D01*
X126725820Y-120062498D01*
X126615506Y-120121463D01*
X126518815Y-120200815D01*
X126439463Y-120297506D01*
X126380498Y-120407820D01*
X126344188Y-120527518D01*
X126331928Y-120652000D01*
X126331928Y-122352000D01*
X126344188Y-122476482D01*
X126380498Y-122596180D01*
X126439463Y-122706494D01*
X126518815Y-122803185D01*
X126615506Y-122882537D01*
X126725820Y-122941502D01*
X126845518Y-122977812D01*
X126853313Y-122978580D01*
X126656525Y-123175368D01*
X126494010Y-123418589D01*
X126382068Y-123688842D01*
X126325000Y-123975740D01*
X126325000Y-124268260D01*
X126382068Y-124555158D01*
X126494010Y-124825411D01*
X126656525Y-125068632D01*
X126788380Y-125200487D01*
X126715820Y-125222498D01*
X126605506Y-125281463D01*
X126508815Y-125360815D01*
X126429463Y-125457506D01*
X126370498Y-125567820D01*
X126334188Y-125687518D01*
X126321928Y-125812000D01*
X126325000Y-126376250D01*
X126483750Y-126535000D01*
X127683000Y-126535000D01*
X127683000Y-126515000D01*
X127937000Y-126515000D01*
X127937000Y-126535000D01*
X130223000Y-126535000D01*
X130223000Y-126515000D01*
X130477000Y-126515000D01*
X130477000Y-126535000D01*
X132763000Y-126535000D01*
X132763000Y-126515000D01*
X133017000Y-126515000D01*
X133017000Y-126535000D01*
X135303000Y-126535000D01*
X135303000Y-126515000D01*
X135557000Y-126515000D01*
X135557000Y-126535000D01*
X137843000Y-126535000D01*
X137843000Y-126515000D01*
X138097000Y-126515000D01*
X138097000Y-126535000D01*
X140383000Y-126535000D01*
X140383000Y-126515000D01*
X140637000Y-126515000D01*
X140637000Y-126535000D01*
X142923000Y-126535000D01*
X142923000Y-126515000D01*
X143177000Y-126515000D01*
X143177000Y-126535000D01*
X145463000Y-126535000D01*
X145463000Y-126515000D01*
X145717000Y-126515000D01*
X145717000Y-126535000D01*
X148003000Y-126535000D01*
X148003000Y-126515000D01*
X148257000Y-126515000D01*
X148257000Y-126535000D01*
X150543000Y-126535000D01*
X150543000Y-126515000D01*
X150797000Y-126515000D01*
X150797000Y-126535000D01*
X153083000Y-126535000D01*
X153083000Y-126515000D01*
X153337000Y-126515000D01*
X153337000Y-126535000D01*
X153357000Y-126535000D01*
X153357000Y-126789000D01*
X153337000Y-126789000D01*
X153337000Y-127982155D01*
X153566890Y-128103476D01*
X153714099Y-128058825D01*
X153976920Y-127933641D01*
X154105175Y-127837977D01*
X154615601Y-128348402D01*
X154639399Y-128377401D01*
X154668397Y-128401199D01*
X154692683Y-128421130D01*
X127182875Y-128421130D01*
X125820482Y-128344961D01*
X124492617Y-128120369D01*
X123198070Y-127749164D01*
X122622669Y-127512000D01*
X126321928Y-127512000D01*
X126334188Y-127636482D01*
X126370498Y-127756180D01*
X126429463Y-127866494D01*
X126508815Y-127963185D01*
X126605506Y-128042537D01*
X126715820Y-128101502D01*
X126835518Y-128137812D01*
X126960000Y-128150072D01*
X127524250Y-128147000D01*
X127683000Y-127988250D01*
X127683000Y-126789000D01*
X127937000Y-126789000D01*
X127937000Y-127988250D01*
X128095750Y-128147000D01*
X128660000Y-128150072D01*
X128784482Y-128137812D01*
X128904180Y-128101502D01*
X129014494Y-128042537D01*
X129111185Y-127963185D01*
X129190537Y-127866494D01*
X129249502Y-127756180D01*
X129273966Y-127675534D01*
X129349731Y-127759588D01*
X129583080Y-127933641D01*
X129845901Y-128058825D01*
X129993110Y-128103476D01*
X130223000Y-127982155D01*
X130223000Y-126789000D01*
X130477000Y-126789000D01*
X130477000Y-127982155D01*
X130706890Y-128103476D01*
X130854099Y-128058825D01*
X131116920Y-127933641D01*
X131350269Y-127759588D01*
X131545178Y-127543355D01*
X131620000Y-127417745D01*
X131694822Y-127543355D01*
X131889731Y-127759588D01*
X132123080Y-127933641D01*
X132385901Y-128058825D01*
X132533110Y-128103476D01*
X132763000Y-127982155D01*
X132763000Y-126789000D01*
X133017000Y-126789000D01*
X133017000Y-127982155D01*
X133246890Y-128103476D01*
X133394099Y-128058825D01*
X133656920Y-127933641D01*
X133890269Y-127759588D01*
X134085178Y-127543355D01*
X134160000Y-127417745D01*
X134234822Y-127543355D01*
X134429731Y-127759588D01*
X134663080Y-127933641D01*
X134925901Y-128058825D01*
X135073110Y-128103476D01*
X135303000Y-127982155D01*
X135303000Y-126789000D01*
X135557000Y-126789000D01*
X135557000Y-127982155D01*
X135786890Y-128103476D01*
X135934099Y-128058825D01*
X136196920Y-127933641D01*
X136430269Y-127759588D01*
X136625178Y-127543355D01*
X136700000Y-127417745D01*
X136774822Y-127543355D01*
X136969731Y-127759588D01*
X137203080Y-127933641D01*
X137465901Y-128058825D01*
X137613110Y-128103476D01*
X137843000Y-127982155D01*
X137843000Y-126789000D01*
X138097000Y-126789000D01*
X138097000Y-127982155D01*
X138326890Y-128103476D01*
X138474099Y-128058825D01*
X138736920Y-127933641D01*
X138970269Y-127759588D01*
X139165178Y-127543355D01*
X139240000Y-127417745D01*
X139314822Y-127543355D01*
X139509731Y-127759588D01*
X139743080Y-127933641D01*
X140005901Y-128058825D01*
X140153110Y-128103476D01*
X140383000Y-127982155D01*
X140383000Y-126789000D01*
X140637000Y-126789000D01*
X140637000Y-127982155D01*
X140866890Y-128103476D01*
X141014099Y-128058825D01*
X141276920Y-127933641D01*
X141510269Y-127759588D01*
X141705178Y-127543355D01*
X141780000Y-127417745D01*
X141854822Y-127543355D01*
X142049731Y-127759588D01*
X142283080Y-127933641D01*
X142545901Y-128058825D01*
X142693110Y-128103476D01*
X142923000Y-127982155D01*
X142923000Y-126789000D01*
X143177000Y-126789000D01*
X143177000Y-127982155D01*
X143406890Y-128103476D01*
X143554099Y-128058825D01*
X143816920Y-127933641D01*
X144050269Y-127759588D01*
X144245178Y-127543355D01*
X144320000Y-127417745D01*
X144394822Y-127543355D01*
X144589731Y-127759588D01*
X144823080Y-127933641D01*
X145085901Y-128058825D01*
X145233110Y-128103476D01*
X145463000Y-127982155D01*
X145463000Y-126789000D01*
X145717000Y-126789000D01*
X145717000Y-127982155D01*
X145946890Y-128103476D01*
X146094099Y-128058825D01*
X146356920Y-127933641D01*
X146590269Y-127759588D01*
X146785178Y-127543355D01*
X146860000Y-127417745D01*
X146934822Y-127543355D01*
X147129731Y-127759588D01*
X147363080Y-127933641D01*
X147625901Y-128058825D01*
X147773110Y-128103476D01*
X148003000Y-127982155D01*
X148003000Y-126789000D01*
X148257000Y-126789000D01*
X148257000Y-127982155D01*
X148486890Y-128103476D01*
X148634099Y-128058825D01*
X148896920Y-127933641D01*
X149130269Y-127759588D01*
X149325178Y-127543355D01*
X149400000Y-127417745D01*
X149474822Y-127543355D01*
X149669731Y-127759588D01*
X149903080Y-127933641D01*
X150165901Y-128058825D01*
X150313110Y-128103476D01*
X150543000Y-127982155D01*
X150543000Y-126789000D01*
X150797000Y-126789000D01*
X150797000Y-127982155D01*
X151026890Y-128103476D01*
X151174099Y-128058825D01*
X151436920Y-127933641D01*
X151670269Y-127759588D01*
X151865178Y-127543355D01*
X151940000Y-127417745D01*
X152014822Y-127543355D01*
X152209731Y-127759588D01*
X152443080Y-127933641D01*
X152705901Y-128058825D01*
X152853110Y-128103476D01*
X153083000Y-127982155D01*
X153083000Y-126789000D01*
X150797000Y-126789000D01*
X150543000Y-126789000D01*
X148257000Y-126789000D01*
X148003000Y-126789000D01*
X145717000Y-126789000D01*
X145463000Y-126789000D01*
X143177000Y-126789000D01*
X142923000Y-126789000D01*
X140637000Y-126789000D01*
X140383000Y-126789000D01*
X138097000Y-126789000D01*
X137843000Y-126789000D01*
X135557000Y-126789000D01*
X135303000Y-126789000D01*
X133017000Y-126789000D01*
X132763000Y-126789000D01*
X130477000Y-126789000D01*
X130223000Y-126789000D01*
X127937000Y-126789000D01*
X127683000Y-126789000D01*
X126483750Y-126789000D01*
X126325000Y-126947750D01*
X126321928Y-127512000D01*
X122622669Y-127512000D01*
X121952963Y-127235967D01*
X120772826Y-126587182D01*
X119672356Y-125810886D01*
X118665281Y-124916762D01*
X117764149Y-123915953D01*
X116980196Y-122820939D01*
X116323187Y-121645361D01*
X115801309Y-120403863D01*
X115535713Y-119501446D01*
X115734022Y-119619364D01*
X116010973Y-119717363D01*
X116243000Y-119596864D01*
X116243000Y-118389400D01*
X116223000Y-118389400D01*
X116223000Y-118135400D01*
X116243000Y-118135400D01*
X116243000Y-115849400D01*
X116223000Y-115849400D01*
X116223000Y-115595400D01*
X116243000Y-115595400D01*
X116243000Y-115575400D01*
X116497000Y-115575400D01*
X116497000Y-115595400D01*
X116517000Y-115595400D01*
X116517000Y-115849400D01*
X116497000Y-115849400D01*
X116497000Y-118135400D01*
X116517000Y-118135400D01*
X116517000Y-118389400D01*
X116497000Y-118389400D01*
X116497000Y-119596864D01*
X116729027Y-119717363D01*
X117005978Y-119619364D01*
X117201188Y-119503289D01*
X120740905Y-123043008D01*
X120764699Y-123072001D01*
X120793692Y-123095795D01*
X120793696Y-123095799D01*
X120826170Y-123122449D01*
X120880424Y-123166974D01*
X120991928Y-123226575D01*
X120991928Y-123382000D01*
X121004188Y-123506482D01*
X121040498Y-123626180D01*
X121099463Y-123736494D01*
X121178815Y-123833185D01*
X121275506Y-123912537D01*
X121385820Y-123971502D01*
X121458380Y-123993513D01*
X121326525Y-124125368D01*
X121164010Y-124368589D01*
X121052068Y-124638842D01*
X120995000Y-124925740D01*
X120995000Y-125218260D01*
X121052068Y-125505158D01*
X121164010Y-125775411D01*
X121326525Y-126018632D01*
X121533368Y-126225475D01*
X121776589Y-126387990D01*
X122046842Y-126499932D01*
X122333740Y-126557000D01*
X122626260Y-126557000D01*
X122913158Y-126499932D01*
X123183411Y-126387990D01*
X123426632Y-126225475D01*
X123633475Y-126018632D01*
X123795990Y-125775411D01*
X123907932Y-125505158D01*
X123965000Y-125218260D01*
X123965000Y-124925740D01*
X123907932Y-124638842D01*
X123795990Y-124368589D01*
X123633475Y-124125368D01*
X123501620Y-123993513D01*
X123574180Y-123971502D01*
X123684494Y-123912537D01*
X123781185Y-123833185D01*
X123860537Y-123736494D01*
X123919502Y-123626180D01*
X123955812Y-123506482D01*
X123968072Y-123382000D01*
X123968072Y-121682000D01*
X123955812Y-121557518D01*
X123919502Y-121437820D01*
X123860537Y-121327506D01*
X123781185Y-121230815D01*
X123684494Y-121151463D01*
X123574180Y-121092498D01*
X123454482Y-121056188D01*
X123330000Y-121043928D01*
X121630000Y-121043928D01*
X121505518Y-121056188D01*
X121385820Y-121092498D01*
X121275506Y-121151463D01*
X121178815Y-121230815D01*
X121133515Y-121286013D01*
X119487543Y-119640041D01*
X119545978Y-119619364D01*
X119798488Y-119469217D01*
X120016854Y-119272693D01*
X120192684Y-119037344D01*
X120319222Y-118772214D01*
X120364958Y-118621426D01*
X120243817Y-118389400D01*
X119037000Y-118389400D01*
X119037000Y-118409400D01*
X118783000Y-118409400D01*
X118783000Y-118389400D01*
X118763000Y-118389400D01*
X118763000Y-118135400D01*
X118783000Y-118135400D01*
X118783000Y-115849400D01*
X119037000Y-115849400D01*
X119037000Y-118135400D01*
X120243817Y-118135400D01*
X120364958Y-117903374D01*
X120319222Y-117752586D01*
X120192684Y-117487456D01*
X120016854Y-117252107D01*
X119798488Y-117055583D01*
X119692230Y-116992400D01*
X119798488Y-116929217D01*
X120016854Y-116732693D01*
X120192684Y-116497344D01*
X120268308Y-116338890D01*
X124538524Y-116338890D01*
X124583175Y-116486099D01*
X124708359Y-116748920D01*
X124882412Y-116982269D01*
X125098645Y-117177178D01*
X125348748Y-117326157D01*
X125623109Y-117423481D01*
X125853000Y-117302814D01*
X125853000Y-116109000D01*
X124659845Y-116109000D01*
X124538524Y-116338890D01*
X120268308Y-116338890D01*
X120319222Y-116232214D01*
X120364958Y-116081426D01*
X120243817Y-115849400D01*
X119037000Y-115849400D01*
X118783000Y-115849400D01*
X118763000Y-115849400D01*
X118763000Y-115595400D01*
X118783000Y-115595400D01*
X118783000Y-115575400D01*
X119037000Y-115575400D01*
X119037000Y-115595400D01*
X120243817Y-115595400D01*
X120364958Y-115363374D01*
X120319222Y-115212586D01*
X120192684Y-114947456D01*
X120016854Y-114712107D01*
X119798488Y-114515583D01*
X119699897Y-114456959D01*
X119865302Y-114346439D01*
X120074039Y-114137702D01*
X120238042Y-113892253D01*
X120351010Y-113619525D01*
X120408600Y-113329999D01*
X120408600Y-113034801D01*
X120351010Y-112745275D01*
X120238042Y-112472547D01*
X120074039Y-112227098D01*
X119865302Y-112018361D01*
X119706719Y-111912400D01*
X119865302Y-111806439D01*
X120026720Y-111645021D01*
X123514801Y-115133103D01*
G04 #@! TA.AperFunction,Conductor*
D24*
G36*
X123514801Y-115133103D02*
G01*
X123538599Y-115162101D01*
X123654324Y-115257074D01*
X123786353Y-115327646D01*
X123929614Y-115371103D01*
X124041267Y-115382100D01*
X124041275Y-115382100D01*
X124078600Y-115385776D01*
X124115925Y-115382100D01*
X124628806Y-115382100D01*
X124583175Y-115477901D01*
X124538524Y-115625110D01*
X124659845Y-115855000D01*
X125853000Y-115855000D01*
X125853000Y-115835000D01*
X126107000Y-115835000D01*
X126107000Y-115855000D01*
X126127000Y-115855000D01*
X126127000Y-116109000D01*
X126107000Y-116109000D01*
X126107000Y-117302814D01*
X126336891Y-117423481D01*
X126611252Y-117326157D01*
X126861355Y-117177178D01*
X127060001Y-116998122D01*
X127060000Y-120013928D01*
X126970000Y-120013928D01*
X126845518Y-120026188D01*
X126725820Y-120062498D01*
X126615506Y-120121463D01*
X126518815Y-120200815D01*
X126439463Y-120297506D01*
X126380498Y-120407820D01*
X126344188Y-120527518D01*
X126331928Y-120652000D01*
X126331928Y-122352000D01*
X126344188Y-122476482D01*
X126380498Y-122596180D01*
X126439463Y-122706494D01*
X126518815Y-122803185D01*
X126615506Y-122882537D01*
X126725820Y-122941502D01*
X126845518Y-122977812D01*
X126853313Y-122978580D01*
X126656525Y-123175368D01*
X126494010Y-123418589D01*
X126382068Y-123688842D01*
X126325000Y-123975740D01*
X126325000Y-124268260D01*
X126382068Y-124555158D01*
X126494010Y-124825411D01*
X126656525Y-125068632D01*
X126788380Y-125200487D01*
X126715820Y-125222498D01*
X126605506Y-125281463D01*
X126508815Y-125360815D01*
X126429463Y-125457506D01*
X126370498Y-125567820D01*
X126334188Y-125687518D01*
X126321928Y-125812000D01*
X126325000Y-126376250D01*
X126483750Y-126535000D01*
X127683000Y-126535000D01*
X127683000Y-126515000D01*
X127937000Y-126515000D01*
X127937000Y-126535000D01*
X130223000Y-126535000D01*
X130223000Y-126515000D01*
X130477000Y-126515000D01*
X130477000Y-126535000D01*
X132763000Y-126535000D01*
X132763000Y-126515000D01*
X133017000Y-126515000D01*
X133017000Y-126535000D01*
X135303000Y-126535000D01*
X135303000Y-126515000D01*
X135557000Y-126515000D01*
X135557000Y-126535000D01*
X137843000Y-126535000D01*
X137843000Y-126515000D01*
X138097000Y-126515000D01*
X138097000Y-126535000D01*
X140383000Y-126535000D01*
X140383000Y-126515000D01*
X140637000Y-126515000D01*
X140637000Y-126535000D01*
X142923000Y-126535000D01*
X142923000Y-126515000D01*
X143177000Y-126515000D01*
X143177000Y-126535000D01*
X145463000Y-126535000D01*
X145463000Y-126515000D01*
X145717000Y-126515000D01*
X145717000Y-126535000D01*
X148003000Y-126535000D01*
X148003000Y-126515000D01*
X148257000Y-126515000D01*
X148257000Y-126535000D01*
X150543000Y-126535000D01*
X150543000Y-126515000D01*
X150797000Y-126515000D01*
X150797000Y-126535000D01*
X153083000Y-126535000D01*
X153083000Y-126515000D01*
X153337000Y-126515000D01*
X153337000Y-126535000D01*
X153357000Y-126535000D01*
X153357000Y-126789000D01*
X153337000Y-126789000D01*
X153337000Y-127982155D01*
X153566890Y-128103476D01*
X153714099Y-128058825D01*
X153976920Y-127933641D01*
X154105175Y-127837977D01*
X154615601Y-128348402D01*
X154639399Y-128377401D01*
X154668397Y-128401199D01*
X154692683Y-128421130D01*
X127182875Y-128421130D01*
X125820482Y-128344961D01*
X124492617Y-128120369D01*
X123198070Y-127749164D01*
X122622669Y-127512000D01*
X126321928Y-127512000D01*
X126334188Y-127636482D01*
X126370498Y-127756180D01*
X126429463Y-127866494D01*
X126508815Y-127963185D01*
X126605506Y-128042537D01*
X126715820Y-128101502D01*
X126835518Y-128137812D01*
X126960000Y-128150072D01*
X127524250Y-128147000D01*
X127683000Y-127988250D01*
X127683000Y-126789000D01*
X127937000Y-126789000D01*
X127937000Y-127988250D01*
X128095750Y-128147000D01*
X128660000Y-128150072D01*
X128784482Y-128137812D01*
X128904180Y-128101502D01*
X129014494Y-128042537D01*
X129111185Y-127963185D01*
X129190537Y-127866494D01*
X129249502Y-127756180D01*
X129273966Y-127675534D01*
X129349731Y-127759588D01*
X129583080Y-127933641D01*
X129845901Y-128058825D01*
X129993110Y-128103476D01*
X130223000Y-127982155D01*
X130223000Y-126789000D01*
X130477000Y-126789000D01*
X130477000Y-127982155D01*
X130706890Y-128103476D01*
X130854099Y-128058825D01*
X131116920Y-127933641D01*
X131350269Y-127759588D01*
X131545178Y-127543355D01*
X131620000Y-127417745D01*
X131694822Y-127543355D01*
X131889731Y-127759588D01*
X132123080Y-127933641D01*
X132385901Y-128058825D01*
X132533110Y-128103476D01*
X132763000Y-127982155D01*
X132763000Y-126789000D01*
X133017000Y-126789000D01*
X133017000Y-127982155D01*
X133246890Y-128103476D01*
X133394099Y-128058825D01*
X133656920Y-127933641D01*
X133890269Y-127759588D01*
X134085178Y-127543355D01*
X134160000Y-127417745D01*
X134234822Y-127543355D01*
X134429731Y-127759588D01*
X134663080Y-127933641D01*
X134925901Y-128058825D01*
X135073110Y-128103476D01*
X135303000Y-127982155D01*
X135303000Y-126789000D01*
X135557000Y-126789000D01*
X135557000Y-127982155D01*
X135786890Y-128103476D01*
X135934099Y-128058825D01*
X136196920Y-127933641D01*
X136430269Y-127759588D01*
X136625178Y-127543355D01*
X136700000Y-127417745D01*
X136774822Y-127543355D01*
X136969731Y-127759588D01*
X137203080Y-127933641D01*
X137465901Y-128058825D01*
X137613110Y-128103476D01*
X137843000Y-127982155D01*
X137843000Y-126789000D01*
X138097000Y-126789000D01*
X138097000Y-127982155D01*
X138326890Y-128103476D01*
X138474099Y-128058825D01*
X138736920Y-127933641D01*
X138970269Y-127759588D01*
X139165178Y-127543355D01*
X139240000Y-127417745D01*
X139314822Y-127543355D01*
X139509731Y-127759588D01*
X139743080Y-127933641D01*
X140005901Y-128058825D01*
X140153110Y-128103476D01*
X140383000Y-127982155D01*
X140383000Y-126789000D01*
X140637000Y-126789000D01*
X140637000Y-127982155D01*
X140866890Y-128103476D01*
X141014099Y-128058825D01*
X141276920Y-127933641D01*
X141510269Y-127759588D01*
X141705178Y-127543355D01*
X141780000Y-127417745D01*
X141854822Y-127543355D01*
X142049731Y-127759588D01*
X142283080Y-127933641D01*
X142545901Y-128058825D01*
X142693110Y-128103476D01*
X142923000Y-127982155D01*
X142923000Y-126789000D01*
X143177000Y-126789000D01*
X143177000Y-127982155D01*
X143406890Y-128103476D01*
X143554099Y-128058825D01*
X143816920Y-127933641D01*
X144050269Y-127759588D01*
X144245178Y-127543355D01*
X144320000Y-127417745D01*
X144394822Y-127543355D01*
X144589731Y-127759588D01*
X144823080Y-127933641D01*
X145085901Y-128058825D01*
X145233110Y-128103476D01*
X145463000Y-127982155D01*
X145463000Y-126789000D01*
X145717000Y-126789000D01*
X145717000Y-127982155D01*
X145946890Y-128103476D01*
X146094099Y-128058825D01*
X146356920Y-127933641D01*
X146590269Y-127759588D01*
X146785178Y-127543355D01*
X146860000Y-127417745D01*
X146934822Y-127543355D01*
X147129731Y-127759588D01*
X147363080Y-127933641D01*
X147625901Y-128058825D01*
X147773110Y-128103476D01*
X148003000Y-127982155D01*
X148003000Y-126789000D01*
X148257000Y-126789000D01*
X148257000Y-127982155D01*
X148486890Y-128103476D01*
X148634099Y-128058825D01*
X148896920Y-127933641D01*
X149130269Y-127759588D01*
X149325178Y-127543355D01*
X149400000Y-127417745D01*
X149474822Y-127543355D01*
X149669731Y-127759588D01*
X149903080Y-127933641D01*
X150165901Y-128058825D01*
X150313110Y-128103476D01*
X150543000Y-127982155D01*
X150543000Y-126789000D01*
X150797000Y-126789000D01*
X150797000Y-127982155D01*
X151026890Y-128103476D01*
X151174099Y-128058825D01*
X151436920Y-127933641D01*
X151670269Y-127759588D01*
X151865178Y-127543355D01*
X151940000Y-127417745D01*
X152014822Y-127543355D01*
X152209731Y-127759588D01*
X152443080Y-127933641D01*
X152705901Y-128058825D01*
X152853110Y-128103476D01*
X153083000Y-127982155D01*
X153083000Y-126789000D01*
X150797000Y-126789000D01*
X150543000Y-126789000D01*
X148257000Y-126789000D01*
X148003000Y-126789000D01*
X145717000Y-126789000D01*
X145463000Y-126789000D01*
X143177000Y-126789000D01*
X142923000Y-126789000D01*
X140637000Y-126789000D01*
X140383000Y-126789000D01*
X138097000Y-126789000D01*
X137843000Y-126789000D01*
X135557000Y-126789000D01*
X135303000Y-126789000D01*
X133017000Y-126789000D01*
X132763000Y-126789000D01*
X130477000Y-126789000D01*
X130223000Y-126789000D01*
X127937000Y-126789000D01*
X127683000Y-126789000D01*
X126483750Y-126789000D01*
X126325000Y-126947750D01*
X126321928Y-127512000D01*
X122622669Y-127512000D01*
X121952963Y-127235967D01*
X120772826Y-126587182D01*
X119672356Y-125810886D01*
X118665281Y-124916762D01*
X117764149Y-123915953D01*
X116980196Y-122820939D01*
X116323187Y-121645361D01*
X115801309Y-120403863D01*
X115535713Y-119501446D01*
X115734022Y-119619364D01*
X116010973Y-119717363D01*
X116243000Y-119596864D01*
X116243000Y-118389400D01*
X116223000Y-118389400D01*
X116223000Y-118135400D01*
X116243000Y-118135400D01*
X116243000Y-115849400D01*
X116223000Y-115849400D01*
X116223000Y-115595400D01*
X116243000Y-115595400D01*
X116243000Y-115575400D01*
X116497000Y-115575400D01*
X116497000Y-115595400D01*
X116517000Y-115595400D01*
X116517000Y-115849400D01*
X116497000Y-115849400D01*
X116497000Y-118135400D01*
X116517000Y-118135400D01*
X116517000Y-118389400D01*
X116497000Y-118389400D01*
X116497000Y-119596864D01*
X116729027Y-119717363D01*
X117005978Y-119619364D01*
X117201188Y-119503289D01*
X120740905Y-123043008D01*
X120764699Y-123072001D01*
X120793692Y-123095795D01*
X120793696Y-123095799D01*
X120826170Y-123122449D01*
X120880424Y-123166974D01*
X120991928Y-123226575D01*
X120991928Y-123382000D01*
X121004188Y-123506482D01*
X121040498Y-123626180D01*
X121099463Y-123736494D01*
X121178815Y-123833185D01*
X121275506Y-123912537D01*
X121385820Y-123971502D01*
X121458380Y-123993513D01*
X121326525Y-124125368D01*
X121164010Y-124368589D01*
X121052068Y-124638842D01*
X120995000Y-124925740D01*
X120995000Y-125218260D01*
X121052068Y-125505158D01*
X121164010Y-125775411D01*
X121326525Y-126018632D01*
X121533368Y-126225475D01*
X121776589Y-126387990D01*
X122046842Y-126499932D01*
X122333740Y-126557000D01*
X122626260Y-126557000D01*
X122913158Y-126499932D01*
X123183411Y-126387990D01*
X123426632Y-126225475D01*
X123633475Y-126018632D01*
X123795990Y-125775411D01*
X123907932Y-125505158D01*
X123965000Y-125218260D01*
X123965000Y-124925740D01*
X123907932Y-124638842D01*
X123795990Y-124368589D01*
X123633475Y-124125368D01*
X123501620Y-123993513D01*
X123574180Y-123971502D01*
X123684494Y-123912537D01*
X123781185Y-123833185D01*
X123860537Y-123736494D01*
X123919502Y-123626180D01*
X123955812Y-123506482D01*
X123968072Y-123382000D01*
X123968072Y-121682000D01*
X123955812Y-121557518D01*
X123919502Y-121437820D01*
X123860537Y-121327506D01*
X123781185Y-121230815D01*
X123684494Y-121151463D01*
X123574180Y-121092498D01*
X123454482Y-121056188D01*
X123330000Y-121043928D01*
X121630000Y-121043928D01*
X121505518Y-121056188D01*
X121385820Y-121092498D01*
X121275506Y-121151463D01*
X121178815Y-121230815D01*
X121133515Y-121286013D01*
X119487543Y-119640041D01*
X119545978Y-119619364D01*
X119798488Y-119469217D01*
X120016854Y-119272693D01*
X120192684Y-119037344D01*
X120319222Y-118772214D01*
X120364958Y-118621426D01*
X120243817Y-118389400D01*
X119037000Y-118389400D01*
X119037000Y-118409400D01*
X118783000Y-118409400D01*
X118783000Y-118389400D01*
X118763000Y-118389400D01*
X118763000Y-118135400D01*
X118783000Y-118135400D01*
X118783000Y-115849400D01*
X119037000Y-115849400D01*
X119037000Y-118135400D01*
X120243817Y-118135400D01*
X120364958Y-117903374D01*
X120319222Y-117752586D01*
X120192684Y-117487456D01*
X120016854Y-117252107D01*
X119798488Y-117055583D01*
X119692230Y-116992400D01*
X119798488Y-116929217D01*
X120016854Y-116732693D01*
X120192684Y-116497344D01*
X120268308Y-116338890D01*
X124538524Y-116338890D01*
X124583175Y-116486099D01*
X124708359Y-116748920D01*
X124882412Y-116982269D01*
X125098645Y-117177178D01*
X125348748Y-117326157D01*
X125623109Y-117423481D01*
X125853000Y-117302814D01*
X125853000Y-116109000D01*
X124659845Y-116109000D01*
X124538524Y-116338890D01*
X120268308Y-116338890D01*
X120319222Y-116232214D01*
X120364958Y-116081426D01*
X120243817Y-115849400D01*
X119037000Y-115849400D01*
X118783000Y-115849400D01*
X118763000Y-115849400D01*
X118763000Y-115595400D01*
X118783000Y-115595400D01*
X118783000Y-115575400D01*
X119037000Y-115575400D01*
X119037000Y-115595400D01*
X120243817Y-115595400D01*
X120364958Y-115363374D01*
X120319222Y-115212586D01*
X120192684Y-114947456D01*
X120016854Y-114712107D01*
X119798488Y-114515583D01*
X119699897Y-114456959D01*
X119865302Y-114346439D01*
X120074039Y-114137702D01*
X120238042Y-113892253D01*
X120351010Y-113619525D01*
X120408600Y-113329999D01*
X120408600Y-113034801D01*
X120351010Y-112745275D01*
X120238042Y-112472547D01*
X120074039Y-112227098D01*
X119865302Y-112018361D01*
X119706719Y-111912400D01*
X119865302Y-111806439D01*
X120026720Y-111645021D01*
X123514801Y-115133103D01*
G37*
G04 #@! TD.AperFunction*
D23*
X159780705Y-125860508D02*
X159804499Y-125889501D01*
X159833492Y-125913295D01*
X159833496Y-125913299D01*
X159876349Y-125948467D01*
X159920224Y-125984474D01*
X160052253Y-126055046D01*
X160195514Y-126098503D01*
X160307167Y-126109500D01*
X160307176Y-126109500D01*
X160344499Y-126113176D01*
X160381822Y-126109500D01*
X160751999Y-126109500D01*
X159784099Y-127077400D01*
X157170726Y-127077400D01*
X157191481Y-127018891D01*
X157070814Y-126789000D01*
X155877000Y-126789000D01*
X155877000Y-126809000D01*
X155623000Y-126809000D01*
X155623000Y-126789000D01*
X155603000Y-126789000D01*
X155603000Y-126535000D01*
X155623000Y-126535000D01*
X155623000Y-126515000D01*
X155877000Y-126515000D01*
X155877000Y-126535000D01*
X157070814Y-126535000D01*
X157191481Y-126305109D01*
X157094157Y-126030748D01*
X156945178Y-125780645D01*
X156750269Y-125564412D01*
X156520594Y-125393100D01*
X156696632Y-125275475D01*
X156903475Y-125068632D01*
X157065990Y-124825411D01*
X157177932Y-124555158D01*
X157235000Y-124268260D01*
X157235000Y-123975740D01*
X157177932Y-123688842D01*
X157073740Y-123437300D01*
X157357499Y-123437300D01*
X159780705Y-125860508D01*
G04 #@! TA.AperFunction,Conductor*
D24*
G36*
X159780705Y-125860508D02*
G01*
X159804499Y-125889501D01*
X159833492Y-125913295D01*
X159833496Y-125913299D01*
X159876349Y-125948467D01*
X159920224Y-125984474D01*
X160052253Y-126055046D01*
X160195514Y-126098503D01*
X160307167Y-126109500D01*
X160307176Y-126109500D01*
X160344499Y-126113176D01*
X160381822Y-126109500D01*
X160751999Y-126109500D01*
X159784099Y-127077400D01*
X157170726Y-127077400D01*
X157191481Y-127018891D01*
X157070814Y-126789000D01*
X155877000Y-126789000D01*
X155877000Y-126809000D01*
X155623000Y-126809000D01*
X155623000Y-126789000D01*
X155603000Y-126789000D01*
X155603000Y-126535000D01*
X155623000Y-126535000D01*
X155623000Y-126515000D01*
X155877000Y-126515000D01*
X155877000Y-126535000D01*
X157070814Y-126535000D01*
X157191481Y-126305109D01*
X157094157Y-126030748D01*
X156945178Y-125780645D01*
X156750269Y-125564412D01*
X156520594Y-125393100D01*
X156696632Y-125275475D01*
X156903475Y-125068632D01*
X157065990Y-124825411D01*
X157177932Y-124555158D01*
X157235000Y-124268260D01*
X157235000Y-123975740D01*
X157177932Y-123688842D01*
X157073740Y-123437300D01*
X157357499Y-123437300D01*
X159780705Y-125860508D01*
G37*
G04 #@! TD.AperFunction*
D23*
X161187000Y-124589000D02*
X161167000Y-124589000D01*
X161167000Y-124589500D01*
X160913000Y-124589500D01*
X160913000Y-124589000D01*
X160893000Y-124589000D01*
X160893000Y-124352000D01*
X161187000Y-124352000D01*
X161187000Y-124589000D01*
G04 #@! TA.AperFunction,Conductor*
D24*
G36*
X161187000Y-124589000D02*
G01*
X161167000Y-124589000D01*
X161167000Y-124589500D01*
X160913000Y-124589500D01*
X160913000Y-124589000D01*
X160893000Y-124589000D01*
X160893000Y-124352000D01*
X161187000Y-124352000D01*
X161187000Y-124589000D01*
G37*
G04 #@! TD.AperFunction*
D23*
X163674698Y-99106439D02*
X163833281Y-99212400D01*
X163674698Y-99318361D01*
X163465961Y-99527098D01*
X163301958Y-99772547D01*
X163188990Y-100045275D01*
X163131400Y-100334801D01*
X163131400Y-100629999D01*
X163188990Y-100919525D01*
X163301958Y-101192253D01*
X163465961Y-101437702D01*
X163674698Y-101646439D01*
X163833281Y-101752400D01*
X163674698Y-101858361D01*
X163465961Y-102067098D01*
X163301958Y-102312547D01*
X163188990Y-102585275D01*
X163131400Y-102874801D01*
X163131400Y-103169999D01*
X163188990Y-103459525D01*
X163301958Y-103732253D01*
X163465961Y-103977702D01*
X163674698Y-104186439D01*
X163833281Y-104292400D01*
X163674698Y-104398361D01*
X163465961Y-104607098D01*
X163301958Y-104852547D01*
X163188990Y-105125275D01*
X163131400Y-105414801D01*
X163131400Y-105709999D01*
X163188990Y-105999525D01*
X163301958Y-106272253D01*
X163465961Y-106517702D01*
X163674698Y-106726439D01*
X163833281Y-106832400D01*
X163674698Y-106938361D01*
X163465961Y-107147098D01*
X163301958Y-107392547D01*
X163188990Y-107665275D01*
X163131400Y-107954801D01*
X163131400Y-108249999D01*
X163188990Y-108539525D01*
X163301958Y-108812253D01*
X163465961Y-109057702D01*
X163674698Y-109266439D01*
X163833281Y-109372400D01*
X163674698Y-109478361D01*
X163465961Y-109687098D01*
X163301958Y-109932547D01*
X163188990Y-110205275D01*
X163131400Y-110494801D01*
X163131400Y-110789999D01*
X163188990Y-111079525D01*
X163301958Y-111352253D01*
X163465961Y-111597702D01*
X163674698Y-111806439D01*
X163833281Y-111912400D01*
X163674698Y-112018361D01*
X163465961Y-112227098D01*
X163301958Y-112472547D01*
X163188990Y-112745275D01*
X163131400Y-113034801D01*
X163131400Y-113329999D01*
X163188990Y-113619525D01*
X163301958Y-113892253D01*
X163465961Y-114137702D01*
X163674698Y-114346439D01*
X163833281Y-114452400D01*
X163674698Y-114558361D01*
X163465961Y-114767098D01*
X163301958Y-115012547D01*
X163188990Y-115285275D01*
X163131400Y-115574801D01*
X163131400Y-115869999D01*
X163188990Y-116159525D01*
X163301958Y-116432253D01*
X163446429Y-116648470D01*
X162930102Y-117164797D01*
X162901099Y-117188599D01*
X162864028Y-117233771D01*
X162806126Y-117304324D01*
X162742435Y-117423481D01*
X162735554Y-117436354D01*
X162692097Y-117579615D01*
X162681100Y-117691268D01*
X162681100Y-117691278D01*
X162677424Y-117728600D01*
X162681100Y-117765923D01*
X162681101Y-123469997D01*
X162275538Y-123875561D01*
X162241071Y-123826669D01*
X162341885Y-123638060D01*
X162408215Y-123419400D01*
X162430612Y-123192000D01*
X162408215Y-122964600D01*
X162344907Y-122755902D01*
X162379502Y-122691180D01*
X162415812Y-122571482D01*
X162428072Y-122447000D01*
X162428072Y-121397000D01*
X162415812Y-121272518D01*
X162379502Y-121152820D01*
X162320537Y-121042506D01*
X162241185Y-120945815D01*
X162144494Y-120866463D01*
X162034180Y-120807498D01*
X161914482Y-120771188D01*
X161790000Y-120758928D01*
X160724700Y-120758928D01*
X160724700Y-118663423D01*
X160728376Y-118626100D01*
X160724700Y-118588777D01*
X160724700Y-118588767D01*
X160713703Y-118477114D01*
X160670246Y-118333853D01*
X160599674Y-118201824D01*
X160504701Y-118086099D01*
X160475704Y-118062302D01*
X159937002Y-117523600D01*
X159937002Y-117502815D01*
X160166891Y-117623481D01*
X160441252Y-117526157D01*
X160691355Y-117377178D01*
X160907588Y-117182269D01*
X161081641Y-116948920D01*
X161206825Y-116686099D01*
X161251476Y-116538890D01*
X161130155Y-116309000D01*
X159937000Y-116309000D01*
X159937000Y-116329000D01*
X159683000Y-116329000D01*
X159683000Y-116309000D01*
X159663000Y-116309000D01*
X159663000Y-116055000D01*
X159683000Y-116055000D01*
X159683000Y-116035000D01*
X159937000Y-116035000D01*
X159937000Y-116055000D01*
X161130155Y-116055000D01*
X161251476Y-115825110D01*
X161206825Y-115677901D01*
X161081641Y-115415080D01*
X160907588Y-115181731D01*
X160691355Y-114986822D01*
X160574466Y-114917195D01*
X160756632Y-114795475D01*
X160963475Y-114588632D01*
X161125990Y-114345411D01*
X161237932Y-114075158D01*
X161295000Y-113788260D01*
X161295000Y-113495740D01*
X161237932Y-113208842D01*
X161125990Y-112938589D01*
X160963475Y-112695368D01*
X160756632Y-112488525D01*
X160582240Y-112372000D01*
X160756632Y-112255475D01*
X160963475Y-112048632D01*
X161125990Y-111805411D01*
X161237932Y-111535158D01*
X161295000Y-111248260D01*
X161295000Y-110955740D01*
X161237932Y-110668842D01*
X161125990Y-110398589D01*
X160963475Y-110155368D01*
X160831620Y-110023513D01*
X160904180Y-110001502D01*
X161014494Y-109942537D01*
X161111185Y-109863185D01*
X161190537Y-109766494D01*
X161249502Y-109656180D01*
X161285812Y-109536482D01*
X161298072Y-109412000D01*
X161298072Y-107712000D01*
X161285812Y-107587518D01*
X161249502Y-107467820D01*
X161190537Y-107357506D01*
X161111185Y-107260815D01*
X161014494Y-107181463D01*
X160904180Y-107122498D01*
X160784482Y-107086188D01*
X160660000Y-107073928D01*
X158960000Y-107073928D01*
X158835518Y-107086188D01*
X158715820Y-107122498D01*
X158605506Y-107181463D01*
X158508815Y-107260815D01*
X158429463Y-107357506D01*
X158370498Y-107467820D01*
X158334188Y-107587518D01*
X158321928Y-107712000D01*
X158321928Y-109412000D01*
X158334188Y-109536482D01*
X158370498Y-109656180D01*
X158429463Y-109766494D01*
X158508815Y-109863185D01*
X158605506Y-109942537D01*
X158715820Y-110001502D01*
X158788380Y-110023513D01*
X158656525Y-110155368D01*
X158494010Y-110398589D01*
X158382068Y-110668842D01*
X158325000Y-110955740D01*
X158325000Y-111248260D01*
X158382068Y-111535158D01*
X158494010Y-111805411D01*
X158656525Y-112048632D01*
X158863368Y-112255475D01*
X159037760Y-112372000D01*
X158863368Y-112488525D01*
X158656525Y-112695368D01*
X158494010Y-112938589D01*
X158382068Y-113208842D01*
X158325000Y-113495740D01*
X158325000Y-113788260D01*
X158382068Y-114075158D01*
X158494010Y-114345411D01*
X158656525Y-114588632D01*
X158863368Y-114795475D01*
X159045534Y-114917195D01*
X158928645Y-114986822D01*
X158712412Y-115181731D01*
X158538359Y-115415080D01*
X158413175Y-115677901D01*
X158368524Y-115825110D01*
X158489844Y-116054998D01*
X158468400Y-116054998D01*
X156066246Y-113652844D01*
X156142562Y-113576528D01*
X156244886Y-113423389D01*
X156315368Y-113253229D01*
X156351300Y-113072589D01*
X156351300Y-112888411D01*
X156315368Y-112707771D01*
X156244886Y-112537611D01*
X156176300Y-112434965D01*
X156176300Y-104975801D01*
X158531070Y-102621032D01*
X158568359Y-102699320D01*
X158742412Y-102932669D01*
X158958645Y-103127578D01*
X159208748Y-103276557D01*
X159483109Y-103373881D01*
X159713000Y-103253214D01*
X159713000Y-102059400D01*
X159967000Y-102059400D01*
X159967000Y-103253214D01*
X160196891Y-103373881D01*
X160471252Y-103276557D01*
X160721355Y-103127578D01*
X160937588Y-102932669D01*
X161111641Y-102699320D01*
X161236825Y-102436499D01*
X161281476Y-102289290D01*
X161160155Y-102059400D01*
X159967000Y-102059400D01*
X159713000Y-102059400D01*
X159693000Y-102059400D01*
X159693000Y-101805400D01*
X159713000Y-101805400D01*
X159713000Y-101785400D01*
X159967000Y-101785400D01*
X159967000Y-101805400D01*
X161160155Y-101805400D01*
X161281476Y-101575510D01*
X161236825Y-101428301D01*
X161166289Y-101280211D01*
X161261101Y-101202401D01*
X161284904Y-101173397D01*
X163513280Y-98945021D01*
X163674698Y-99106439D01*
G04 #@! TA.AperFunction,Conductor*
D24*
G36*
X163674698Y-99106439D02*
G01*
X163833281Y-99212400D01*
X163674698Y-99318361D01*
X163465961Y-99527098D01*
X163301958Y-99772547D01*
X163188990Y-100045275D01*
X163131400Y-100334801D01*
X163131400Y-100629999D01*
X163188990Y-100919525D01*
X163301958Y-101192253D01*
X163465961Y-101437702D01*
X163674698Y-101646439D01*
X163833281Y-101752400D01*
X163674698Y-101858361D01*
X163465961Y-102067098D01*
X163301958Y-102312547D01*
X163188990Y-102585275D01*
X163131400Y-102874801D01*
X163131400Y-103169999D01*
X163188990Y-103459525D01*
X163301958Y-103732253D01*
X163465961Y-103977702D01*
X163674698Y-104186439D01*
X163833281Y-104292400D01*
X163674698Y-104398361D01*
X163465961Y-104607098D01*
X163301958Y-104852547D01*
X163188990Y-105125275D01*
X163131400Y-105414801D01*
X163131400Y-105709999D01*
X163188990Y-105999525D01*
X163301958Y-106272253D01*
X163465961Y-106517702D01*
X163674698Y-106726439D01*
X163833281Y-106832400D01*
X163674698Y-106938361D01*
X163465961Y-107147098D01*
X163301958Y-107392547D01*
X163188990Y-107665275D01*
X163131400Y-107954801D01*
X163131400Y-108249999D01*
X163188990Y-108539525D01*
X163301958Y-108812253D01*
X163465961Y-109057702D01*
X163674698Y-109266439D01*
X163833281Y-109372400D01*
X163674698Y-109478361D01*
X163465961Y-109687098D01*
X163301958Y-109932547D01*
X163188990Y-110205275D01*
X163131400Y-110494801D01*
X163131400Y-110789999D01*
X163188990Y-111079525D01*
X163301958Y-111352253D01*
X163465961Y-111597702D01*
X163674698Y-111806439D01*
X163833281Y-111912400D01*
X163674698Y-112018361D01*
X163465961Y-112227098D01*
X163301958Y-112472547D01*
X163188990Y-112745275D01*
X163131400Y-113034801D01*
X163131400Y-113329999D01*
X163188990Y-113619525D01*
X163301958Y-113892253D01*
X163465961Y-114137702D01*
X163674698Y-114346439D01*
X163833281Y-114452400D01*
X163674698Y-114558361D01*
X163465961Y-114767098D01*
X163301958Y-115012547D01*
X163188990Y-115285275D01*
X163131400Y-115574801D01*
X163131400Y-115869999D01*
X163188990Y-116159525D01*
X163301958Y-116432253D01*
X163446429Y-116648470D01*
X162930102Y-117164797D01*
X162901099Y-117188599D01*
X162864028Y-117233771D01*
X162806126Y-117304324D01*
X162742435Y-117423481D01*
X162735554Y-117436354D01*
X162692097Y-117579615D01*
X162681100Y-117691268D01*
X162681100Y-117691278D01*
X162677424Y-117728600D01*
X162681100Y-117765923D01*
X162681101Y-123469997D01*
X162275538Y-123875561D01*
X162241071Y-123826669D01*
X162341885Y-123638060D01*
X162408215Y-123419400D01*
X162430612Y-123192000D01*
X162408215Y-122964600D01*
X162344907Y-122755902D01*
X162379502Y-122691180D01*
X162415812Y-122571482D01*
X162428072Y-122447000D01*
X162428072Y-121397000D01*
X162415812Y-121272518D01*
X162379502Y-121152820D01*
X162320537Y-121042506D01*
X162241185Y-120945815D01*
X162144494Y-120866463D01*
X162034180Y-120807498D01*
X161914482Y-120771188D01*
X161790000Y-120758928D01*
X160724700Y-120758928D01*
X160724700Y-118663423D01*
X160728376Y-118626100D01*
X160724700Y-118588777D01*
X160724700Y-118588767D01*
X160713703Y-118477114D01*
X160670246Y-118333853D01*
X160599674Y-118201824D01*
X160504701Y-118086099D01*
X160475704Y-118062302D01*
X159937002Y-117523600D01*
X159937002Y-117502815D01*
X160166891Y-117623481D01*
X160441252Y-117526157D01*
X160691355Y-117377178D01*
X160907588Y-117182269D01*
X161081641Y-116948920D01*
X161206825Y-116686099D01*
X161251476Y-116538890D01*
X161130155Y-116309000D01*
X159937000Y-116309000D01*
X159937000Y-116329000D01*
X159683000Y-116329000D01*
X159683000Y-116309000D01*
X159663000Y-116309000D01*
X159663000Y-116055000D01*
X159683000Y-116055000D01*
X159683000Y-116035000D01*
X159937000Y-116035000D01*
X159937000Y-116055000D01*
X161130155Y-116055000D01*
X161251476Y-115825110D01*
X161206825Y-115677901D01*
X161081641Y-115415080D01*
X160907588Y-115181731D01*
X160691355Y-114986822D01*
X160574466Y-114917195D01*
X160756632Y-114795475D01*
X160963475Y-114588632D01*
X161125990Y-114345411D01*
X161237932Y-114075158D01*
X161295000Y-113788260D01*
X161295000Y-113495740D01*
X161237932Y-113208842D01*
X161125990Y-112938589D01*
X160963475Y-112695368D01*
X160756632Y-112488525D01*
X160582240Y-112372000D01*
X160756632Y-112255475D01*
X160963475Y-112048632D01*
X161125990Y-111805411D01*
X161237932Y-111535158D01*
X161295000Y-111248260D01*
X161295000Y-110955740D01*
X161237932Y-110668842D01*
X161125990Y-110398589D01*
X160963475Y-110155368D01*
X160831620Y-110023513D01*
X160904180Y-110001502D01*
X161014494Y-109942537D01*
X161111185Y-109863185D01*
X161190537Y-109766494D01*
X161249502Y-109656180D01*
X161285812Y-109536482D01*
X161298072Y-109412000D01*
X161298072Y-107712000D01*
X161285812Y-107587518D01*
X161249502Y-107467820D01*
X161190537Y-107357506D01*
X161111185Y-107260815D01*
X161014494Y-107181463D01*
X160904180Y-107122498D01*
X160784482Y-107086188D01*
X160660000Y-107073928D01*
X158960000Y-107073928D01*
X158835518Y-107086188D01*
X158715820Y-107122498D01*
X158605506Y-107181463D01*
X158508815Y-107260815D01*
X158429463Y-107357506D01*
X158370498Y-107467820D01*
X158334188Y-107587518D01*
X158321928Y-107712000D01*
X158321928Y-109412000D01*
X158334188Y-109536482D01*
X158370498Y-109656180D01*
X158429463Y-109766494D01*
X158508815Y-109863185D01*
X158605506Y-109942537D01*
X158715820Y-110001502D01*
X158788380Y-110023513D01*
X158656525Y-110155368D01*
X158494010Y-110398589D01*
X158382068Y-110668842D01*
X158325000Y-110955740D01*
X158325000Y-111248260D01*
X158382068Y-111535158D01*
X158494010Y-111805411D01*
X158656525Y-112048632D01*
X158863368Y-112255475D01*
X159037760Y-112372000D01*
X158863368Y-112488525D01*
X158656525Y-112695368D01*
X158494010Y-112938589D01*
X158382068Y-113208842D01*
X158325000Y-113495740D01*
X158325000Y-113788260D01*
X158382068Y-114075158D01*
X158494010Y-114345411D01*
X158656525Y-114588632D01*
X158863368Y-114795475D01*
X159045534Y-114917195D01*
X158928645Y-114986822D01*
X158712412Y-115181731D01*
X158538359Y-115415080D01*
X158413175Y-115677901D01*
X158368524Y-115825110D01*
X158489844Y-116054998D01*
X158468400Y-116054998D01*
X156066246Y-113652844D01*
X156142562Y-113576528D01*
X156244886Y-113423389D01*
X156315368Y-113253229D01*
X156351300Y-113072589D01*
X156351300Y-112888411D01*
X156315368Y-112707771D01*
X156244886Y-112537611D01*
X156176300Y-112434965D01*
X156176300Y-104975801D01*
X158531070Y-102621032D01*
X158568359Y-102699320D01*
X158742412Y-102932669D01*
X158958645Y-103127578D01*
X159208748Y-103276557D01*
X159483109Y-103373881D01*
X159713000Y-103253214D01*
X159713000Y-102059400D01*
X159967000Y-102059400D01*
X159967000Y-103253214D01*
X160196891Y-103373881D01*
X160471252Y-103276557D01*
X160721355Y-103127578D01*
X160937588Y-102932669D01*
X161111641Y-102699320D01*
X161236825Y-102436499D01*
X161281476Y-102289290D01*
X161160155Y-102059400D01*
X159967000Y-102059400D01*
X159713000Y-102059400D01*
X159693000Y-102059400D01*
X159693000Y-101805400D01*
X159713000Y-101805400D01*
X159713000Y-101785400D01*
X159967000Y-101785400D01*
X159967000Y-101805400D01*
X161160155Y-101805400D01*
X161281476Y-101575510D01*
X161236825Y-101428301D01*
X161166289Y-101280211D01*
X161261101Y-101202401D01*
X161284904Y-101173397D01*
X163513280Y-98945021D01*
X163674698Y-99106439D01*
G37*
G04 #@! TD.AperFunction*
D23*
X143285363Y-88977159D02*
X143485241Y-89177037D01*
X143640000Y-89280443D01*
X143640001Y-103024067D01*
X143636324Y-103061400D01*
X143640001Y-103098733D01*
X143650861Y-103208989D01*
X143650998Y-103210385D01*
X143694454Y-103353646D01*
X143765026Y-103485676D01*
X143816728Y-103548674D01*
X143860000Y-103601401D01*
X143888998Y-103625199D01*
X159204700Y-118940902D01*
X159204701Y-123134899D01*
X158236104Y-122166303D01*
X158212301Y-122137299D01*
X158096576Y-122042326D01*
X157964547Y-121971754D01*
X157821286Y-121928297D01*
X157709633Y-121917300D01*
X157709622Y-121917300D01*
X157672300Y-121913624D01*
X157634978Y-121917300D01*
X157191484Y-121917300D01*
X157245000Y-121648260D01*
X157245000Y-121355740D01*
X157187932Y-121068842D01*
X157075990Y-120798589D01*
X156913475Y-120555368D01*
X156706632Y-120348525D01*
X156463411Y-120186010D01*
X156193158Y-120074068D01*
X155906260Y-120017000D01*
X155613740Y-120017000D01*
X155326842Y-120074068D01*
X155056589Y-120186010D01*
X154813368Y-120348525D01*
X154606525Y-120555368D01*
X154490000Y-120729760D01*
X154373475Y-120555368D01*
X154166632Y-120348525D01*
X153923411Y-120186010D01*
X153653158Y-120074068D01*
X153366260Y-120017000D01*
X153073740Y-120017000D01*
X152786842Y-120074068D01*
X152516589Y-120186010D01*
X152273368Y-120348525D01*
X152066525Y-120555368D01*
X151950000Y-120729760D01*
X151833475Y-120555368D01*
X151626632Y-120348525D01*
X151383411Y-120186010D01*
X151113158Y-120074068D01*
X150826260Y-120017000D01*
X150533740Y-120017000D01*
X150246842Y-120074068D01*
X149976589Y-120186010D01*
X149733368Y-120348525D01*
X149526525Y-120555368D01*
X149410000Y-120729760D01*
X149293475Y-120555368D01*
X149086632Y-120348525D01*
X148843411Y-120186010D01*
X148573158Y-120074068D01*
X148286260Y-120017000D01*
X147993740Y-120017000D01*
X147706842Y-120074068D01*
X147436589Y-120186010D01*
X147193368Y-120348525D01*
X146986525Y-120555368D01*
X146870000Y-120729760D01*
X146753475Y-120555368D01*
X146546632Y-120348525D01*
X146303411Y-120186010D01*
X146033158Y-120074068D01*
X145746260Y-120017000D01*
X145453740Y-120017000D01*
X145166842Y-120074068D01*
X144896589Y-120186010D01*
X144653368Y-120348525D01*
X144446525Y-120555368D01*
X144330000Y-120729760D01*
X144213475Y-120555368D01*
X144006632Y-120348525D01*
X143763411Y-120186010D01*
X143493158Y-120074068D01*
X143206260Y-120017000D01*
X142913740Y-120017000D01*
X142626842Y-120074068D01*
X142356589Y-120186010D01*
X142113368Y-120348525D01*
X141906525Y-120555368D01*
X141790000Y-120729760D01*
X141673475Y-120555368D01*
X141466632Y-120348525D01*
X141223411Y-120186010D01*
X140953158Y-120074068D01*
X140666260Y-120017000D01*
X140373740Y-120017000D01*
X140086842Y-120074068D01*
X139816589Y-120186010D01*
X139573368Y-120348525D01*
X139366525Y-120555368D01*
X139250000Y-120729760D01*
X139133475Y-120555368D01*
X138926632Y-120348525D01*
X138683411Y-120186010D01*
X138413158Y-120074068D01*
X138126260Y-120017000D01*
X137833740Y-120017000D01*
X137546842Y-120074068D01*
X137276589Y-120186010D01*
X137033368Y-120348525D01*
X136826525Y-120555368D01*
X136710000Y-120729760D01*
X136593475Y-120555368D01*
X136386632Y-120348525D01*
X136143411Y-120186010D01*
X135873158Y-120074068D01*
X135586260Y-120017000D01*
X135293740Y-120017000D01*
X135006842Y-120074068D01*
X134736589Y-120186010D01*
X134493368Y-120348525D01*
X134286525Y-120555368D01*
X134170000Y-120729760D01*
X134053475Y-120555368D01*
X133846632Y-120348525D01*
X133603411Y-120186010D01*
X133333158Y-120074068D01*
X133046260Y-120017000D01*
X132753740Y-120017000D01*
X132466842Y-120074068D01*
X132196589Y-120186010D01*
X131953368Y-120348525D01*
X131746525Y-120555368D01*
X131630000Y-120729760D01*
X131513475Y-120555368D01*
X131306632Y-120348525D01*
X131120000Y-120223822D01*
X131120000Y-114419323D01*
X131993000Y-114419323D01*
X131993000Y-114944677D01*
X132095492Y-115459935D01*
X132296536Y-115945298D01*
X132588406Y-116382113D01*
X132959887Y-116753594D01*
X133396702Y-117045464D01*
X133882065Y-117246508D01*
X134397323Y-117349000D01*
X134922677Y-117349000D01*
X135437935Y-117246508D01*
X135923298Y-117045464D01*
X136360113Y-116753594D01*
X136647567Y-116466140D01*
X140545000Y-116466140D01*
X140545000Y-116758660D01*
X140602068Y-117045558D01*
X140714010Y-117315811D01*
X140876525Y-117559032D01*
X141083368Y-117765875D01*
X141326589Y-117928390D01*
X141596842Y-118040332D01*
X141883740Y-118097400D01*
X142176260Y-118097400D01*
X142463158Y-118040332D01*
X142733411Y-117928390D01*
X142976632Y-117765875D01*
X143183475Y-117559032D01*
X143345990Y-117315811D01*
X143457932Y-117045558D01*
X143515000Y-116758660D01*
X143515000Y-116466140D01*
X143457932Y-116179242D01*
X143345990Y-115908989D01*
X143239305Y-115749323D01*
X149443000Y-115749323D01*
X149443000Y-116274677D01*
X149545492Y-116789935D01*
X149746536Y-117275298D01*
X150038406Y-117712113D01*
X150409887Y-118083594D01*
X150846702Y-118375464D01*
X151332065Y-118576508D01*
X151847323Y-118679000D01*
X152372677Y-118679000D01*
X152887935Y-118576508D01*
X153373298Y-118375464D01*
X153810113Y-118083594D01*
X154181594Y-117712113D01*
X154473464Y-117275298D01*
X154674508Y-116789935D01*
X154777000Y-116274677D01*
X154777000Y-115749323D01*
X154674508Y-115234065D01*
X154473464Y-114748702D01*
X154181594Y-114311887D01*
X153810113Y-113940406D01*
X153373298Y-113648536D01*
X152887935Y-113447492D01*
X152372677Y-113345000D01*
X151847323Y-113345000D01*
X151332065Y-113447492D01*
X150846702Y-113648536D01*
X150409887Y-113940406D01*
X150038406Y-114311887D01*
X149746536Y-114748702D01*
X149545492Y-115234065D01*
X149443000Y-115749323D01*
X143239305Y-115749323D01*
X143183475Y-115665768D01*
X142976632Y-115458925D01*
X142794466Y-115337205D01*
X142911355Y-115267578D01*
X143127588Y-115072669D01*
X143301641Y-114839320D01*
X143426825Y-114576499D01*
X143471476Y-114429290D01*
X143350155Y-114199400D01*
X142157000Y-114199400D01*
X142157000Y-114219400D01*
X141903000Y-114219400D01*
X141903000Y-114199400D01*
X140709845Y-114199400D01*
X140588524Y-114429290D01*
X140633175Y-114576499D01*
X140758359Y-114839320D01*
X140932412Y-115072669D01*
X141148645Y-115267578D01*
X141265534Y-115337205D01*
X141083368Y-115458925D01*
X140876525Y-115665768D01*
X140714010Y-115908989D01*
X140602068Y-116179242D01*
X140545000Y-116466140D01*
X136647567Y-116466140D01*
X136731594Y-116382113D01*
X137023464Y-115945298D01*
X137224508Y-115459935D01*
X137327000Y-114944677D01*
X137327000Y-114419323D01*
X137224508Y-113904065D01*
X137023464Y-113418702D01*
X136731594Y-112981887D01*
X136360113Y-112610406D01*
X135923298Y-112318536D01*
X135437935Y-112117492D01*
X134922677Y-112015000D01*
X134397323Y-112015000D01*
X133882065Y-112117492D01*
X133396702Y-112318536D01*
X132959887Y-112610406D01*
X132588406Y-112981887D01*
X132296536Y-113418702D01*
X132095492Y-113904065D01*
X131993000Y-114419323D01*
X131120000Y-114419323D01*
X131120000Y-113891801D01*
X140620865Y-104390937D01*
X140714010Y-104615811D01*
X140876525Y-104859032D01*
X141083368Y-105065875D01*
X141257760Y-105182400D01*
X141083368Y-105298925D01*
X140876525Y-105505768D01*
X140714010Y-105748989D01*
X140602068Y-106019242D01*
X140545000Y-106306140D01*
X140545000Y-106598660D01*
X140602068Y-106885558D01*
X140714010Y-107155811D01*
X140876525Y-107399032D01*
X141083368Y-107605875D01*
X141257760Y-107722400D01*
X141083368Y-107838925D01*
X140876525Y-108045768D01*
X140714010Y-108288989D01*
X140602068Y-108559242D01*
X140545000Y-108846140D01*
X140545000Y-109138660D01*
X140602068Y-109425558D01*
X140714010Y-109695811D01*
X140876525Y-109939032D01*
X141083368Y-110145875D01*
X141257760Y-110262400D01*
X141083368Y-110378925D01*
X140876525Y-110585768D01*
X140714010Y-110828989D01*
X140602068Y-111099242D01*
X140545000Y-111386140D01*
X140545000Y-111678660D01*
X140602068Y-111965558D01*
X140714010Y-112235811D01*
X140876525Y-112479032D01*
X141083368Y-112685875D01*
X141265534Y-112807595D01*
X141148645Y-112877222D01*
X140932412Y-113072131D01*
X140758359Y-113305480D01*
X140633175Y-113568301D01*
X140588524Y-113715510D01*
X140709845Y-113945400D01*
X141903000Y-113945400D01*
X141903000Y-113925400D01*
X142157000Y-113925400D01*
X142157000Y-113945400D01*
X143350155Y-113945400D01*
X143471476Y-113715510D01*
X143426825Y-113568301D01*
X143301641Y-113305480D01*
X143127588Y-113072131D01*
X142911355Y-112877222D01*
X142794466Y-112807595D01*
X142976632Y-112685875D01*
X143183475Y-112479032D01*
X143345990Y-112235811D01*
X143457932Y-111965558D01*
X143515000Y-111678660D01*
X143515000Y-111386140D01*
X143457932Y-111099242D01*
X143345990Y-110828989D01*
X143183475Y-110585768D01*
X142976632Y-110378925D01*
X142802240Y-110262400D01*
X142976632Y-110145875D01*
X143183475Y-109939032D01*
X143345990Y-109695811D01*
X143457932Y-109425558D01*
X143515000Y-109138660D01*
X143515000Y-108846140D01*
X143457932Y-108559242D01*
X143345990Y-108288989D01*
X143183475Y-108045768D01*
X142976632Y-107838925D01*
X142802240Y-107722400D01*
X142976632Y-107605875D01*
X143183475Y-107399032D01*
X143345990Y-107155811D01*
X143457932Y-106885558D01*
X143515000Y-106598660D01*
X143515000Y-106306140D01*
X143457932Y-106019242D01*
X143345990Y-105748989D01*
X143183475Y-105505768D01*
X142976632Y-105298925D01*
X142802240Y-105182400D01*
X142976632Y-105065875D01*
X143183475Y-104859032D01*
X143345990Y-104615811D01*
X143457932Y-104345558D01*
X143515000Y-104058660D01*
X143515000Y-103766140D01*
X143457932Y-103479242D01*
X143345990Y-103208989D01*
X143183475Y-102965768D01*
X142976632Y-102758925D01*
X142794466Y-102637205D01*
X142911355Y-102567578D01*
X143127588Y-102372669D01*
X143301641Y-102139320D01*
X143426825Y-101876499D01*
X143471476Y-101729290D01*
X143350155Y-101499400D01*
X142157000Y-101499400D01*
X142157000Y-101519400D01*
X141903000Y-101519400D01*
X141903000Y-101499400D01*
X141883000Y-101499400D01*
X141883000Y-101245400D01*
X141903000Y-101245400D01*
X141903000Y-101225400D01*
X142157000Y-101225400D01*
X142157000Y-101245400D01*
X143350155Y-101245400D01*
X143471476Y-101015510D01*
X143426825Y-100868301D01*
X143301641Y-100605480D01*
X143127588Y-100372131D01*
X143043534Y-100296366D01*
X143124180Y-100271902D01*
X143234494Y-100212937D01*
X143331185Y-100133585D01*
X143410537Y-100036894D01*
X143469502Y-99926580D01*
X143505812Y-99806882D01*
X143518072Y-99682400D01*
X143518072Y-97982400D01*
X143505812Y-97857918D01*
X143469502Y-97738220D01*
X143410537Y-97627906D01*
X143331185Y-97531215D01*
X143234494Y-97451863D01*
X143124180Y-97392898D01*
X143004482Y-97356588D01*
X142880000Y-97344328D01*
X141596700Y-97344328D01*
X141596700Y-90276301D01*
X143129343Y-88743658D01*
X143285363Y-88977159D01*
G04 #@! TA.AperFunction,Conductor*
D24*
G36*
X143285363Y-88977159D02*
G01*
X143485241Y-89177037D01*
X143640000Y-89280443D01*
X143640001Y-103024067D01*
X143636324Y-103061400D01*
X143640001Y-103098733D01*
X143650861Y-103208989D01*
X143650998Y-103210385D01*
X143694454Y-103353646D01*
X143765026Y-103485676D01*
X143816728Y-103548674D01*
X143860000Y-103601401D01*
X143888998Y-103625199D01*
X159204700Y-118940902D01*
X159204701Y-123134899D01*
X158236104Y-122166303D01*
X158212301Y-122137299D01*
X158096576Y-122042326D01*
X157964547Y-121971754D01*
X157821286Y-121928297D01*
X157709633Y-121917300D01*
X157709622Y-121917300D01*
X157672300Y-121913624D01*
X157634978Y-121917300D01*
X157191484Y-121917300D01*
X157245000Y-121648260D01*
X157245000Y-121355740D01*
X157187932Y-121068842D01*
X157075990Y-120798589D01*
X156913475Y-120555368D01*
X156706632Y-120348525D01*
X156463411Y-120186010D01*
X156193158Y-120074068D01*
X155906260Y-120017000D01*
X155613740Y-120017000D01*
X155326842Y-120074068D01*
X155056589Y-120186010D01*
X154813368Y-120348525D01*
X154606525Y-120555368D01*
X154490000Y-120729760D01*
X154373475Y-120555368D01*
X154166632Y-120348525D01*
X153923411Y-120186010D01*
X153653158Y-120074068D01*
X153366260Y-120017000D01*
X153073740Y-120017000D01*
X152786842Y-120074068D01*
X152516589Y-120186010D01*
X152273368Y-120348525D01*
X152066525Y-120555368D01*
X151950000Y-120729760D01*
X151833475Y-120555368D01*
X151626632Y-120348525D01*
X151383411Y-120186010D01*
X151113158Y-120074068D01*
X150826260Y-120017000D01*
X150533740Y-120017000D01*
X150246842Y-120074068D01*
X149976589Y-120186010D01*
X149733368Y-120348525D01*
X149526525Y-120555368D01*
X149410000Y-120729760D01*
X149293475Y-120555368D01*
X149086632Y-120348525D01*
X148843411Y-120186010D01*
X148573158Y-120074068D01*
X148286260Y-120017000D01*
X147993740Y-120017000D01*
X147706842Y-120074068D01*
X147436589Y-120186010D01*
X147193368Y-120348525D01*
X146986525Y-120555368D01*
X146870000Y-120729760D01*
X146753475Y-120555368D01*
X146546632Y-120348525D01*
X146303411Y-120186010D01*
X146033158Y-120074068D01*
X145746260Y-120017000D01*
X145453740Y-120017000D01*
X145166842Y-120074068D01*
X144896589Y-120186010D01*
X144653368Y-120348525D01*
X144446525Y-120555368D01*
X144330000Y-120729760D01*
X144213475Y-120555368D01*
X144006632Y-120348525D01*
X143763411Y-120186010D01*
X143493158Y-120074068D01*
X143206260Y-120017000D01*
X142913740Y-120017000D01*
X142626842Y-120074068D01*
X142356589Y-120186010D01*
X142113368Y-120348525D01*
X141906525Y-120555368D01*
X141790000Y-120729760D01*
X141673475Y-120555368D01*
X141466632Y-120348525D01*
X141223411Y-120186010D01*
X140953158Y-120074068D01*
X140666260Y-120017000D01*
X140373740Y-120017000D01*
X140086842Y-120074068D01*
X139816589Y-120186010D01*
X139573368Y-120348525D01*
X139366525Y-120555368D01*
X139250000Y-120729760D01*
X139133475Y-120555368D01*
X138926632Y-120348525D01*
X138683411Y-120186010D01*
X138413158Y-120074068D01*
X138126260Y-120017000D01*
X137833740Y-120017000D01*
X137546842Y-120074068D01*
X137276589Y-120186010D01*
X137033368Y-120348525D01*
X136826525Y-120555368D01*
X136710000Y-120729760D01*
X136593475Y-120555368D01*
X136386632Y-120348525D01*
X136143411Y-120186010D01*
X135873158Y-120074068D01*
X135586260Y-120017000D01*
X135293740Y-120017000D01*
X135006842Y-120074068D01*
X134736589Y-120186010D01*
X134493368Y-120348525D01*
X134286525Y-120555368D01*
X134170000Y-120729760D01*
X134053475Y-120555368D01*
X133846632Y-120348525D01*
X133603411Y-120186010D01*
X133333158Y-120074068D01*
X133046260Y-120017000D01*
X132753740Y-120017000D01*
X132466842Y-120074068D01*
X132196589Y-120186010D01*
X131953368Y-120348525D01*
X131746525Y-120555368D01*
X131630000Y-120729760D01*
X131513475Y-120555368D01*
X131306632Y-120348525D01*
X131120000Y-120223822D01*
X131120000Y-114419323D01*
X131993000Y-114419323D01*
X131993000Y-114944677D01*
X132095492Y-115459935D01*
X132296536Y-115945298D01*
X132588406Y-116382113D01*
X132959887Y-116753594D01*
X133396702Y-117045464D01*
X133882065Y-117246508D01*
X134397323Y-117349000D01*
X134922677Y-117349000D01*
X135437935Y-117246508D01*
X135923298Y-117045464D01*
X136360113Y-116753594D01*
X136647567Y-116466140D01*
X140545000Y-116466140D01*
X140545000Y-116758660D01*
X140602068Y-117045558D01*
X140714010Y-117315811D01*
X140876525Y-117559032D01*
X141083368Y-117765875D01*
X141326589Y-117928390D01*
X141596842Y-118040332D01*
X141883740Y-118097400D01*
X142176260Y-118097400D01*
X142463158Y-118040332D01*
X142733411Y-117928390D01*
X142976632Y-117765875D01*
X143183475Y-117559032D01*
X143345990Y-117315811D01*
X143457932Y-117045558D01*
X143515000Y-116758660D01*
X143515000Y-116466140D01*
X143457932Y-116179242D01*
X143345990Y-115908989D01*
X143239305Y-115749323D01*
X149443000Y-115749323D01*
X149443000Y-116274677D01*
X149545492Y-116789935D01*
X149746536Y-117275298D01*
X150038406Y-117712113D01*
X150409887Y-118083594D01*
X150846702Y-118375464D01*
X151332065Y-118576508D01*
X151847323Y-118679000D01*
X152372677Y-118679000D01*
X152887935Y-118576508D01*
X153373298Y-118375464D01*
X153810113Y-118083594D01*
X154181594Y-117712113D01*
X154473464Y-117275298D01*
X154674508Y-116789935D01*
X154777000Y-116274677D01*
X154777000Y-115749323D01*
X154674508Y-115234065D01*
X154473464Y-114748702D01*
X154181594Y-114311887D01*
X153810113Y-113940406D01*
X153373298Y-113648536D01*
X152887935Y-113447492D01*
X152372677Y-113345000D01*
X151847323Y-113345000D01*
X151332065Y-113447492D01*
X150846702Y-113648536D01*
X150409887Y-113940406D01*
X150038406Y-114311887D01*
X149746536Y-114748702D01*
X149545492Y-115234065D01*
X149443000Y-115749323D01*
X143239305Y-115749323D01*
X143183475Y-115665768D01*
X142976632Y-115458925D01*
X142794466Y-115337205D01*
X142911355Y-115267578D01*
X143127588Y-115072669D01*
X143301641Y-114839320D01*
X143426825Y-114576499D01*
X143471476Y-114429290D01*
X143350155Y-114199400D01*
X142157000Y-114199400D01*
X142157000Y-114219400D01*
X141903000Y-114219400D01*
X141903000Y-114199400D01*
X140709845Y-114199400D01*
X140588524Y-114429290D01*
X140633175Y-114576499D01*
X140758359Y-114839320D01*
X140932412Y-115072669D01*
X141148645Y-115267578D01*
X141265534Y-115337205D01*
X141083368Y-115458925D01*
X140876525Y-115665768D01*
X140714010Y-115908989D01*
X140602068Y-116179242D01*
X140545000Y-116466140D01*
X136647567Y-116466140D01*
X136731594Y-116382113D01*
X137023464Y-115945298D01*
X137224508Y-115459935D01*
X137327000Y-114944677D01*
X137327000Y-114419323D01*
X137224508Y-113904065D01*
X137023464Y-113418702D01*
X136731594Y-112981887D01*
X136360113Y-112610406D01*
X135923298Y-112318536D01*
X135437935Y-112117492D01*
X134922677Y-112015000D01*
X134397323Y-112015000D01*
X133882065Y-112117492D01*
X133396702Y-112318536D01*
X132959887Y-112610406D01*
X132588406Y-112981887D01*
X132296536Y-113418702D01*
X132095492Y-113904065D01*
X131993000Y-114419323D01*
X131120000Y-114419323D01*
X131120000Y-113891801D01*
X140620865Y-104390937D01*
X140714010Y-104615811D01*
X140876525Y-104859032D01*
X141083368Y-105065875D01*
X141257760Y-105182400D01*
X141083368Y-105298925D01*
X140876525Y-105505768D01*
X140714010Y-105748989D01*
X140602068Y-106019242D01*
X140545000Y-106306140D01*
X140545000Y-106598660D01*
X140602068Y-106885558D01*
X140714010Y-107155811D01*
X140876525Y-107399032D01*
X141083368Y-107605875D01*
X141257760Y-107722400D01*
X141083368Y-107838925D01*
X140876525Y-108045768D01*
X140714010Y-108288989D01*
X140602068Y-108559242D01*
X140545000Y-108846140D01*
X140545000Y-109138660D01*
X140602068Y-109425558D01*
X140714010Y-109695811D01*
X140876525Y-109939032D01*
X141083368Y-110145875D01*
X141257760Y-110262400D01*
X141083368Y-110378925D01*
X140876525Y-110585768D01*
X140714010Y-110828989D01*
X140602068Y-111099242D01*
X140545000Y-111386140D01*
X140545000Y-111678660D01*
X140602068Y-111965558D01*
X140714010Y-112235811D01*
X140876525Y-112479032D01*
X141083368Y-112685875D01*
X141265534Y-112807595D01*
X141148645Y-112877222D01*
X140932412Y-113072131D01*
X140758359Y-113305480D01*
X140633175Y-113568301D01*
X140588524Y-113715510D01*
X140709845Y-113945400D01*
X141903000Y-113945400D01*
X141903000Y-113925400D01*
X142157000Y-113925400D01*
X142157000Y-113945400D01*
X143350155Y-113945400D01*
X143471476Y-113715510D01*
X143426825Y-113568301D01*
X143301641Y-113305480D01*
X143127588Y-113072131D01*
X142911355Y-112877222D01*
X142794466Y-112807595D01*
X142976632Y-112685875D01*
X143183475Y-112479032D01*
X143345990Y-112235811D01*
X143457932Y-111965558D01*
X143515000Y-111678660D01*
X143515000Y-111386140D01*
X143457932Y-111099242D01*
X143345990Y-110828989D01*
X143183475Y-110585768D01*
X142976632Y-110378925D01*
X142802240Y-110262400D01*
X142976632Y-110145875D01*
X143183475Y-109939032D01*
X143345990Y-109695811D01*
X143457932Y-109425558D01*
X143515000Y-109138660D01*
X143515000Y-108846140D01*
X143457932Y-108559242D01*
X143345990Y-108288989D01*
X143183475Y-108045768D01*
X142976632Y-107838925D01*
X142802240Y-107722400D01*
X142976632Y-107605875D01*
X143183475Y-107399032D01*
X143345990Y-107155811D01*
X143457932Y-106885558D01*
X143515000Y-106598660D01*
X143515000Y-106306140D01*
X143457932Y-106019242D01*
X143345990Y-105748989D01*
X143183475Y-105505768D01*
X142976632Y-105298925D01*
X142802240Y-105182400D01*
X142976632Y-105065875D01*
X143183475Y-104859032D01*
X143345990Y-104615811D01*
X143457932Y-104345558D01*
X143515000Y-104058660D01*
X143515000Y-103766140D01*
X143457932Y-103479242D01*
X143345990Y-103208989D01*
X143183475Y-102965768D01*
X142976632Y-102758925D01*
X142794466Y-102637205D01*
X142911355Y-102567578D01*
X143127588Y-102372669D01*
X143301641Y-102139320D01*
X143426825Y-101876499D01*
X143471476Y-101729290D01*
X143350155Y-101499400D01*
X142157000Y-101499400D01*
X142157000Y-101519400D01*
X141903000Y-101519400D01*
X141903000Y-101499400D01*
X141883000Y-101499400D01*
X141883000Y-101245400D01*
X141903000Y-101245400D01*
X141903000Y-101225400D01*
X142157000Y-101225400D01*
X142157000Y-101245400D01*
X143350155Y-101245400D01*
X143471476Y-101015510D01*
X143426825Y-100868301D01*
X143301641Y-100605480D01*
X143127588Y-100372131D01*
X143043534Y-100296366D01*
X143124180Y-100271902D01*
X143234494Y-100212937D01*
X143331185Y-100133585D01*
X143410537Y-100036894D01*
X143469502Y-99926580D01*
X143505812Y-99806882D01*
X143518072Y-99682400D01*
X143518072Y-97982400D01*
X143505812Y-97857918D01*
X143469502Y-97738220D01*
X143410537Y-97627906D01*
X143331185Y-97531215D01*
X143234494Y-97451863D01*
X143124180Y-97392898D01*
X143004482Y-97356588D01*
X142880000Y-97344328D01*
X141596700Y-97344328D01*
X141596700Y-90276301D01*
X143129343Y-88743658D01*
X143285363Y-88977159D01*
G37*
G04 #@! TD.AperFunction*
D23*
X123474701Y-91531868D02*
X123471024Y-91569200D01*
X123485698Y-91718185D01*
X123529154Y-91861446D01*
X123599726Y-91993476D01*
X123660395Y-92067400D01*
X123694700Y-92109201D01*
X123723698Y-92132999D01*
X124232469Y-92641771D01*
X124094010Y-92848989D01*
X123982068Y-93119242D01*
X123925000Y-93406140D01*
X123925000Y-93698660D01*
X123982068Y-93985558D01*
X124094010Y-94255811D01*
X124256525Y-94499032D01*
X124463368Y-94705875D01*
X124706589Y-94868390D01*
X124976842Y-94980332D01*
X125263740Y-95037400D01*
X125556260Y-95037400D01*
X125825301Y-94983884D01*
X125825301Y-98646597D01*
X125468997Y-99002902D01*
X125440000Y-99026699D01*
X125416202Y-99055697D01*
X125416201Y-99055698D01*
X125345026Y-99142424D01*
X125285425Y-99253928D01*
X125130000Y-99253928D01*
X125005518Y-99266188D01*
X124885820Y-99302498D01*
X124775506Y-99361463D01*
X124678815Y-99440815D01*
X124599463Y-99537506D01*
X124540498Y-99647820D01*
X124504188Y-99767518D01*
X124491928Y-99892000D01*
X124491928Y-101592000D01*
X124504188Y-101716482D01*
X124540498Y-101836180D01*
X124599463Y-101946494D01*
X124678815Y-102043185D01*
X124775506Y-102122537D01*
X124885820Y-102181502D01*
X124966466Y-102205966D01*
X124882412Y-102281731D01*
X124708359Y-102515080D01*
X124583175Y-102777901D01*
X124538524Y-102925110D01*
X124659845Y-103155000D01*
X125853000Y-103155000D01*
X125853000Y-103135000D01*
X126107000Y-103135000D01*
X126107000Y-103155000D01*
X126127000Y-103155000D01*
X126127000Y-103409000D01*
X126107000Y-103409000D01*
X126107000Y-103429000D01*
X125853000Y-103429000D01*
X125853000Y-103409000D01*
X124659845Y-103409000D01*
X124538524Y-103638890D01*
X124583175Y-103786099D01*
X124708359Y-104048920D01*
X124882412Y-104282269D01*
X125098645Y-104477178D01*
X125215534Y-104546805D01*
X125033368Y-104668525D01*
X124826525Y-104875368D01*
X124673375Y-105104573D01*
X120858900Y-101290099D01*
X120858900Y-99985925D01*
X120862576Y-99948600D01*
X120858900Y-99911275D01*
X120858900Y-99911267D01*
X120847903Y-99799614D01*
X120804446Y-99656353D01*
X120733874Y-99524324D01*
X120638901Y-99408599D01*
X120609904Y-99384802D01*
X120093571Y-98868470D01*
X120238042Y-98652253D01*
X120351010Y-98379525D01*
X120408600Y-98089999D01*
X120408600Y-97794801D01*
X120351010Y-97505275D01*
X120238042Y-97232547D01*
X120074039Y-96987098D01*
X119865302Y-96778361D01*
X119706719Y-96672400D01*
X119865302Y-96566439D01*
X120074039Y-96357702D01*
X120238042Y-96112253D01*
X120351010Y-95839525D01*
X120408600Y-95549999D01*
X120408600Y-95254801D01*
X120351010Y-94965275D01*
X120238042Y-94692547D01*
X120093531Y-94476270D01*
X123474701Y-91095101D01*
X123474701Y-91531868D01*
G04 #@! TA.AperFunction,Conductor*
D24*
G36*
X123474701Y-91531868D02*
G01*
X123471024Y-91569200D01*
X123485698Y-91718185D01*
X123529154Y-91861446D01*
X123599726Y-91993476D01*
X123660395Y-92067400D01*
X123694700Y-92109201D01*
X123723698Y-92132999D01*
X124232469Y-92641771D01*
X124094010Y-92848989D01*
X123982068Y-93119242D01*
X123925000Y-93406140D01*
X123925000Y-93698660D01*
X123982068Y-93985558D01*
X124094010Y-94255811D01*
X124256525Y-94499032D01*
X124463368Y-94705875D01*
X124706589Y-94868390D01*
X124976842Y-94980332D01*
X125263740Y-95037400D01*
X125556260Y-95037400D01*
X125825301Y-94983884D01*
X125825301Y-98646597D01*
X125468997Y-99002902D01*
X125440000Y-99026699D01*
X125416202Y-99055697D01*
X125416201Y-99055698D01*
X125345026Y-99142424D01*
X125285425Y-99253928D01*
X125130000Y-99253928D01*
X125005518Y-99266188D01*
X124885820Y-99302498D01*
X124775506Y-99361463D01*
X124678815Y-99440815D01*
X124599463Y-99537506D01*
X124540498Y-99647820D01*
X124504188Y-99767518D01*
X124491928Y-99892000D01*
X124491928Y-101592000D01*
X124504188Y-101716482D01*
X124540498Y-101836180D01*
X124599463Y-101946494D01*
X124678815Y-102043185D01*
X124775506Y-102122537D01*
X124885820Y-102181502D01*
X124966466Y-102205966D01*
X124882412Y-102281731D01*
X124708359Y-102515080D01*
X124583175Y-102777901D01*
X124538524Y-102925110D01*
X124659845Y-103155000D01*
X125853000Y-103155000D01*
X125853000Y-103135000D01*
X126107000Y-103135000D01*
X126107000Y-103155000D01*
X126127000Y-103155000D01*
X126127000Y-103409000D01*
X126107000Y-103409000D01*
X126107000Y-103429000D01*
X125853000Y-103429000D01*
X125853000Y-103409000D01*
X124659845Y-103409000D01*
X124538524Y-103638890D01*
X124583175Y-103786099D01*
X124708359Y-104048920D01*
X124882412Y-104282269D01*
X125098645Y-104477178D01*
X125215534Y-104546805D01*
X125033368Y-104668525D01*
X124826525Y-104875368D01*
X124673375Y-105104573D01*
X120858900Y-101290099D01*
X120858900Y-99985925D01*
X120862576Y-99948600D01*
X120858900Y-99911275D01*
X120858900Y-99911267D01*
X120847903Y-99799614D01*
X120804446Y-99656353D01*
X120733874Y-99524324D01*
X120638901Y-99408599D01*
X120609904Y-99384802D01*
X120093571Y-98868470D01*
X120238042Y-98652253D01*
X120351010Y-98379525D01*
X120408600Y-98089999D01*
X120408600Y-97794801D01*
X120351010Y-97505275D01*
X120238042Y-97232547D01*
X120074039Y-96987098D01*
X119865302Y-96778361D01*
X119706719Y-96672400D01*
X119865302Y-96566439D01*
X120074039Y-96357702D01*
X120238042Y-96112253D01*
X120351010Y-95839525D01*
X120408600Y-95549999D01*
X120408600Y-95254801D01*
X120351010Y-94965275D01*
X120238042Y-94692547D01*
X120093531Y-94476270D01*
X123474701Y-91095101D01*
X123474701Y-91531868D01*
G37*
G04 #@! TD.AperFunction*
D23*
X119037000Y-102895400D02*
X119057000Y-102895400D01*
X119057000Y-103149400D01*
X119037000Y-103149400D01*
X119037000Y-103169400D01*
X118783000Y-103169400D01*
X118783000Y-103149400D01*
X118763000Y-103149400D01*
X118763000Y-102895400D01*
X118783000Y-102895400D01*
X118783000Y-102875400D01*
X119037000Y-102875400D01*
X119037000Y-102895400D01*
G04 #@! TA.AperFunction,Conductor*
D24*
G36*
X119037000Y-102895400D02*
G01*
X119057000Y-102895400D01*
X119057000Y-103149400D01*
X119037000Y-103149400D01*
X119037000Y-103169400D01*
X118783000Y-103169400D01*
X118783000Y-103149400D01*
X118763000Y-103149400D01*
X118763000Y-102895400D01*
X118783000Y-102895400D01*
X118783000Y-102875400D01*
X119037000Y-102875400D01*
X119037000Y-102895400D01*
G37*
G04 #@! TD.AperFunction*
D23*
X154425820Y-50322898D02*
X154315506Y-50381863D01*
X154218815Y-50461215D01*
X154139463Y-50557906D01*
X154080498Y-50668220D01*
X154044188Y-50787918D01*
X154031928Y-50912400D01*
X154035000Y-51526650D01*
X154193750Y-51685400D01*
X155443000Y-51685400D01*
X155443000Y-51665400D01*
X155697000Y-51665400D01*
X155697000Y-51685400D01*
X156946250Y-51685400D01*
X157105000Y-51526650D01*
X157108072Y-50912400D01*
X157095812Y-50787918D01*
X157059502Y-50668220D01*
X157000537Y-50557906D01*
X156921185Y-50461215D01*
X156824494Y-50381863D01*
X156714180Y-50322898D01*
X156700242Y-50318670D01*
X159577212Y-50318670D01*
X159488815Y-50391215D01*
X159409463Y-50487906D01*
X159350498Y-50598220D01*
X159314188Y-50717918D01*
X159301928Y-50842400D01*
X159305000Y-51456650D01*
X159463750Y-51615400D01*
X160713000Y-51615400D01*
X160713000Y-51595400D01*
X160967000Y-51595400D01*
X160967000Y-51615400D01*
X162216250Y-51615400D01*
X162375000Y-51456650D01*
X162378072Y-50842400D01*
X162365812Y-50717918D01*
X162329502Y-50598220D01*
X162270537Y-50487906D01*
X162191185Y-50391215D01*
X162102788Y-50318670D01*
X165489758Y-50318670D01*
X165475820Y-50322898D01*
X165365506Y-50381863D01*
X165268815Y-50461215D01*
X165189463Y-50557906D01*
X165130498Y-50668220D01*
X165094188Y-50787918D01*
X165081928Y-50912400D01*
X165085000Y-51526650D01*
X165243750Y-51685400D01*
X166493000Y-51685400D01*
X166493000Y-51665400D01*
X166747000Y-51665400D01*
X166747000Y-51685400D01*
X167996250Y-51685400D01*
X168155000Y-51526650D01*
X168158072Y-50912400D01*
X168145812Y-50787918D01*
X168109502Y-50668220D01*
X168050537Y-50557906D01*
X167971185Y-50461215D01*
X167874494Y-50381863D01*
X167764180Y-50322898D01*
X167750242Y-50318670D01*
X168438831Y-50318670D01*
X168438831Y-61588913D01*
X168276854Y-61372107D01*
X168058488Y-61175583D01*
X167805978Y-61025436D01*
X167529027Y-60927437D01*
X167297000Y-61047936D01*
X167297000Y-62255400D01*
X167317000Y-62255400D01*
X167317000Y-62509400D01*
X167297000Y-62509400D01*
X167297000Y-62529400D01*
X167043000Y-62529400D01*
X167043000Y-62509400D01*
X164757000Y-62509400D01*
X164757000Y-62529400D01*
X164503000Y-62529400D01*
X164503000Y-62509400D01*
X163290150Y-62509400D01*
X163131400Y-62668150D01*
X163128328Y-63246000D01*
X163140588Y-63370482D01*
X163176898Y-63490180D01*
X163235863Y-63600494D01*
X163315215Y-63697185D01*
X163411906Y-63776537D01*
X163522220Y-63835502D01*
X163580023Y-63853036D01*
X163465961Y-63967098D01*
X163301958Y-64212547D01*
X163188990Y-64485275D01*
X163131400Y-64774801D01*
X163131400Y-65069999D01*
X163188990Y-65359525D01*
X163301958Y-65632253D01*
X163465961Y-65877702D01*
X163674698Y-66086439D01*
X163833281Y-66192400D01*
X163674698Y-66298361D01*
X163465961Y-66507098D01*
X163301958Y-66752547D01*
X163188990Y-67025275D01*
X163131400Y-67314801D01*
X163131400Y-67609999D01*
X163188990Y-67899525D01*
X163301958Y-68172253D01*
X163465961Y-68417702D01*
X163674698Y-68626439D01*
X163833281Y-68732400D01*
X163790552Y-68760950D01*
X160987929Y-65958328D01*
X161034759Y-65927037D01*
X161234637Y-65727159D01*
X161391680Y-65492127D01*
X161499853Y-65230974D01*
X161555000Y-64953735D01*
X161555000Y-64671065D01*
X161499853Y-64393826D01*
X161391680Y-64132673D01*
X161234637Y-63897641D01*
X161034759Y-63697763D01*
X160799727Y-63540720D01*
X160538574Y-63432547D01*
X160261335Y-63377400D01*
X159978665Y-63377400D01*
X159701426Y-63432547D01*
X159610000Y-63470417D01*
X159610000Y-63114383D01*
X159701426Y-63152253D01*
X159978665Y-63207400D01*
X160261335Y-63207400D01*
X160538574Y-63152253D01*
X160799727Y-63044080D01*
X161034759Y-62887037D01*
X161234637Y-62687159D01*
X161391680Y-62452127D01*
X161499853Y-62190974D01*
X161555000Y-61913735D01*
X161555000Y-61631065D01*
X161532669Y-61518800D01*
X163128328Y-61518800D01*
X163131400Y-62096650D01*
X163290150Y-62255400D01*
X164503000Y-62255400D01*
X164503000Y-61042550D01*
X164757000Y-61042550D01*
X164757000Y-62255400D01*
X167043000Y-62255400D01*
X167043000Y-61047936D01*
X166810973Y-60927437D01*
X166534022Y-61025436D01*
X166281512Y-61175583D01*
X166102053Y-61337092D01*
X166083102Y-61274620D01*
X166024137Y-61164306D01*
X165944785Y-61067615D01*
X165848094Y-60988263D01*
X165737780Y-60929298D01*
X165618082Y-60892988D01*
X165493600Y-60880728D01*
X164915750Y-60883800D01*
X164757000Y-61042550D01*
X164503000Y-61042550D01*
X164344250Y-60883800D01*
X163766400Y-60880728D01*
X163641918Y-60892988D01*
X163522220Y-60929298D01*
X163411906Y-60988263D01*
X163315215Y-61067615D01*
X163235863Y-61164306D01*
X163176898Y-61274620D01*
X163140588Y-61394318D01*
X163128328Y-61518800D01*
X161532669Y-61518800D01*
X161499853Y-61353826D01*
X161391680Y-61092673D01*
X161234637Y-60857641D01*
X161034759Y-60657763D01*
X160880000Y-60554357D01*
X160880000Y-58939725D01*
X160883676Y-58902400D01*
X160880000Y-58865075D01*
X160880000Y-58865067D01*
X160869003Y-58753414D01*
X160825546Y-58610153D01*
X160754974Y-58478124D01*
X160660001Y-58362399D01*
X160631003Y-58338601D01*
X157053731Y-54761330D01*
X157105000Y-54503584D01*
X157105000Y-54201216D01*
X157046011Y-53904657D01*
X156930299Y-53625305D01*
X156762312Y-53373895D01*
X156695873Y-53307456D01*
X156714180Y-53301902D01*
X156824494Y-53242937D01*
X156921185Y-53163585D01*
X157000537Y-53066894D01*
X157059502Y-52956580D01*
X157095812Y-52836882D01*
X157108072Y-52712400D01*
X157107722Y-52642400D01*
X159301928Y-52642400D01*
X159314188Y-52766882D01*
X159350498Y-52886580D01*
X159409463Y-52996894D01*
X159488815Y-53093585D01*
X159585506Y-53172937D01*
X159695820Y-53231902D01*
X159714127Y-53237456D01*
X159647688Y-53303895D01*
X159479701Y-53555305D01*
X159363989Y-53834657D01*
X159305000Y-54131216D01*
X159305000Y-54433584D01*
X159363989Y-54730143D01*
X159479701Y-55009495D01*
X159647688Y-55260905D01*
X159861495Y-55474712D01*
X160112905Y-55642699D01*
X160392257Y-55758411D01*
X160688816Y-55817400D01*
X160991184Y-55817400D01*
X161287743Y-55758411D01*
X161567095Y-55642699D01*
X161818505Y-55474712D01*
X162032312Y-55260905D01*
X162200299Y-55009495D01*
X162316011Y-54730143D01*
X162375000Y-54433584D01*
X162375000Y-54131216D01*
X162316011Y-53834657D01*
X162200299Y-53555305D01*
X162032312Y-53303895D01*
X161965873Y-53237456D01*
X161984180Y-53231902D01*
X162094494Y-53172937D01*
X162191185Y-53093585D01*
X162270537Y-52996894D01*
X162329502Y-52886580D01*
X162365812Y-52766882D01*
X162371177Y-52712400D01*
X165081928Y-52712400D01*
X165094188Y-52836882D01*
X165130498Y-52956580D01*
X165189463Y-53066894D01*
X165268815Y-53163585D01*
X165365506Y-53242937D01*
X165475820Y-53301902D01*
X165494127Y-53307456D01*
X165427688Y-53373895D01*
X165259701Y-53625305D01*
X165143989Y-53904657D01*
X165085000Y-54201216D01*
X165085000Y-54503584D01*
X165143989Y-54800143D01*
X165259701Y-55079495D01*
X165427688Y-55330905D01*
X165641495Y-55544712D01*
X165892905Y-55712699D01*
X166172257Y-55828411D01*
X166468816Y-55887400D01*
X166771184Y-55887400D01*
X167067743Y-55828411D01*
X167347095Y-55712699D01*
X167598505Y-55544712D01*
X167812312Y-55330905D01*
X167980299Y-55079495D01*
X168096011Y-54800143D01*
X168155000Y-54503584D01*
X168155000Y-54201216D01*
X168096011Y-53904657D01*
X167980299Y-53625305D01*
X167812312Y-53373895D01*
X167745873Y-53307456D01*
X167764180Y-53301902D01*
X167874494Y-53242937D01*
X167971185Y-53163585D01*
X168050537Y-53066894D01*
X168109502Y-52956580D01*
X168145812Y-52836882D01*
X168158072Y-52712400D01*
X168155000Y-52098150D01*
X167996250Y-51939400D01*
X166747000Y-51939400D01*
X166747000Y-51959400D01*
X166493000Y-51959400D01*
X166493000Y-51939400D01*
X165243750Y-51939400D01*
X165085000Y-52098150D01*
X165081928Y-52712400D01*
X162371177Y-52712400D01*
X162378072Y-52642400D01*
X162375000Y-52028150D01*
X162216250Y-51869400D01*
X160967000Y-51869400D01*
X160967000Y-51889400D01*
X160713000Y-51889400D01*
X160713000Y-51869400D01*
X159463750Y-51869400D01*
X159305000Y-52028150D01*
X159301928Y-52642400D01*
X157107722Y-52642400D01*
X157105000Y-52098150D01*
X156946250Y-51939400D01*
X155697000Y-51939400D01*
X155697000Y-51959400D01*
X155443000Y-51959400D01*
X155443000Y-51939400D01*
X154193750Y-51939400D01*
X154035000Y-52098150D01*
X154031928Y-52712400D01*
X154044188Y-52836882D01*
X154080498Y-52956580D01*
X154139463Y-53066894D01*
X154218815Y-53163585D01*
X154315506Y-53242937D01*
X154425820Y-53301902D01*
X154444127Y-53307456D01*
X154377688Y-53373895D01*
X154209701Y-53625305D01*
X154093989Y-53904657D01*
X154035000Y-54201216D01*
X154035000Y-54503584D01*
X154093989Y-54800143D01*
X154209701Y-55079495D01*
X154377688Y-55330905D01*
X154591495Y-55544712D01*
X154842905Y-55712699D01*
X155122257Y-55828411D01*
X155418816Y-55887400D01*
X155721184Y-55887400D01*
X155978930Y-55836131D01*
X159360001Y-59217203D01*
X159360000Y-60554356D01*
X159205241Y-60657763D01*
X159005363Y-60857641D01*
X158850000Y-61090159D01*
X158694637Y-60857641D01*
X158494759Y-60657763D01*
X158259727Y-60500720D01*
X157998574Y-60392547D01*
X157721335Y-60337400D01*
X157438665Y-60337400D01*
X157161426Y-60392547D01*
X156900273Y-60500720D01*
X156665241Y-60657763D01*
X156465363Y-60857641D01*
X156308320Y-61092673D01*
X156200147Y-61353826D01*
X156145000Y-61631065D01*
X156145000Y-61913735D01*
X156200147Y-62190974D01*
X156308320Y-62452127D01*
X156465363Y-62687159D01*
X156665241Y-62887037D01*
X156900273Y-63044080D01*
X157161426Y-63152253D01*
X157438665Y-63207400D01*
X157721335Y-63207400D01*
X157903886Y-63171088D01*
X158090001Y-63357203D01*
X158090001Y-63470417D01*
X157998574Y-63432547D01*
X157721335Y-63377400D01*
X157438665Y-63377400D01*
X157161426Y-63432547D01*
X156900273Y-63540720D01*
X156665241Y-63697763D01*
X156465363Y-63897641D01*
X156308320Y-64132673D01*
X156200147Y-64393826D01*
X156145000Y-64671065D01*
X156145000Y-64953735D01*
X156200147Y-65230974D01*
X156308320Y-65492127D01*
X156465363Y-65727159D01*
X156665241Y-65927037D01*
X156900273Y-66084080D01*
X157161426Y-66192253D01*
X157438665Y-66247400D01*
X157721335Y-66247400D01*
X157998574Y-66192253D01*
X158259727Y-66084080D01*
X158494759Y-65927037D01*
X158494897Y-65926899D01*
X159211547Y-66643549D01*
X159205241Y-66647763D01*
X159005363Y-66847641D01*
X158850000Y-67080159D01*
X158694637Y-66847641D01*
X158494759Y-66647763D01*
X158259727Y-66490720D01*
X157998574Y-66382547D01*
X157721335Y-66327400D01*
X157438665Y-66327400D01*
X157161426Y-66382547D01*
X156900273Y-66490720D01*
X156665241Y-66647763D01*
X156465363Y-66847641D01*
X156308320Y-67082673D01*
X156200147Y-67343826D01*
X156145000Y-67621065D01*
X156145000Y-67903735D01*
X156200147Y-68180974D01*
X156308320Y-68442127D01*
X156465363Y-68677159D01*
X156665241Y-68877037D01*
X156900273Y-69034080D01*
X157161426Y-69142253D01*
X157438665Y-69197400D01*
X157721335Y-69197400D01*
X157998574Y-69142253D01*
X158259727Y-69034080D01*
X158494759Y-68877037D01*
X158694637Y-68677159D01*
X158850000Y-68444641D01*
X159005363Y-68677159D01*
X159205241Y-68877037D01*
X159440273Y-69034080D01*
X159701426Y-69142253D01*
X159978665Y-69197400D01*
X160261335Y-69197400D01*
X160538574Y-69142253D01*
X160799727Y-69034080D01*
X161034759Y-68877037D01*
X161234637Y-68677159D01*
X161363820Y-68483822D01*
X162681101Y-69801103D01*
X162681100Y-70498877D01*
X162677424Y-70536200D01*
X162681100Y-70573522D01*
X162681100Y-70573532D01*
X162692097Y-70685185D01*
X162731020Y-70813499D01*
X162735554Y-70828446D01*
X162806126Y-70960476D01*
X162833191Y-70993454D01*
X162901099Y-71076201D01*
X162930102Y-71100003D01*
X163446429Y-71616330D01*
X163301958Y-71832547D01*
X163188990Y-72105275D01*
X163131400Y-72394801D01*
X163131400Y-72689999D01*
X163188990Y-72979525D01*
X163301958Y-73252253D01*
X163465961Y-73497702D01*
X163674698Y-73706439D01*
X163833281Y-73812400D01*
X163674698Y-73918361D01*
X163465961Y-74127098D01*
X163301958Y-74372547D01*
X163188990Y-74645275D01*
X163131400Y-74934801D01*
X163131400Y-75229999D01*
X163188990Y-75519525D01*
X163301958Y-75792253D01*
X163465961Y-76037702D01*
X163674698Y-76246439D01*
X163833281Y-76352400D01*
X163674698Y-76458361D01*
X163465961Y-76667098D01*
X163301958Y-76912547D01*
X163188990Y-77185275D01*
X163131400Y-77474801D01*
X163131400Y-77769999D01*
X163188990Y-78059525D01*
X163301958Y-78332253D01*
X163465961Y-78577702D01*
X163674698Y-78786439D01*
X163833281Y-78892400D01*
X163674698Y-78998361D01*
X163465961Y-79207098D01*
X163301958Y-79452547D01*
X163188990Y-79725275D01*
X163131400Y-80014801D01*
X163131400Y-80309999D01*
X163188990Y-80599525D01*
X163301958Y-80872253D01*
X163465961Y-81117702D01*
X163674698Y-81326439D01*
X163833281Y-81432400D01*
X163674698Y-81538361D01*
X163465961Y-81747098D01*
X163330653Y-81949601D01*
X163292114Y-81953397D01*
X163163052Y-81992547D01*
X163148853Y-81996854D01*
X163016823Y-82067426D01*
X162948161Y-82123776D01*
X162901099Y-82162399D01*
X162877301Y-82191397D01*
X160311599Y-84757100D01*
X159877333Y-84757100D01*
X159840000Y-84753423D01*
X159802667Y-84757100D01*
X159691014Y-84768097D01*
X159547753Y-84811554D01*
X159415724Y-84882126D01*
X159299999Y-84977099D01*
X159205026Y-85092824D01*
X159145425Y-85204328D01*
X158990000Y-85204328D01*
X158865518Y-85216588D01*
X158745820Y-85252898D01*
X158635506Y-85311863D01*
X158538815Y-85391215D01*
X158459463Y-85487906D01*
X158400498Y-85598220D01*
X158364188Y-85717918D01*
X158351928Y-85842400D01*
X158351928Y-87542400D01*
X158364188Y-87666882D01*
X158400498Y-87786580D01*
X158459463Y-87896894D01*
X158538815Y-87993585D01*
X158635506Y-88072937D01*
X158745820Y-88131902D01*
X158818380Y-88153913D01*
X158686525Y-88285768D01*
X158524010Y-88528989D01*
X158412068Y-88799242D01*
X158355000Y-89086140D01*
X158355000Y-89378660D01*
X158412068Y-89665558D01*
X158443897Y-89742400D01*
X157464002Y-89742400D01*
X153677904Y-85956303D01*
X153654101Y-85927299D01*
X153538376Y-85832326D01*
X153406347Y-85761754D01*
X153286248Y-85725323D01*
X153371246Y-85545487D01*
X153411904Y-85411439D01*
X153289915Y-85189400D01*
X152147000Y-85189400D01*
X152147000Y-85209400D01*
X151893000Y-85209400D01*
X151893000Y-85189400D01*
X150750085Y-85189400D01*
X150628096Y-85411439D01*
X150668754Y-85545487D01*
X150745234Y-85707300D01*
X145686106Y-85707300D01*
X145779853Y-85480974D01*
X145835000Y-85203735D01*
X145835000Y-85196901D01*
X146318540Y-84713361D01*
X150628096Y-84713361D01*
X150750085Y-84935400D01*
X151893000Y-84935400D01*
X151893000Y-83791776D01*
X152147000Y-83791776D01*
X152147000Y-84935400D01*
X153289915Y-84935400D01*
X153411904Y-84713361D01*
X153371246Y-84579313D01*
X153251037Y-84324980D01*
X153083519Y-84098986D01*
X152875131Y-83910015D01*
X152633881Y-83765330D01*
X152369040Y-83670491D01*
X152147000Y-83791776D01*
X151893000Y-83791776D01*
X151670960Y-83670491D01*
X151406119Y-83765330D01*
X151164869Y-83910015D01*
X150956481Y-84098986D01*
X150788963Y-84324980D01*
X150668754Y-84579313D01*
X150628096Y-84713361D01*
X146318540Y-84713361D01*
X148610462Y-82421439D01*
X150628096Y-82421439D01*
X150668754Y-82555487D01*
X150788963Y-82809820D01*
X150956481Y-83035814D01*
X151164869Y-83224785D01*
X151406119Y-83369470D01*
X151670960Y-83464309D01*
X151893000Y-83343024D01*
X151893000Y-82199400D01*
X152147000Y-82199400D01*
X152147000Y-83343024D01*
X152369040Y-83464309D01*
X152633881Y-83369470D01*
X152875131Y-83224785D01*
X153083519Y-83035814D01*
X153251037Y-82809820D01*
X153371246Y-82555487D01*
X153411904Y-82421439D01*
X153289915Y-82199400D01*
X152147000Y-82199400D01*
X151893000Y-82199400D01*
X150750085Y-82199400D01*
X150628096Y-82421439D01*
X148610462Y-82421439D01*
X149308540Y-81723361D01*
X150628096Y-81723361D01*
X150750085Y-81945400D01*
X151893000Y-81945400D01*
X151893000Y-80801776D01*
X152147000Y-80801776D01*
X152147000Y-81945400D01*
X153289915Y-81945400D01*
X153411904Y-81723361D01*
X153371246Y-81589313D01*
X153251037Y-81334980D01*
X153083519Y-81108986D01*
X152875131Y-80920015D01*
X152633881Y-80775330D01*
X152369040Y-80680491D01*
X152147000Y-80801776D01*
X151893000Y-80801776D01*
X151670960Y-80680491D01*
X151406119Y-80775330D01*
X151164869Y-80920015D01*
X150956481Y-81108986D01*
X150788963Y-81334980D01*
X150668754Y-81589313D01*
X150628096Y-81723361D01*
X149308540Y-81723361D01*
X150980053Y-80051849D01*
X151105241Y-80177037D01*
X151340273Y-80334080D01*
X151601426Y-80442253D01*
X151878665Y-80497400D01*
X152161335Y-80497400D01*
X152438574Y-80442253D01*
X152566438Y-80389290D01*
X158348524Y-80389290D01*
X158393175Y-80536499D01*
X158518359Y-80799320D01*
X158692412Y-81032669D01*
X158908645Y-81227578D01*
X159158748Y-81376557D01*
X159433109Y-81473881D01*
X159663000Y-81353214D01*
X159663000Y-80159400D01*
X159917000Y-80159400D01*
X159917000Y-81353214D01*
X160146891Y-81473881D01*
X160421252Y-81376557D01*
X160671355Y-81227578D01*
X160887588Y-81032669D01*
X161061641Y-80799320D01*
X161186825Y-80536499D01*
X161231476Y-80389290D01*
X161110155Y-80159400D01*
X159917000Y-80159400D01*
X159663000Y-80159400D01*
X158469845Y-80159400D01*
X158348524Y-80389290D01*
X152566438Y-80389290D01*
X152699727Y-80334080D01*
X152934759Y-80177037D01*
X153134637Y-79977159D01*
X153291680Y-79742127D01*
X153399853Y-79480974D01*
X153455000Y-79203735D01*
X153455000Y-78921065D01*
X153399853Y-78643826D01*
X153291680Y-78382673D01*
X153134637Y-78147641D01*
X152934759Y-77947763D01*
X152699727Y-77790720D01*
X152438574Y-77682547D01*
X152161335Y-77627400D01*
X151878665Y-77627400D01*
X151601426Y-77682547D01*
X151340273Y-77790720D01*
X151105241Y-77947763D01*
X150905363Y-78147641D01*
X150798053Y-78308242D01*
X150745714Y-78313397D01*
X150602453Y-78356854D01*
X150470424Y-78427426D01*
X150470422Y-78427427D01*
X150470423Y-78427427D01*
X150383696Y-78498601D01*
X150383692Y-78498605D01*
X150354699Y-78522399D01*
X150330905Y-78551392D01*
X145086832Y-83795467D01*
X145079727Y-83790720D01*
X144818574Y-83682547D01*
X144541335Y-83627400D01*
X144258665Y-83627400D01*
X143981426Y-83682547D01*
X143782085Y-83765117D01*
X144076114Y-83471088D01*
X144258665Y-83507400D01*
X144541335Y-83507400D01*
X144818574Y-83452253D01*
X145079727Y-83344080D01*
X145314759Y-83187037D01*
X145514637Y-82987159D01*
X145671680Y-82752127D01*
X145779853Y-82490974D01*
X145835000Y-82213735D01*
X145835000Y-82196901D01*
X150980053Y-77051849D01*
X151105241Y-77177037D01*
X151340273Y-77334080D01*
X151601426Y-77442253D01*
X151878665Y-77497400D01*
X152161335Y-77497400D01*
X152438574Y-77442253D01*
X152699727Y-77334080D01*
X152934759Y-77177037D01*
X153134637Y-76977159D01*
X153291680Y-76742127D01*
X153399853Y-76480974D01*
X153455000Y-76203735D01*
X153455000Y-75921065D01*
X153399853Y-75643826D01*
X153291680Y-75382673D01*
X153134637Y-75147641D01*
X152934759Y-74947763D01*
X152699727Y-74790720D01*
X152438574Y-74682547D01*
X152161335Y-74627400D01*
X151878665Y-74627400D01*
X151601426Y-74682547D01*
X151340273Y-74790720D01*
X151105241Y-74947763D01*
X150905363Y-75147641D01*
X150798053Y-75308242D01*
X150745714Y-75313397D01*
X150602453Y-75356854D01*
X150470424Y-75427426D01*
X150354699Y-75522399D01*
X150330901Y-75551397D01*
X145080837Y-80801462D01*
X145079727Y-80800720D01*
X144818574Y-80692547D01*
X144541335Y-80637400D01*
X144258665Y-80637400D01*
X143981426Y-80692547D01*
X143720273Y-80800720D01*
X143485241Y-80957763D01*
X143285363Y-81157641D01*
X143128320Y-81392673D01*
X143020147Y-81653826D01*
X142965000Y-81931065D01*
X142965000Y-82213735D01*
X143001312Y-82396286D01*
X139304293Y-86093306D01*
X139345000Y-85888660D01*
X139345000Y-85596140D01*
X139287932Y-85309242D01*
X139175990Y-85038989D01*
X139013475Y-84795768D01*
X138806632Y-84588925D01*
X138632240Y-84472400D01*
X138806632Y-84355875D01*
X139013475Y-84149032D01*
X139175990Y-83905811D01*
X139287932Y-83635558D01*
X139345000Y-83348660D01*
X139345000Y-83056140D01*
X139287932Y-82769242D01*
X139175990Y-82498989D01*
X139013475Y-82255768D01*
X138806632Y-82048925D01*
X138632240Y-81932400D01*
X138806632Y-81815875D01*
X139013475Y-81609032D01*
X139175990Y-81365811D01*
X139287932Y-81095558D01*
X139345000Y-80808660D01*
X139345000Y-80516140D01*
X139287932Y-80229242D01*
X139175990Y-79958989D01*
X139013475Y-79715768D01*
X138806632Y-79508925D01*
X138632240Y-79392400D01*
X138806632Y-79275875D01*
X139013475Y-79069032D01*
X139175990Y-78825811D01*
X139287932Y-78555558D01*
X139345000Y-78268660D01*
X139345000Y-77976140D01*
X139287932Y-77689242D01*
X139175990Y-77418989D01*
X139013475Y-77175768D01*
X138806632Y-76968925D01*
X138632240Y-76852400D01*
X138806632Y-76735875D01*
X139013475Y-76529032D01*
X139175990Y-76285811D01*
X139287932Y-76015558D01*
X139345000Y-75728660D01*
X139345000Y-75436140D01*
X139287932Y-75149242D01*
X139175990Y-74878989D01*
X139013475Y-74635768D01*
X138806632Y-74428925D01*
X138624466Y-74307205D01*
X138741355Y-74237578D01*
X138957588Y-74042669D01*
X139131641Y-73809320D01*
X139256825Y-73546499D01*
X139301476Y-73399290D01*
X139180155Y-73169400D01*
X137987000Y-73169400D01*
X137987000Y-73189400D01*
X137733000Y-73189400D01*
X137733000Y-73169400D01*
X136539845Y-73169400D01*
X136418524Y-73399290D01*
X136463175Y-73546499D01*
X136588359Y-73809320D01*
X136762412Y-74042669D01*
X136978645Y-74237578D01*
X137095534Y-74307205D01*
X136913368Y-74428925D01*
X136706525Y-74635768D01*
X136544010Y-74878989D01*
X136432068Y-75149242D01*
X136375000Y-75436140D01*
X136375000Y-75728660D01*
X136432068Y-76015558D01*
X136544010Y-76285811D01*
X136682508Y-76493089D01*
X132138198Y-81037401D01*
X132109200Y-81061199D01*
X132085402Y-81090197D01*
X132085401Y-81090198D01*
X132014226Y-81176924D01*
X131943654Y-81308954D01*
X131926091Y-81366854D01*
X131900198Y-81452214D01*
X131892300Y-81532399D01*
X131885524Y-81601200D01*
X131889201Y-81638533D01*
X131889200Y-98029997D01*
X127300836Y-102618363D01*
X127251641Y-102515080D01*
X127077588Y-102281731D01*
X126993534Y-102205966D01*
X127074180Y-102181502D01*
X127184494Y-102122537D01*
X127281185Y-102043185D01*
X127360537Y-101946494D01*
X127419502Y-101836180D01*
X127455812Y-101716482D01*
X127468072Y-101592000D01*
X127468072Y-99892000D01*
X127455812Y-99767518D01*
X127419502Y-99647820D01*
X127360537Y-99537506D01*
X127281185Y-99440815D01*
X127217748Y-99388754D01*
X127220273Y-99385677D01*
X127228475Y-99370333D01*
X127290846Y-99253647D01*
X127334303Y-99110386D01*
X127345300Y-98998733D01*
X127345300Y-98998724D01*
X127348976Y-98961401D01*
X127345300Y-98924078D01*
X127345300Y-90866140D01*
X128575000Y-90866140D01*
X128575000Y-91158660D01*
X128632068Y-91445558D01*
X128744010Y-91715811D01*
X128906525Y-91959032D01*
X129113368Y-92165875D01*
X129287760Y-92282400D01*
X129113368Y-92398925D01*
X128906525Y-92605768D01*
X128744010Y-92848989D01*
X128632068Y-93119242D01*
X128575000Y-93406140D01*
X128575000Y-93698660D01*
X128632068Y-93985558D01*
X128744010Y-94255811D01*
X128906525Y-94499032D01*
X129113368Y-94705875D01*
X129356589Y-94868390D01*
X129626842Y-94980332D01*
X129913740Y-95037400D01*
X130206260Y-95037400D01*
X130493158Y-94980332D01*
X130763411Y-94868390D01*
X131006632Y-94705875D01*
X131213475Y-94499032D01*
X131375990Y-94255811D01*
X131487932Y-93985558D01*
X131545000Y-93698660D01*
X131545000Y-93406140D01*
X131487932Y-93119242D01*
X131375990Y-92848989D01*
X131213475Y-92605768D01*
X131006632Y-92398925D01*
X130832240Y-92282400D01*
X131006632Y-92165875D01*
X131213475Y-91959032D01*
X131375990Y-91715811D01*
X131487932Y-91445558D01*
X131545000Y-91158660D01*
X131545000Y-90866140D01*
X131487932Y-90579242D01*
X131375990Y-90308989D01*
X131213475Y-90065768D01*
X131006632Y-89858925D01*
X130824466Y-89737205D01*
X130941355Y-89667578D01*
X131157588Y-89472669D01*
X131331641Y-89239320D01*
X131456825Y-88976499D01*
X131501476Y-88829290D01*
X131380155Y-88599400D01*
X130187000Y-88599400D01*
X130187000Y-88619400D01*
X129933000Y-88619400D01*
X129933000Y-88599400D01*
X128739845Y-88599400D01*
X128618524Y-88829290D01*
X128663175Y-88976499D01*
X128788359Y-89239320D01*
X128962412Y-89472669D01*
X129178645Y-89667578D01*
X129295534Y-89737205D01*
X129113368Y-89858925D01*
X128906525Y-90065768D01*
X128744010Y-90308989D01*
X128632068Y-90579242D01*
X128575000Y-90866140D01*
X127345300Y-90866140D01*
X127345300Y-86247201D01*
X127695102Y-85897400D01*
X127774899Y-85897400D01*
X128320901Y-86443402D01*
X128344699Y-86472401D01*
X128460424Y-86567374D01*
X128592453Y-86637946D01*
X128735714Y-86681403D01*
X128777204Y-86685489D01*
X128906525Y-86879032D01*
X129113368Y-87085875D01*
X129295534Y-87207595D01*
X129178645Y-87277222D01*
X128962412Y-87472131D01*
X128788359Y-87705480D01*
X128663175Y-87968301D01*
X128618524Y-88115510D01*
X128739845Y-88345400D01*
X129933000Y-88345400D01*
X129933000Y-88325400D01*
X130187000Y-88325400D01*
X130187000Y-88345400D01*
X131380155Y-88345400D01*
X131501476Y-88115510D01*
X131456825Y-87968301D01*
X131331641Y-87705480D01*
X131157588Y-87472131D01*
X130941355Y-87277222D01*
X130824466Y-87207595D01*
X131006632Y-87085875D01*
X131213475Y-86879032D01*
X131375990Y-86635811D01*
X131487932Y-86365558D01*
X131545000Y-86078660D01*
X131545000Y-85786140D01*
X131487932Y-85499242D01*
X131375990Y-85228989D01*
X131213475Y-84985768D01*
X131081620Y-84853913D01*
X131154180Y-84831902D01*
X131264494Y-84772937D01*
X131361185Y-84693585D01*
X131440537Y-84596894D01*
X131499502Y-84486580D01*
X131535812Y-84366882D01*
X131548072Y-84242400D01*
X131548072Y-82542400D01*
X131535812Y-82417918D01*
X131499502Y-82298220D01*
X131440537Y-82187906D01*
X131361185Y-82091215D01*
X131305987Y-82045915D01*
X131374104Y-81977798D01*
X131403101Y-81954001D01*
X131443867Y-81904328D01*
X131498074Y-81838277D01*
X131568646Y-81706247D01*
X131586277Y-81648124D01*
X131612103Y-81562986D01*
X131623100Y-81451333D01*
X131623100Y-81451323D01*
X131626776Y-81414000D01*
X131623100Y-81376677D01*
X131623100Y-68570833D01*
X131626777Y-68533500D01*
X131612103Y-68384514D01*
X131568646Y-68241253D01*
X131498074Y-68109224D01*
X131426899Y-68022497D01*
X131403101Y-67993499D01*
X131374103Y-67969701D01*
X130642151Y-67237749D01*
X130669502Y-67186580D01*
X130705812Y-67066882D01*
X130718072Y-66942400D01*
X130718072Y-65242400D01*
X130705812Y-65117918D01*
X130669502Y-64998220D01*
X130610537Y-64887906D01*
X130531185Y-64791215D01*
X130475987Y-64745915D01*
X130587503Y-64634399D01*
X130616501Y-64610601D01*
X130711474Y-64494876D01*
X130782046Y-64362847D01*
X130825503Y-64219586D01*
X130836500Y-64107933D01*
X130836500Y-64107925D01*
X130840176Y-64070600D01*
X130836500Y-64033275D01*
X130836500Y-56331225D01*
X130840176Y-56293900D01*
X130836500Y-56256575D01*
X130836500Y-56256567D01*
X130825503Y-56144914D01*
X130782046Y-56001653D01*
X130733800Y-55911392D01*
X130733800Y-55842842D01*
X130793109Y-55863881D01*
X131023000Y-55743214D01*
X131023000Y-54549400D01*
X131003000Y-54549400D01*
X131003000Y-54295400D01*
X131023000Y-54295400D01*
X131023000Y-54275400D01*
X131277000Y-54275400D01*
X131277000Y-54295400D01*
X131297000Y-54295400D01*
X131297000Y-54549400D01*
X131277000Y-54549400D01*
X131277000Y-55743214D01*
X131506891Y-55863881D01*
X131751901Y-55776969D01*
X131751900Y-61851178D01*
X131748224Y-61888500D01*
X131751900Y-61925822D01*
X131751900Y-61925832D01*
X131762897Y-62037485D01*
X131802064Y-62166603D01*
X131806354Y-62180746D01*
X131876926Y-62312776D01*
X131896687Y-62336854D01*
X131971899Y-62428501D01*
X132000903Y-62452304D01*
X138562926Y-69014328D01*
X137010000Y-69014328D01*
X136885518Y-69026588D01*
X136765820Y-69062898D01*
X136655506Y-69121863D01*
X136558815Y-69201215D01*
X136479463Y-69297906D01*
X136420498Y-69408220D01*
X136384188Y-69527918D01*
X136371928Y-69652400D01*
X136371928Y-71352400D01*
X136384188Y-71476882D01*
X136420498Y-71596580D01*
X136479463Y-71706894D01*
X136558815Y-71803585D01*
X136655506Y-71882937D01*
X136765820Y-71941902D01*
X136846466Y-71966366D01*
X136762412Y-72042131D01*
X136588359Y-72275480D01*
X136463175Y-72538301D01*
X136418524Y-72685510D01*
X136539845Y-72915400D01*
X137733000Y-72915400D01*
X137733000Y-72895400D01*
X137987000Y-72895400D01*
X137987000Y-72915400D01*
X139180155Y-72915400D01*
X139301476Y-72685510D01*
X139256825Y-72538301D01*
X139131641Y-72275480D01*
X138957588Y-72042131D01*
X138873534Y-71966366D01*
X138954180Y-71941902D01*
X139064494Y-71882937D01*
X139161185Y-71803585D01*
X139240537Y-71706894D01*
X139299502Y-71596580D01*
X139335812Y-71476882D01*
X139348072Y-71352400D01*
X139348072Y-69799474D01*
X141765401Y-72216803D01*
X141765400Y-77150477D01*
X141761724Y-77187800D01*
X141765400Y-77225122D01*
X141765400Y-77225132D01*
X141776397Y-77336785D01*
X141801333Y-77418989D01*
X141819854Y-77480046D01*
X141890426Y-77612076D01*
X141921822Y-77650332D01*
X141985399Y-77727801D01*
X142014403Y-77751604D01*
X143001312Y-78738514D01*
X142965000Y-78921065D01*
X142965000Y-79203735D01*
X143020147Y-79480974D01*
X143128320Y-79742127D01*
X143285363Y-79977159D01*
X143485241Y-80177037D01*
X143720273Y-80334080D01*
X143981426Y-80442253D01*
X144258665Y-80497400D01*
X144541335Y-80497400D01*
X144818574Y-80442253D01*
X145079727Y-80334080D01*
X145314759Y-80177037D01*
X145514637Y-79977159D01*
X145671680Y-79742127D01*
X145779853Y-79480974D01*
X145835000Y-79203735D01*
X145835000Y-78921065D01*
X145779853Y-78643826D01*
X145671680Y-78382673D01*
X145514637Y-78147641D01*
X145314759Y-77947763D01*
X145079727Y-77790720D01*
X144818574Y-77682547D01*
X144541335Y-77627400D01*
X144258665Y-77627400D01*
X144076114Y-77663712D01*
X143765013Y-77352612D01*
X143981426Y-77442253D01*
X144258665Y-77497400D01*
X144541335Y-77497400D01*
X144818574Y-77442253D01*
X145079727Y-77334080D01*
X145314759Y-77177037D01*
X145514637Y-76977159D01*
X145671680Y-76742127D01*
X145779853Y-76480974D01*
X145835000Y-76203735D01*
X145835000Y-75921065D01*
X145779853Y-75643826D01*
X145671680Y-75382673D01*
X145514637Y-75147641D01*
X145314759Y-74947763D01*
X145079727Y-74790720D01*
X144818574Y-74682547D01*
X144541335Y-74627400D01*
X144258665Y-74627400D01*
X143981426Y-74682547D01*
X143720273Y-74790720D01*
X143485241Y-74947763D01*
X143285400Y-75147604D01*
X143285400Y-71939333D01*
X143289077Y-71902000D01*
X143274403Y-71753014D01*
X143230946Y-71609753D01*
X143160374Y-71477724D01*
X143089199Y-71390997D01*
X143065401Y-71361999D01*
X143036403Y-71338201D01*
X142997925Y-71299723D01*
X145503000Y-71299723D01*
X145503000Y-71825077D01*
X145605492Y-72340335D01*
X145806536Y-72825698D01*
X146098406Y-73262513D01*
X146469887Y-73633994D01*
X146906702Y-73925864D01*
X147392065Y-74126908D01*
X147907323Y-74229400D01*
X148432677Y-74229400D01*
X148947935Y-74126908D01*
X149007102Y-74102400D01*
X158301928Y-74102400D01*
X158301928Y-75802400D01*
X158314188Y-75926882D01*
X158350498Y-76046580D01*
X158409463Y-76156894D01*
X158488815Y-76253585D01*
X158585506Y-76332937D01*
X158695820Y-76391902D01*
X158768380Y-76413913D01*
X158636525Y-76545768D01*
X158474010Y-76788989D01*
X158362068Y-77059242D01*
X158305000Y-77346140D01*
X158305000Y-77638660D01*
X158362068Y-77925558D01*
X158474010Y-78195811D01*
X158636525Y-78439032D01*
X158843368Y-78645875D01*
X159025534Y-78767595D01*
X158908645Y-78837222D01*
X158692412Y-79032131D01*
X158518359Y-79265480D01*
X158393175Y-79528301D01*
X158348524Y-79675510D01*
X158469845Y-79905400D01*
X159663000Y-79905400D01*
X159663000Y-79885400D01*
X159917000Y-79885400D01*
X159917000Y-79905400D01*
X161110155Y-79905400D01*
X161231476Y-79675510D01*
X161186825Y-79528301D01*
X161061641Y-79265480D01*
X160887588Y-79032131D01*
X160671355Y-78837222D01*
X160554466Y-78767595D01*
X160736632Y-78645875D01*
X160943475Y-78439032D01*
X161105990Y-78195811D01*
X161217932Y-77925558D01*
X161275000Y-77638660D01*
X161275000Y-77346140D01*
X161217932Y-77059242D01*
X161105990Y-76788989D01*
X160943475Y-76545768D01*
X160811620Y-76413913D01*
X160884180Y-76391902D01*
X160994494Y-76332937D01*
X161091185Y-76253585D01*
X161170537Y-76156894D01*
X161229502Y-76046580D01*
X161265812Y-75926882D01*
X161278072Y-75802400D01*
X161278072Y-74102400D01*
X161265812Y-73977918D01*
X161229502Y-73858220D01*
X161170537Y-73747906D01*
X161091185Y-73651215D01*
X160994494Y-73571863D01*
X160884180Y-73512898D01*
X160764482Y-73476588D01*
X160640000Y-73464328D01*
X158940000Y-73464328D01*
X158815518Y-73476588D01*
X158695820Y-73512898D01*
X158585506Y-73571863D01*
X158488815Y-73651215D01*
X158409463Y-73747906D01*
X158350498Y-73858220D01*
X158314188Y-73977918D01*
X158301928Y-74102400D01*
X149007102Y-74102400D01*
X149433298Y-73925864D01*
X149870113Y-73633994D01*
X150241594Y-73262513D01*
X150533464Y-72825698D01*
X150734508Y-72340335D01*
X150837000Y-71825077D01*
X150837000Y-71299723D01*
X150734508Y-70784465D01*
X150533464Y-70299102D01*
X150241594Y-69862287D01*
X149870113Y-69490806D01*
X149433298Y-69198936D01*
X148947935Y-68997892D01*
X148432677Y-68895400D01*
X147907323Y-68895400D01*
X147392065Y-68997892D01*
X146906702Y-69198936D01*
X146469887Y-69490806D01*
X146098406Y-69862287D01*
X145806536Y-70299102D01*
X145605492Y-70784465D01*
X145503000Y-71299723D01*
X142997925Y-71299723D01*
X136621871Y-64923670D01*
X153168849Y-64923670D01*
X153200100Y-64926748D01*
X153231351Y-64923670D01*
X153324831Y-64914463D01*
X153444768Y-64878081D01*
X153555303Y-64818998D01*
X153652187Y-64739487D01*
X153731698Y-64642603D01*
X153790781Y-64532068D01*
X153827163Y-64412131D01*
X153839448Y-64287400D01*
X153836370Y-64256149D01*
X153836370Y-50318670D01*
X154439758Y-50318670D01*
X154425820Y-50322898D01*
G04 #@! TA.AperFunction,Conductor*
D24*
G36*
X154425820Y-50322898D02*
G01*
X154315506Y-50381863D01*
X154218815Y-50461215D01*
X154139463Y-50557906D01*
X154080498Y-50668220D01*
X154044188Y-50787918D01*
X154031928Y-50912400D01*
X154035000Y-51526650D01*
X154193750Y-51685400D01*
X155443000Y-51685400D01*
X155443000Y-51665400D01*
X155697000Y-51665400D01*
X155697000Y-51685400D01*
X156946250Y-51685400D01*
X157105000Y-51526650D01*
X157108072Y-50912400D01*
X157095812Y-50787918D01*
X157059502Y-50668220D01*
X157000537Y-50557906D01*
X156921185Y-50461215D01*
X156824494Y-50381863D01*
X156714180Y-50322898D01*
X156700242Y-50318670D01*
X159577212Y-50318670D01*
X159488815Y-50391215D01*
X159409463Y-50487906D01*
X159350498Y-50598220D01*
X159314188Y-50717918D01*
X159301928Y-50842400D01*
X159305000Y-51456650D01*
X159463750Y-51615400D01*
X160713000Y-51615400D01*
X160713000Y-51595400D01*
X160967000Y-51595400D01*
X160967000Y-51615400D01*
X162216250Y-51615400D01*
X162375000Y-51456650D01*
X162378072Y-50842400D01*
X162365812Y-50717918D01*
X162329502Y-50598220D01*
X162270537Y-50487906D01*
X162191185Y-50391215D01*
X162102788Y-50318670D01*
X165489758Y-50318670D01*
X165475820Y-50322898D01*
X165365506Y-50381863D01*
X165268815Y-50461215D01*
X165189463Y-50557906D01*
X165130498Y-50668220D01*
X165094188Y-50787918D01*
X165081928Y-50912400D01*
X165085000Y-51526650D01*
X165243750Y-51685400D01*
X166493000Y-51685400D01*
X166493000Y-51665400D01*
X166747000Y-51665400D01*
X166747000Y-51685400D01*
X167996250Y-51685400D01*
X168155000Y-51526650D01*
X168158072Y-50912400D01*
X168145812Y-50787918D01*
X168109502Y-50668220D01*
X168050537Y-50557906D01*
X167971185Y-50461215D01*
X167874494Y-50381863D01*
X167764180Y-50322898D01*
X167750242Y-50318670D01*
X168438831Y-50318670D01*
X168438831Y-61588913D01*
X168276854Y-61372107D01*
X168058488Y-61175583D01*
X167805978Y-61025436D01*
X167529027Y-60927437D01*
X167297000Y-61047936D01*
X167297000Y-62255400D01*
X167317000Y-62255400D01*
X167317000Y-62509400D01*
X167297000Y-62509400D01*
X167297000Y-62529400D01*
X167043000Y-62529400D01*
X167043000Y-62509400D01*
X164757000Y-62509400D01*
X164757000Y-62529400D01*
X164503000Y-62529400D01*
X164503000Y-62509400D01*
X163290150Y-62509400D01*
X163131400Y-62668150D01*
X163128328Y-63246000D01*
X163140588Y-63370482D01*
X163176898Y-63490180D01*
X163235863Y-63600494D01*
X163315215Y-63697185D01*
X163411906Y-63776537D01*
X163522220Y-63835502D01*
X163580023Y-63853036D01*
X163465961Y-63967098D01*
X163301958Y-64212547D01*
X163188990Y-64485275D01*
X163131400Y-64774801D01*
X163131400Y-65069999D01*
X163188990Y-65359525D01*
X163301958Y-65632253D01*
X163465961Y-65877702D01*
X163674698Y-66086439D01*
X163833281Y-66192400D01*
X163674698Y-66298361D01*
X163465961Y-66507098D01*
X163301958Y-66752547D01*
X163188990Y-67025275D01*
X163131400Y-67314801D01*
X163131400Y-67609999D01*
X163188990Y-67899525D01*
X163301958Y-68172253D01*
X163465961Y-68417702D01*
X163674698Y-68626439D01*
X163833281Y-68732400D01*
X163790552Y-68760950D01*
X160987929Y-65958328D01*
X161034759Y-65927037D01*
X161234637Y-65727159D01*
X161391680Y-65492127D01*
X161499853Y-65230974D01*
X161555000Y-64953735D01*
X161555000Y-64671065D01*
X161499853Y-64393826D01*
X161391680Y-64132673D01*
X161234637Y-63897641D01*
X161034759Y-63697763D01*
X160799727Y-63540720D01*
X160538574Y-63432547D01*
X160261335Y-63377400D01*
X159978665Y-63377400D01*
X159701426Y-63432547D01*
X159610000Y-63470417D01*
X159610000Y-63114383D01*
X159701426Y-63152253D01*
X159978665Y-63207400D01*
X160261335Y-63207400D01*
X160538574Y-63152253D01*
X160799727Y-63044080D01*
X161034759Y-62887037D01*
X161234637Y-62687159D01*
X161391680Y-62452127D01*
X161499853Y-62190974D01*
X161555000Y-61913735D01*
X161555000Y-61631065D01*
X161532669Y-61518800D01*
X163128328Y-61518800D01*
X163131400Y-62096650D01*
X163290150Y-62255400D01*
X164503000Y-62255400D01*
X164503000Y-61042550D01*
X164757000Y-61042550D01*
X164757000Y-62255400D01*
X167043000Y-62255400D01*
X167043000Y-61047936D01*
X166810973Y-60927437D01*
X166534022Y-61025436D01*
X166281512Y-61175583D01*
X166102053Y-61337092D01*
X166083102Y-61274620D01*
X166024137Y-61164306D01*
X165944785Y-61067615D01*
X165848094Y-60988263D01*
X165737780Y-60929298D01*
X165618082Y-60892988D01*
X165493600Y-60880728D01*
X164915750Y-60883800D01*
X164757000Y-61042550D01*
X164503000Y-61042550D01*
X164344250Y-60883800D01*
X163766400Y-60880728D01*
X163641918Y-60892988D01*
X163522220Y-60929298D01*
X163411906Y-60988263D01*
X163315215Y-61067615D01*
X163235863Y-61164306D01*
X163176898Y-61274620D01*
X163140588Y-61394318D01*
X163128328Y-61518800D01*
X161532669Y-61518800D01*
X161499853Y-61353826D01*
X161391680Y-61092673D01*
X161234637Y-60857641D01*
X161034759Y-60657763D01*
X160880000Y-60554357D01*
X160880000Y-58939725D01*
X160883676Y-58902400D01*
X160880000Y-58865075D01*
X160880000Y-58865067D01*
X160869003Y-58753414D01*
X160825546Y-58610153D01*
X160754974Y-58478124D01*
X160660001Y-58362399D01*
X160631003Y-58338601D01*
X157053731Y-54761330D01*
X157105000Y-54503584D01*
X157105000Y-54201216D01*
X157046011Y-53904657D01*
X156930299Y-53625305D01*
X156762312Y-53373895D01*
X156695873Y-53307456D01*
X156714180Y-53301902D01*
X156824494Y-53242937D01*
X156921185Y-53163585D01*
X157000537Y-53066894D01*
X157059502Y-52956580D01*
X157095812Y-52836882D01*
X157108072Y-52712400D01*
X157107722Y-52642400D01*
X159301928Y-52642400D01*
X159314188Y-52766882D01*
X159350498Y-52886580D01*
X159409463Y-52996894D01*
X159488815Y-53093585D01*
X159585506Y-53172937D01*
X159695820Y-53231902D01*
X159714127Y-53237456D01*
X159647688Y-53303895D01*
X159479701Y-53555305D01*
X159363989Y-53834657D01*
X159305000Y-54131216D01*
X159305000Y-54433584D01*
X159363989Y-54730143D01*
X159479701Y-55009495D01*
X159647688Y-55260905D01*
X159861495Y-55474712D01*
X160112905Y-55642699D01*
X160392257Y-55758411D01*
X160688816Y-55817400D01*
X160991184Y-55817400D01*
X161287743Y-55758411D01*
X161567095Y-55642699D01*
X161818505Y-55474712D01*
X162032312Y-55260905D01*
X162200299Y-55009495D01*
X162316011Y-54730143D01*
X162375000Y-54433584D01*
X162375000Y-54131216D01*
X162316011Y-53834657D01*
X162200299Y-53555305D01*
X162032312Y-53303895D01*
X161965873Y-53237456D01*
X161984180Y-53231902D01*
X162094494Y-53172937D01*
X162191185Y-53093585D01*
X162270537Y-52996894D01*
X162329502Y-52886580D01*
X162365812Y-52766882D01*
X162371177Y-52712400D01*
X165081928Y-52712400D01*
X165094188Y-52836882D01*
X165130498Y-52956580D01*
X165189463Y-53066894D01*
X165268815Y-53163585D01*
X165365506Y-53242937D01*
X165475820Y-53301902D01*
X165494127Y-53307456D01*
X165427688Y-53373895D01*
X165259701Y-53625305D01*
X165143989Y-53904657D01*
X165085000Y-54201216D01*
X165085000Y-54503584D01*
X165143989Y-54800143D01*
X165259701Y-55079495D01*
X165427688Y-55330905D01*
X165641495Y-55544712D01*
X165892905Y-55712699D01*
X166172257Y-55828411D01*
X166468816Y-55887400D01*
X166771184Y-55887400D01*
X167067743Y-55828411D01*
X167347095Y-55712699D01*
X167598505Y-55544712D01*
X167812312Y-55330905D01*
X167980299Y-55079495D01*
X168096011Y-54800143D01*
X168155000Y-54503584D01*
X168155000Y-54201216D01*
X168096011Y-53904657D01*
X167980299Y-53625305D01*
X167812312Y-53373895D01*
X167745873Y-53307456D01*
X167764180Y-53301902D01*
X167874494Y-53242937D01*
X167971185Y-53163585D01*
X168050537Y-53066894D01*
X168109502Y-52956580D01*
X168145812Y-52836882D01*
X168158072Y-52712400D01*
X168155000Y-52098150D01*
X167996250Y-51939400D01*
X166747000Y-51939400D01*
X166747000Y-51959400D01*
X166493000Y-51959400D01*
X166493000Y-51939400D01*
X165243750Y-51939400D01*
X165085000Y-52098150D01*
X165081928Y-52712400D01*
X162371177Y-52712400D01*
X162378072Y-52642400D01*
X162375000Y-52028150D01*
X162216250Y-51869400D01*
X160967000Y-51869400D01*
X160967000Y-51889400D01*
X160713000Y-51889400D01*
X160713000Y-51869400D01*
X159463750Y-51869400D01*
X159305000Y-52028150D01*
X159301928Y-52642400D01*
X157107722Y-52642400D01*
X157105000Y-52098150D01*
X156946250Y-51939400D01*
X155697000Y-51939400D01*
X155697000Y-51959400D01*
X155443000Y-51959400D01*
X155443000Y-51939400D01*
X154193750Y-51939400D01*
X154035000Y-52098150D01*
X154031928Y-52712400D01*
X154044188Y-52836882D01*
X154080498Y-52956580D01*
X154139463Y-53066894D01*
X154218815Y-53163585D01*
X154315506Y-53242937D01*
X154425820Y-53301902D01*
X154444127Y-53307456D01*
X154377688Y-53373895D01*
X154209701Y-53625305D01*
X154093989Y-53904657D01*
X154035000Y-54201216D01*
X154035000Y-54503584D01*
X154093989Y-54800143D01*
X154209701Y-55079495D01*
X154377688Y-55330905D01*
X154591495Y-55544712D01*
X154842905Y-55712699D01*
X155122257Y-55828411D01*
X155418816Y-55887400D01*
X155721184Y-55887400D01*
X155978930Y-55836131D01*
X159360001Y-59217203D01*
X159360000Y-60554356D01*
X159205241Y-60657763D01*
X159005363Y-60857641D01*
X158850000Y-61090159D01*
X158694637Y-60857641D01*
X158494759Y-60657763D01*
X158259727Y-60500720D01*
X157998574Y-60392547D01*
X157721335Y-60337400D01*
X157438665Y-60337400D01*
X157161426Y-60392547D01*
X156900273Y-60500720D01*
X156665241Y-60657763D01*
X156465363Y-60857641D01*
X156308320Y-61092673D01*
X156200147Y-61353826D01*
X156145000Y-61631065D01*
X156145000Y-61913735D01*
X156200147Y-62190974D01*
X156308320Y-62452127D01*
X156465363Y-62687159D01*
X156665241Y-62887037D01*
X156900273Y-63044080D01*
X157161426Y-63152253D01*
X157438665Y-63207400D01*
X157721335Y-63207400D01*
X157903886Y-63171088D01*
X158090001Y-63357203D01*
X158090001Y-63470417D01*
X157998574Y-63432547D01*
X157721335Y-63377400D01*
X157438665Y-63377400D01*
X157161426Y-63432547D01*
X156900273Y-63540720D01*
X156665241Y-63697763D01*
X156465363Y-63897641D01*
X156308320Y-64132673D01*
X156200147Y-64393826D01*
X156145000Y-64671065D01*
X156145000Y-64953735D01*
X156200147Y-65230974D01*
X156308320Y-65492127D01*
X156465363Y-65727159D01*
X156665241Y-65927037D01*
X156900273Y-66084080D01*
X157161426Y-66192253D01*
X157438665Y-66247400D01*
X157721335Y-66247400D01*
X157998574Y-66192253D01*
X158259727Y-66084080D01*
X158494759Y-65927037D01*
X158494897Y-65926899D01*
X159211547Y-66643549D01*
X159205241Y-66647763D01*
X159005363Y-66847641D01*
X158850000Y-67080159D01*
X158694637Y-66847641D01*
X158494759Y-66647763D01*
X158259727Y-66490720D01*
X157998574Y-66382547D01*
X157721335Y-66327400D01*
X157438665Y-66327400D01*
X157161426Y-66382547D01*
X156900273Y-66490720D01*
X156665241Y-66647763D01*
X156465363Y-66847641D01*
X156308320Y-67082673D01*
X156200147Y-67343826D01*
X156145000Y-67621065D01*
X156145000Y-67903735D01*
X156200147Y-68180974D01*
X156308320Y-68442127D01*
X156465363Y-68677159D01*
X156665241Y-68877037D01*
X156900273Y-69034080D01*
X157161426Y-69142253D01*
X157438665Y-69197400D01*
X157721335Y-69197400D01*
X157998574Y-69142253D01*
X158259727Y-69034080D01*
X158494759Y-68877037D01*
X158694637Y-68677159D01*
X158850000Y-68444641D01*
X159005363Y-68677159D01*
X159205241Y-68877037D01*
X159440273Y-69034080D01*
X159701426Y-69142253D01*
X159978665Y-69197400D01*
X160261335Y-69197400D01*
X160538574Y-69142253D01*
X160799727Y-69034080D01*
X161034759Y-68877037D01*
X161234637Y-68677159D01*
X161363820Y-68483822D01*
X162681101Y-69801103D01*
X162681100Y-70498877D01*
X162677424Y-70536200D01*
X162681100Y-70573522D01*
X162681100Y-70573532D01*
X162692097Y-70685185D01*
X162731020Y-70813499D01*
X162735554Y-70828446D01*
X162806126Y-70960476D01*
X162833191Y-70993454D01*
X162901099Y-71076201D01*
X162930102Y-71100003D01*
X163446429Y-71616330D01*
X163301958Y-71832547D01*
X163188990Y-72105275D01*
X163131400Y-72394801D01*
X163131400Y-72689999D01*
X163188990Y-72979525D01*
X163301958Y-73252253D01*
X163465961Y-73497702D01*
X163674698Y-73706439D01*
X163833281Y-73812400D01*
X163674698Y-73918361D01*
X163465961Y-74127098D01*
X163301958Y-74372547D01*
X163188990Y-74645275D01*
X163131400Y-74934801D01*
X163131400Y-75229999D01*
X163188990Y-75519525D01*
X163301958Y-75792253D01*
X163465961Y-76037702D01*
X163674698Y-76246439D01*
X163833281Y-76352400D01*
X163674698Y-76458361D01*
X163465961Y-76667098D01*
X163301958Y-76912547D01*
X163188990Y-77185275D01*
X163131400Y-77474801D01*
X163131400Y-77769999D01*
X163188990Y-78059525D01*
X163301958Y-78332253D01*
X163465961Y-78577702D01*
X163674698Y-78786439D01*
X163833281Y-78892400D01*
X163674698Y-78998361D01*
X163465961Y-79207098D01*
X163301958Y-79452547D01*
X163188990Y-79725275D01*
X163131400Y-80014801D01*
X163131400Y-80309999D01*
X163188990Y-80599525D01*
X163301958Y-80872253D01*
X163465961Y-81117702D01*
X163674698Y-81326439D01*
X163833281Y-81432400D01*
X163674698Y-81538361D01*
X163465961Y-81747098D01*
X163330653Y-81949601D01*
X163292114Y-81953397D01*
X163163052Y-81992547D01*
X163148853Y-81996854D01*
X163016823Y-82067426D01*
X162948161Y-82123776D01*
X162901099Y-82162399D01*
X162877301Y-82191397D01*
X160311599Y-84757100D01*
X159877333Y-84757100D01*
X159840000Y-84753423D01*
X159802667Y-84757100D01*
X159691014Y-84768097D01*
X159547753Y-84811554D01*
X159415724Y-84882126D01*
X159299999Y-84977099D01*
X159205026Y-85092824D01*
X159145425Y-85204328D01*
X158990000Y-85204328D01*
X158865518Y-85216588D01*
X158745820Y-85252898D01*
X158635506Y-85311863D01*
X158538815Y-85391215D01*
X158459463Y-85487906D01*
X158400498Y-85598220D01*
X158364188Y-85717918D01*
X158351928Y-85842400D01*
X158351928Y-87542400D01*
X158364188Y-87666882D01*
X158400498Y-87786580D01*
X158459463Y-87896894D01*
X158538815Y-87993585D01*
X158635506Y-88072937D01*
X158745820Y-88131902D01*
X158818380Y-88153913D01*
X158686525Y-88285768D01*
X158524010Y-88528989D01*
X158412068Y-88799242D01*
X158355000Y-89086140D01*
X158355000Y-89378660D01*
X158412068Y-89665558D01*
X158443897Y-89742400D01*
X157464002Y-89742400D01*
X153677904Y-85956303D01*
X153654101Y-85927299D01*
X153538376Y-85832326D01*
X153406347Y-85761754D01*
X153286248Y-85725323D01*
X153371246Y-85545487D01*
X153411904Y-85411439D01*
X153289915Y-85189400D01*
X152147000Y-85189400D01*
X152147000Y-85209400D01*
X151893000Y-85209400D01*
X151893000Y-85189400D01*
X150750085Y-85189400D01*
X150628096Y-85411439D01*
X150668754Y-85545487D01*
X150745234Y-85707300D01*
X145686106Y-85707300D01*
X145779853Y-85480974D01*
X145835000Y-85203735D01*
X145835000Y-85196901D01*
X146318540Y-84713361D01*
X150628096Y-84713361D01*
X150750085Y-84935400D01*
X151893000Y-84935400D01*
X151893000Y-83791776D01*
X152147000Y-83791776D01*
X152147000Y-84935400D01*
X153289915Y-84935400D01*
X153411904Y-84713361D01*
X153371246Y-84579313D01*
X153251037Y-84324980D01*
X153083519Y-84098986D01*
X152875131Y-83910015D01*
X152633881Y-83765330D01*
X152369040Y-83670491D01*
X152147000Y-83791776D01*
X151893000Y-83791776D01*
X151670960Y-83670491D01*
X151406119Y-83765330D01*
X151164869Y-83910015D01*
X150956481Y-84098986D01*
X150788963Y-84324980D01*
X150668754Y-84579313D01*
X150628096Y-84713361D01*
X146318540Y-84713361D01*
X148610462Y-82421439D01*
X150628096Y-82421439D01*
X150668754Y-82555487D01*
X150788963Y-82809820D01*
X150956481Y-83035814D01*
X151164869Y-83224785D01*
X151406119Y-83369470D01*
X151670960Y-83464309D01*
X151893000Y-83343024D01*
X151893000Y-82199400D01*
X152147000Y-82199400D01*
X152147000Y-83343024D01*
X152369040Y-83464309D01*
X152633881Y-83369470D01*
X152875131Y-83224785D01*
X153083519Y-83035814D01*
X153251037Y-82809820D01*
X153371246Y-82555487D01*
X153411904Y-82421439D01*
X153289915Y-82199400D01*
X152147000Y-82199400D01*
X151893000Y-82199400D01*
X150750085Y-82199400D01*
X150628096Y-82421439D01*
X148610462Y-82421439D01*
X149308540Y-81723361D01*
X150628096Y-81723361D01*
X150750085Y-81945400D01*
X151893000Y-81945400D01*
X151893000Y-80801776D01*
X152147000Y-80801776D01*
X152147000Y-81945400D01*
X153289915Y-81945400D01*
X153411904Y-81723361D01*
X153371246Y-81589313D01*
X153251037Y-81334980D01*
X153083519Y-81108986D01*
X152875131Y-80920015D01*
X152633881Y-80775330D01*
X152369040Y-80680491D01*
X152147000Y-80801776D01*
X151893000Y-80801776D01*
X151670960Y-80680491D01*
X151406119Y-80775330D01*
X151164869Y-80920015D01*
X150956481Y-81108986D01*
X150788963Y-81334980D01*
X150668754Y-81589313D01*
X150628096Y-81723361D01*
X149308540Y-81723361D01*
X150980053Y-80051849D01*
X151105241Y-80177037D01*
X151340273Y-80334080D01*
X151601426Y-80442253D01*
X151878665Y-80497400D01*
X152161335Y-80497400D01*
X152438574Y-80442253D01*
X152566438Y-80389290D01*
X158348524Y-80389290D01*
X158393175Y-80536499D01*
X158518359Y-80799320D01*
X158692412Y-81032669D01*
X158908645Y-81227578D01*
X159158748Y-81376557D01*
X159433109Y-81473881D01*
X159663000Y-81353214D01*
X159663000Y-80159400D01*
X159917000Y-80159400D01*
X159917000Y-81353214D01*
X160146891Y-81473881D01*
X160421252Y-81376557D01*
X160671355Y-81227578D01*
X160887588Y-81032669D01*
X161061641Y-80799320D01*
X161186825Y-80536499D01*
X161231476Y-80389290D01*
X161110155Y-80159400D01*
X159917000Y-80159400D01*
X159663000Y-80159400D01*
X158469845Y-80159400D01*
X158348524Y-80389290D01*
X152566438Y-80389290D01*
X152699727Y-80334080D01*
X152934759Y-80177037D01*
X153134637Y-79977159D01*
X153291680Y-79742127D01*
X153399853Y-79480974D01*
X153455000Y-79203735D01*
X153455000Y-78921065D01*
X153399853Y-78643826D01*
X153291680Y-78382673D01*
X153134637Y-78147641D01*
X152934759Y-77947763D01*
X152699727Y-77790720D01*
X152438574Y-77682547D01*
X152161335Y-77627400D01*
X151878665Y-77627400D01*
X151601426Y-77682547D01*
X151340273Y-77790720D01*
X151105241Y-77947763D01*
X150905363Y-78147641D01*
X150798053Y-78308242D01*
X150745714Y-78313397D01*
X150602453Y-78356854D01*
X150470424Y-78427426D01*
X150470422Y-78427427D01*
X150470423Y-78427427D01*
X150383696Y-78498601D01*
X150383692Y-78498605D01*
X150354699Y-78522399D01*
X150330905Y-78551392D01*
X145086832Y-83795467D01*
X145079727Y-83790720D01*
X144818574Y-83682547D01*
X144541335Y-83627400D01*
X144258665Y-83627400D01*
X143981426Y-83682547D01*
X143782085Y-83765117D01*
X144076114Y-83471088D01*
X144258665Y-83507400D01*
X144541335Y-83507400D01*
X144818574Y-83452253D01*
X145079727Y-83344080D01*
X145314759Y-83187037D01*
X145514637Y-82987159D01*
X145671680Y-82752127D01*
X145779853Y-82490974D01*
X145835000Y-82213735D01*
X145835000Y-82196901D01*
X150980053Y-77051849D01*
X151105241Y-77177037D01*
X151340273Y-77334080D01*
X151601426Y-77442253D01*
X151878665Y-77497400D01*
X152161335Y-77497400D01*
X152438574Y-77442253D01*
X152699727Y-77334080D01*
X152934759Y-77177037D01*
X153134637Y-76977159D01*
X153291680Y-76742127D01*
X153399853Y-76480974D01*
X153455000Y-76203735D01*
X153455000Y-75921065D01*
X153399853Y-75643826D01*
X153291680Y-75382673D01*
X153134637Y-75147641D01*
X152934759Y-74947763D01*
X152699727Y-74790720D01*
X152438574Y-74682547D01*
X152161335Y-74627400D01*
X151878665Y-74627400D01*
X151601426Y-74682547D01*
X151340273Y-74790720D01*
X151105241Y-74947763D01*
X150905363Y-75147641D01*
X150798053Y-75308242D01*
X150745714Y-75313397D01*
X150602453Y-75356854D01*
X150470424Y-75427426D01*
X150354699Y-75522399D01*
X150330901Y-75551397D01*
X145080837Y-80801462D01*
X145079727Y-80800720D01*
X144818574Y-80692547D01*
X144541335Y-80637400D01*
X144258665Y-80637400D01*
X143981426Y-80692547D01*
X143720273Y-80800720D01*
X143485241Y-80957763D01*
X143285363Y-81157641D01*
X143128320Y-81392673D01*
X143020147Y-81653826D01*
X142965000Y-81931065D01*
X142965000Y-82213735D01*
X143001312Y-82396286D01*
X139304293Y-86093306D01*
X139345000Y-85888660D01*
X139345000Y-85596140D01*
X139287932Y-85309242D01*
X139175990Y-85038989D01*
X139013475Y-84795768D01*
X138806632Y-84588925D01*
X138632240Y-84472400D01*
X138806632Y-84355875D01*
X139013475Y-84149032D01*
X139175990Y-83905811D01*
X139287932Y-83635558D01*
X139345000Y-83348660D01*
X139345000Y-83056140D01*
X139287932Y-82769242D01*
X139175990Y-82498989D01*
X139013475Y-82255768D01*
X138806632Y-82048925D01*
X138632240Y-81932400D01*
X138806632Y-81815875D01*
X139013475Y-81609032D01*
X139175990Y-81365811D01*
X139287932Y-81095558D01*
X139345000Y-80808660D01*
X139345000Y-80516140D01*
X139287932Y-80229242D01*
X139175990Y-79958989D01*
X139013475Y-79715768D01*
X138806632Y-79508925D01*
X138632240Y-79392400D01*
X138806632Y-79275875D01*
X139013475Y-79069032D01*
X139175990Y-78825811D01*
X139287932Y-78555558D01*
X139345000Y-78268660D01*
X139345000Y-77976140D01*
X139287932Y-77689242D01*
X139175990Y-77418989D01*
X139013475Y-77175768D01*
X138806632Y-76968925D01*
X138632240Y-76852400D01*
X138806632Y-76735875D01*
X139013475Y-76529032D01*
X139175990Y-76285811D01*
X139287932Y-76015558D01*
X139345000Y-75728660D01*
X139345000Y-75436140D01*
X139287932Y-75149242D01*
X139175990Y-74878989D01*
X139013475Y-74635768D01*
X138806632Y-74428925D01*
X138624466Y-74307205D01*
X138741355Y-74237578D01*
X138957588Y-74042669D01*
X139131641Y-73809320D01*
X139256825Y-73546499D01*
X139301476Y-73399290D01*
X139180155Y-73169400D01*
X137987000Y-73169400D01*
X137987000Y-73189400D01*
X137733000Y-73189400D01*
X137733000Y-73169400D01*
X136539845Y-73169400D01*
X136418524Y-73399290D01*
X136463175Y-73546499D01*
X136588359Y-73809320D01*
X136762412Y-74042669D01*
X136978645Y-74237578D01*
X137095534Y-74307205D01*
X136913368Y-74428925D01*
X136706525Y-74635768D01*
X136544010Y-74878989D01*
X136432068Y-75149242D01*
X136375000Y-75436140D01*
X136375000Y-75728660D01*
X136432068Y-76015558D01*
X136544010Y-76285811D01*
X136682508Y-76493089D01*
X132138198Y-81037401D01*
X132109200Y-81061199D01*
X132085402Y-81090197D01*
X132085401Y-81090198D01*
X132014226Y-81176924D01*
X131943654Y-81308954D01*
X131926091Y-81366854D01*
X131900198Y-81452214D01*
X131892300Y-81532399D01*
X131885524Y-81601200D01*
X131889201Y-81638533D01*
X131889200Y-98029997D01*
X127300836Y-102618363D01*
X127251641Y-102515080D01*
X127077588Y-102281731D01*
X126993534Y-102205966D01*
X127074180Y-102181502D01*
X127184494Y-102122537D01*
X127281185Y-102043185D01*
X127360537Y-101946494D01*
X127419502Y-101836180D01*
X127455812Y-101716482D01*
X127468072Y-101592000D01*
X127468072Y-99892000D01*
X127455812Y-99767518D01*
X127419502Y-99647820D01*
X127360537Y-99537506D01*
X127281185Y-99440815D01*
X127217748Y-99388754D01*
X127220273Y-99385677D01*
X127228475Y-99370333D01*
X127290846Y-99253647D01*
X127334303Y-99110386D01*
X127345300Y-98998733D01*
X127345300Y-98998724D01*
X127348976Y-98961401D01*
X127345300Y-98924078D01*
X127345300Y-90866140D01*
X128575000Y-90866140D01*
X128575000Y-91158660D01*
X128632068Y-91445558D01*
X128744010Y-91715811D01*
X128906525Y-91959032D01*
X129113368Y-92165875D01*
X129287760Y-92282400D01*
X129113368Y-92398925D01*
X128906525Y-92605768D01*
X128744010Y-92848989D01*
X128632068Y-93119242D01*
X128575000Y-93406140D01*
X128575000Y-93698660D01*
X128632068Y-93985558D01*
X128744010Y-94255811D01*
X128906525Y-94499032D01*
X129113368Y-94705875D01*
X129356589Y-94868390D01*
X129626842Y-94980332D01*
X129913740Y-95037400D01*
X130206260Y-95037400D01*
X130493158Y-94980332D01*
X130763411Y-94868390D01*
X131006632Y-94705875D01*
X131213475Y-94499032D01*
X131375990Y-94255811D01*
X131487932Y-93985558D01*
X131545000Y-93698660D01*
X131545000Y-93406140D01*
X131487932Y-93119242D01*
X131375990Y-92848989D01*
X131213475Y-92605768D01*
X131006632Y-92398925D01*
X130832240Y-92282400D01*
X131006632Y-92165875D01*
X131213475Y-91959032D01*
X131375990Y-91715811D01*
X131487932Y-91445558D01*
X131545000Y-91158660D01*
X131545000Y-90866140D01*
X131487932Y-90579242D01*
X131375990Y-90308989D01*
X131213475Y-90065768D01*
X131006632Y-89858925D01*
X130824466Y-89737205D01*
X130941355Y-89667578D01*
X131157588Y-89472669D01*
X131331641Y-89239320D01*
X131456825Y-88976499D01*
X131501476Y-88829290D01*
X131380155Y-88599400D01*
X130187000Y-88599400D01*
X130187000Y-88619400D01*
X129933000Y-88619400D01*
X129933000Y-88599400D01*
X128739845Y-88599400D01*
X128618524Y-88829290D01*
X128663175Y-88976499D01*
X128788359Y-89239320D01*
X128962412Y-89472669D01*
X129178645Y-89667578D01*
X129295534Y-89737205D01*
X129113368Y-89858925D01*
X128906525Y-90065768D01*
X128744010Y-90308989D01*
X128632068Y-90579242D01*
X128575000Y-90866140D01*
X127345300Y-90866140D01*
X127345300Y-86247201D01*
X127695102Y-85897400D01*
X127774899Y-85897400D01*
X128320901Y-86443402D01*
X128344699Y-86472401D01*
X128460424Y-86567374D01*
X128592453Y-86637946D01*
X128735714Y-86681403D01*
X128777204Y-86685489D01*
X128906525Y-86879032D01*
X129113368Y-87085875D01*
X129295534Y-87207595D01*
X129178645Y-87277222D01*
X128962412Y-87472131D01*
X128788359Y-87705480D01*
X128663175Y-87968301D01*
X128618524Y-88115510D01*
X128739845Y-88345400D01*
X129933000Y-88345400D01*
X129933000Y-88325400D01*
X130187000Y-88325400D01*
X130187000Y-88345400D01*
X131380155Y-88345400D01*
X131501476Y-88115510D01*
X131456825Y-87968301D01*
X131331641Y-87705480D01*
X131157588Y-87472131D01*
X130941355Y-87277222D01*
X130824466Y-87207595D01*
X131006632Y-87085875D01*
X131213475Y-86879032D01*
X131375990Y-86635811D01*
X131487932Y-86365558D01*
X131545000Y-86078660D01*
X131545000Y-85786140D01*
X131487932Y-85499242D01*
X131375990Y-85228989D01*
X131213475Y-84985768D01*
X131081620Y-84853913D01*
X131154180Y-84831902D01*
X131264494Y-84772937D01*
X131361185Y-84693585D01*
X131440537Y-84596894D01*
X131499502Y-84486580D01*
X131535812Y-84366882D01*
X131548072Y-84242400D01*
X131548072Y-82542400D01*
X131535812Y-82417918D01*
X131499502Y-82298220D01*
X131440537Y-82187906D01*
X131361185Y-82091215D01*
X131305987Y-82045915D01*
X131374104Y-81977798D01*
X131403101Y-81954001D01*
X131443867Y-81904328D01*
X131498074Y-81838277D01*
X131568646Y-81706247D01*
X131586277Y-81648124D01*
X131612103Y-81562986D01*
X131623100Y-81451333D01*
X131623100Y-81451323D01*
X131626776Y-81414000D01*
X131623100Y-81376677D01*
X131623100Y-68570833D01*
X131626777Y-68533500D01*
X131612103Y-68384514D01*
X131568646Y-68241253D01*
X131498074Y-68109224D01*
X131426899Y-68022497D01*
X131403101Y-67993499D01*
X131374103Y-67969701D01*
X130642151Y-67237749D01*
X130669502Y-67186580D01*
X130705812Y-67066882D01*
X130718072Y-66942400D01*
X130718072Y-65242400D01*
X130705812Y-65117918D01*
X130669502Y-64998220D01*
X130610537Y-64887906D01*
X130531185Y-64791215D01*
X130475987Y-64745915D01*
X130587503Y-64634399D01*
X130616501Y-64610601D01*
X130711474Y-64494876D01*
X130782046Y-64362847D01*
X130825503Y-64219586D01*
X130836500Y-64107933D01*
X130836500Y-64107925D01*
X130840176Y-64070600D01*
X130836500Y-64033275D01*
X130836500Y-56331225D01*
X130840176Y-56293900D01*
X130836500Y-56256575D01*
X130836500Y-56256567D01*
X130825503Y-56144914D01*
X130782046Y-56001653D01*
X130733800Y-55911392D01*
X130733800Y-55842842D01*
X130793109Y-55863881D01*
X131023000Y-55743214D01*
X131023000Y-54549400D01*
X131003000Y-54549400D01*
X131003000Y-54295400D01*
X131023000Y-54295400D01*
X131023000Y-54275400D01*
X131277000Y-54275400D01*
X131277000Y-54295400D01*
X131297000Y-54295400D01*
X131297000Y-54549400D01*
X131277000Y-54549400D01*
X131277000Y-55743214D01*
X131506891Y-55863881D01*
X131751901Y-55776969D01*
X131751900Y-61851178D01*
X131748224Y-61888500D01*
X131751900Y-61925822D01*
X131751900Y-61925832D01*
X131762897Y-62037485D01*
X131802064Y-62166603D01*
X131806354Y-62180746D01*
X131876926Y-62312776D01*
X131896687Y-62336854D01*
X131971899Y-62428501D01*
X132000903Y-62452304D01*
X138562926Y-69014328D01*
X137010000Y-69014328D01*
X136885518Y-69026588D01*
X136765820Y-69062898D01*
X136655506Y-69121863D01*
X136558815Y-69201215D01*
X136479463Y-69297906D01*
X136420498Y-69408220D01*
X136384188Y-69527918D01*
X136371928Y-69652400D01*
X136371928Y-71352400D01*
X136384188Y-71476882D01*
X136420498Y-71596580D01*
X136479463Y-71706894D01*
X136558815Y-71803585D01*
X136655506Y-71882937D01*
X136765820Y-71941902D01*
X136846466Y-71966366D01*
X136762412Y-72042131D01*
X136588359Y-72275480D01*
X136463175Y-72538301D01*
X136418524Y-72685510D01*
X136539845Y-72915400D01*
X137733000Y-72915400D01*
X137733000Y-72895400D01*
X137987000Y-72895400D01*
X137987000Y-72915400D01*
X139180155Y-72915400D01*
X139301476Y-72685510D01*
X139256825Y-72538301D01*
X139131641Y-72275480D01*
X138957588Y-72042131D01*
X138873534Y-71966366D01*
X138954180Y-71941902D01*
X139064494Y-71882937D01*
X139161185Y-71803585D01*
X139240537Y-71706894D01*
X139299502Y-71596580D01*
X139335812Y-71476882D01*
X139348072Y-71352400D01*
X139348072Y-69799474D01*
X141765401Y-72216803D01*
X141765400Y-77150477D01*
X141761724Y-77187800D01*
X141765400Y-77225122D01*
X141765400Y-77225132D01*
X141776397Y-77336785D01*
X141801333Y-77418989D01*
X141819854Y-77480046D01*
X141890426Y-77612076D01*
X141921822Y-77650332D01*
X141985399Y-77727801D01*
X142014403Y-77751604D01*
X143001312Y-78738514D01*
X142965000Y-78921065D01*
X142965000Y-79203735D01*
X143020147Y-79480974D01*
X143128320Y-79742127D01*
X143285363Y-79977159D01*
X143485241Y-80177037D01*
X143720273Y-80334080D01*
X143981426Y-80442253D01*
X144258665Y-80497400D01*
X144541335Y-80497400D01*
X144818574Y-80442253D01*
X145079727Y-80334080D01*
X145314759Y-80177037D01*
X145514637Y-79977159D01*
X145671680Y-79742127D01*
X145779853Y-79480974D01*
X145835000Y-79203735D01*
X145835000Y-78921065D01*
X145779853Y-78643826D01*
X145671680Y-78382673D01*
X145514637Y-78147641D01*
X145314759Y-77947763D01*
X145079727Y-77790720D01*
X144818574Y-77682547D01*
X144541335Y-77627400D01*
X144258665Y-77627400D01*
X144076114Y-77663712D01*
X143765013Y-77352612D01*
X143981426Y-77442253D01*
X144258665Y-77497400D01*
X144541335Y-77497400D01*
X144818574Y-77442253D01*
X145079727Y-77334080D01*
X145314759Y-77177037D01*
X145514637Y-76977159D01*
X145671680Y-76742127D01*
X145779853Y-76480974D01*
X145835000Y-76203735D01*
X145835000Y-75921065D01*
X145779853Y-75643826D01*
X145671680Y-75382673D01*
X145514637Y-75147641D01*
X145314759Y-74947763D01*
X145079727Y-74790720D01*
X144818574Y-74682547D01*
X144541335Y-74627400D01*
X144258665Y-74627400D01*
X143981426Y-74682547D01*
X143720273Y-74790720D01*
X143485241Y-74947763D01*
X143285400Y-75147604D01*
X143285400Y-71939333D01*
X143289077Y-71902000D01*
X143274403Y-71753014D01*
X143230946Y-71609753D01*
X143160374Y-71477724D01*
X143089199Y-71390997D01*
X143065401Y-71361999D01*
X143036403Y-71338201D01*
X142997925Y-71299723D01*
X145503000Y-71299723D01*
X145503000Y-71825077D01*
X145605492Y-72340335D01*
X145806536Y-72825698D01*
X146098406Y-73262513D01*
X146469887Y-73633994D01*
X146906702Y-73925864D01*
X147392065Y-74126908D01*
X147907323Y-74229400D01*
X148432677Y-74229400D01*
X148947935Y-74126908D01*
X149007102Y-74102400D01*
X158301928Y-74102400D01*
X158301928Y-75802400D01*
X158314188Y-75926882D01*
X158350498Y-76046580D01*
X158409463Y-76156894D01*
X158488815Y-76253585D01*
X158585506Y-76332937D01*
X158695820Y-76391902D01*
X158768380Y-76413913D01*
X158636525Y-76545768D01*
X158474010Y-76788989D01*
X158362068Y-77059242D01*
X158305000Y-77346140D01*
X158305000Y-77638660D01*
X158362068Y-77925558D01*
X158474010Y-78195811D01*
X158636525Y-78439032D01*
X158843368Y-78645875D01*
X159025534Y-78767595D01*
X158908645Y-78837222D01*
X158692412Y-79032131D01*
X158518359Y-79265480D01*
X158393175Y-79528301D01*
X158348524Y-79675510D01*
X158469845Y-79905400D01*
X159663000Y-79905400D01*
X159663000Y-79885400D01*
X159917000Y-79885400D01*
X159917000Y-79905400D01*
X161110155Y-79905400D01*
X161231476Y-79675510D01*
X161186825Y-79528301D01*
X161061641Y-79265480D01*
X160887588Y-79032131D01*
X160671355Y-78837222D01*
X160554466Y-78767595D01*
X160736632Y-78645875D01*
X160943475Y-78439032D01*
X161105990Y-78195811D01*
X161217932Y-77925558D01*
X161275000Y-77638660D01*
X161275000Y-77346140D01*
X161217932Y-77059242D01*
X161105990Y-76788989D01*
X160943475Y-76545768D01*
X160811620Y-76413913D01*
X160884180Y-76391902D01*
X160994494Y-76332937D01*
X161091185Y-76253585D01*
X161170537Y-76156894D01*
X161229502Y-76046580D01*
X161265812Y-75926882D01*
X161278072Y-75802400D01*
X161278072Y-74102400D01*
X161265812Y-73977918D01*
X161229502Y-73858220D01*
X161170537Y-73747906D01*
X161091185Y-73651215D01*
X160994494Y-73571863D01*
X160884180Y-73512898D01*
X160764482Y-73476588D01*
X160640000Y-73464328D01*
X158940000Y-73464328D01*
X158815518Y-73476588D01*
X158695820Y-73512898D01*
X158585506Y-73571863D01*
X158488815Y-73651215D01*
X158409463Y-73747906D01*
X158350498Y-73858220D01*
X158314188Y-73977918D01*
X158301928Y-74102400D01*
X149007102Y-74102400D01*
X149433298Y-73925864D01*
X149870113Y-73633994D01*
X150241594Y-73262513D01*
X150533464Y-72825698D01*
X150734508Y-72340335D01*
X150837000Y-71825077D01*
X150837000Y-71299723D01*
X150734508Y-70784465D01*
X150533464Y-70299102D01*
X150241594Y-69862287D01*
X149870113Y-69490806D01*
X149433298Y-69198936D01*
X148947935Y-68997892D01*
X148432677Y-68895400D01*
X147907323Y-68895400D01*
X147392065Y-68997892D01*
X146906702Y-69198936D01*
X146469887Y-69490806D01*
X146098406Y-69862287D01*
X145806536Y-70299102D01*
X145605492Y-70784465D01*
X145503000Y-71299723D01*
X142997925Y-71299723D01*
X136621871Y-64923670D01*
X153168849Y-64923670D01*
X153200100Y-64926748D01*
X153231351Y-64923670D01*
X153324831Y-64914463D01*
X153444768Y-64878081D01*
X153555303Y-64818998D01*
X153652187Y-64739487D01*
X153731698Y-64642603D01*
X153790781Y-64532068D01*
X153827163Y-64412131D01*
X153839448Y-64287400D01*
X153836370Y-64256149D01*
X153836370Y-50318670D01*
X154439758Y-50318670D01*
X154425820Y-50322898D01*
G37*
G04 #@! TD.AperFunction*
D23*
X125537000Y-88345400D02*
X125557000Y-88345400D01*
X125557000Y-88599400D01*
X125537000Y-88599400D01*
X125537000Y-88619400D01*
X125283000Y-88619400D01*
X125283000Y-88599400D01*
X125263000Y-88599400D01*
X125263000Y-88345400D01*
X125283000Y-88345400D01*
X125283000Y-88325400D01*
X125537000Y-88325400D01*
X125537000Y-88345400D01*
G04 #@! TA.AperFunction,Conductor*
D24*
G36*
X125537000Y-88345400D02*
G01*
X125557000Y-88345400D01*
X125557000Y-88599400D01*
X125537000Y-88599400D01*
X125537000Y-88619400D01*
X125283000Y-88619400D01*
X125283000Y-88599400D01*
X125263000Y-88599400D01*
X125263000Y-88345400D01*
X125283000Y-88345400D01*
X125283000Y-88325400D01*
X125537000Y-88325400D01*
X125537000Y-88345400D01*
G37*
G04 #@! TD.AperFunction*
D23*
X137987000Y-88155400D02*
X138007000Y-88155400D01*
X138007000Y-88409400D01*
X137987000Y-88409400D01*
X137987000Y-88429400D01*
X137733000Y-88429400D01*
X137733000Y-88409400D01*
X137713000Y-88409400D01*
X137713000Y-88155400D01*
X137733000Y-88155400D01*
X137733000Y-88135400D01*
X137987000Y-88135400D01*
X137987000Y-88155400D01*
G04 #@! TA.AperFunction,Conductor*
D24*
G36*
X137987000Y-88155400D02*
G01*
X138007000Y-88155400D01*
X138007000Y-88409400D01*
X137987000Y-88409400D01*
X137987000Y-88429400D01*
X137733000Y-88429400D01*
X137733000Y-88409400D01*
X137713000Y-88409400D01*
X137713000Y-88155400D01*
X137733000Y-88155400D01*
X137733000Y-88135400D01*
X137987000Y-88135400D01*
X137987000Y-88155400D01*
G37*
G04 #@! TD.AperFunction*
D23*
X134783830Y-63085629D02*
X133271900Y-61573699D01*
X133271900Y-51605333D01*
X133275577Y-51568000D01*
X133260903Y-51419014D01*
X133217446Y-51275753D01*
X133146874Y-51143724D01*
X133075699Y-51056997D01*
X133051901Y-51027999D01*
X133022903Y-51004201D01*
X132305181Y-50286479D01*
X132465990Y-50045811D01*
X132577932Y-49775558D01*
X132635000Y-49488660D01*
X132635000Y-49196140D01*
X132577932Y-48909242D01*
X132465990Y-48638989D01*
X132303475Y-48395768D01*
X132171620Y-48263913D01*
X132244180Y-48241902D01*
X132354494Y-48182937D01*
X132451185Y-48103585D01*
X132530537Y-48006894D01*
X132589502Y-47896580D01*
X132625812Y-47776882D01*
X132638072Y-47652400D01*
X132638072Y-45952400D01*
X132625812Y-45827918D01*
X132589502Y-45708220D01*
X132530537Y-45597906D01*
X132451185Y-45501215D01*
X132354494Y-45421863D01*
X132244180Y-45362898D01*
X132124482Y-45326588D01*
X132000000Y-45314328D01*
X130300000Y-45314328D01*
X130175518Y-45326588D01*
X130055820Y-45362898D01*
X129945506Y-45421863D01*
X129848815Y-45501215D01*
X129769463Y-45597906D01*
X129710498Y-45708220D01*
X129674188Y-45827918D01*
X129661928Y-45952400D01*
X129661928Y-47652400D01*
X129674188Y-47776882D01*
X129710498Y-47896580D01*
X129737849Y-47947750D01*
X129462802Y-48222797D01*
X129433799Y-48246599D01*
X129403600Y-48283397D01*
X129338826Y-48362324D01*
X129282733Y-48467266D01*
X129268254Y-48494354D01*
X129224797Y-48637615D01*
X129213800Y-48749268D01*
X129213800Y-48749278D01*
X129210124Y-48786600D01*
X129213800Y-48823922D01*
X129213801Y-56153868D01*
X129210124Y-56191200D01*
X129224798Y-56340185D01*
X129268254Y-56483446D01*
X129316500Y-56573707D01*
X129316500Y-57078156D01*
X129061335Y-57027400D01*
X128778665Y-57027400D01*
X128501426Y-57082547D01*
X128240273Y-57190720D01*
X128005241Y-57347763D01*
X127805363Y-57547641D01*
X127648320Y-57782673D01*
X127540147Y-58043826D01*
X127485000Y-58321065D01*
X127485000Y-58603735D01*
X127540147Y-58880974D01*
X127648320Y-59142127D01*
X127792937Y-59358562D01*
X127283698Y-59867801D01*
X127254700Y-59891599D01*
X127230902Y-59920597D01*
X127230901Y-59920598D01*
X127159726Y-60007324D01*
X127089154Y-60139354D01*
X127063880Y-60222674D01*
X127050648Y-60266297D01*
X126944637Y-60107641D01*
X126744759Y-59907763D01*
X126512241Y-59752400D01*
X126744759Y-59597037D01*
X126944637Y-59397159D01*
X127101680Y-59162127D01*
X127209853Y-58900974D01*
X127265000Y-58623735D01*
X127265000Y-58341065D01*
X127209853Y-58063826D01*
X127101680Y-57802673D01*
X126944637Y-57567641D01*
X126744759Y-57367763D01*
X126509727Y-57210720D01*
X126248574Y-57102547D01*
X125971335Y-57047400D01*
X125688665Y-57047400D01*
X125411426Y-57102547D01*
X125150273Y-57210720D01*
X124915241Y-57367763D01*
X124715363Y-57567641D01*
X124558320Y-57802673D01*
X124450147Y-58063826D01*
X124395000Y-58341065D01*
X124395000Y-58623735D01*
X124450147Y-58900974D01*
X124558320Y-59162127D01*
X124715363Y-59397159D01*
X124915241Y-59597037D01*
X125147759Y-59752400D01*
X124915241Y-59907763D01*
X124715363Y-60107641D01*
X124558320Y-60342673D01*
X124450147Y-60603826D01*
X124395000Y-60881065D01*
X124395000Y-61163735D01*
X124431312Y-61346286D01*
X123182298Y-62595301D01*
X123153300Y-62619099D01*
X123129502Y-62648097D01*
X123129501Y-62648098D01*
X123058326Y-62734824D01*
X122987754Y-62866854D01*
X122944298Y-63010115D01*
X122929624Y-63159100D01*
X122933301Y-63196432D01*
X122933300Y-73750378D01*
X122929624Y-73787700D01*
X122933300Y-73825022D01*
X122933300Y-73825032D01*
X122944297Y-73936685D01*
X122983917Y-74067298D01*
X122987754Y-74079946D01*
X123058326Y-74211976D01*
X123091502Y-74252401D01*
X123153299Y-74327701D01*
X123182303Y-74351504D01*
X124142509Y-75311711D01*
X124004010Y-75518989D01*
X123892068Y-75789242D01*
X123835000Y-76076140D01*
X123835000Y-76368660D01*
X123892068Y-76655558D01*
X124004010Y-76925811D01*
X124166525Y-77169032D01*
X124373368Y-77375875D01*
X124616589Y-77538390D01*
X124886842Y-77650332D01*
X125173740Y-77707400D01*
X125466260Y-77707400D01*
X125753158Y-77650332D01*
X126023411Y-77538390D01*
X126266632Y-77375875D01*
X126473475Y-77169032D01*
X126635990Y-76925811D01*
X126747932Y-76655558D01*
X126805000Y-76368660D01*
X126805000Y-76076140D01*
X126747932Y-75789242D01*
X126635990Y-75518989D01*
X126473475Y-75275768D01*
X126266632Y-75068925D01*
X126092240Y-74952400D01*
X126266632Y-74835875D01*
X126473475Y-74629032D01*
X126598178Y-74442400D01*
X127843068Y-74442400D01*
X127905714Y-74461403D01*
X127947204Y-74465489D01*
X128076525Y-74659032D01*
X128283368Y-74865875D01*
X128457760Y-74982400D01*
X128283368Y-75098925D01*
X128076525Y-75305768D01*
X127914010Y-75548989D01*
X127802068Y-75819242D01*
X127745000Y-76106140D01*
X127745000Y-76398660D01*
X127802068Y-76685558D01*
X127914010Y-76955811D01*
X128076525Y-77199032D01*
X128283368Y-77405875D01*
X128526589Y-77568390D01*
X128796842Y-77680332D01*
X129083740Y-77737400D01*
X129376260Y-77737400D01*
X129652701Y-77682412D01*
X129652701Y-78390897D01*
X127578703Y-80464896D01*
X127549699Y-80488699D01*
X127510471Y-80536499D01*
X127454726Y-80604424D01*
X127390209Y-80725126D01*
X127384154Y-80736454D01*
X127340697Y-80879715D01*
X127329700Y-80991368D01*
X127329700Y-80991378D01*
X127326024Y-81028700D01*
X127329700Y-81066023D01*
X127329701Y-84378707D01*
X127231314Y-84388397D01*
X127088053Y-84431854D01*
X126956024Y-84502426D01*
X126840299Y-84597399D01*
X126816501Y-84626398D01*
X126510303Y-84932596D01*
X126431620Y-84853913D01*
X126504180Y-84831902D01*
X126614494Y-84772937D01*
X126711185Y-84693585D01*
X126790537Y-84596894D01*
X126849502Y-84486580D01*
X126885812Y-84366882D01*
X126898072Y-84242400D01*
X126898072Y-82542400D01*
X126885812Y-82417918D01*
X126849502Y-82298220D01*
X126790537Y-82187906D01*
X126711185Y-82091215D01*
X126614494Y-82011863D01*
X126504180Y-81952898D01*
X126384482Y-81916588D01*
X126260000Y-81904328D01*
X124994700Y-81904328D01*
X124994700Y-81397422D01*
X124998376Y-81360099D01*
X124994700Y-81322776D01*
X124994700Y-81322767D01*
X124983703Y-81211114D01*
X124940246Y-81067853D01*
X124869674Y-80935824D01*
X124856511Y-80919785D01*
X124798499Y-80849096D01*
X124798495Y-80849092D01*
X124774701Y-80820099D01*
X124745709Y-80796306D01*
X122701153Y-78751751D01*
X122677068Y-78630671D01*
X122606586Y-78460511D01*
X122504262Y-78307372D01*
X122374028Y-78177138D01*
X122220889Y-78074814D01*
X122050729Y-78004332D01*
X121912700Y-77976876D01*
X121912700Y-54783460D01*
X121958359Y-54879320D01*
X122132412Y-55112669D01*
X122348645Y-55307578D01*
X122598748Y-55456557D01*
X122873109Y-55553881D01*
X123103000Y-55433214D01*
X123103000Y-54239400D01*
X123357000Y-54239400D01*
X123357000Y-55433214D01*
X123586891Y-55553881D01*
X123861252Y-55456557D01*
X124111355Y-55307578D01*
X124327588Y-55112669D01*
X124501641Y-54879320D01*
X124626825Y-54616499D01*
X124671476Y-54469290D01*
X124550155Y-54239400D01*
X123357000Y-54239400D01*
X123103000Y-54239400D01*
X123083000Y-54239400D01*
X123083000Y-53985400D01*
X123103000Y-53985400D01*
X123103000Y-53965400D01*
X123357000Y-53965400D01*
X123357000Y-53985400D01*
X124550155Y-53985400D01*
X124671476Y-53755510D01*
X124626825Y-53608301D01*
X124501641Y-53345480D01*
X124327588Y-53112131D01*
X124111355Y-52917222D01*
X123994466Y-52847595D01*
X124176632Y-52725875D01*
X124383475Y-52519032D01*
X124545990Y-52275811D01*
X124657932Y-52005558D01*
X124715000Y-51718660D01*
X124715000Y-51426140D01*
X124657932Y-51139242D01*
X124545990Y-50868989D01*
X124383475Y-50625768D01*
X124176632Y-50418925D01*
X124002240Y-50302400D01*
X124176632Y-50185875D01*
X124383475Y-49979032D01*
X124545990Y-49735811D01*
X124657932Y-49465558D01*
X124715000Y-49178660D01*
X124715000Y-48886140D01*
X124657932Y-48599242D01*
X124545990Y-48328989D01*
X124383475Y-48085768D01*
X124251620Y-47953913D01*
X124324180Y-47931902D01*
X124434494Y-47872937D01*
X124531185Y-47793585D01*
X124610537Y-47696894D01*
X124669502Y-47586580D01*
X124705812Y-47466882D01*
X124718072Y-47342400D01*
X124718072Y-45642400D01*
X124705812Y-45517918D01*
X124669502Y-45398220D01*
X124610537Y-45287906D01*
X124531185Y-45191215D01*
X124434494Y-45111863D01*
X124324180Y-45052898D01*
X124204482Y-45016588D01*
X124080000Y-45004328D01*
X122380000Y-45004328D01*
X122255518Y-45016588D01*
X122135820Y-45052898D01*
X122025506Y-45111863D01*
X121928815Y-45191215D01*
X121849463Y-45287906D01*
X121790498Y-45398220D01*
X121754188Y-45517918D01*
X121741928Y-45642400D01*
X121741928Y-47342400D01*
X121754188Y-47466882D01*
X121790498Y-47586580D01*
X121849463Y-47696894D01*
X121928815Y-47793585D01*
X122025506Y-47872937D01*
X122135820Y-47931902D01*
X122208380Y-47953913D01*
X122076525Y-48085768D01*
X121914010Y-48328989D01*
X121802068Y-48599242D01*
X121745000Y-48886140D01*
X121745000Y-49178660D01*
X121802068Y-49465558D01*
X121914010Y-49735811D01*
X122052509Y-49943089D01*
X119675798Y-52319801D01*
X119646800Y-52343599D01*
X119623002Y-52372597D01*
X119623001Y-52372598D01*
X119551826Y-52459324D01*
X119481254Y-52591354D01*
X119465770Y-52642400D01*
X119444537Y-52712400D01*
X119437798Y-52734615D01*
X119423124Y-52883600D01*
X119426801Y-52920933D01*
X119426801Y-60983265D01*
X119269027Y-60927437D01*
X119037000Y-61047936D01*
X119037000Y-62255400D01*
X119057000Y-62255400D01*
X119057000Y-62509400D01*
X119037000Y-62509400D01*
X119037000Y-62529400D01*
X118783000Y-62529400D01*
X118783000Y-62509400D01*
X116497000Y-62509400D01*
X116497000Y-62529400D01*
X116243000Y-62529400D01*
X116243000Y-62509400D01*
X116223000Y-62509400D01*
X116223000Y-62255400D01*
X116243000Y-62255400D01*
X116243000Y-61042550D01*
X116497000Y-61042550D01*
X116497000Y-62255400D01*
X118783000Y-62255400D01*
X118783000Y-61047936D01*
X118550973Y-60927437D01*
X118274022Y-61025436D01*
X118021512Y-61175583D01*
X117842053Y-61337092D01*
X117823102Y-61274620D01*
X117764137Y-61164306D01*
X117684785Y-61067615D01*
X117588094Y-60988263D01*
X117477780Y-60929298D01*
X117358082Y-60892988D01*
X117233600Y-60880728D01*
X116655750Y-60883800D01*
X116497000Y-61042550D01*
X116243000Y-61042550D01*
X116084250Y-60883800D01*
X115918200Y-60882917D01*
X115918200Y-59237886D01*
X116128645Y-59427578D01*
X116378748Y-59576557D01*
X116653109Y-59673881D01*
X116883000Y-59553214D01*
X116883000Y-58359400D01*
X117137000Y-58359400D01*
X117137000Y-59553214D01*
X117366891Y-59673881D01*
X117641252Y-59576557D01*
X117891355Y-59427578D01*
X118107588Y-59232669D01*
X118281641Y-58999320D01*
X118406825Y-58736499D01*
X118451476Y-58589290D01*
X118330155Y-58359400D01*
X117137000Y-58359400D01*
X116883000Y-58359400D01*
X116863000Y-58359400D01*
X116863000Y-58105400D01*
X116883000Y-58105400D01*
X116883000Y-58085400D01*
X117137000Y-58085400D01*
X117137000Y-58105400D01*
X118330155Y-58105400D01*
X118451476Y-57875510D01*
X118406825Y-57728301D01*
X118281641Y-57465480D01*
X118107588Y-57232131D01*
X118023534Y-57156366D01*
X118104180Y-57131902D01*
X118214494Y-57072937D01*
X118311185Y-56993585D01*
X118390537Y-56896894D01*
X118449502Y-56786580D01*
X118485812Y-56666882D01*
X118498072Y-56542400D01*
X118498072Y-54842400D01*
X118485812Y-54717918D01*
X118449502Y-54598220D01*
X118390537Y-54487906D01*
X118311185Y-54391215D01*
X118214494Y-54311863D01*
X118104180Y-54252898D01*
X117984482Y-54216588D01*
X117860000Y-54204328D01*
X116160000Y-54204328D01*
X116035518Y-54216588D01*
X115915820Y-54252898D01*
X115805506Y-54311863D01*
X115708815Y-54391215D01*
X115629463Y-54487906D01*
X115570498Y-54598220D01*
X115534188Y-54717918D01*
X115521928Y-54842400D01*
X115521928Y-56542400D01*
X115534188Y-56666882D01*
X115570498Y-56786580D01*
X115597849Y-56837749D01*
X115101370Y-57334229D01*
X115101370Y-49072404D01*
X115173659Y-48153882D01*
X115382891Y-47282367D01*
X115725884Y-46454311D01*
X116194188Y-45690109D01*
X116776274Y-45008574D01*
X117457809Y-44426487D01*
X118222011Y-43958184D01*
X119050069Y-43615191D01*
X119921582Y-43405959D01*
X120840104Y-43333670D01*
X134783831Y-43333670D01*
X134783830Y-63085629D01*
G04 #@! TA.AperFunction,Conductor*
D24*
G36*
X134783830Y-63085629D02*
G01*
X133271900Y-61573699D01*
X133271900Y-51605333D01*
X133275577Y-51568000D01*
X133260903Y-51419014D01*
X133217446Y-51275753D01*
X133146874Y-51143724D01*
X133075699Y-51056997D01*
X133051901Y-51027999D01*
X133022903Y-51004201D01*
X132305181Y-50286479D01*
X132465990Y-50045811D01*
X132577932Y-49775558D01*
X132635000Y-49488660D01*
X132635000Y-49196140D01*
X132577932Y-48909242D01*
X132465990Y-48638989D01*
X132303475Y-48395768D01*
X132171620Y-48263913D01*
X132244180Y-48241902D01*
X132354494Y-48182937D01*
X132451185Y-48103585D01*
X132530537Y-48006894D01*
X132589502Y-47896580D01*
X132625812Y-47776882D01*
X132638072Y-47652400D01*
X132638072Y-45952400D01*
X132625812Y-45827918D01*
X132589502Y-45708220D01*
X132530537Y-45597906D01*
X132451185Y-45501215D01*
X132354494Y-45421863D01*
X132244180Y-45362898D01*
X132124482Y-45326588D01*
X132000000Y-45314328D01*
X130300000Y-45314328D01*
X130175518Y-45326588D01*
X130055820Y-45362898D01*
X129945506Y-45421863D01*
X129848815Y-45501215D01*
X129769463Y-45597906D01*
X129710498Y-45708220D01*
X129674188Y-45827918D01*
X129661928Y-45952400D01*
X129661928Y-47652400D01*
X129674188Y-47776882D01*
X129710498Y-47896580D01*
X129737849Y-47947750D01*
X129462802Y-48222797D01*
X129433799Y-48246599D01*
X129403600Y-48283397D01*
X129338826Y-48362324D01*
X129282733Y-48467266D01*
X129268254Y-48494354D01*
X129224797Y-48637615D01*
X129213800Y-48749268D01*
X129213800Y-48749278D01*
X129210124Y-48786600D01*
X129213800Y-48823922D01*
X129213801Y-56153868D01*
X129210124Y-56191200D01*
X129224798Y-56340185D01*
X129268254Y-56483446D01*
X129316500Y-56573707D01*
X129316500Y-57078156D01*
X129061335Y-57027400D01*
X128778665Y-57027400D01*
X128501426Y-57082547D01*
X128240273Y-57190720D01*
X128005241Y-57347763D01*
X127805363Y-57547641D01*
X127648320Y-57782673D01*
X127540147Y-58043826D01*
X127485000Y-58321065D01*
X127485000Y-58603735D01*
X127540147Y-58880974D01*
X127648320Y-59142127D01*
X127792937Y-59358562D01*
X127283698Y-59867801D01*
X127254700Y-59891599D01*
X127230902Y-59920597D01*
X127230901Y-59920598D01*
X127159726Y-60007324D01*
X127089154Y-60139354D01*
X127063880Y-60222674D01*
X127050648Y-60266297D01*
X126944637Y-60107641D01*
X126744759Y-59907763D01*
X126512241Y-59752400D01*
X126744759Y-59597037D01*
X126944637Y-59397159D01*
X127101680Y-59162127D01*
X127209853Y-58900974D01*
X127265000Y-58623735D01*
X127265000Y-58341065D01*
X127209853Y-58063826D01*
X127101680Y-57802673D01*
X126944637Y-57567641D01*
X126744759Y-57367763D01*
X126509727Y-57210720D01*
X126248574Y-57102547D01*
X125971335Y-57047400D01*
X125688665Y-57047400D01*
X125411426Y-57102547D01*
X125150273Y-57210720D01*
X124915241Y-57367763D01*
X124715363Y-57567641D01*
X124558320Y-57802673D01*
X124450147Y-58063826D01*
X124395000Y-58341065D01*
X124395000Y-58623735D01*
X124450147Y-58900974D01*
X124558320Y-59162127D01*
X124715363Y-59397159D01*
X124915241Y-59597037D01*
X125147759Y-59752400D01*
X124915241Y-59907763D01*
X124715363Y-60107641D01*
X124558320Y-60342673D01*
X124450147Y-60603826D01*
X124395000Y-60881065D01*
X124395000Y-61163735D01*
X124431312Y-61346286D01*
X123182298Y-62595301D01*
X123153300Y-62619099D01*
X123129502Y-62648097D01*
X123129501Y-62648098D01*
X123058326Y-62734824D01*
X122987754Y-62866854D01*
X122944298Y-63010115D01*
X122929624Y-63159100D01*
X122933301Y-63196432D01*
X122933300Y-73750378D01*
X122929624Y-73787700D01*
X122933300Y-73825022D01*
X122933300Y-73825032D01*
X122944297Y-73936685D01*
X122983917Y-74067298D01*
X122987754Y-74079946D01*
X123058326Y-74211976D01*
X123091502Y-74252401D01*
X123153299Y-74327701D01*
X123182303Y-74351504D01*
X124142509Y-75311711D01*
X124004010Y-75518989D01*
X123892068Y-75789242D01*
X123835000Y-76076140D01*
X123835000Y-76368660D01*
X123892068Y-76655558D01*
X124004010Y-76925811D01*
X124166525Y-77169032D01*
X124373368Y-77375875D01*
X124616589Y-77538390D01*
X124886842Y-77650332D01*
X125173740Y-77707400D01*
X125466260Y-77707400D01*
X125753158Y-77650332D01*
X126023411Y-77538390D01*
X126266632Y-77375875D01*
X126473475Y-77169032D01*
X126635990Y-76925811D01*
X126747932Y-76655558D01*
X126805000Y-76368660D01*
X126805000Y-76076140D01*
X126747932Y-75789242D01*
X126635990Y-75518989D01*
X126473475Y-75275768D01*
X126266632Y-75068925D01*
X126092240Y-74952400D01*
X126266632Y-74835875D01*
X126473475Y-74629032D01*
X126598178Y-74442400D01*
X127843068Y-74442400D01*
X127905714Y-74461403D01*
X127947204Y-74465489D01*
X128076525Y-74659032D01*
X128283368Y-74865875D01*
X128457760Y-74982400D01*
X128283368Y-75098925D01*
X128076525Y-75305768D01*
X127914010Y-75548989D01*
X127802068Y-75819242D01*
X127745000Y-76106140D01*
X127745000Y-76398660D01*
X127802068Y-76685558D01*
X127914010Y-76955811D01*
X128076525Y-77199032D01*
X128283368Y-77405875D01*
X128526589Y-77568390D01*
X128796842Y-77680332D01*
X129083740Y-77737400D01*
X129376260Y-77737400D01*
X129652701Y-77682412D01*
X129652701Y-78390897D01*
X127578703Y-80464896D01*
X127549699Y-80488699D01*
X127510471Y-80536499D01*
X127454726Y-80604424D01*
X127390209Y-80725126D01*
X127384154Y-80736454D01*
X127340697Y-80879715D01*
X127329700Y-80991368D01*
X127329700Y-80991378D01*
X127326024Y-81028700D01*
X127329700Y-81066023D01*
X127329701Y-84378707D01*
X127231314Y-84388397D01*
X127088053Y-84431854D01*
X126956024Y-84502426D01*
X126840299Y-84597399D01*
X126816501Y-84626398D01*
X126510303Y-84932596D01*
X126431620Y-84853913D01*
X126504180Y-84831902D01*
X126614494Y-84772937D01*
X126711185Y-84693585D01*
X126790537Y-84596894D01*
X126849502Y-84486580D01*
X126885812Y-84366882D01*
X126898072Y-84242400D01*
X126898072Y-82542400D01*
X126885812Y-82417918D01*
X126849502Y-82298220D01*
X126790537Y-82187906D01*
X126711185Y-82091215D01*
X126614494Y-82011863D01*
X126504180Y-81952898D01*
X126384482Y-81916588D01*
X126260000Y-81904328D01*
X124994700Y-81904328D01*
X124994700Y-81397422D01*
X124998376Y-81360099D01*
X124994700Y-81322776D01*
X124994700Y-81322767D01*
X124983703Y-81211114D01*
X124940246Y-81067853D01*
X124869674Y-80935824D01*
X124856511Y-80919785D01*
X124798499Y-80849096D01*
X124798495Y-80849092D01*
X124774701Y-80820099D01*
X124745709Y-80796306D01*
X122701153Y-78751751D01*
X122677068Y-78630671D01*
X122606586Y-78460511D01*
X122504262Y-78307372D01*
X122374028Y-78177138D01*
X122220889Y-78074814D01*
X122050729Y-78004332D01*
X121912700Y-77976876D01*
X121912700Y-54783460D01*
X121958359Y-54879320D01*
X122132412Y-55112669D01*
X122348645Y-55307578D01*
X122598748Y-55456557D01*
X122873109Y-55553881D01*
X123103000Y-55433214D01*
X123103000Y-54239400D01*
X123357000Y-54239400D01*
X123357000Y-55433214D01*
X123586891Y-55553881D01*
X123861252Y-55456557D01*
X124111355Y-55307578D01*
X124327588Y-55112669D01*
X124501641Y-54879320D01*
X124626825Y-54616499D01*
X124671476Y-54469290D01*
X124550155Y-54239400D01*
X123357000Y-54239400D01*
X123103000Y-54239400D01*
X123083000Y-54239400D01*
X123083000Y-53985400D01*
X123103000Y-53985400D01*
X123103000Y-53965400D01*
X123357000Y-53965400D01*
X123357000Y-53985400D01*
X124550155Y-53985400D01*
X124671476Y-53755510D01*
X124626825Y-53608301D01*
X124501641Y-53345480D01*
X124327588Y-53112131D01*
X124111355Y-52917222D01*
X123994466Y-52847595D01*
X124176632Y-52725875D01*
X124383475Y-52519032D01*
X124545990Y-52275811D01*
X124657932Y-52005558D01*
X124715000Y-51718660D01*
X124715000Y-51426140D01*
X124657932Y-51139242D01*
X124545990Y-50868989D01*
X124383475Y-50625768D01*
X124176632Y-50418925D01*
X124002240Y-50302400D01*
X124176632Y-50185875D01*
X124383475Y-49979032D01*
X124545990Y-49735811D01*
X124657932Y-49465558D01*
X124715000Y-49178660D01*
X124715000Y-48886140D01*
X124657932Y-48599242D01*
X124545990Y-48328989D01*
X124383475Y-48085768D01*
X124251620Y-47953913D01*
X124324180Y-47931902D01*
X124434494Y-47872937D01*
X124531185Y-47793585D01*
X124610537Y-47696894D01*
X124669502Y-47586580D01*
X124705812Y-47466882D01*
X124718072Y-47342400D01*
X124718072Y-45642400D01*
X124705812Y-45517918D01*
X124669502Y-45398220D01*
X124610537Y-45287906D01*
X124531185Y-45191215D01*
X124434494Y-45111863D01*
X124324180Y-45052898D01*
X124204482Y-45016588D01*
X124080000Y-45004328D01*
X122380000Y-45004328D01*
X122255518Y-45016588D01*
X122135820Y-45052898D01*
X122025506Y-45111863D01*
X121928815Y-45191215D01*
X121849463Y-45287906D01*
X121790498Y-45398220D01*
X121754188Y-45517918D01*
X121741928Y-45642400D01*
X121741928Y-47342400D01*
X121754188Y-47466882D01*
X121790498Y-47586580D01*
X121849463Y-47696894D01*
X121928815Y-47793585D01*
X122025506Y-47872937D01*
X122135820Y-47931902D01*
X122208380Y-47953913D01*
X122076525Y-48085768D01*
X121914010Y-48328989D01*
X121802068Y-48599242D01*
X121745000Y-48886140D01*
X121745000Y-49178660D01*
X121802068Y-49465558D01*
X121914010Y-49735811D01*
X122052509Y-49943089D01*
X119675798Y-52319801D01*
X119646800Y-52343599D01*
X119623002Y-52372597D01*
X119623001Y-52372598D01*
X119551826Y-52459324D01*
X119481254Y-52591354D01*
X119465770Y-52642400D01*
X119444537Y-52712400D01*
X119437798Y-52734615D01*
X119423124Y-52883600D01*
X119426801Y-52920933D01*
X119426801Y-60983265D01*
X119269027Y-60927437D01*
X119037000Y-61047936D01*
X119037000Y-62255400D01*
X119057000Y-62255400D01*
X119057000Y-62509400D01*
X119037000Y-62509400D01*
X119037000Y-62529400D01*
X118783000Y-62529400D01*
X118783000Y-62509400D01*
X116497000Y-62509400D01*
X116497000Y-62529400D01*
X116243000Y-62529400D01*
X116243000Y-62509400D01*
X116223000Y-62509400D01*
X116223000Y-62255400D01*
X116243000Y-62255400D01*
X116243000Y-61042550D01*
X116497000Y-61042550D01*
X116497000Y-62255400D01*
X118783000Y-62255400D01*
X118783000Y-61047936D01*
X118550973Y-60927437D01*
X118274022Y-61025436D01*
X118021512Y-61175583D01*
X117842053Y-61337092D01*
X117823102Y-61274620D01*
X117764137Y-61164306D01*
X117684785Y-61067615D01*
X117588094Y-60988263D01*
X117477780Y-60929298D01*
X117358082Y-60892988D01*
X117233600Y-60880728D01*
X116655750Y-60883800D01*
X116497000Y-61042550D01*
X116243000Y-61042550D01*
X116084250Y-60883800D01*
X115918200Y-60882917D01*
X115918200Y-59237886D01*
X116128645Y-59427578D01*
X116378748Y-59576557D01*
X116653109Y-59673881D01*
X116883000Y-59553214D01*
X116883000Y-58359400D01*
X117137000Y-58359400D01*
X117137000Y-59553214D01*
X117366891Y-59673881D01*
X117641252Y-59576557D01*
X117891355Y-59427578D01*
X118107588Y-59232669D01*
X118281641Y-58999320D01*
X118406825Y-58736499D01*
X118451476Y-58589290D01*
X118330155Y-58359400D01*
X117137000Y-58359400D01*
X116883000Y-58359400D01*
X116863000Y-58359400D01*
X116863000Y-58105400D01*
X116883000Y-58105400D01*
X116883000Y-58085400D01*
X117137000Y-58085400D01*
X117137000Y-58105400D01*
X118330155Y-58105400D01*
X118451476Y-57875510D01*
X118406825Y-57728301D01*
X118281641Y-57465480D01*
X118107588Y-57232131D01*
X118023534Y-57156366D01*
X118104180Y-57131902D01*
X118214494Y-57072937D01*
X118311185Y-56993585D01*
X118390537Y-56896894D01*
X118449502Y-56786580D01*
X118485812Y-56666882D01*
X118498072Y-56542400D01*
X118498072Y-54842400D01*
X118485812Y-54717918D01*
X118449502Y-54598220D01*
X118390537Y-54487906D01*
X118311185Y-54391215D01*
X118214494Y-54311863D01*
X118104180Y-54252898D01*
X117984482Y-54216588D01*
X117860000Y-54204328D01*
X116160000Y-54204328D01*
X116035518Y-54216588D01*
X115915820Y-54252898D01*
X115805506Y-54311863D01*
X115708815Y-54391215D01*
X115629463Y-54487906D01*
X115570498Y-54598220D01*
X115534188Y-54717918D01*
X115521928Y-54842400D01*
X115521928Y-56542400D01*
X115534188Y-56666882D01*
X115570498Y-56786580D01*
X115597849Y-56837749D01*
X115101370Y-57334229D01*
X115101370Y-49072404D01*
X115173659Y-48153882D01*
X115382891Y-47282367D01*
X115725884Y-46454311D01*
X116194188Y-45690109D01*
X116776274Y-45008574D01*
X117457809Y-44426487D01*
X118222011Y-43958184D01*
X119050069Y-43615191D01*
X119921582Y-43405959D01*
X120840104Y-43333670D01*
X134783831Y-43333670D01*
X134783830Y-63085629D01*
G37*
G04 #@! TD.AperFunction*
D23*
X127741928Y-66942400D02*
X127754188Y-67066882D01*
X127790498Y-67186580D01*
X127849463Y-67296894D01*
X127928815Y-67393585D01*
X128025506Y-67472937D01*
X128135820Y-67531902D01*
X128208380Y-67553913D01*
X128076525Y-67685768D01*
X127914010Y-67928989D01*
X127802068Y-68199242D01*
X127745000Y-68486140D01*
X127745000Y-68778660D01*
X127802068Y-69065558D01*
X127914010Y-69335811D01*
X128076525Y-69579032D01*
X128283368Y-69785875D01*
X128465534Y-69907595D01*
X128348645Y-69977222D01*
X128132412Y-70172131D01*
X127958359Y-70405480D01*
X127833175Y-70668301D01*
X127788524Y-70815510D01*
X127909845Y-71045400D01*
X129103000Y-71045400D01*
X129103000Y-71025400D01*
X129357000Y-71025400D01*
X129357000Y-71045400D01*
X129377000Y-71045400D01*
X129377000Y-71299400D01*
X129357000Y-71299400D01*
X129357000Y-71319400D01*
X129103000Y-71319400D01*
X129103000Y-71299400D01*
X127909845Y-71299400D01*
X127788524Y-71529290D01*
X127833175Y-71676499D01*
X127958359Y-71939320D01*
X128132412Y-72172669D01*
X128348645Y-72367578D01*
X128465534Y-72437205D01*
X128283368Y-72558925D01*
X128076525Y-72765768D01*
X127971867Y-72922400D01*
X126598178Y-72922400D01*
X126473475Y-72735768D01*
X126266632Y-72528925D01*
X126084466Y-72407205D01*
X126201355Y-72337578D01*
X126417588Y-72142669D01*
X126591641Y-71909320D01*
X126716825Y-71646499D01*
X126761476Y-71499290D01*
X126640155Y-71269400D01*
X125447000Y-71269400D01*
X125447000Y-71289400D01*
X125193000Y-71289400D01*
X125193000Y-71269400D01*
X125173000Y-71269400D01*
X125173000Y-71015400D01*
X125193000Y-71015400D01*
X125193000Y-70995400D01*
X125447000Y-70995400D01*
X125447000Y-71015400D01*
X126640155Y-71015400D01*
X126761476Y-70785510D01*
X126716825Y-70638301D01*
X126591641Y-70375480D01*
X126417588Y-70142131D01*
X126201355Y-69947222D01*
X126084466Y-69877595D01*
X126266632Y-69755875D01*
X126473475Y-69549032D01*
X126635990Y-69305811D01*
X126747932Y-69035558D01*
X126805000Y-68748660D01*
X126805000Y-68456140D01*
X126747932Y-68169242D01*
X126635990Y-67898989D01*
X126473475Y-67655768D01*
X126341620Y-67523913D01*
X126414180Y-67501902D01*
X126524494Y-67442937D01*
X126621185Y-67363585D01*
X126700537Y-67266894D01*
X126759502Y-67156580D01*
X126795812Y-67036882D01*
X126808072Y-66912400D01*
X126808072Y-66822400D01*
X127741928Y-66822400D01*
X127741928Y-66942400D01*
G04 #@! TA.AperFunction,Conductor*
D24*
G36*
X127741928Y-66942400D02*
G01*
X127754188Y-67066882D01*
X127790498Y-67186580D01*
X127849463Y-67296894D01*
X127928815Y-67393585D01*
X128025506Y-67472937D01*
X128135820Y-67531902D01*
X128208380Y-67553913D01*
X128076525Y-67685768D01*
X127914010Y-67928989D01*
X127802068Y-68199242D01*
X127745000Y-68486140D01*
X127745000Y-68778660D01*
X127802068Y-69065558D01*
X127914010Y-69335811D01*
X128076525Y-69579032D01*
X128283368Y-69785875D01*
X128465534Y-69907595D01*
X128348645Y-69977222D01*
X128132412Y-70172131D01*
X127958359Y-70405480D01*
X127833175Y-70668301D01*
X127788524Y-70815510D01*
X127909845Y-71045400D01*
X129103000Y-71045400D01*
X129103000Y-71025400D01*
X129357000Y-71025400D01*
X129357000Y-71045400D01*
X129377000Y-71045400D01*
X129377000Y-71299400D01*
X129357000Y-71299400D01*
X129357000Y-71319400D01*
X129103000Y-71319400D01*
X129103000Y-71299400D01*
X127909845Y-71299400D01*
X127788524Y-71529290D01*
X127833175Y-71676499D01*
X127958359Y-71939320D01*
X128132412Y-72172669D01*
X128348645Y-72367578D01*
X128465534Y-72437205D01*
X128283368Y-72558925D01*
X128076525Y-72765768D01*
X127971867Y-72922400D01*
X126598178Y-72922400D01*
X126473475Y-72735768D01*
X126266632Y-72528925D01*
X126084466Y-72407205D01*
X126201355Y-72337578D01*
X126417588Y-72142669D01*
X126591641Y-71909320D01*
X126716825Y-71646499D01*
X126761476Y-71499290D01*
X126640155Y-71269400D01*
X125447000Y-71269400D01*
X125447000Y-71289400D01*
X125193000Y-71289400D01*
X125193000Y-71269400D01*
X125173000Y-71269400D01*
X125173000Y-71015400D01*
X125193000Y-71015400D01*
X125193000Y-70995400D01*
X125447000Y-70995400D01*
X125447000Y-71015400D01*
X126640155Y-71015400D01*
X126761476Y-70785510D01*
X126716825Y-70638301D01*
X126591641Y-70375480D01*
X126417588Y-70142131D01*
X126201355Y-69947222D01*
X126084466Y-69877595D01*
X126266632Y-69755875D01*
X126473475Y-69549032D01*
X126635990Y-69305811D01*
X126747932Y-69035558D01*
X126805000Y-68748660D01*
X126805000Y-68456140D01*
X126747932Y-68169242D01*
X126635990Y-67898989D01*
X126473475Y-67655768D01*
X126341620Y-67523913D01*
X126414180Y-67501902D01*
X126524494Y-67442937D01*
X126621185Y-67363585D01*
X126700537Y-67266894D01*
X126759502Y-67156580D01*
X126795812Y-67036882D01*
X126808072Y-66912400D01*
X126808072Y-66822400D01*
X127741928Y-66822400D01*
X127741928Y-66942400D01*
G37*
G04 #@! TD.AperFunction*
D23*
X166281512Y-63589217D02*
X166380103Y-63647841D01*
X166214698Y-63758361D01*
X166005961Y-63967098D01*
X165900000Y-64125681D01*
X165794039Y-63967098D01*
X165679977Y-63853036D01*
X165737780Y-63835502D01*
X165848094Y-63776537D01*
X165944785Y-63697185D01*
X166024137Y-63600494D01*
X166083102Y-63490180D01*
X166102053Y-63427708D01*
X166281512Y-63589217D01*
G04 #@! TA.AperFunction,Conductor*
D24*
G36*
X166281512Y-63589217D02*
G01*
X166380103Y-63647841D01*
X166214698Y-63758361D01*
X166005961Y-63967098D01*
X165900000Y-64125681D01*
X165794039Y-63967098D01*
X165679977Y-63853036D01*
X165737780Y-63835502D01*
X165848094Y-63776537D01*
X165944785Y-63697185D01*
X166024137Y-63600494D01*
X166083102Y-63490180D01*
X166102053Y-63427708D01*
X166281512Y-63589217D01*
G37*
G04 #@! TD.AperFunction*
M02*
