G04 #@! TF.GenerationSoftware,KiCad,Pcbnew,(5.1.12)-1*
G04 #@! TF.CreationDate,2022-05-09T10:01:21-03:00*
G04 #@! TF.ProjectId,BBBMINI_PCB_V2,4242424d-494e-4495-9f50-43425f56322e,rev?*
G04 #@! TF.SameCoordinates,Original*
G04 #@! TF.FileFunction,Copper,L2,Bot*
G04 #@! TF.FilePolarity,Positive*
%FSLAX46Y46*%
G04 Gerber Fmt 4.6, Leading zero omitted, Abs format (unit mm)*
G04 Created by KiCad (PCBNEW (5.1.12)-1) date 2022-05-09 10:01:21*
%MOMM*%
%LPD*%
G01*
G04 APERTURE LIST*
G04 #@! TA.AperFunction,ComponentPad*
%ADD10C,1.800000*%
G04 #@! TD*
G04 #@! TA.AperFunction,ComponentPad*
%ADD11R,1.800000X1.800000*%
G04 #@! TD*
G04 #@! TA.AperFunction,ComponentPad*
%ADD12O,1.600000X1.600000*%
G04 #@! TD*
G04 #@! TA.AperFunction,ComponentPad*
%ADD13C,1.600000*%
G04 #@! TD*
G04 #@! TA.AperFunction,ComponentPad*
%ADD14C,4.064000*%
G04 #@! TD*
G04 #@! TA.AperFunction,ComponentPad*
%ADD15O,1.700000X1.700000*%
G04 #@! TD*
G04 #@! TA.AperFunction,ComponentPad*
%ADD16R,1.700000X1.700000*%
G04 #@! TD*
G04 #@! TA.AperFunction,ComponentPad*
%ADD17R,1.500000X1.050000*%
G04 #@! TD*
G04 #@! TA.AperFunction,ComponentPad*
%ADD18O,1.500000X1.050000*%
G04 #@! TD*
G04 #@! TA.AperFunction,ComponentPad*
%ADD19R,1.727200X1.727200*%
G04 #@! TD*
G04 #@! TA.AperFunction,ComponentPad*
%ADD20O,1.727200X1.727200*%
G04 #@! TD*
G04 #@! TA.AperFunction,ViaPad*
%ADD21C,0.600000*%
G04 #@! TD*
G04 #@! TA.AperFunction,Conductor*
%ADD22C,0.250000*%
G04 #@! TD*
G04 #@! TA.AperFunction,Conductor*
%ADD23C,0.254000*%
G04 #@! TD*
G04 #@! TA.AperFunction,Conductor*
%ADD24C,0.100000*%
G04 #@! TD*
G04 APERTURE END LIST*
D10*
X166620000Y-54352400D03*
D11*
X166620000Y-51812400D03*
D10*
X160840000Y-54282400D03*
D11*
X160840000Y-51742400D03*
D10*
X155570000Y-54352400D03*
D11*
X155570000Y-51812400D03*
D12*
X160120000Y-67762400D03*
D13*
X157580000Y-67762400D03*
D12*
X160120000Y-64812400D03*
D13*
X157580000Y-64812400D03*
D12*
X160120000Y-61772400D03*
D13*
X157580000Y-61772400D03*
D14*
X134660000Y-114682000D03*
X152110000Y-116012000D03*
X152100000Y-99722400D03*
X148170000Y-71562400D03*
X148280000Y-92342400D03*
D15*
X123230000Y-54112400D03*
X123230000Y-51572400D03*
X123230000Y-49032400D03*
D16*
X123230000Y-46492400D03*
D15*
X159840000Y-101932400D03*
X159840000Y-99392400D03*
X159840000Y-96852400D03*
X159840000Y-94312400D03*
X159840000Y-91772400D03*
X159840000Y-89232400D03*
D16*
X159840000Y-86692400D03*
D12*
X125830000Y-58482400D03*
D13*
X125830000Y-61022400D03*
D12*
X128920000Y-58462400D03*
D13*
X128920000Y-61002400D03*
D15*
X122480000Y-125072000D03*
D16*
X122480000Y-122532000D03*
D17*
X161040000Y-121922000D03*
D18*
X161040000Y-124462000D03*
X161040000Y-123192000D03*
D12*
X152020000Y-88062400D03*
D13*
X144400000Y-88062400D03*
D15*
X159790000Y-80032400D03*
X159790000Y-77492400D03*
D16*
X159790000Y-74952400D03*
D12*
X152020000Y-85062400D03*
D13*
X144400000Y-85062400D03*
D12*
X152020000Y-82072400D03*
D13*
X144400000Y-82072400D03*
D12*
X152020000Y-79062400D03*
D13*
X144400000Y-79062400D03*
D12*
X152020000Y-76062400D03*
D13*
X144400000Y-76062400D03*
D15*
X159810000Y-116182000D03*
X159810000Y-113642000D03*
X159810000Y-111102000D03*
D16*
X159810000Y-108562000D03*
D15*
X142030000Y-116612400D03*
X142030000Y-114072400D03*
X142030000Y-111532400D03*
X142030000Y-108992400D03*
X142030000Y-106452400D03*
X142030000Y-103912400D03*
X142030000Y-101372400D03*
D16*
X142030000Y-98832400D03*
D15*
X131150000Y-54422400D03*
X131150000Y-51882400D03*
X131150000Y-49342400D03*
D16*
X131150000Y-46802400D03*
D15*
X137860000Y-93362400D03*
X137860000Y-90822400D03*
X137860000Y-88282400D03*
X137860000Y-85742400D03*
X137860000Y-83202400D03*
X137860000Y-80662400D03*
X137860000Y-78122400D03*
X137860000Y-75582400D03*
X137860000Y-73042400D03*
D16*
X137860000Y-70502400D03*
D15*
X125980000Y-115982000D03*
X125980000Y-113442000D03*
X125980000Y-110902000D03*
X125980000Y-108362000D03*
X125980000Y-105822000D03*
X125980000Y-103282000D03*
D16*
X125980000Y-100742000D03*
D15*
X130060000Y-93552400D03*
X130060000Y-91012400D03*
X130060000Y-88472400D03*
X130060000Y-85932400D03*
D16*
X130060000Y-83392400D03*
D15*
X125410000Y-93552400D03*
X125410000Y-91012400D03*
X125410000Y-88472400D03*
X125410000Y-85932400D03*
D16*
X125410000Y-83392400D03*
D15*
X129230000Y-76252400D03*
X129230000Y-73712400D03*
X129230000Y-71172400D03*
X129230000Y-68632400D03*
D16*
X129230000Y-66092400D03*
D15*
X125320000Y-76222400D03*
X125320000Y-73682400D03*
X125320000Y-71142400D03*
X125320000Y-68602400D03*
D16*
X125320000Y-66062400D03*
D15*
X117010000Y-58232400D03*
D16*
X117010000Y-55692400D03*
D15*
X155750000Y-124122000D03*
X155750000Y-126662000D03*
X153210000Y-124122000D03*
X153210000Y-126662000D03*
X150670000Y-124122000D03*
X150670000Y-126662000D03*
X148130000Y-124122000D03*
X148130000Y-126662000D03*
X145590000Y-124122000D03*
X145590000Y-126662000D03*
X143050000Y-124122000D03*
X143050000Y-126662000D03*
X140510000Y-124122000D03*
X140510000Y-126662000D03*
X137970000Y-124122000D03*
X137970000Y-126662000D03*
X135430000Y-124122000D03*
X135430000Y-126662000D03*
X132890000Y-124122000D03*
X132890000Y-126662000D03*
X130350000Y-124122000D03*
X130350000Y-126662000D03*
X127810000Y-124122000D03*
D16*
X127810000Y-126662000D03*
D15*
X155760000Y-121502000D03*
X153220000Y-121502000D03*
X150680000Y-121502000D03*
X148140000Y-121502000D03*
X145600000Y-121502000D03*
X143060000Y-121502000D03*
X140520000Y-121502000D03*
X137980000Y-121502000D03*
X135440000Y-121502000D03*
X132900000Y-121502000D03*
X130360000Y-121502000D03*
D16*
X127820000Y-121502000D03*
D19*
X164630000Y-62382400D03*
D20*
X167170000Y-62382400D03*
X164630000Y-64922400D03*
X167170000Y-64922400D03*
X164630000Y-67462400D03*
X167170000Y-67462400D03*
X164630000Y-70002400D03*
X167170000Y-70002400D03*
X164630000Y-72542400D03*
X167170000Y-72542400D03*
X164630000Y-75082400D03*
X167170000Y-75082400D03*
X164630000Y-77622400D03*
X167170000Y-77622400D03*
X164630000Y-80162400D03*
X167170000Y-80162400D03*
X164630000Y-82702400D03*
X167170000Y-82702400D03*
X164630000Y-85242400D03*
X167170000Y-85242400D03*
X164630000Y-87782400D03*
X167170000Y-87782400D03*
X164630000Y-90322400D03*
X167170000Y-90322400D03*
X164630000Y-92862400D03*
X167170000Y-92862400D03*
X164630000Y-95402400D03*
X167170000Y-95402400D03*
X164630000Y-97942400D03*
X167170000Y-97942400D03*
X164630000Y-100482400D03*
X167170000Y-100482400D03*
X164630000Y-103022400D03*
X167170000Y-103022400D03*
X164630000Y-105562400D03*
X167170000Y-105562400D03*
X164630000Y-108102400D03*
X167170000Y-108102400D03*
X164630000Y-110642400D03*
X167170000Y-110642400D03*
X164630000Y-113182400D03*
X167170000Y-113182400D03*
X164630000Y-115722400D03*
X167170000Y-115722400D03*
X164630000Y-118262400D03*
X167170000Y-118262400D03*
D19*
X116370000Y-62382400D03*
D20*
X118910000Y-62382400D03*
X116370000Y-64922400D03*
X118910000Y-64922400D03*
X116370000Y-67462400D03*
X118910000Y-67462400D03*
X116370000Y-70002400D03*
X118910000Y-70002400D03*
X116370000Y-72542400D03*
X118910000Y-72542400D03*
X116370000Y-75082400D03*
X118910000Y-75082400D03*
X116370000Y-77622400D03*
X118910000Y-77622400D03*
X116370000Y-80162400D03*
X118910000Y-80162400D03*
X116370000Y-82702400D03*
X118910000Y-82702400D03*
X116370000Y-85242400D03*
X118910000Y-85242400D03*
X116370000Y-87782400D03*
X118910000Y-87782400D03*
X116370000Y-90322400D03*
X118910000Y-90322400D03*
X116370000Y-92862400D03*
X118910000Y-92862400D03*
X116370000Y-95402400D03*
X118910000Y-95402400D03*
X116370000Y-97942400D03*
X118910000Y-97942400D03*
X116370000Y-100482400D03*
X118910000Y-100482400D03*
X116370000Y-103022400D03*
X118910000Y-103022400D03*
X116370000Y-105562400D03*
X118910000Y-105562400D03*
X116370000Y-108102400D03*
X118910000Y-108102400D03*
X116370000Y-110642400D03*
X118910000Y-110642400D03*
X116370000Y-113182400D03*
X118910000Y-113182400D03*
X116370000Y-115722400D03*
X118910000Y-115722400D03*
X116370000Y-118262400D03*
X118910000Y-118262400D03*
D21*
X155416300Y-112980500D03*
X121778000Y-78903400D03*
X123564600Y-88494300D03*
X132298100Y-106654200D03*
D22*
X142030000Y-115437100D02*
X141725900Y-115437100D01*
X141725900Y-115437100D02*
X132923400Y-106634600D01*
X132923400Y-106634600D02*
X132923400Y-106395100D01*
X132923400Y-106395100D02*
X127270300Y-100742000D01*
X127270300Y-100742000D02*
X127155300Y-100742000D01*
X142030000Y-116612400D02*
X142030000Y-115437100D01*
X125980000Y-100742000D02*
X127155300Y-100742000D01*
X129230000Y-68632400D02*
X128054700Y-68632400D01*
X126495300Y-67427100D02*
X126849400Y-67427100D01*
X126849400Y-67427100D02*
X128054700Y-68632400D01*
X126495300Y-67427100D02*
X126495300Y-65019700D01*
X126495300Y-65019700D02*
X126362600Y-64887000D01*
X126362600Y-64887000D02*
X120134300Y-64887000D01*
X120134300Y-64887000D02*
X120098900Y-64922400D01*
X125320000Y-67427100D02*
X126495300Y-67427100D01*
X137860000Y-70502400D02*
X136684700Y-70502400D01*
X129230000Y-68632400D02*
X134814700Y-68632400D01*
X134814700Y-68632400D02*
X136684700Y-70502400D01*
X137860000Y-70502400D02*
X137860000Y-71677700D01*
X159790000Y-77492400D02*
X144231100Y-77492400D01*
X144231100Y-77492400D02*
X138416400Y-71677700D01*
X138416400Y-71677700D02*
X137860000Y-71677700D01*
X118910000Y-64922400D02*
X120098900Y-64922400D01*
X118910000Y-64922400D02*
X116370000Y-64922400D01*
X125320000Y-68602400D02*
X125320000Y-67427100D01*
X125410000Y-84567700D02*
X125042700Y-84567700D01*
X125042700Y-84567700D02*
X122917000Y-86693400D01*
X122917000Y-86693400D02*
X122917000Y-88792300D01*
X122917000Y-88792300D02*
X123884800Y-89760100D01*
X123884800Y-89760100D02*
X125821100Y-89760100D01*
X125821100Y-89760100D02*
X128280700Y-92219700D01*
X128280700Y-92219700D02*
X128280700Y-94148300D01*
X128280700Y-94148300D02*
X129698100Y-95565700D01*
X129698100Y-95565700D02*
X137588000Y-95565700D01*
X137588000Y-95565700D02*
X140854700Y-98832400D01*
X142030000Y-98832400D02*
X140854700Y-98832400D01*
X125410000Y-83392400D02*
X125410000Y-84567700D01*
X130060000Y-83392400D02*
X125410000Y-83392400D01*
X123230000Y-46492400D02*
X124405300Y-46492400D01*
X131150000Y-46802400D02*
X124715300Y-46802400D01*
X124715300Y-46802400D02*
X124405300Y-46492400D01*
X142030000Y-98832400D02*
X143205300Y-98832400D01*
X143205300Y-98832400D02*
X152934900Y-108562000D01*
X152934900Y-108562000D02*
X159810000Y-108562000D01*
X118910000Y-67462400D02*
X120098900Y-67462400D01*
X120098900Y-67462400D02*
X121498900Y-66062400D01*
X121498900Y-66062400D02*
X125320000Y-66062400D01*
X116370000Y-67462400D02*
X118910000Y-67462400D01*
X125830000Y-58482400D02*
X124704700Y-58482400D01*
X116370000Y-70002400D02*
X116370000Y-68813500D01*
X116370000Y-68813500D02*
X115998500Y-68813500D01*
X115998500Y-68813500D02*
X115181000Y-67996000D01*
X115181000Y-67996000D02*
X115181000Y-64404000D01*
X115181000Y-64404000D02*
X115932600Y-63652400D01*
X115932600Y-63652400D02*
X119534700Y-63652400D01*
X119534700Y-63652400D02*
X124704700Y-58482400D01*
X125830000Y-58482400D02*
X126955300Y-58482400D01*
X126955300Y-58482400D02*
X126955300Y-59037700D01*
X126955300Y-59037700D02*
X128920000Y-61002400D01*
X166620000Y-51812400D02*
X166620000Y-53037700D01*
X167170000Y-62382400D02*
X167170000Y-61193500D01*
X167170000Y-61193500D02*
X167845300Y-60518200D01*
X167845300Y-60518200D02*
X167845300Y-53803400D01*
X167845300Y-53803400D02*
X167079600Y-53037700D01*
X167079600Y-53037700D02*
X166620000Y-53037700D01*
X123230000Y-54112400D02*
X124405300Y-54112400D01*
X131150000Y-54422400D02*
X124715300Y-54422400D01*
X124715300Y-54422400D02*
X124405300Y-54112400D01*
X118910000Y-118262400D02*
X117558900Y-118262400D01*
X116370000Y-118262400D02*
X117558900Y-118262400D01*
X118910000Y-118262400D02*
X118910000Y-116911300D01*
X125980000Y-103282000D02*
X124804700Y-103282000D01*
X118910000Y-103022400D02*
X124545100Y-103022400D01*
X124545100Y-103022400D02*
X124804700Y-103282000D01*
X118910000Y-115722400D02*
X118910000Y-116911300D01*
X155570000Y-51812400D02*
X156795300Y-51812400D01*
X160840000Y-51742400D02*
X156865300Y-51742400D01*
X156865300Y-51742400D02*
X156795300Y-51812400D01*
X165394700Y-51812400D02*
X165324700Y-51742400D01*
X165324700Y-51742400D02*
X160840000Y-51742400D01*
X137860000Y-88282400D02*
X136684700Y-88282400D01*
X130060000Y-88472400D02*
X136494700Y-88472400D01*
X136494700Y-88472400D02*
X136684700Y-88282400D01*
X125410000Y-88472400D02*
X130060000Y-88472400D01*
X125320000Y-71142400D02*
X126495300Y-71142400D01*
X129230000Y-71172400D02*
X126525300Y-71172400D01*
X126525300Y-71172400D02*
X126495300Y-71142400D01*
X136684700Y-73042400D02*
X134814700Y-71172400D01*
X134814700Y-71172400D02*
X129230000Y-71172400D01*
X118910000Y-115722400D02*
X120098900Y-115722400D01*
X120098900Y-115722400D02*
X120358500Y-115982000D01*
X120358500Y-115982000D02*
X125980000Y-115982000D01*
X166620000Y-51812400D02*
X165394700Y-51812400D01*
X152020000Y-80840000D02*
X144559300Y-80840000D01*
X144559300Y-80840000D02*
X139035300Y-75316000D01*
X139035300Y-75316000D02*
X139035300Y-75041300D01*
X139035300Y-75041300D02*
X138211700Y-74217700D01*
X138211700Y-74217700D02*
X137860000Y-74217700D01*
X158614700Y-80032400D02*
X157807100Y-80840000D01*
X157807100Y-80840000D02*
X152020000Y-80840000D01*
X152020000Y-80947100D02*
X152020000Y-80840000D01*
X152020000Y-82072400D02*
X152020000Y-80947100D01*
X137860000Y-73042400D02*
X137860000Y-74217700D01*
X159790000Y-80032400D02*
X158614700Y-80032400D01*
X137860000Y-73042400D02*
X136684700Y-73042400D01*
X123230000Y-54112400D02*
X122054700Y-54112400D01*
X117010000Y-58232400D02*
X118185300Y-58232400D01*
X118185300Y-58232400D02*
X122054700Y-54363000D01*
X122054700Y-54363000D02*
X122054700Y-54112400D01*
X161040000Y-124462000D02*
X161040000Y-125312300D01*
X155750000Y-126662000D02*
X159690300Y-126662000D01*
X159690300Y-126662000D02*
X161040000Y-125312300D01*
X153210000Y-126662000D02*
X155750000Y-126662000D01*
X150670000Y-126662000D02*
X153210000Y-126662000D01*
X148130000Y-126662000D02*
X150670000Y-126662000D01*
X145590000Y-126662000D02*
X148130000Y-126662000D01*
X143050000Y-126662000D02*
X145590000Y-126662000D01*
X140510000Y-126662000D02*
X143050000Y-126662000D01*
X135430000Y-126662000D02*
X137970000Y-126662000D01*
X132890000Y-126662000D02*
X135430000Y-126662000D01*
X130350000Y-126662000D02*
X132890000Y-126662000D01*
X156935300Y-121502000D02*
X158709400Y-121502000D01*
X158709400Y-121502000D02*
X161949000Y-118262400D01*
X161949000Y-118262400D02*
X163441100Y-118262400D01*
X164630000Y-118262400D02*
X163441100Y-118262400D01*
X155760000Y-121502000D02*
X156935300Y-121502000D01*
X153220000Y-121502000D02*
X154395300Y-121502000D01*
X167170000Y-118262400D02*
X165981100Y-118262400D01*
X165981100Y-118262400D02*
X165981100Y-118633900D01*
X165981100Y-118633900D02*
X163772100Y-120842900D01*
X163772100Y-120842900D02*
X160135000Y-120842900D01*
X160135000Y-120842900D02*
X158300600Y-122677300D01*
X158300600Y-122677300D02*
X155203200Y-122677300D01*
X155203200Y-122677300D02*
X154395300Y-121869400D01*
X154395300Y-121869400D02*
X154395300Y-121502000D01*
X146775300Y-121502000D02*
X146775300Y-121134700D01*
X146775300Y-121134700D02*
X148286500Y-119623500D01*
X148286500Y-119623500D02*
X159314100Y-119623500D01*
X159314100Y-119623500D02*
X163441100Y-115496500D01*
X163441100Y-115496500D02*
X163441100Y-115215100D01*
X163441100Y-115215100D02*
X164284900Y-114371300D01*
X164284900Y-114371300D02*
X164630000Y-114371300D01*
X145600000Y-121502000D02*
X146775300Y-121502000D01*
X164630000Y-113182400D02*
X164630000Y-114371300D01*
X144235300Y-121502000D02*
X144235300Y-121134700D01*
X144235300Y-121134700D02*
X146196800Y-119173200D01*
X146196800Y-119173200D02*
X159127500Y-119173200D01*
X159127500Y-119173200D02*
X162702200Y-115598500D01*
X162702200Y-115598500D02*
X162702200Y-113411400D01*
X162702200Y-113411400D02*
X164120100Y-111993500D01*
X164120100Y-111993500D02*
X165163800Y-111993500D01*
X165163800Y-111993500D02*
X165981100Y-112810800D01*
X165981100Y-112810800D02*
X165981100Y-113182400D01*
X167170000Y-113182400D02*
X165981100Y-113182400D01*
X143060000Y-121502000D02*
X144235300Y-121502000D01*
X140520000Y-121502000D02*
X141695300Y-121502000D01*
X164630000Y-110642400D02*
X161760600Y-113511800D01*
X161760600Y-113511800D02*
X161760600Y-115903200D01*
X161760600Y-115903200D02*
X158941000Y-118722800D01*
X158941000Y-118722800D02*
X144176900Y-118722800D01*
X144176900Y-118722800D02*
X141695300Y-121204400D01*
X141695300Y-121204400D02*
X141695300Y-121502000D01*
X137980000Y-121502000D02*
X139155300Y-121502000D01*
X167170000Y-110642400D02*
X167170000Y-111831300D01*
X167170000Y-111831300D02*
X167541500Y-111831300D01*
X167541500Y-111831300D02*
X168393800Y-112683600D01*
X168393800Y-112683600D02*
X168393800Y-113669400D01*
X168393800Y-113669400D02*
X167691900Y-114371300D01*
X167691900Y-114371300D02*
X166780700Y-114371300D01*
X166780700Y-114371300D02*
X165819000Y-115333000D01*
X165819000Y-115333000D02*
X165819000Y-116236700D01*
X165819000Y-116236700D02*
X165063300Y-116992400D01*
X165063300Y-116992400D02*
X162582100Y-116992400D01*
X162582100Y-116992400D02*
X159406000Y-120168500D01*
X159406000Y-120168500D02*
X152876400Y-120168500D01*
X152876400Y-120168500D02*
X151950000Y-121094900D01*
X151950000Y-121094900D02*
X151950000Y-121985100D01*
X151950000Y-121985100D02*
X151257800Y-122677300D01*
X151257800Y-122677300D02*
X139963200Y-122677300D01*
X139963200Y-122677300D02*
X139155300Y-121869400D01*
X139155300Y-121869400D02*
X139155300Y-121502000D01*
X136615300Y-121502000D02*
X136615300Y-121134600D01*
X136615300Y-121134600D02*
X137423200Y-120326700D01*
X137423200Y-120326700D02*
X141936100Y-120326700D01*
X141936100Y-120326700D02*
X149282300Y-112980500D01*
X149282300Y-112980500D02*
X155416300Y-112980500D01*
X135440000Y-121502000D02*
X136615300Y-121502000D01*
X132900000Y-121502000D02*
X134075300Y-121502000D01*
X167170000Y-97942400D02*
X167170000Y-99131300D01*
X167170000Y-99131300D02*
X167541500Y-99131300D01*
X167541500Y-99131300D02*
X168391300Y-99981100D01*
X168391300Y-99981100D02*
X168391300Y-108663700D01*
X168391300Y-108663700D02*
X167682600Y-109372400D01*
X167682600Y-109372400D02*
X164199200Y-109372400D01*
X164199200Y-109372400D02*
X161307100Y-112264500D01*
X161307100Y-112264500D02*
X161307100Y-113817800D01*
X161307100Y-113817800D02*
X160266900Y-114858000D01*
X160266900Y-114858000D02*
X158351200Y-114858000D01*
X158351200Y-114858000D02*
X155840800Y-112347600D01*
X155840800Y-112347600D02*
X148515400Y-112347600D01*
X148515400Y-112347600D02*
X141732800Y-119130200D01*
X141732800Y-119130200D02*
X136079800Y-119130200D01*
X136079800Y-119130200D02*
X134075300Y-121134700D01*
X134075300Y-121134700D02*
X134075300Y-121502000D01*
X130060000Y-91012400D02*
X130060000Y-92187700D01*
X164630000Y-108102400D02*
X163441100Y-108102400D01*
X163441100Y-108102400D02*
X162725400Y-107386700D01*
X162725400Y-107386700D02*
X153387800Y-107386700D01*
X153387800Y-107386700D02*
X141116400Y-95115300D01*
X141116400Y-95115300D02*
X129956800Y-95115300D01*
X129956800Y-95115300D02*
X128884700Y-94043200D01*
X128884700Y-94043200D02*
X128884700Y-92995600D01*
X128884700Y-92995600D02*
X129692600Y-92187700D01*
X129692600Y-92187700D02*
X130060000Y-92187700D01*
X165981100Y-108102400D02*
X165981100Y-107730800D01*
X165981100Y-107730800D02*
X165163800Y-106913500D01*
X165163800Y-106913500D02*
X153551500Y-106913500D01*
X153551500Y-106913500D02*
X141302900Y-94664900D01*
X141302900Y-94664900D02*
X132347800Y-94664900D01*
X132347800Y-94664900D02*
X131235300Y-93552400D01*
X130060000Y-93552400D02*
X131235300Y-93552400D01*
X167170000Y-108102400D02*
X165981100Y-108102400D01*
X153210000Y-124122000D02*
X155750000Y-124122000D01*
X150670000Y-124122000D02*
X153210000Y-124122000D01*
X148130000Y-124122000D02*
X150670000Y-124122000D01*
X145590000Y-124122000D02*
X148130000Y-124122000D01*
X143050000Y-124122000D02*
X145590000Y-124122000D01*
X140510000Y-124122000D02*
X143050000Y-124122000D01*
X137970000Y-124122000D02*
X140510000Y-124122000D01*
X135430000Y-124122000D02*
X137970000Y-124122000D01*
X132890000Y-124122000D02*
X135430000Y-124122000D01*
X130350000Y-124122000D02*
X132890000Y-124122000D01*
X127810000Y-124122000D02*
X130350000Y-124122000D01*
X125320000Y-76252400D02*
X125320000Y-78015000D01*
X125320000Y-78015000D02*
X119281500Y-84053500D01*
X119281500Y-84053500D02*
X118910000Y-84053500D01*
X125320000Y-76222400D02*
X125320000Y-76252400D01*
X125320000Y-76252400D02*
X128054700Y-76252400D01*
X129230000Y-76252400D02*
X128054700Y-76252400D01*
X118910000Y-85242400D02*
X118910000Y-84053500D01*
X116370000Y-84053500D02*
X116741600Y-84053500D01*
X116741600Y-84053500D02*
X117558900Y-83236200D01*
X117558900Y-83236200D02*
X117558900Y-82350200D01*
X117558900Y-82350200D02*
X118476700Y-81432400D01*
X118476700Y-81432400D02*
X120133400Y-81432400D01*
X120133400Y-81432400D02*
X124144700Y-77421100D01*
X124144700Y-77421100D02*
X124144700Y-75665600D01*
X124144700Y-75665600D02*
X124952600Y-74857700D01*
X124952600Y-74857700D02*
X125320000Y-74857700D01*
X125320000Y-73682400D02*
X125320000Y-74857700D01*
X116370000Y-85242400D02*
X116370000Y-84053500D01*
X116370000Y-75082400D02*
X116370000Y-76271300D01*
X116370000Y-76271300D02*
X116741600Y-76271300D01*
X116741600Y-76271300D02*
X117558900Y-77088600D01*
X117558900Y-77088600D02*
X117558900Y-77974600D01*
X117558900Y-77974600D02*
X118487700Y-78903400D01*
X118487700Y-78903400D02*
X121778000Y-78903400D01*
X125410000Y-91012400D02*
X124234700Y-91012400D01*
X116370000Y-77622400D02*
X116370000Y-78811300D01*
X116370000Y-78811300D02*
X115998500Y-78811300D01*
X115998500Y-78811300D02*
X115148600Y-79661200D01*
X115148600Y-79661200D02*
X115148600Y-85723000D01*
X115148600Y-85723000D02*
X115938000Y-86512400D01*
X115938000Y-86512400D02*
X119734700Y-86512400D01*
X119734700Y-86512400D02*
X124234700Y-91012400D01*
X118910000Y-91511300D02*
X118538500Y-91511300D01*
X118538500Y-91511300D02*
X117721000Y-92328800D01*
X117721000Y-92328800D02*
X117721000Y-93376700D01*
X117721000Y-93376700D02*
X118476700Y-94132400D01*
X118476700Y-94132400D02*
X120098900Y-94132400D01*
X120098900Y-94132400D02*
X122952100Y-96985600D01*
X122952100Y-96985600D02*
X131387900Y-96985600D01*
X131387900Y-96985600D02*
X140854700Y-106452400D01*
X142030000Y-106452400D02*
X140854700Y-106452400D01*
X118910000Y-90322400D02*
X118910000Y-91511300D01*
X120098900Y-92862400D02*
X123321500Y-96085000D01*
X123321500Y-96085000D02*
X133027300Y-96085000D01*
X133027300Y-96085000D02*
X140854700Y-103912400D01*
X142030000Y-103912400D02*
X140854700Y-103912400D01*
X118910000Y-92862400D02*
X120098900Y-92862400D01*
X137860000Y-80662400D02*
X136684700Y-80662400D01*
X123564600Y-88494300D02*
X124761900Y-87297000D01*
X124761900Y-87297000D02*
X130417400Y-87297000D01*
X130417400Y-87297000D02*
X136684700Y-81029700D01*
X136684700Y-81029700D02*
X136684700Y-80662400D01*
X116370000Y-100482400D02*
X116370000Y-101671300D01*
X125980000Y-105822000D02*
X124804700Y-105822000D01*
X124804700Y-105822000D02*
X123194100Y-104211400D01*
X123194100Y-104211400D02*
X118395700Y-104211400D01*
X118395700Y-104211400D02*
X117558900Y-103374600D01*
X117558900Y-103374600D02*
X117558900Y-102488600D01*
X117558900Y-102488600D02*
X116741600Y-101671300D01*
X116741600Y-101671300D02*
X116370000Y-101671300D01*
X116370000Y-110642400D02*
X117558900Y-110642400D01*
X117558900Y-110642400D02*
X117558900Y-110270800D01*
X117558900Y-110270800D02*
X118376200Y-109453500D01*
X118376200Y-109453500D02*
X121243100Y-109453500D01*
X121243100Y-109453500D02*
X123604600Y-107092000D01*
X123604600Y-107092000D02*
X131860300Y-107092000D01*
X131860300Y-107092000D02*
X132298100Y-106654200D01*
X118910000Y-113182400D02*
X120098900Y-113182400D01*
X120098900Y-113182400D02*
X122379300Y-110902000D01*
X122379300Y-110902000D02*
X125980000Y-110902000D01*
X159790000Y-74952400D02*
X160965300Y-74952400D01*
X164630000Y-80162400D02*
X164630000Y-78973500D01*
X164630000Y-78973500D02*
X164220600Y-78973500D01*
X164220600Y-78973500D02*
X160965300Y-75718200D01*
X160965300Y-75718200D02*
X160965300Y-74952400D01*
X143205300Y-111532400D02*
X156525100Y-111532400D01*
X156525100Y-111532400D02*
X158634700Y-113642000D01*
X159810000Y-113642000D02*
X158634700Y-113642000D01*
X142030000Y-111532400D02*
X143205300Y-111532400D01*
X142030000Y-108992400D02*
X143205300Y-108992400D01*
X159810000Y-111102000D02*
X158634700Y-111102000D01*
X143205300Y-108992400D02*
X144827900Y-110615000D01*
X144827900Y-110615000D02*
X158147700Y-110615000D01*
X158147700Y-110615000D02*
X158634700Y-111102000D01*
X131150000Y-51882400D02*
X131150000Y-53057700D01*
X131150000Y-53057700D02*
X131517400Y-53057700D01*
X131517400Y-53057700D02*
X132325300Y-53865600D01*
X132325300Y-53865600D02*
X132325300Y-61725200D01*
X132325300Y-61725200D02*
X144400000Y-73799900D01*
X144400000Y-73799900D02*
X144400000Y-76062400D01*
X152020000Y-88062400D02*
X150894700Y-88062400D01*
X118910000Y-77622400D02*
X120098900Y-77622400D01*
X120098900Y-77622400D02*
X120098900Y-77176600D01*
X120098900Y-77176600D02*
X124776800Y-72498700D01*
X124776800Y-72498700D02*
X126116100Y-72498700D01*
X126116100Y-72498700D02*
X128599800Y-74982400D01*
X128599800Y-74982400D02*
X130853200Y-74982400D01*
X130853200Y-74982400D02*
X135263200Y-79392400D01*
X135263200Y-79392400D02*
X139919800Y-79392400D01*
X139919800Y-79392400D02*
X144094800Y-83567400D01*
X144094800Y-83567400D02*
X146399700Y-83567400D01*
X146399700Y-83567400D02*
X150894700Y-88062400D01*
X122480000Y-125072000D02*
X123655300Y-125072000D01*
X161040000Y-121922000D02*
X159964700Y-121922000D01*
X159964700Y-121922000D02*
X156555600Y-125331100D01*
X156555600Y-125331100D02*
X123914400Y-125331100D01*
X123914400Y-125331100D02*
X123655300Y-125072000D01*
X167170000Y-72542400D02*
X165981100Y-72542400D01*
X165981100Y-72542400D02*
X165981100Y-72170800D01*
X165981100Y-72170800D02*
X165163800Y-71353500D01*
X165163800Y-71353500D02*
X162036400Y-71353500D01*
X162036400Y-71353500D02*
X158850000Y-68167100D01*
X158850000Y-68167100D02*
X158850000Y-66082400D01*
X158850000Y-66082400D02*
X157580000Y-64812400D01*
X164630000Y-75082400D02*
X164630000Y-73893500D01*
X164630000Y-73893500D02*
X163711100Y-73893500D01*
X163711100Y-73893500D02*
X157580000Y-67762400D01*
X159840000Y-91772400D02*
X159840000Y-90597100D01*
X164630000Y-85242400D02*
X164630000Y-86431300D01*
X164630000Y-86431300D02*
X164258400Y-86431300D01*
X164258400Y-86431300D02*
X161015300Y-89674400D01*
X161015300Y-89674400D02*
X161015300Y-89789900D01*
X161015300Y-89789900D02*
X160208100Y-90597100D01*
X160208100Y-90597100D02*
X159840000Y-90597100D01*
X164630000Y-90322400D02*
X164630000Y-91511300D01*
X164630000Y-91511300D02*
X164258400Y-91511300D01*
X164258400Y-91511300D02*
X163441100Y-92328600D01*
X163441100Y-92328600D02*
X163441100Y-93251300D01*
X163441100Y-93251300D02*
X159840000Y-96852400D01*
X167170000Y-100482400D02*
X165981100Y-100482400D01*
X159840000Y-99392400D02*
X161015300Y-99392400D01*
X161015300Y-99392400D02*
X161114200Y-99293500D01*
X161114200Y-99293500D02*
X165163800Y-99293500D01*
X165163800Y-99293500D02*
X165981100Y-100110800D01*
X165981100Y-100110800D02*
X165981100Y-100482400D01*
X159840000Y-94312400D02*
X159840000Y-95487700D01*
X167170000Y-103022400D02*
X165981100Y-103022400D01*
X165981100Y-103022400D02*
X165981100Y-102650800D01*
X165981100Y-102650800D02*
X165163800Y-101833500D01*
X165163800Y-101833500D02*
X163039100Y-101833500D01*
X163039100Y-101833500D02*
X161868000Y-100662400D01*
X161868000Y-100662400D02*
X159443100Y-100662400D01*
X159443100Y-100662400D02*
X158664700Y-99884000D01*
X158664700Y-99884000D02*
X158664700Y-96295600D01*
X158664700Y-96295600D02*
X159472600Y-95487700D01*
X159472600Y-95487700D02*
X159840000Y-95487700D01*
X160120000Y-64812400D02*
X160120000Y-63687100D01*
X160120000Y-63687100D02*
X161245300Y-62561800D01*
X161245300Y-62561800D02*
X161245300Y-54687700D01*
X161245300Y-54687700D02*
X160840000Y-54282400D01*
X160120000Y-66637100D02*
X161695600Y-65061500D01*
X161695600Y-65061500D02*
X161695600Y-59276800D01*
X161695600Y-59276800D02*
X166620000Y-54352400D01*
X160120000Y-67762400D02*
X160120000Y-66637100D01*
D23*
X140878146Y-115664147D02*
X140876525Y-115665768D01*
X140714010Y-115908989D01*
X140602068Y-116179242D01*
X140545000Y-116466140D01*
X140545000Y-116758660D01*
X140602068Y-117045558D01*
X140714010Y-117315811D01*
X140876525Y-117559032D01*
X141083368Y-117765875D01*
X141326589Y-117928390D01*
X141596842Y-118040332D01*
X141722810Y-118065389D01*
X141417999Y-118370200D01*
X136117122Y-118370200D01*
X136079799Y-118366524D01*
X136042476Y-118370200D01*
X136042467Y-118370200D01*
X135930814Y-118381197D01*
X135807191Y-118418697D01*
X135787553Y-118424654D01*
X135655523Y-118495226D01*
X135583119Y-118554647D01*
X135539799Y-118590199D01*
X135516001Y-118619197D01*
X133810690Y-120324509D01*
X133603411Y-120186010D01*
X133333158Y-120074068D01*
X133046260Y-120017000D01*
X132753740Y-120017000D01*
X132466842Y-120074068D01*
X132196589Y-120186010D01*
X131953368Y-120348525D01*
X131746525Y-120555368D01*
X131630000Y-120729760D01*
X131513475Y-120555368D01*
X131306632Y-120348525D01*
X131063411Y-120186010D01*
X130793158Y-120074068D01*
X130506260Y-120017000D01*
X130213740Y-120017000D01*
X129926842Y-120074068D01*
X129656589Y-120186010D01*
X129413368Y-120348525D01*
X129281513Y-120480380D01*
X129259502Y-120407820D01*
X129200537Y-120297506D01*
X129121185Y-120200815D01*
X129024494Y-120121463D01*
X128914180Y-120062498D01*
X128794482Y-120026188D01*
X128670000Y-120013928D01*
X126970000Y-120013928D01*
X126845518Y-120026188D01*
X126725820Y-120062498D01*
X126615506Y-120121463D01*
X126518815Y-120200815D01*
X126439463Y-120297506D01*
X126380498Y-120407820D01*
X126344188Y-120527518D01*
X126331928Y-120652000D01*
X126331928Y-122352000D01*
X126344188Y-122476482D01*
X126380498Y-122596180D01*
X126439463Y-122706494D01*
X126518815Y-122803185D01*
X126615506Y-122882537D01*
X126725820Y-122941502D01*
X126845518Y-122977812D01*
X126853313Y-122978580D01*
X126656525Y-123175368D01*
X126494010Y-123418589D01*
X126382068Y-123688842D01*
X126325000Y-123975740D01*
X126325000Y-124268260D01*
X126382068Y-124555158D01*
X126388671Y-124571100D01*
X124229201Y-124571100D01*
X124219104Y-124561003D01*
X124195301Y-124531999D01*
X124079576Y-124437026D01*
X123947547Y-124366454D01*
X123804286Y-124322997D01*
X123762796Y-124318911D01*
X123633475Y-124125368D01*
X123501620Y-123993513D01*
X123574180Y-123971502D01*
X123684494Y-123912537D01*
X123781185Y-123833185D01*
X123860537Y-123736494D01*
X123919502Y-123626180D01*
X123955812Y-123506482D01*
X123968072Y-123382000D01*
X123968072Y-121682000D01*
X123955812Y-121557518D01*
X123919502Y-121437820D01*
X123860537Y-121327506D01*
X123781185Y-121230815D01*
X123684494Y-121151463D01*
X123574180Y-121092498D01*
X123454482Y-121056188D01*
X123330000Y-121043928D01*
X121630000Y-121043928D01*
X121505518Y-121056188D01*
X121385820Y-121092498D01*
X121275506Y-121151463D01*
X121178815Y-121230815D01*
X121099463Y-121327506D01*
X121040498Y-121437820D01*
X121004188Y-121557518D01*
X120991928Y-121682000D01*
X120991928Y-123382000D01*
X121004188Y-123506482D01*
X121040498Y-123626180D01*
X121099463Y-123736494D01*
X121178815Y-123833185D01*
X121275506Y-123912537D01*
X121385820Y-123971502D01*
X121458380Y-123993513D01*
X121326525Y-124125368D01*
X121164010Y-124368589D01*
X121052068Y-124638842D01*
X120995000Y-124925740D01*
X120995000Y-125218260D01*
X121052068Y-125505158D01*
X121164010Y-125775411D01*
X121326525Y-126018632D01*
X121533368Y-126225475D01*
X121776589Y-126387990D01*
X122046842Y-126499932D01*
X122333740Y-126557000D01*
X122626260Y-126557000D01*
X122913158Y-126499932D01*
X123183411Y-126387990D01*
X123426632Y-126225475D01*
X123617792Y-126034315D01*
X123622153Y-126036646D01*
X123765414Y-126080103D01*
X123877067Y-126091100D01*
X123877075Y-126091100D01*
X123914400Y-126094776D01*
X123951725Y-126091100D01*
X126323448Y-126091100D01*
X126325000Y-126376250D01*
X126483750Y-126535000D01*
X127683000Y-126535000D01*
X127683000Y-126515000D01*
X127937000Y-126515000D01*
X127937000Y-126535000D01*
X130223000Y-126535000D01*
X130223000Y-126515000D01*
X130477000Y-126515000D01*
X130477000Y-126535000D01*
X132763000Y-126535000D01*
X132763000Y-126515000D01*
X133017000Y-126515000D01*
X133017000Y-126535000D01*
X135303000Y-126535000D01*
X135303000Y-126515000D01*
X135557000Y-126515000D01*
X135557000Y-126535000D01*
X137843000Y-126535000D01*
X137843000Y-126515000D01*
X138097000Y-126515000D01*
X138097000Y-126535000D01*
X140383000Y-126535000D01*
X140383000Y-126515000D01*
X140637000Y-126515000D01*
X140637000Y-126535000D01*
X142923000Y-126535000D01*
X142923000Y-126515000D01*
X143177000Y-126515000D01*
X143177000Y-126535000D01*
X145463000Y-126535000D01*
X145463000Y-126515000D01*
X145717000Y-126515000D01*
X145717000Y-126535000D01*
X148003000Y-126535000D01*
X148003000Y-126515000D01*
X148257000Y-126515000D01*
X148257000Y-126535000D01*
X150543000Y-126535000D01*
X150543000Y-126515000D01*
X150797000Y-126515000D01*
X150797000Y-126535000D01*
X153083000Y-126535000D01*
X153083000Y-126515000D01*
X153337000Y-126515000D01*
X153337000Y-126535000D01*
X155623000Y-126535000D01*
X155623000Y-126515000D01*
X155877000Y-126515000D01*
X155877000Y-126535000D01*
X157070814Y-126535000D01*
X157191481Y-126305109D01*
X157094157Y-126030748D01*
X157030758Y-125924316D01*
X157095601Y-125871101D01*
X157119404Y-125842097D01*
X158193691Y-124767810D01*
X159696036Y-124767810D01*
X159704728Y-124829337D01*
X159797725Y-125038882D01*
X159929816Y-125226258D01*
X160095924Y-125384264D01*
X160289666Y-125506828D01*
X160503596Y-125589239D01*
X160729493Y-125628331D01*
X160913000Y-125468598D01*
X160913000Y-124589000D01*
X161167000Y-124589000D01*
X161167000Y-125468598D01*
X161350507Y-125628331D01*
X161576404Y-125589239D01*
X161790334Y-125506828D01*
X161984076Y-125384264D01*
X162150184Y-125226258D01*
X162282275Y-125038882D01*
X162375272Y-124829337D01*
X162383964Y-124767810D01*
X162258163Y-124589000D01*
X161167000Y-124589000D01*
X160913000Y-124589000D01*
X159821837Y-124589000D01*
X159696036Y-124767810D01*
X158193691Y-124767810D01*
X159660158Y-123301345D01*
X159671785Y-123419400D01*
X159738115Y-123638060D01*
X159838929Y-123826669D01*
X159797725Y-123885118D01*
X159704728Y-124094663D01*
X159696036Y-124156190D01*
X159821837Y-124335000D01*
X160586891Y-124335000D01*
X160587600Y-124335215D01*
X160758021Y-124352000D01*
X161321979Y-124352000D01*
X161492400Y-124335215D01*
X161493109Y-124335000D01*
X162258163Y-124335000D01*
X162383964Y-124156190D01*
X162375272Y-124094663D01*
X162282275Y-123885118D01*
X162241071Y-123826669D01*
X162341885Y-123638060D01*
X162408215Y-123419400D01*
X162430612Y-123192000D01*
X162408215Y-122964600D01*
X162344907Y-122755902D01*
X162379502Y-122691180D01*
X162415812Y-122571482D01*
X162428072Y-122447000D01*
X162428072Y-121602900D01*
X163734778Y-121602900D01*
X163772100Y-121606576D01*
X163809422Y-121602900D01*
X163809433Y-121602900D01*
X163921086Y-121591903D01*
X164064347Y-121548446D01*
X164196376Y-121477874D01*
X164312101Y-121382901D01*
X164335904Y-121353897D01*
X166243871Y-119445931D01*
X166460147Y-119590442D01*
X166732875Y-119703410D01*
X167022401Y-119761000D01*
X167317599Y-119761000D01*
X167607125Y-119703410D01*
X167879853Y-119590442D01*
X168000434Y-119509873D01*
X167766864Y-120324430D01*
X167253667Y-121569537D01*
X166604882Y-122749674D01*
X165828586Y-123850144D01*
X164934462Y-124857219D01*
X163933653Y-125758351D01*
X162838639Y-126542304D01*
X161663061Y-127199313D01*
X160421563Y-127721191D01*
X159129638Y-128101425D01*
X157803368Y-128335282D01*
X156442664Y-128420891D01*
X156374031Y-128421130D01*
X127182875Y-128421130D01*
X125820482Y-128344961D01*
X124492617Y-128120369D01*
X123198070Y-127749164D01*
X122622669Y-127512000D01*
X126321928Y-127512000D01*
X126334188Y-127636482D01*
X126370498Y-127756180D01*
X126429463Y-127866494D01*
X126508815Y-127963185D01*
X126605506Y-128042537D01*
X126715820Y-128101502D01*
X126835518Y-128137812D01*
X126960000Y-128150072D01*
X127524250Y-128147000D01*
X127683000Y-127988250D01*
X127683000Y-126789000D01*
X127937000Y-126789000D01*
X127937000Y-127988250D01*
X128095750Y-128147000D01*
X128660000Y-128150072D01*
X128784482Y-128137812D01*
X128904180Y-128101502D01*
X129014494Y-128042537D01*
X129111185Y-127963185D01*
X129190537Y-127866494D01*
X129249502Y-127756180D01*
X129273966Y-127675534D01*
X129349731Y-127759588D01*
X129583080Y-127933641D01*
X129845901Y-128058825D01*
X129993110Y-128103476D01*
X130223000Y-127982155D01*
X130223000Y-126789000D01*
X130477000Y-126789000D01*
X130477000Y-127982155D01*
X130706890Y-128103476D01*
X130854099Y-128058825D01*
X131116920Y-127933641D01*
X131350269Y-127759588D01*
X131545178Y-127543355D01*
X131620000Y-127417745D01*
X131694822Y-127543355D01*
X131889731Y-127759588D01*
X132123080Y-127933641D01*
X132385901Y-128058825D01*
X132533110Y-128103476D01*
X132763000Y-127982155D01*
X132763000Y-126789000D01*
X133017000Y-126789000D01*
X133017000Y-127982155D01*
X133246890Y-128103476D01*
X133394099Y-128058825D01*
X133656920Y-127933641D01*
X133890269Y-127759588D01*
X134085178Y-127543355D01*
X134160000Y-127417745D01*
X134234822Y-127543355D01*
X134429731Y-127759588D01*
X134663080Y-127933641D01*
X134925901Y-128058825D01*
X135073110Y-128103476D01*
X135303000Y-127982155D01*
X135303000Y-126789000D01*
X135557000Y-126789000D01*
X135557000Y-127982155D01*
X135786890Y-128103476D01*
X135934099Y-128058825D01*
X136196920Y-127933641D01*
X136430269Y-127759588D01*
X136625178Y-127543355D01*
X136700000Y-127417745D01*
X136774822Y-127543355D01*
X136969731Y-127759588D01*
X137203080Y-127933641D01*
X137465901Y-128058825D01*
X137613110Y-128103476D01*
X137843000Y-127982155D01*
X137843000Y-126789000D01*
X138097000Y-126789000D01*
X138097000Y-127982155D01*
X138326890Y-128103476D01*
X138474099Y-128058825D01*
X138736920Y-127933641D01*
X138970269Y-127759588D01*
X139165178Y-127543355D01*
X139240000Y-127417745D01*
X139314822Y-127543355D01*
X139509731Y-127759588D01*
X139743080Y-127933641D01*
X140005901Y-128058825D01*
X140153110Y-128103476D01*
X140383000Y-127982155D01*
X140383000Y-126789000D01*
X140637000Y-126789000D01*
X140637000Y-127982155D01*
X140866890Y-128103476D01*
X141014099Y-128058825D01*
X141276920Y-127933641D01*
X141510269Y-127759588D01*
X141705178Y-127543355D01*
X141780000Y-127417745D01*
X141854822Y-127543355D01*
X142049731Y-127759588D01*
X142283080Y-127933641D01*
X142545901Y-128058825D01*
X142693110Y-128103476D01*
X142923000Y-127982155D01*
X142923000Y-126789000D01*
X143177000Y-126789000D01*
X143177000Y-127982155D01*
X143406890Y-128103476D01*
X143554099Y-128058825D01*
X143816920Y-127933641D01*
X144050269Y-127759588D01*
X144245178Y-127543355D01*
X144320000Y-127417745D01*
X144394822Y-127543355D01*
X144589731Y-127759588D01*
X144823080Y-127933641D01*
X145085901Y-128058825D01*
X145233110Y-128103476D01*
X145463000Y-127982155D01*
X145463000Y-126789000D01*
X145717000Y-126789000D01*
X145717000Y-127982155D01*
X145946890Y-128103476D01*
X146094099Y-128058825D01*
X146356920Y-127933641D01*
X146590269Y-127759588D01*
X146785178Y-127543355D01*
X146860000Y-127417745D01*
X146934822Y-127543355D01*
X147129731Y-127759588D01*
X147363080Y-127933641D01*
X147625901Y-128058825D01*
X147773110Y-128103476D01*
X148003000Y-127982155D01*
X148003000Y-126789000D01*
X148257000Y-126789000D01*
X148257000Y-127982155D01*
X148486890Y-128103476D01*
X148634099Y-128058825D01*
X148896920Y-127933641D01*
X149130269Y-127759588D01*
X149325178Y-127543355D01*
X149400000Y-127417745D01*
X149474822Y-127543355D01*
X149669731Y-127759588D01*
X149903080Y-127933641D01*
X150165901Y-128058825D01*
X150313110Y-128103476D01*
X150543000Y-127982155D01*
X150543000Y-126789000D01*
X150797000Y-126789000D01*
X150797000Y-127982155D01*
X151026890Y-128103476D01*
X151174099Y-128058825D01*
X151436920Y-127933641D01*
X151670269Y-127759588D01*
X151865178Y-127543355D01*
X151940000Y-127417745D01*
X152014822Y-127543355D01*
X152209731Y-127759588D01*
X152443080Y-127933641D01*
X152705901Y-128058825D01*
X152853110Y-128103476D01*
X153083000Y-127982155D01*
X153083000Y-126789000D01*
X153337000Y-126789000D01*
X153337000Y-127982155D01*
X153566890Y-128103476D01*
X153714099Y-128058825D01*
X153976920Y-127933641D01*
X154210269Y-127759588D01*
X154405178Y-127543355D01*
X154480000Y-127417745D01*
X154554822Y-127543355D01*
X154749731Y-127759588D01*
X154983080Y-127933641D01*
X155245901Y-128058825D01*
X155393110Y-128103476D01*
X155623000Y-127982155D01*
X155623000Y-126789000D01*
X155877000Y-126789000D01*
X155877000Y-127982155D01*
X156106890Y-128103476D01*
X156254099Y-128058825D01*
X156516920Y-127933641D01*
X156750269Y-127759588D01*
X156945178Y-127543355D01*
X157094157Y-127293252D01*
X157191481Y-127018891D01*
X157070814Y-126789000D01*
X155877000Y-126789000D01*
X155623000Y-126789000D01*
X153337000Y-126789000D01*
X153083000Y-126789000D01*
X150797000Y-126789000D01*
X150543000Y-126789000D01*
X148257000Y-126789000D01*
X148003000Y-126789000D01*
X145717000Y-126789000D01*
X145463000Y-126789000D01*
X143177000Y-126789000D01*
X142923000Y-126789000D01*
X140637000Y-126789000D01*
X140383000Y-126789000D01*
X138097000Y-126789000D01*
X137843000Y-126789000D01*
X135557000Y-126789000D01*
X135303000Y-126789000D01*
X133017000Y-126789000D01*
X132763000Y-126789000D01*
X130477000Y-126789000D01*
X130223000Y-126789000D01*
X127937000Y-126789000D01*
X127683000Y-126789000D01*
X126483750Y-126789000D01*
X126325000Y-126947750D01*
X126321928Y-127512000D01*
X122622669Y-127512000D01*
X121952963Y-127235967D01*
X120772826Y-126587182D01*
X119672356Y-125810886D01*
X118665281Y-124916762D01*
X117764149Y-123915953D01*
X116980196Y-122820939D01*
X116323187Y-121645361D01*
X115801309Y-120403863D01*
X115535713Y-119501446D01*
X115734022Y-119619364D01*
X116010973Y-119717363D01*
X116243000Y-119596864D01*
X116243000Y-118389400D01*
X116497000Y-118389400D01*
X116497000Y-119596864D01*
X116729027Y-119717363D01*
X117005978Y-119619364D01*
X117258488Y-119469217D01*
X117476854Y-119272693D01*
X117640000Y-119054322D01*
X117803146Y-119272693D01*
X118021512Y-119469217D01*
X118274022Y-119619364D01*
X118550973Y-119717363D01*
X118783000Y-119596864D01*
X118783000Y-118389400D01*
X119037000Y-118389400D01*
X119037000Y-119596864D01*
X119269027Y-119717363D01*
X119545978Y-119619364D01*
X119798488Y-119469217D01*
X120016854Y-119272693D01*
X120192684Y-119037344D01*
X120319222Y-118772214D01*
X120364958Y-118621426D01*
X120243817Y-118389400D01*
X119037000Y-118389400D01*
X118783000Y-118389400D01*
X116497000Y-118389400D01*
X116243000Y-118389400D01*
X116223000Y-118389400D01*
X116223000Y-118135400D01*
X116243000Y-118135400D01*
X116243000Y-115849400D01*
X116497000Y-115849400D01*
X116497000Y-118135400D01*
X118783000Y-118135400D01*
X118783000Y-115849400D01*
X119037000Y-115849400D01*
X119037000Y-118135400D01*
X120243817Y-118135400D01*
X120364958Y-117903374D01*
X120319222Y-117752586D01*
X120192684Y-117487456D01*
X120016854Y-117252107D01*
X119798488Y-117055583D01*
X119692230Y-116992400D01*
X119798488Y-116929217D01*
X120016854Y-116732693D01*
X120192684Y-116497344D01*
X120268308Y-116338890D01*
X124538524Y-116338890D01*
X124583175Y-116486099D01*
X124708359Y-116748920D01*
X124882412Y-116982269D01*
X125098645Y-117177178D01*
X125348748Y-117326157D01*
X125623109Y-117423481D01*
X125853000Y-117302814D01*
X125853000Y-116109000D01*
X126107000Y-116109000D01*
X126107000Y-117302814D01*
X126336891Y-117423481D01*
X126611252Y-117326157D01*
X126861355Y-117177178D01*
X127077588Y-116982269D01*
X127251641Y-116748920D01*
X127376825Y-116486099D01*
X127421476Y-116338890D01*
X127300155Y-116109000D01*
X126107000Y-116109000D01*
X125853000Y-116109000D01*
X124659845Y-116109000D01*
X124538524Y-116338890D01*
X120268308Y-116338890D01*
X120319222Y-116232214D01*
X120364958Y-116081426D01*
X120243817Y-115849400D01*
X119037000Y-115849400D01*
X118783000Y-115849400D01*
X116497000Y-115849400D01*
X116243000Y-115849400D01*
X116223000Y-115849400D01*
X116223000Y-115595400D01*
X116243000Y-115595400D01*
X116243000Y-115575400D01*
X116497000Y-115575400D01*
X116497000Y-115595400D01*
X118783000Y-115595400D01*
X118783000Y-115575400D01*
X119037000Y-115575400D01*
X119037000Y-115595400D01*
X120243817Y-115595400D01*
X120364958Y-115363374D01*
X120319222Y-115212586D01*
X120192684Y-114947456D01*
X120016854Y-114712107D01*
X119798488Y-114515583D01*
X119699897Y-114456959D01*
X119865302Y-114346439D01*
X120074039Y-114137702D01*
X120209347Y-113935199D01*
X120247886Y-113931403D01*
X120391147Y-113887946D01*
X120523176Y-113817374D01*
X120638901Y-113722401D01*
X120662704Y-113693397D01*
X122694102Y-111662000D01*
X124701822Y-111662000D01*
X124826525Y-111848632D01*
X125033368Y-112055475D01*
X125207760Y-112172000D01*
X125033368Y-112288525D01*
X124826525Y-112495368D01*
X124664010Y-112738589D01*
X124552068Y-113008842D01*
X124495000Y-113295740D01*
X124495000Y-113588260D01*
X124552068Y-113875158D01*
X124664010Y-114145411D01*
X124826525Y-114388632D01*
X125033368Y-114595475D01*
X125215534Y-114717195D01*
X125098645Y-114786822D01*
X124882412Y-114981731D01*
X124708359Y-115215080D01*
X124583175Y-115477901D01*
X124538524Y-115625110D01*
X124659845Y-115855000D01*
X125853000Y-115855000D01*
X125853000Y-115835000D01*
X126107000Y-115835000D01*
X126107000Y-115855000D01*
X127300155Y-115855000D01*
X127421476Y-115625110D01*
X127376825Y-115477901D01*
X127251641Y-115215080D01*
X127077588Y-114981731D01*
X126861355Y-114786822D01*
X126744466Y-114717195D01*
X126926632Y-114595475D01*
X127102784Y-114419323D01*
X131993000Y-114419323D01*
X131993000Y-114944677D01*
X132095492Y-115459935D01*
X132296536Y-115945298D01*
X132588406Y-116382113D01*
X132959887Y-116753594D01*
X133396702Y-117045464D01*
X133882065Y-117246508D01*
X134397323Y-117349000D01*
X134922677Y-117349000D01*
X135437935Y-117246508D01*
X135923298Y-117045464D01*
X136360113Y-116753594D01*
X136731594Y-116382113D01*
X137023464Y-115945298D01*
X137224508Y-115459935D01*
X137327000Y-114944677D01*
X137327000Y-114419323D01*
X137224508Y-113904065D01*
X137023464Y-113418702D01*
X136731594Y-112981887D01*
X136360113Y-112610406D01*
X135923298Y-112318536D01*
X135437935Y-112117492D01*
X134922677Y-112015000D01*
X134397323Y-112015000D01*
X133882065Y-112117492D01*
X133396702Y-112318536D01*
X132959887Y-112610406D01*
X132588406Y-112981887D01*
X132296536Y-113418702D01*
X132095492Y-113904065D01*
X131993000Y-114419323D01*
X127102784Y-114419323D01*
X127133475Y-114388632D01*
X127295990Y-114145411D01*
X127407932Y-113875158D01*
X127465000Y-113588260D01*
X127465000Y-113295740D01*
X127407932Y-113008842D01*
X127295990Y-112738589D01*
X127133475Y-112495368D01*
X126926632Y-112288525D01*
X126752240Y-112172000D01*
X126926632Y-112055475D01*
X127133475Y-111848632D01*
X127295990Y-111605411D01*
X127407932Y-111335158D01*
X127465000Y-111048260D01*
X127465000Y-110755740D01*
X127407932Y-110468842D01*
X127295990Y-110198589D01*
X127133475Y-109955368D01*
X126926632Y-109748525D01*
X126752240Y-109632000D01*
X126926632Y-109515475D01*
X127133475Y-109308632D01*
X127295990Y-109065411D01*
X127407932Y-108795158D01*
X127465000Y-108508260D01*
X127465000Y-108215740D01*
X127407932Y-107928842D01*
X127376103Y-107852000D01*
X131822978Y-107852000D01*
X131860300Y-107855676D01*
X131897622Y-107852000D01*
X131897633Y-107852000D01*
X132009286Y-107841003D01*
X132152547Y-107797546D01*
X132284576Y-107726974D01*
X132400301Y-107632001D01*
X132424104Y-107602997D01*
X132449748Y-107577353D01*
X132570829Y-107553268D01*
X132709732Y-107495733D01*
X140878146Y-115664147D01*
G04 #@! TA.AperFunction,Conductor*
D24*
G36*
X140878146Y-115664147D02*
G01*
X140876525Y-115665768D01*
X140714010Y-115908989D01*
X140602068Y-116179242D01*
X140545000Y-116466140D01*
X140545000Y-116758660D01*
X140602068Y-117045558D01*
X140714010Y-117315811D01*
X140876525Y-117559032D01*
X141083368Y-117765875D01*
X141326589Y-117928390D01*
X141596842Y-118040332D01*
X141722810Y-118065389D01*
X141417999Y-118370200D01*
X136117122Y-118370200D01*
X136079799Y-118366524D01*
X136042476Y-118370200D01*
X136042467Y-118370200D01*
X135930814Y-118381197D01*
X135807191Y-118418697D01*
X135787553Y-118424654D01*
X135655523Y-118495226D01*
X135583119Y-118554647D01*
X135539799Y-118590199D01*
X135516001Y-118619197D01*
X133810690Y-120324509D01*
X133603411Y-120186010D01*
X133333158Y-120074068D01*
X133046260Y-120017000D01*
X132753740Y-120017000D01*
X132466842Y-120074068D01*
X132196589Y-120186010D01*
X131953368Y-120348525D01*
X131746525Y-120555368D01*
X131630000Y-120729760D01*
X131513475Y-120555368D01*
X131306632Y-120348525D01*
X131063411Y-120186010D01*
X130793158Y-120074068D01*
X130506260Y-120017000D01*
X130213740Y-120017000D01*
X129926842Y-120074068D01*
X129656589Y-120186010D01*
X129413368Y-120348525D01*
X129281513Y-120480380D01*
X129259502Y-120407820D01*
X129200537Y-120297506D01*
X129121185Y-120200815D01*
X129024494Y-120121463D01*
X128914180Y-120062498D01*
X128794482Y-120026188D01*
X128670000Y-120013928D01*
X126970000Y-120013928D01*
X126845518Y-120026188D01*
X126725820Y-120062498D01*
X126615506Y-120121463D01*
X126518815Y-120200815D01*
X126439463Y-120297506D01*
X126380498Y-120407820D01*
X126344188Y-120527518D01*
X126331928Y-120652000D01*
X126331928Y-122352000D01*
X126344188Y-122476482D01*
X126380498Y-122596180D01*
X126439463Y-122706494D01*
X126518815Y-122803185D01*
X126615506Y-122882537D01*
X126725820Y-122941502D01*
X126845518Y-122977812D01*
X126853313Y-122978580D01*
X126656525Y-123175368D01*
X126494010Y-123418589D01*
X126382068Y-123688842D01*
X126325000Y-123975740D01*
X126325000Y-124268260D01*
X126382068Y-124555158D01*
X126388671Y-124571100D01*
X124229201Y-124571100D01*
X124219104Y-124561003D01*
X124195301Y-124531999D01*
X124079576Y-124437026D01*
X123947547Y-124366454D01*
X123804286Y-124322997D01*
X123762796Y-124318911D01*
X123633475Y-124125368D01*
X123501620Y-123993513D01*
X123574180Y-123971502D01*
X123684494Y-123912537D01*
X123781185Y-123833185D01*
X123860537Y-123736494D01*
X123919502Y-123626180D01*
X123955812Y-123506482D01*
X123968072Y-123382000D01*
X123968072Y-121682000D01*
X123955812Y-121557518D01*
X123919502Y-121437820D01*
X123860537Y-121327506D01*
X123781185Y-121230815D01*
X123684494Y-121151463D01*
X123574180Y-121092498D01*
X123454482Y-121056188D01*
X123330000Y-121043928D01*
X121630000Y-121043928D01*
X121505518Y-121056188D01*
X121385820Y-121092498D01*
X121275506Y-121151463D01*
X121178815Y-121230815D01*
X121099463Y-121327506D01*
X121040498Y-121437820D01*
X121004188Y-121557518D01*
X120991928Y-121682000D01*
X120991928Y-123382000D01*
X121004188Y-123506482D01*
X121040498Y-123626180D01*
X121099463Y-123736494D01*
X121178815Y-123833185D01*
X121275506Y-123912537D01*
X121385820Y-123971502D01*
X121458380Y-123993513D01*
X121326525Y-124125368D01*
X121164010Y-124368589D01*
X121052068Y-124638842D01*
X120995000Y-124925740D01*
X120995000Y-125218260D01*
X121052068Y-125505158D01*
X121164010Y-125775411D01*
X121326525Y-126018632D01*
X121533368Y-126225475D01*
X121776589Y-126387990D01*
X122046842Y-126499932D01*
X122333740Y-126557000D01*
X122626260Y-126557000D01*
X122913158Y-126499932D01*
X123183411Y-126387990D01*
X123426632Y-126225475D01*
X123617792Y-126034315D01*
X123622153Y-126036646D01*
X123765414Y-126080103D01*
X123877067Y-126091100D01*
X123877075Y-126091100D01*
X123914400Y-126094776D01*
X123951725Y-126091100D01*
X126323448Y-126091100D01*
X126325000Y-126376250D01*
X126483750Y-126535000D01*
X127683000Y-126535000D01*
X127683000Y-126515000D01*
X127937000Y-126515000D01*
X127937000Y-126535000D01*
X130223000Y-126535000D01*
X130223000Y-126515000D01*
X130477000Y-126515000D01*
X130477000Y-126535000D01*
X132763000Y-126535000D01*
X132763000Y-126515000D01*
X133017000Y-126515000D01*
X133017000Y-126535000D01*
X135303000Y-126535000D01*
X135303000Y-126515000D01*
X135557000Y-126515000D01*
X135557000Y-126535000D01*
X137843000Y-126535000D01*
X137843000Y-126515000D01*
X138097000Y-126515000D01*
X138097000Y-126535000D01*
X140383000Y-126535000D01*
X140383000Y-126515000D01*
X140637000Y-126515000D01*
X140637000Y-126535000D01*
X142923000Y-126535000D01*
X142923000Y-126515000D01*
X143177000Y-126515000D01*
X143177000Y-126535000D01*
X145463000Y-126535000D01*
X145463000Y-126515000D01*
X145717000Y-126515000D01*
X145717000Y-126535000D01*
X148003000Y-126535000D01*
X148003000Y-126515000D01*
X148257000Y-126515000D01*
X148257000Y-126535000D01*
X150543000Y-126535000D01*
X150543000Y-126515000D01*
X150797000Y-126515000D01*
X150797000Y-126535000D01*
X153083000Y-126535000D01*
X153083000Y-126515000D01*
X153337000Y-126515000D01*
X153337000Y-126535000D01*
X155623000Y-126535000D01*
X155623000Y-126515000D01*
X155877000Y-126515000D01*
X155877000Y-126535000D01*
X157070814Y-126535000D01*
X157191481Y-126305109D01*
X157094157Y-126030748D01*
X157030758Y-125924316D01*
X157095601Y-125871101D01*
X157119404Y-125842097D01*
X158193691Y-124767810D01*
X159696036Y-124767810D01*
X159704728Y-124829337D01*
X159797725Y-125038882D01*
X159929816Y-125226258D01*
X160095924Y-125384264D01*
X160289666Y-125506828D01*
X160503596Y-125589239D01*
X160729493Y-125628331D01*
X160913000Y-125468598D01*
X160913000Y-124589000D01*
X161167000Y-124589000D01*
X161167000Y-125468598D01*
X161350507Y-125628331D01*
X161576404Y-125589239D01*
X161790334Y-125506828D01*
X161984076Y-125384264D01*
X162150184Y-125226258D01*
X162282275Y-125038882D01*
X162375272Y-124829337D01*
X162383964Y-124767810D01*
X162258163Y-124589000D01*
X161167000Y-124589000D01*
X160913000Y-124589000D01*
X159821837Y-124589000D01*
X159696036Y-124767810D01*
X158193691Y-124767810D01*
X159660158Y-123301345D01*
X159671785Y-123419400D01*
X159738115Y-123638060D01*
X159838929Y-123826669D01*
X159797725Y-123885118D01*
X159704728Y-124094663D01*
X159696036Y-124156190D01*
X159821837Y-124335000D01*
X160586891Y-124335000D01*
X160587600Y-124335215D01*
X160758021Y-124352000D01*
X161321979Y-124352000D01*
X161492400Y-124335215D01*
X161493109Y-124335000D01*
X162258163Y-124335000D01*
X162383964Y-124156190D01*
X162375272Y-124094663D01*
X162282275Y-123885118D01*
X162241071Y-123826669D01*
X162341885Y-123638060D01*
X162408215Y-123419400D01*
X162430612Y-123192000D01*
X162408215Y-122964600D01*
X162344907Y-122755902D01*
X162379502Y-122691180D01*
X162415812Y-122571482D01*
X162428072Y-122447000D01*
X162428072Y-121602900D01*
X163734778Y-121602900D01*
X163772100Y-121606576D01*
X163809422Y-121602900D01*
X163809433Y-121602900D01*
X163921086Y-121591903D01*
X164064347Y-121548446D01*
X164196376Y-121477874D01*
X164312101Y-121382901D01*
X164335904Y-121353897D01*
X166243871Y-119445931D01*
X166460147Y-119590442D01*
X166732875Y-119703410D01*
X167022401Y-119761000D01*
X167317599Y-119761000D01*
X167607125Y-119703410D01*
X167879853Y-119590442D01*
X168000434Y-119509873D01*
X167766864Y-120324430D01*
X167253667Y-121569537D01*
X166604882Y-122749674D01*
X165828586Y-123850144D01*
X164934462Y-124857219D01*
X163933653Y-125758351D01*
X162838639Y-126542304D01*
X161663061Y-127199313D01*
X160421563Y-127721191D01*
X159129638Y-128101425D01*
X157803368Y-128335282D01*
X156442664Y-128420891D01*
X156374031Y-128421130D01*
X127182875Y-128421130D01*
X125820482Y-128344961D01*
X124492617Y-128120369D01*
X123198070Y-127749164D01*
X122622669Y-127512000D01*
X126321928Y-127512000D01*
X126334188Y-127636482D01*
X126370498Y-127756180D01*
X126429463Y-127866494D01*
X126508815Y-127963185D01*
X126605506Y-128042537D01*
X126715820Y-128101502D01*
X126835518Y-128137812D01*
X126960000Y-128150072D01*
X127524250Y-128147000D01*
X127683000Y-127988250D01*
X127683000Y-126789000D01*
X127937000Y-126789000D01*
X127937000Y-127988250D01*
X128095750Y-128147000D01*
X128660000Y-128150072D01*
X128784482Y-128137812D01*
X128904180Y-128101502D01*
X129014494Y-128042537D01*
X129111185Y-127963185D01*
X129190537Y-127866494D01*
X129249502Y-127756180D01*
X129273966Y-127675534D01*
X129349731Y-127759588D01*
X129583080Y-127933641D01*
X129845901Y-128058825D01*
X129993110Y-128103476D01*
X130223000Y-127982155D01*
X130223000Y-126789000D01*
X130477000Y-126789000D01*
X130477000Y-127982155D01*
X130706890Y-128103476D01*
X130854099Y-128058825D01*
X131116920Y-127933641D01*
X131350269Y-127759588D01*
X131545178Y-127543355D01*
X131620000Y-127417745D01*
X131694822Y-127543355D01*
X131889731Y-127759588D01*
X132123080Y-127933641D01*
X132385901Y-128058825D01*
X132533110Y-128103476D01*
X132763000Y-127982155D01*
X132763000Y-126789000D01*
X133017000Y-126789000D01*
X133017000Y-127982155D01*
X133246890Y-128103476D01*
X133394099Y-128058825D01*
X133656920Y-127933641D01*
X133890269Y-127759588D01*
X134085178Y-127543355D01*
X134160000Y-127417745D01*
X134234822Y-127543355D01*
X134429731Y-127759588D01*
X134663080Y-127933641D01*
X134925901Y-128058825D01*
X135073110Y-128103476D01*
X135303000Y-127982155D01*
X135303000Y-126789000D01*
X135557000Y-126789000D01*
X135557000Y-127982155D01*
X135786890Y-128103476D01*
X135934099Y-128058825D01*
X136196920Y-127933641D01*
X136430269Y-127759588D01*
X136625178Y-127543355D01*
X136700000Y-127417745D01*
X136774822Y-127543355D01*
X136969731Y-127759588D01*
X137203080Y-127933641D01*
X137465901Y-128058825D01*
X137613110Y-128103476D01*
X137843000Y-127982155D01*
X137843000Y-126789000D01*
X138097000Y-126789000D01*
X138097000Y-127982155D01*
X138326890Y-128103476D01*
X138474099Y-128058825D01*
X138736920Y-127933641D01*
X138970269Y-127759588D01*
X139165178Y-127543355D01*
X139240000Y-127417745D01*
X139314822Y-127543355D01*
X139509731Y-127759588D01*
X139743080Y-127933641D01*
X140005901Y-128058825D01*
X140153110Y-128103476D01*
X140383000Y-127982155D01*
X140383000Y-126789000D01*
X140637000Y-126789000D01*
X140637000Y-127982155D01*
X140866890Y-128103476D01*
X141014099Y-128058825D01*
X141276920Y-127933641D01*
X141510269Y-127759588D01*
X141705178Y-127543355D01*
X141780000Y-127417745D01*
X141854822Y-127543355D01*
X142049731Y-127759588D01*
X142283080Y-127933641D01*
X142545901Y-128058825D01*
X142693110Y-128103476D01*
X142923000Y-127982155D01*
X142923000Y-126789000D01*
X143177000Y-126789000D01*
X143177000Y-127982155D01*
X143406890Y-128103476D01*
X143554099Y-128058825D01*
X143816920Y-127933641D01*
X144050269Y-127759588D01*
X144245178Y-127543355D01*
X144320000Y-127417745D01*
X144394822Y-127543355D01*
X144589731Y-127759588D01*
X144823080Y-127933641D01*
X145085901Y-128058825D01*
X145233110Y-128103476D01*
X145463000Y-127982155D01*
X145463000Y-126789000D01*
X145717000Y-126789000D01*
X145717000Y-127982155D01*
X145946890Y-128103476D01*
X146094099Y-128058825D01*
X146356920Y-127933641D01*
X146590269Y-127759588D01*
X146785178Y-127543355D01*
X146860000Y-127417745D01*
X146934822Y-127543355D01*
X147129731Y-127759588D01*
X147363080Y-127933641D01*
X147625901Y-128058825D01*
X147773110Y-128103476D01*
X148003000Y-127982155D01*
X148003000Y-126789000D01*
X148257000Y-126789000D01*
X148257000Y-127982155D01*
X148486890Y-128103476D01*
X148634099Y-128058825D01*
X148896920Y-127933641D01*
X149130269Y-127759588D01*
X149325178Y-127543355D01*
X149400000Y-127417745D01*
X149474822Y-127543355D01*
X149669731Y-127759588D01*
X149903080Y-127933641D01*
X150165901Y-128058825D01*
X150313110Y-128103476D01*
X150543000Y-127982155D01*
X150543000Y-126789000D01*
X150797000Y-126789000D01*
X150797000Y-127982155D01*
X151026890Y-128103476D01*
X151174099Y-128058825D01*
X151436920Y-127933641D01*
X151670269Y-127759588D01*
X151865178Y-127543355D01*
X151940000Y-127417745D01*
X152014822Y-127543355D01*
X152209731Y-127759588D01*
X152443080Y-127933641D01*
X152705901Y-128058825D01*
X152853110Y-128103476D01*
X153083000Y-127982155D01*
X153083000Y-126789000D01*
X153337000Y-126789000D01*
X153337000Y-127982155D01*
X153566890Y-128103476D01*
X153714099Y-128058825D01*
X153976920Y-127933641D01*
X154210269Y-127759588D01*
X154405178Y-127543355D01*
X154480000Y-127417745D01*
X154554822Y-127543355D01*
X154749731Y-127759588D01*
X154983080Y-127933641D01*
X155245901Y-128058825D01*
X155393110Y-128103476D01*
X155623000Y-127982155D01*
X155623000Y-126789000D01*
X155877000Y-126789000D01*
X155877000Y-127982155D01*
X156106890Y-128103476D01*
X156254099Y-128058825D01*
X156516920Y-127933641D01*
X156750269Y-127759588D01*
X156945178Y-127543355D01*
X157094157Y-127293252D01*
X157191481Y-127018891D01*
X157070814Y-126789000D01*
X155877000Y-126789000D01*
X155623000Y-126789000D01*
X153337000Y-126789000D01*
X153083000Y-126789000D01*
X150797000Y-126789000D01*
X150543000Y-126789000D01*
X148257000Y-126789000D01*
X148003000Y-126789000D01*
X145717000Y-126789000D01*
X145463000Y-126789000D01*
X143177000Y-126789000D01*
X142923000Y-126789000D01*
X140637000Y-126789000D01*
X140383000Y-126789000D01*
X138097000Y-126789000D01*
X137843000Y-126789000D01*
X135557000Y-126789000D01*
X135303000Y-126789000D01*
X133017000Y-126789000D01*
X132763000Y-126789000D01*
X130477000Y-126789000D01*
X130223000Y-126789000D01*
X127937000Y-126789000D01*
X127683000Y-126789000D01*
X126483750Y-126789000D01*
X126325000Y-126947750D01*
X126321928Y-127512000D01*
X122622669Y-127512000D01*
X121952963Y-127235967D01*
X120772826Y-126587182D01*
X119672356Y-125810886D01*
X118665281Y-124916762D01*
X117764149Y-123915953D01*
X116980196Y-122820939D01*
X116323187Y-121645361D01*
X115801309Y-120403863D01*
X115535713Y-119501446D01*
X115734022Y-119619364D01*
X116010973Y-119717363D01*
X116243000Y-119596864D01*
X116243000Y-118389400D01*
X116497000Y-118389400D01*
X116497000Y-119596864D01*
X116729027Y-119717363D01*
X117005978Y-119619364D01*
X117258488Y-119469217D01*
X117476854Y-119272693D01*
X117640000Y-119054322D01*
X117803146Y-119272693D01*
X118021512Y-119469217D01*
X118274022Y-119619364D01*
X118550973Y-119717363D01*
X118783000Y-119596864D01*
X118783000Y-118389400D01*
X119037000Y-118389400D01*
X119037000Y-119596864D01*
X119269027Y-119717363D01*
X119545978Y-119619364D01*
X119798488Y-119469217D01*
X120016854Y-119272693D01*
X120192684Y-119037344D01*
X120319222Y-118772214D01*
X120364958Y-118621426D01*
X120243817Y-118389400D01*
X119037000Y-118389400D01*
X118783000Y-118389400D01*
X116497000Y-118389400D01*
X116243000Y-118389400D01*
X116223000Y-118389400D01*
X116223000Y-118135400D01*
X116243000Y-118135400D01*
X116243000Y-115849400D01*
X116497000Y-115849400D01*
X116497000Y-118135400D01*
X118783000Y-118135400D01*
X118783000Y-115849400D01*
X119037000Y-115849400D01*
X119037000Y-118135400D01*
X120243817Y-118135400D01*
X120364958Y-117903374D01*
X120319222Y-117752586D01*
X120192684Y-117487456D01*
X120016854Y-117252107D01*
X119798488Y-117055583D01*
X119692230Y-116992400D01*
X119798488Y-116929217D01*
X120016854Y-116732693D01*
X120192684Y-116497344D01*
X120268308Y-116338890D01*
X124538524Y-116338890D01*
X124583175Y-116486099D01*
X124708359Y-116748920D01*
X124882412Y-116982269D01*
X125098645Y-117177178D01*
X125348748Y-117326157D01*
X125623109Y-117423481D01*
X125853000Y-117302814D01*
X125853000Y-116109000D01*
X126107000Y-116109000D01*
X126107000Y-117302814D01*
X126336891Y-117423481D01*
X126611252Y-117326157D01*
X126861355Y-117177178D01*
X127077588Y-116982269D01*
X127251641Y-116748920D01*
X127376825Y-116486099D01*
X127421476Y-116338890D01*
X127300155Y-116109000D01*
X126107000Y-116109000D01*
X125853000Y-116109000D01*
X124659845Y-116109000D01*
X124538524Y-116338890D01*
X120268308Y-116338890D01*
X120319222Y-116232214D01*
X120364958Y-116081426D01*
X120243817Y-115849400D01*
X119037000Y-115849400D01*
X118783000Y-115849400D01*
X116497000Y-115849400D01*
X116243000Y-115849400D01*
X116223000Y-115849400D01*
X116223000Y-115595400D01*
X116243000Y-115595400D01*
X116243000Y-115575400D01*
X116497000Y-115575400D01*
X116497000Y-115595400D01*
X118783000Y-115595400D01*
X118783000Y-115575400D01*
X119037000Y-115575400D01*
X119037000Y-115595400D01*
X120243817Y-115595400D01*
X120364958Y-115363374D01*
X120319222Y-115212586D01*
X120192684Y-114947456D01*
X120016854Y-114712107D01*
X119798488Y-114515583D01*
X119699897Y-114456959D01*
X119865302Y-114346439D01*
X120074039Y-114137702D01*
X120209347Y-113935199D01*
X120247886Y-113931403D01*
X120391147Y-113887946D01*
X120523176Y-113817374D01*
X120638901Y-113722401D01*
X120662704Y-113693397D01*
X122694102Y-111662000D01*
X124701822Y-111662000D01*
X124826525Y-111848632D01*
X125033368Y-112055475D01*
X125207760Y-112172000D01*
X125033368Y-112288525D01*
X124826525Y-112495368D01*
X124664010Y-112738589D01*
X124552068Y-113008842D01*
X124495000Y-113295740D01*
X124495000Y-113588260D01*
X124552068Y-113875158D01*
X124664010Y-114145411D01*
X124826525Y-114388632D01*
X125033368Y-114595475D01*
X125215534Y-114717195D01*
X125098645Y-114786822D01*
X124882412Y-114981731D01*
X124708359Y-115215080D01*
X124583175Y-115477901D01*
X124538524Y-115625110D01*
X124659845Y-115855000D01*
X125853000Y-115855000D01*
X125853000Y-115835000D01*
X126107000Y-115835000D01*
X126107000Y-115855000D01*
X127300155Y-115855000D01*
X127421476Y-115625110D01*
X127376825Y-115477901D01*
X127251641Y-115215080D01*
X127077588Y-114981731D01*
X126861355Y-114786822D01*
X126744466Y-114717195D01*
X126926632Y-114595475D01*
X127102784Y-114419323D01*
X131993000Y-114419323D01*
X131993000Y-114944677D01*
X132095492Y-115459935D01*
X132296536Y-115945298D01*
X132588406Y-116382113D01*
X132959887Y-116753594D01*
X133396702Y-117045464D01*
X133882065Y-117246508D01*
X134397323Y-117349000D01*
X134922677Y-117349000D01*
X135437935Y-117246508D01*
X135923298Y-117045464D01*
X136360113Y-116753594D01*
X136731594Y-116382113D01*
X137023464Y-115945298D01*
X137224508Y-115459935D01*
X137327000Y-114944677D01*
X137327000Y-114419323D01*
X137224508Y-113904065D01*
X137023464Y-113418702D01*
X136731594Y-112981887D01*
X136360113Y-112610406D01*
X135923298Y-112318536D01*
X135437935Y-112117492D01*
X134922677Y-112015000D01*
X134397323Y-112015000D01*
X133882065Y-112117492D01*
X133396702Y-112318536D01*
X132959887Y-112610406D01*
X132588406Y-112981887D01*
X132296536Y-113418702D01*
X132095492Y-113904065D01*
X131993000Y-114419323D01*
X127102784Y-114419323D01*
X127133475Y-114388632D01*
X127295990Y-114145411D01*
X127407932Y-113875158D01*
X127465000Y-113588260D01*
X127465000Y-113295740D01*
X127407932Y-113008842D01*
X127295990Y-112738589D01*
X127133475Y-112495368D01*
X126926632Y-112288525D01*
X126752240Y-112172000D01*
X126926632Y-112055475D01*
X127133475Y-111848632D01*
X127295990Y-111605411D01*
X127407932Y-111335158D01*
X127465000Y-111048260D01*
X127465000Y-110755740D01*
X127407932Y-110468842D01*
X127295990Y-110198589D01*
X127133475Y-109955368D01*
X126926632Y-109748525D01*
X126752240Y-109632000D01*
X126926632Y-109515475D01*
X127133475Y-109308632D01*
X127295990Y-109065411D01*
X127407932Y-108795158D01*
X127465000Y-108508260D01*
X127465000Y-108215740D01*
X127407932Y-107928842D01*
X127376103Y-107852000D01*
X131822978Y-107852000D01*
X131860300Y-107855676D01*
X131897622Y-107852000D01*
X131897633Y-107852000D01*
X132009286Y-107841003D01*
X132152547Y-107797546D01*
X132284576Y-107726974D01*
X132400301Y-107632001D01*
X132424104Y-107602997D01*
X132449748Y-107577353D01*
X132570829Y-107553268D01*
X132709732Y-107495733D01*
X140878146Y-115664147D01*
G37*
G04 #@! TD.AperFunction*
D23*
X157787401Y-115369003D02*
X157811199Y-115398001D01*
X157926924Y-115492974D01*
X158058953Y-115563546D01*
X158202214Y-115607003D01*
X158313867Y-115618000D01*
X158313875Y-115618000D01*
X158351200Y-115621676D01*
X158388525Y-115618000D01*
X158441706Y-115618000D01*
X158413175Y-115677901D01*
X158368524Y-115825110D01*
X158489845Y-116055000D01*
X159683000Y-116055000D01*
X159683000Y-116035000D01*
X159937000Y-116035000D01*
X159937000Y-116055000D01*
X159957000Y-116055000D01*
X159957000Y-116309000D01*
X159937000Y-116309000D01*
X159937000Y-116329000D01*
X159683000Y-116329000D01*
X159683000Y-116309000D01*
X158489845Y-116309000D01*
X158368524Y-116538890D01*
X158413175Y-116686099D01*
X158538359Y-116948920D01*
X158712412Y-117182269D01*
X158928645Y-117377178D01*
X159106110Y-117482889D01*
X158626199Y-117962800D01*
X153930907Y-117962800D01*
X154181594Y-117712113D01*
X154473464Y-117275298D01*
X154674508Y-116789935D01*
X154777000Y-116274677D01*
X154777000Y-115749323D01*
X154674508Y-115234065D01*
X154473464Y-114748702D01*
X154181594Y-114311887D01*
X153810113Y-113940406D01*
X153510932Y-113740500D01*
X154870765Y-113740500D01*
X154973411Y-113809086D01*
X155143571Y-113879568D01*
X155324211Y-113915500D01*
X155508389Y-113915500D01*
X155689029Y-113879568D01*
X155859189Y-113809086D01*
X156012328Y-113706762D01*
X156068744Y-113650346D01*
X157787401Y-115369003D01*
G04 #@! TA.AperFunction,Conductor*
D24*
G36*
X157787401Y-115369003D02*
G01*
X157811199Y-115398001D01*
X157926924Y-115492974D01*
X158058953Y-115563546D01*
X158202214Y-115607003D01*
X158313867Y-115618000D01*
X158313875Y-115618000D01*
X158351200Y-115621676D01*
X158388525Y-115618000D01*
X158441706Y-115618000D01*
X158413175Y-115677901D01*
X158368524Y-115825110D01*
X158489845Y-116055000D01*
X159683000Y-116055000D01*
X159683000Y-116035000D01*
X159937000Y-116035000D01*
X159937000Y-116055000D01*
X159957000Y-116055000D01*
X159957000Y-116309000D01*
X159937000Y-116309000D01*
X159937000Y-116329000D01*
X159683000Y-116329000D01*
X159683000Y-116309000D01*
X158489845Y-116309000D01*
X158368524Y-116538890D01*
X158413175Y-116686099D01*
X158538359Y-116948920D01*
X158712412Y-117182269D01*
X158928645Y-117377178D01*
X159106110Y-117482889D01*
X158626199Y-117962800D01*
X153930907Y-117962800D01*
X154181594Y-117712113D01*
X154473464Y-117275298D01*
X154674508Y-116789935D01*
X154777000Y-116274677D01*
X154777000Y-115749323D01*
X154674508Y-115234065D01*
X154473464Y-114748702D01*
X154181594Y-114311887D01*
X153810113Y-113940406D01*
X153510932Y-113740500D01*
X154870765Y-113740500D01*
X154973411Y-113809086D01*
X155143571Y-113879568D01*
X155324211Y-113915500D01*
X155508389Y-113915500D01*
X155689029Y-113879568D01*
X155859189Y-113809086D01*
X156012328Y-113706762D01*
X156068744Y-113650346D01*
X157787401Y-115369003D01*
G37*
G04 #@! TD.AperFunction*
D23*
X143482989Y-116305210D02*
X143457932Y-116179242D01*
X143345990Y-115908989D01*
X143183475Y-115665768D01*
X142976632Y-115458925D01*
X142794466Y-115337205D01*
X142911355Y-115267578D01*
X143127588Y-115072669D01*
X143301641Y-114839320D01*
X143426825Y-114576499D01*
X143471476Y-114429290D01*
X143350155Y-114199400D01*
X142157000Y-114199400D01*
X142157000Y-114219400D01*
X141903000Y-114219400D01*
X141903000Y-114199400D01*
X141883000Y-114199400D01*
X141883000Y-113945400D01*
X141903000Y-113945400D01*
X141903000Y-113925400D01*
X142157000Y-113925400D01*
X142157000Y-113945400D01*
X143350155Y-113945400D01*
X143471476Y-113715510D01*
X143426825Y-113568301D01*
X143301641Y-113305480D01*
X143127588Y-113072131D01*
X142911355Y-112877222D01*
X142794466Y-112807595D01*
X142976632Y-112685875D01*
X143183475Y-112479032D01*
X143308178Y-112292400D01*
X147495798Y-112292400D01*
X143482989Y-116305210D01*
G04 #@! TA.AperFunction,Conductor*
D24*
G36*
X143482989Y-116305210D02*
G01*
X143457932Y-116179242D01*
X143345990Y-115908989D01*
X143183475Y-115665768D01*
X142976632Y-115458925D01*
X142794466Y-115337205D01*
X142911355Y-115267578D01*
X143127588Y-115072669D01*
X143301641Y-114839320D01*
X143426825Y-114576499D01*
X143471476Y-114429290D01*
X143350155Y-114199400D01*
X142157000Y-114199400D01*
X142157000Y-114219400D01*
X141903000Y-114219400D01*
X141903000Y-114199400D01*
X141883000Y-114199400D01*
X141883000Y-113945400D01*
X141903000Y-113945400D01*
X141903000Y-113925400D01*
X142157000Y-113925400D01*
X142157000Y-113945400D01*
X143350155Y-113945400D01*
X143471476Y-113715510D01*
X143426825Y-113568301D01*
X143301641Y-113305480D01*
X143127588Y-113072131D01*
X142911355Y-112877222D01*
X142794466Y-112807595D01*
X142976632Y-112685875D01*
X143183475Y-112479032D01*
X143308178Y-112292400D01*
X147495798Y-112292400D01*
X143482989Y-116305210D01*
G37*
G04 #@! TD.AperFunction*
D23*
X122388300Y-97496602D02*
X122412099Y-97525601D01*
X122441097Y-97549399D01*
X122527823Y-97620574D01*
X122583163Y-97650154D01*
X122659853Y-97691146D01*
X122803114Y-97734603D01*
X122914767Y-97745600D01*
X122914776Y-97745600D01*
X122952099Y-97749276D01*
X122989422Y-97745600D01*
X131073099Y-97745600D01*
X140290901Y-106963403D01*
X140314699Y-106992401D01*
X140343697Y-107016199D01*
X140430423Y-107087374D01*
X140496135Y-107122498D01*
X140562453Y-107157946D01*
X140705714Y-107201403D01*
X140747204Y-107205489D01*
X140876525Y-107399032D01*
X141083368Y-107605875D01*
X141257760Y-107722400D01*
X141083368Y-107838925D01*
X140876525Y-108045768D01*
X140714010Y-108288989D01*
X140602068Y-108559242D01*
X140545000Y-108846140D01*
X140545000Y-109138660D01*
X140602068Y-109425558D01*
X140714010Y-109695811D01*
X140876525Y-109939032D01*
X141083368Y-110145875D01*
X141257760Y-110262400D01*
X141083368Y-110378925D01*
X140876525Y-110585768D01*
X140714010Y-110828989D01*
X140602068Y-111099242D01*
X140545000Y-111386140D01*
X140545000Y-111678660D01*
X140602068Y-111965558D01*
X140714010Y-112235811D01*
X140876525Y-112479032D01*
X141083368Y-112685875D01*
X141265534Y-112807595D01*
X141148645Y-112877222D01*
X140932412Y-113072131D01*
X140758359Y-113305480D01*
X140729555Y-113365953D01*
X133679252Y-106315651D01*
X133672403Y-106246115D01*
X133628946Y-106102853D01*
X133558374Y-105970824D01*
X133463401Y-105855099D01*
X133434403Y-105831301D01*
X127834104Y-100231003D01*
X127810301Y-100201999D01*
X127694576Y-100107026D01*
X127562547Y-100036454D01*
X127468072Y-100007796D01*
X127468072Y-99892000D01*
X127455812Y-99767518D01*
X127419502Y-99647820D01*
X127360537Y-99537506D01*
X127281185Y-99440815D01*
X127184494Y-99361463D01*
X127074180Y-99302498D01*
X126954482Y-99266188D01*
X126830000Y-99253928D01*
X125130000Y-99253928D01*
X125005518Y-99266188D01*
X124885820Y-99302498D01*
X124775506Y-99361463D01*
X124678815Y-99440815D01*
X124599463Y-99537506D01*
X124540498Y-99647820D01*
X124504188Y-99767518D01*
X124491928Y-99892000D01*
X124491928Y-101592000D01*
X124504188Y-101716482D01*
X124540498Y-101836180D01*
X124599463Y-101946494D01*
X124678815Y-102043185D01*
X124775506Y-102122537D01*
X124885820Y-102181502D01*
X124966466Y-102205966D01*
X124882412Y-102281731D01*
X124708359Y-102515080D01*
X124583175Y-102777901D01*
X124538524Y-102925110D01*
X124659845Y-103155000D01*
X125853000Y-103155000D01*
X125853000Y-103135000D01*
X126107000Y-103135000D01*
X126107000Y-103155000D01*
X127300155Y-103155000D01*
X127421476Y-102925110D01*
X127376825Y-102777901D01*
X127251641Y-102515080D01*
X127077588Y-102281731D01*
X126993534Y-102205966D01*
X127074180Y-102181502D01*
X127184494Y-102122537D01*
X127281185Y-102043185D01*
X127360537Y-101946494D01*
X127374281Y-101920782D01*
X131547738Y-106094240D01*
X131469514Y-106211311D01*
X131419523Y-106332000D01*
X127376103Y-106332000D01*
X127407932Y-106255158D01*
X127465000Y-105968260D01*
X127465000Y-105675740D01*
X127407932Y-105388842D01*
X127295990Y-105118589D01*
X127133475Y-104875368D01*
X126926632Y-104668525D01*
X126744466Y-104546805D01*
X126861355Y-104477178D01*
X127077588Y-104282269D01*
X127251641Y-104048920D01*
X127376825Y-103786099D01*
X127421476Y-103638890D01*
X127300155Y-103409000D01*
X126107000Y-103409000D01*
X126107000Y-103429000D01*
X125853000Y-103429000D01*
X125853000Y-103409000D01*
X124659845Y-103409000D01*
X124538524Y-103638890D01*
X124583175Y-103786099D01*
X124708359Y-104048920D01*
X124882412Y-104282269D01*
X125098645Y-104477178D01*
X125215534Y-104546805D01*
X125033368Y-104668525D01*
X124879697Y-104822196D01*
X123757904Y-103700403D01*
X123734101Y-103671399D01*
X123618376Y-103576426D01*
X123486347Y-103505854D01*
X123343086Y-103462397D01*
X123231433Y-103451400D01*
X123231422Y-103451400D01*
X123194100Y-103447724D01*
X123156778Y-103451400D01*
X120343734Y-103451400D01*
X120364958Y-103381426D01*
X120243817Y-103149400D01*
X119037000Y-103149400D01*
X119037000Y-103169400D01*
X118783000Y-103169400D01*
X118783000Y-103149400D01*
X118763000Y-103149400D01*
X118763000Y-102895400D01*
X118783000Y-102895400D01*
X118783000Y-102875400D01*
X119037000Y-102875400D01*
X119037000Y-102895400D01*
X120243817Y-102895400D01*
X120364958Y-102663374D01*
X120319222Y-102512586D01*
X120192684Y-102247456D01*
X120016854Y-102012107D01*
X119798488Y-101815583D01*
X119699897Y-101756959D01*
X119865302Y-101646439D01*
X120074039Y-101437702D01*
X120238042Y-101192253D01*
X120351010Y-100919525D01*
X120408600Y-100629999D01*
X120408600Y-100334801D01*
X120351010Y-100045275D01*
X120238042Y-99772547D01*
X120074039Y-99527098D01*
X119865302Y-99318361D01*
X119706719Y-99212400D01*
X119865302Y-99106439D01*
X120074039Y-98897702D01*
X120238042Y-98652253D01*
X120351010Y-98379525D01*
X120408600Y-98089999D01*
X120408600Y-97794801D01*
X120351010Y-97505275D01*
X120238042Y-97232547D01*
X120074039Y-96987098D01*
X119865302Y-96778361D01*
X119706719Y-96672400D01*
X119865302Y-96566439D01*
X120074039Y-96357702D01*
X120238042Y-96112253D01*
X120351010Y-95839525D01*
X120408600Y-95549999D01*
X120408600Y-95516901D01*
X122388300Y-97496602D01*
G04 #@! TA.AperFunction,Conductor*
D24*
G36*
X122388300Y-97496602D02*
G01*
X122412099Y-97525601D01*
X122441097Y-97549399D01*
X122527823Y-97620574D01*
X122583163Y-97650154D01*
X122659853Y-97691146D01*
X122803114Y-97734603D01*
X122914767Y-97745600D01*
X122914776Y-97745600D01*
X122952099Y-97749276D01*
X122989422Y-97745600D01*
X131073099Y-97745600D01*
X140290901Y-106963403D01*
X140314699Y-106992401D01*
X140343697Y-107016199D01*
X140430423Y-107087374D01*
X140496135Y-107122498D01*
X140562453Y-107157946D01*
X140705714Y-107201403D01*
X140747204Y-107205489D01*
X140876525Y-107399032D01*
X141083368Y-107605875D01*
X141257760Y-107722400D01*
X141083368Y-107838925D01*
X140876525Y-108045768D01*
X140714010Y-108288989D01*
X140602068Y-108559242D01*
X140545000Y-108846140D01*
X140545000Y-109138660D01*
X140602068Y-109425558D01*
X140714010Y-109695811D01*
X140876525Y-109939032D01*
X141083368Y-110145875D01*
X141257760Y-110262400D01*
X141083368Y-110378925D01*
X140876525Y-110585768D01*
X140714010Y-110828989D01*
X140602068Y-111099242D01*
X140545000Y-111386140D01*
X140545000Y-111678660D01*
X140602068Y-111965558D01*
X140714010Y-112235811D01*
X140876525Y-112479032D01*
X141083368Y-112685875D01*
X141265534Y-112807595D01*
X141148645Y-112877222D01*
X140932412Y-113072131D01*
X140758359Y-113305480D01*
X140729555Y-113365953D01*
X133679252Y-106315651D01*
X133672403Y-106246115D01*
X133628946Y-106102853D01*
X133558374Y-105970824D01*
X133463401Y-105855099D01*
X133434403Y-105831301D01*
X127834104Y-100231003D01*
X127810301Y-100201999D01*
X127694576Y-100107026D01*
X127562547Y-100036454D01*
X127468072Y-100007796D01*
X127468072Y-99892000D01*
X127455812Y-99767518D01*
X127419502Y-99647820D01*
X127360537Y-99537506D01*
X127281185Y-99440815D01*
X127184494Y-99361463D01*
X127074180Y-99302498D01*
X126954482Y-99266188D01*
X126830000Y-99253928D01*
X125130000Y-99253928D01*
X125005518Y-99266188D01*
X124885820Y-99302498D01*
X124775506Y-99361463D01*
X124678815Y-99440815D01*
X124599463Y-99537506D01*
X124540498Y-99647820D01*
X124504188Y-99767518D01*
X124491928Y-99892000D01*
X124491928Y-101592000D01*
X124504188Y-101716482D01*
X124540498Y-101836180D01*
X124599463Y-101946494D01*
X124678815Y-102043185D01*
X124775506Y-102122537D01*
X124885820Y-102181502D01*
X124966466Y-102205966D01*
X124882412Y-102281731D01*
X124708359Y-102515080D01*
X124583175Y-102777901D01*
X124538524Y-102925110D01*
X124659845Y-103155000D01*
X125853000Y-103155000D01*
X125853000Y-103135000D01*
X126107000Y-103135000D01*
X126107000Y-103155000D01*
X127300155Y-103155000D01*
X127421476Y-102925110D01*
X127376825Y-102777901D01*
X127251641Y-102515080D01*
X127077588Y-102281731D01*
X126993534Y-102205966D01*
X127074180Y-102181502D01*
X127184494Y-102122537D01*
X127281185Y-102043185D01*
X127360537Y-101946494D01*
X127374281Y-101920782D01*
X131547738Y-106094240D01*
X131469514Y-106211311D01*
X131419523Y-106332000D01*
X127376103Y-106332000D01*
X127407932Y-106255158D01*
X127465000Y-105968260D01*
X127465000Y-105675740D01*
X127407932Y-105388842D01*
X127295990Y-105118589D01*
X127133475Y-104875368D01*
X126926632Y-104668525D01*
X126744466Y-104546805D01*
X126861355Y-104477178D01*
X127077588Y-104282269D01*
X127251641Y-104048920D01*
X127376825Y-103786099D01*
X127421476Y-103638890D01*
X127300155Y-103409000D01*
X126107000Y-103409000D01*
X126107000Y-103429000D01*
X125853000Y-103429000D01*
X125853000Y-103409000D01*
X124659845Y-103409000D01*
X124538524Y-103638890D01*
X124583175Y-103786099D01*
X124708359Y-104048920D01*
X124882412Y-104282269D01*
X125098645Y-104477178D01*
X125215534Y-104546805D01*
X125033368Y-104668525D01*
X124879697Y-104822196D01*
X123757904Y-103700403D01*
X123734101Y-103671399D01*
X123618376Y-103576426D01*
X123486347Y-103505854D01*
X123343086Y-103462397D01*
X123231433Y-103451400D01*
X123231422Y-103451400D01*
X123194100Y-103447724D01*
X123156778Y-103451400D01*
X120343734Y-103451400D01*
X120364958Y-103381426D01*
X120243817Y-103149400D01*
X119037000Y-103149400D01*
X119037000Y-103169400D01*
X118783000Y-103169400D01*
X118783000Y-103149400D01*
X118763000Y-103149400D01*
X118763000Y-102895400D01*
X118783000Y-102895400D01*
X118783000Y-102875400D01*
X119037000Y-102875400D01*
X119037000Y-102895400D01*
X120243817Y-102895400D01*
X120364958Y-102663374D01*
X120319222Y-102512586D01*
X120192684Y-102247456D01*
X120016854Y-102012107D01*
X119798488Y-101815583D01*
X119699897Y-101756959D01*
X119865302Y-101646439D01*
X120074039Y-101437702D01*
X120238042Y-101192253D01*
X120351010Y-100919525D01*
X120408600Y-100629999D01*
X120408600Y-100334801D01*
X120351010Y-100045275D01*
X120238042Y-99772547D01*
X120074039Y-99527098D01*
X119865302Y-99318361D01*
X119706719Y-99212400D01*
X119865302Y-99106439D01*
X120074039Y-98897702D01*
X120238042Y-98652253D01*
X120351010Y-98379525D01*
X120408600Y-98089999D01*
X120408600Y-97794801D01*
X120351010Y-97505275D01*
X120238042Y-97232547D01*
X120074039Y-96987098D01*
X119865302Y-96778361D01*
X119706719Y-96672400D01*
X119865302Y-96566439D01*
X120074039Y-96357702D01*
X120238042Y-96112253D01*
X120351010Y-95839525D01*
X120408600Y-95549999D01*
X120408600Y-95516901D01*
X122388300Y-97496602D01*
G37*
G04 #@! TD.AperFunction*
D23*
X140290905Y-99343408D02*
X140314699Y-99372401D01*
X140343692Y-99396195D01*
X140343696Y-99396199D01*
X140400098Y-99442486D01*
X140430424Y-99467374D01*
X140541928Y-99526975D01*
X140541928Y-99682400D01*
X140554188Y-99806882D01*
X140590498Y-99926580D01*
X140649463Y-100036894D01*
X140728815Y-100133585D01*
X140825506Y-100212937D01*
X140935820Y-100271902D01*
X141016466Y-100296366D01*
X140932412Y-100372131D01*
X140758359Y-100605480D01*
X140633175Y-100868301D01*
X140588524Y-101015510D01*
X140709845Y-101245400D01*
X141903000Y-101245400D01*
X141903000Y-101225400D01*
X142157000Y-101225400D01*
X142157000Y-101245400D01*
X143350155Y-101245400D01*
X143471476Y-101015510D01*
X143426825Y-100868301D01*
X143301641Y-100605480D01*
X143127588Y-100372131D01*
X143043534Y-100296366D01*
X143124180Y-100271902D01*
X143234494Y-100212937D01*
X143331185Y-100133585D01*
X143376485Y-100078386D01*
X152371101Y-109073003D01*
X152394899Y-109102001D01*
X152510624Y-109196974D01*
X152642653Y-109267546D01*
X152785914Y-109311003D01*
X152897567Y-109322000D01*
X152897576Y-109322000D01*
X152934899Y-109325676D01*
X152972222Y-109322000D01*
X158321928Y-109322000D01*
X158321928Y-109412000D01*
X158334188Y-109536482D01*
X158370498Y-109656180D01*
X158429463Y-109766494D01*
X158508815Y-109863185D01*
X158605506Y-109942537D01*
X158715820Y-110001502D01*
X158788380Y-110023513D01*
X158709875Y-110102018D01*
X158687701Y-110074999D01*
X158571976Y-109980026D01*
X158439947Y-109909454D01*
X158296686Y-109865997D01*
X158185033Y-109855000D01*
X158185022Y-109855000D01*
X158147700Y-109851324D01*
X158110378Y-109855000D01*
X145142702Y-109855000D01*
X143769104Y-108481403D01*
X143745301Y-108452399D01*
X143629576Y-108357426D01*
X143497547Y-108286854D01*
X143354286Y-108243397D01*
X143312796Y-108239311D01*
X143183475Y-108045768D01*
X142976632Y-107838925D01*
X142802240Y-107722400D01*
X142976632Y-107605875D01*
X143183475Y-107399032D01*
X143345990Y-107155811D01*
X143457932Y-106885558D01*
X143515000Y-106598660D01*
X143515000Y-106306140D01*
X143457932Y-106019242D01*
X143345990Y-105748989D01*
X143183475Y-105505768D01*
X142976632Y-105298925D01*
X142802240Y-105182400D01*
X142976632Y-105065875D01*
X143183475Y-104859032D01*
X143345990Y-104615811D01*
X143457932Y-104345558D01*
X143515000Y-104058660D01*
X143515000Y-103766140D01*
X143457932Y-103479242D01*
X143345990Y-103208989D01*
X143183475Y-102965768D01*
X142976632Y-102758925D01*
X142794466Y-102637205D01*
X142911355Y-102567578D01*
X143127588Y-102372669D01*
X143301641Y-102139320D01*
X143426825Y-101876499D01*
X143471476Y-101729290D01*
X143350155Y-101499400D01*
X142157000Y-101499400D01*
X142157000Y-101519400D01*
X141903000Y-101519400D01*
X141903000Y-101499400D01*
X140709845Y-101499400D01*
X140588524Y-101729290D01*
X140633175Y-101876499D01*
X140758359Y-102139320D01*
X140932412Y-102372669D01*
X141148645Y-102567578D01*
X141265534Y-102637205D01*
X141083368Y-102758925D01*
X140929697Y-102912596D01*
X134342801Y-96325700D01*
X137273199Y-96325700D01*
X140290905Y-99343408D01*
G04 #@! TA.AperFunction,Conductor*
D24*
G36*
X140290905Y-99343408D02*
G01*
X140314699Y-99372401D01*
X140343692Y-99396195D01*
X140343696Y-99396199D01*
X140400098Y-99442486D01*
X140430424Y-99467374D01*
X140541928Y-99526975D01*
X140541928Y-99682400D01*
X140554188Y-99806882D01*
X140590498Y-99926580D01*
X140649463Y-100036894D01*
X140728815Y-100133585D01*
X140825506Y-100212937D01*
X140935820Y-100271902D01*
X141016466Y-100296366D01*
X140932412Y-100372131D01*
X140758359Y-100605480D01*
X140633175Y-100868301D01*
X140588524Y-101015510D01*
X140709845Y-101245400D01*
X141903000Y-101245400D01*
X141903000Y-101225400D01*
X142157000Y-101225400D01*
X142157000Y-101245400D01*
X143350155Y-101245400D01*
X143471476Y-101015510D01*
X143426825Y-100868301D01*
X143301641Y-100605480D01*
X143127588Y-100372131D01*
X143043534Y-100296366D01*
X143124180Y-100271902D01*
X143234494Y-100212937D01*
X143331185Y-100133585D01*
X143376485Y-100078386D01*
X152371101Y-109073003D01*
X152394899Y-109102001D01*
X152510624Y-109196974D01*
X152642653Y-109267546D01*
X152785914Y-109311003D01*
X152897567Y-109322000D01*
X152897576Y-109322000D01*
X152934899Y-109325676D01*
X152972222Y-109322000D01*
X158321928Y-109322000D01*
X158321928Y-109412000D01*
X158334188Y-109536482D01*
X158370498Y-109656180D01*
X158429463Y-109766494D01*
X158508815Y-109863185D01*
X158605506Y-109942537D01*
X158715820Y-110001502D01*
X158788380Y-110023513D01*
X158709875Y-110102018D01*
X158687701Y-110074999D01*
X158571976Y-109980026D01*
X158439947Y-109909454D01*
X158296686Y-109865997D01*
X158185033Y-109855000D01*
X158185022Y-109855000D01*
X158147700Y-109851324D01*
X158110378Y-109855000D01*
X145142702Y-109855000D01*
X143769104Y-108481403D01*
X143745301Y-108452399D01*
X143629576Y-108357426D01*
X143497547Y-108286854D01*
X143354286Y-108243397D01*
X143312796Y-108239311D01*
X143183475Y-108045768D01*
X142976632Y-107838925D01*
X142802240Y-107722400D01*
X142976632Y-107605875D01*
X143183475Y-107399032D01*
X143345990Y-107155811D01*
X143457932Y-106885558D01*
X143515000Y-106598660D01*
X143515000Y-106306140D01*
X143457932Y-106019242D01*
X143345990Y-105748989D01*
X143183475Y-105505768D01*
X142976632Y-105298925D01*
X142802240Y-105182400D01*
X142976632Y-105065875D01*
X143183475Y-104859032D01*
X143345990Y-104615811D01*
X143457932Y-104345558D01*
X143515000Y-104058660D01*
X143515000Y-103766140D01*
X143457932Y-103479242D01*
X143345990Y-103208989D01*
X143183475Y-102965768D01*
X142976632Y-102758925D01*
X142794466Y-102637205D01*
X142911355Y-102567578D01*
X143127588Y-102372669D01*
X143301641Y-102139320D01*
X143426825Y-101876499D01*
X143471476Y-101729290D01*
X143350155Y-101499400D01*
X142157000Y-101499400D01*
X142157000Y-101519400D01*
X141903000Y-101519400D01*
X141903000Y-101499400D01*
X140709845Y-101499400D01*
X140588524Y-101729290D01*
X140633175Y-101876499D01*
X140758359Y-102139320D01*
X140932412Y-102372669D01*
X141148645Y-102567578D01*
X141265534Y-102637205D01*
X141083368Y-102758925D01*
X140929697Y-102912596D01*
X134342801Y-96325700D01*
X137273199Y-96325700D01*
X140290905Y-99343408D01*
G37*
G04 #@! TD.AperFunction*
D23*
X143561024Y-77897126D02*
X143485241Y-77947763D01*
X143285363Y-78147641D01*
X143128320Y-78382673D01*
X143020147Y-78643826D01*
X142965000Y-78921065D01*
X142965000Y-79203735D01*
X143020147Y-79480974D01*
X143128320Y-79742127D01*
X143285363Y-79977159D01*
X143485241Y-80177037D01*
X143720273Y-80334080D01*
X143981426Y-80442253D01*
X144258665Y-80497400D01*
X144541335Y-80497400D01*
X144818574Y-80442253D01*
X145079727Y-80334080D01*
X145314759Y-80177037D01*
X145514637Y-79977159D01*
X145671680Y-79742127D01*
X145779853Y-79480974D01*
X145835000Y-79203735D01*
X145835000Y-78921065D01*
X145779853Y-78643826D01*
X145671680Y-78382673D01*
X145584635Y-78252400D01*
X150835365Y-78252400D01*
X150748320Y-78382673D01*
X150640147Y-78643826D01*
X150585000Y-78921065D01*
X150585000Y-79203735D01*
X150640147Y-79480974D01*
X150748320Y-79742127D01*
X150905363Y-79977159D01*
X151105241Y-80177037D01*
X151340273Y-80334080D01*
X151601426Y-80442253D01*
X151878665Y-80497400D01*
X152161335Y-80497400D01*
X152438574Y-80442253D01*
X152566438Y-80389290D01*
X158348524Y-80389290D01*
X158393175Y-80536499D01*
X158518359Y-80799320D01*
X158692412Y-81032669D01*
X158908645Y-81227578D01*
X159158748Y-81376557D01*
X159433109Y-81473881D01*
X159663000Y-81353214D01*
X159663000Y-80159400D01*
X159917000Y-80159400D01*
X159917000Y-81353214D01*
X160146891Y-81473881D01*
X160421252Y-81376557D01*
X160671355Y-81227578D01*
X160887588Y-81032669D01*
X161061641Y-80799320D01*
X161186825Y-80536499D01*
X161231476Y-80389290D01*
X161110155Y-80159400D01*
X159917000Y-80159400D01*
X159663000Y-80159400D01*
X158469845Y-80159400D01*
X158348524Y-80389290D01*
X152566438Y-80389290D01*
X152699727Y-80334080D01*
X152934759Y-80177037D01*
X153134637Y-79977159D01*
X153291680Y-79742127D01*
X153399853Y-79480974D01*
X153455000Y-79203735D01*
X153455000Y-78921065D01*
X153399853Y-78643826D01*
X153291680Y-78382673D01*
X153204635Y-78252400D01*
X158511822Y-78252400D01*
X158636525Y-78439032D01*
X158843368Y-78645875D01*
X159025534Y-78767595D01*
X158908645Y-78837222D01*
X158692412Y-79032131D01*
X158518359Y-79265480D01*
X158393175Y-79528301D01*
X158348524Y-79675510D01*
X158469845Y-79905400D01*
X159663000Y-79905400D01*
X159663000Y-79885400D01*
X159917000Y-79885400D01*
X159917000Y-79905400D01*
X161110155Y-79905400D01*
X161231476Y-79675510D01*
X161186825Y-79528301D01*
X161061641Y-79265480D01*
X160887588Y-79032131D01*
X160671355Y-78837222D01*
X160554466Y-78767595D01*
X160736632Y-78645875D01*
X160943475Y-78439032D01*
X161105990Y-78195811D01*
X161217932Y-77925558D01*
X161275000Y-77638660D01*
X161275000Y-77346140D01*
X161217932Y-77059242D01*
X161208309Y-77036011D01*
X163431288Y-79258991D01*
X163301958Y-79452547D01*
X163188990Y-79725275D01*
X163131400Y-80014801D01*
X163131400Y-80309999D01*
X163188990Y-80599525D01*
X163301958Y-80872253D01*
X163465961Y-81117702D01*
X163674698Y-81326439D01*
X163833281Y-81432400D01*
X163674698Y-81538361D01*
X163465961Y-81747098D01*
X163301958Y-81992547D01*
X163188990Y-82265275D01*
X163131400Y-82554801D01*
X163131400Y-82849999D01*
X163188990Y-83139525D01*
X163301958Y-83412253D01*
X163465961Y-83657702D01*
X163674698Y-83866439D01*
X163833281Y-83972400D01*
X163674698Y-84078361D01*
X163465961Y-84287098D01*
X163301958Y-84532547D01*
X163188990Y-84805275D01*
X163131400Y-85094801D01*
X163131400Y-85389999D01*
X163188990Y-85679525D01*
X163301958Y-85952253D01*
X163446429Y-86168470D01*
X161127920Y-88486979D01*
X160993475Y-88285768D01*
X160861620Y-88153913D01*
X160934180Y-88131902D01*
X161044494Y-88072937D01*
X161141185Y-87993585D01*
X161220537Y-87896894D01*
X161279502Y-87786580D01*
X161315812Y-87666882D01*
X161328072Y-87542400D01*
X161328072Y-85842400D01*
X161315812Y-85717918D01*
X161279502Y-85598220D01*
X161220537Y-85487906D01*
X161141185Y-85391215D01*
X161044494Y-85311863D01*
X160934180Y-85252898D01*
X160814482Y-85216588D01*
X160690000Y-85204328D01*
X158990000Y-85204328D01*
X158865518Y-85216588D01*
X158745820Y-85252898D01*
X158635506Y-85311863D01*
X158538815Y-85391215D01*
X158459463Y-85487906D01*
X158400498Y-85598220D01*
X158364188Y-85717918D01*
X158351928Y-85842400D01*
X158351928Y-87542400D01*
X158364188Y-87666882D01*
X158400498Y-87786580D01*
X158459463Y-87896894D01*
X158538815Y-87993585D01*
X158635506Y-88072937D01*
X158745820Y-88131902D01*
X158818380Y-88153913D01*
X158686525Y-88285768D01*
X158524010Y-88528989D01*
X158412068Y-88799242D01*
X158355000Y-89086140D01*
X158355000Y-89378660D01*
X158412068Y-89665558D01*
X158524010Y-89935811D01*
X158686525Y-90179032D01*
X158893368Y-90385875D01*
X159067760Y-90502400D01*
X158893368Y-90618925D01*
X158686525Y-90825768D01*
X158524010Y-91068989D01*
X158412068Y-91339242D01*
X158355000Y-91626140D01*
X158355000Y-91918660D01*
X158412068Y-92205558D01*
X158524010Y-92475811D01*
X158686525Y-92719032D01*
X158893368Y-92925875D01*
X159067760Y-93042400D01*
X158893368Y-93158925D01*
X158686525Y-93365768D01*
X158524010Y-93608989D01*
X158412068Y-93879242D01*
X158355000Y-94166140D01*
X158355000Y-94458660D01*
X158412068Y-94745558D01*
X158524010Y-95015811D01*
X158662469Y-95223029D01*
X158153698Y-95731801D01*
X158124700Y-95755599D01*
X158100902Y-95784597D01*
X158100901Y-95784598D01*
X158029726Y-95871324D01*
X157959154Y-96003354D01*
X157951769Y-96027701D01*
X157915698Y-96146614D01*
X157907093Y-96233985D01*
X157901024Y-96295600D01*
X157904701Y-96332932D01*
X157904700Y-99846677D01*
X157901024Y-99884000D01*
X157904700Y-99921322D01*
X157904700Y-99921332D01*
X157915697Y-100032985D01*
X157948585Y-100141403D01*
X157959154Y-100176246D01*
X158029726Y-100308276D01*
X158051495Y-100334801D01*
X158124699Y-100424001D01*
X158153702Y-100447803D01*
X158697817Y-100991919D01*
X158568359Y-101165480D01*
X158443175Y-101428301D01*
X158398524Y-101575510D01*
X158519845Y-101805400D01*
X159713000Y-101805400D01*
X159713000Y-101785400D01*
X159967000Y-101785400D01*
X159967000Y-101805400D01*
X161160155Y-101805400D01*
X161281476Y-101575510D01*
X161236825Y-101428301D01*
X161234014Y-101422400D01*
X161553199Y-101422400D01*
X162475300Y-102344502D01*
X162499099Y-102373501D01*
X162528097Y-102397299D01*
X162614824Y-102468474D01*
X162746853Y-102539046D01*
X162890114Y-102582503D01*
X163039100Y-102597177D01*
X163076433Y-102593500D01*
X163187354Y-102593500D01*
X163131400Y-102874801D01*
X163131400Y-103169999D01*
X163188990Y-103459525D01*
X163301958Y-103732253D01*
X163465961Y-103977702D01*
X163674698Y-104186439D01*
X163833281Y-104292400D01*
X163674698Y-104398361D01*
X163465961Y-104607098D01*
X163301958Y-104852547D01*
X163188990Y-105125275D01*
X163131400Y-105414801D01*
X163131400Y-105709999D01*
X163188990Y-105999525D01*
X163252769Y-106153500D01*
X153866302Y-106153500D01*
X147172525Y-99459723D01*
X149433000Y-99459723D01*
X149433000Y-99985077D01*
X149535492Y-100500335D01*
X149736536Y-100985698D01*
X150028406Y-101422513D01*
X150399887Y-101793994D01*
X150836702Y-102085864D01*
X151322065Y-102286908D01*
X151837323Y-102389400D01*
X152362677Y-102389400D01*
X152865959Y-102289290D01*
X158398524Y-102289290D01*
X158443175Y-102436499D01*
X158568359Y-102699320D01*
X158742412Y-102932669D01*
X158958645Y-103127578D01*
X159208748Y-103276557D01*
X159483109Y-103373881D01*
X159713000Y-103253214D01*
X159713000Y-102059400D01*
X159967000Y-102059400D01*
X159967000Y-103253214D01*
X160196891Y-103373881D01*
X160471252Y-103276557D01*
X160721355Y-103127578D01*
X160937588Y-102932669D01*
X161111641Y-102699320D01*
X161236825Y-102436499D01*
X161281476Y-102289290D01*
X161160155Y-102059400D01*
X159967000Y-102059400D01*
X159713000Y-102059400D01*
X158519845Y-102059400D01*
X158398524Y-102289290D01*
X152865959Y-102289290D01*
X152877935Y-102286908D01*
X153363298Y-102085864D01*
X153800113Y-101793994D01*
X154171594Y-101422513D01*
X154463464Y-100985698D01*
X154664508Y-100500335D01*
X154767000Y-99985077D01*
X154767000Y-99459723D01*
X154664508Y-98944465D01*
X154463464Y-98459102D01*
X154171594Y-98022287D01*
X153800113Y-97650806D01*
X153363298Y-97358936D01*
X152877935Y-97157892D01*
X152362677Y-97055400D01*
X151837323Y-97055400D01*
X151322065Y-97157892D01*
X150836702Y-97358936D01*
X150399887Y-97650806D01*
X150028406Y-98022287D01*
X149736536Y-98459102D01*
X149535492Y-98944465D01*
X149433000Y-99459723D01*
X147172525Y-99459723D01*
X141866704Y-94153903D01*
X141842901Y-94124899D01*
X141727176Y-94029926D01*
X141595147Y-93959354D01*
X141451886Y-93915897D01*
X141340233Y-93904900D01*
X141340222Y-93904900D01*
X141302900Y-93901224D01*
X141265578Y-93904900D01*
X139242641Y-93904900D01*
X139287932Y-93795558D01*
X139345000Y-93508660D01*
X139345000Y-93216140D01*
X139287932Y-92929242D01*
X139175990Y-92658989D01*
X139013475Y-92415768D01*
X138806632Y-92208925D01*
X138632240Y-92092400D01*
X138651212Y-92079723D01*
X145613000Y-92079723D01*
X145613000Y-92605077D01*
X145715492Y-93120335D01*
X145916536Y-93605698D01*
X146208406Y-94042513D01*
X146579887Y-94413994D01*
X147016702Y-94705864D01*
X147502065Y-94906908D01*
X148017323Y-95009400D01*
X148542677Y-95009400D01*
X149057935Y-94906908D01*
X149543298Y-94705864D01*
X149980113Y-94413994D01*
X150351594Y-94042513D01*
X150643464Y-93605698D01*
X150844508Y-93120335D01*
X150947000Y-92605077D01*
X150947000Y-92079723D01*
X150844508Y-91564465D01*
X150643464Y-91079102D01*
X150351594Y-90642287D01*
X149980113Y-90270806D01*
X149543298Y-89978936D01*
X149057935Y-89777892D01*
X148542677Y-89675400D01*
X148017323Y-89675400D01*
X147502065Y-89777892D01*
X147016702Y-89978936D01*
X146579887Y-90270806D01*
X146208406Y-90642287D01*
X145916536Y-91079102D01*
X145715492Y-91564465D01*
X145613000Y-92079723D01*
X138651212Y-92079723D01*
X138806632Y-91975875D01*
X139013475Y-91769032D01*
X139175990Y-91525811D01*
X139287932Y-91255558D01*
X139345000Y-90968660D01*
X139345000Y-90676140D01*
X139287932Y-90389242D01*
X139175990Y-90118989D01*
X139013475Y-89875768D01*
X138806632Y-89668925D01*
X138624466Y-89547205D01*
X138741355Y-89477578D01*
X138957588Y-89282669D01*
X139131641Y-89049320D01*
X139256825Y-88786499D01*
X139301476Y-88639290D01*
X139180155Y-88409400D01*
X137987000Y-88409400D01*
X137987000Y-88429400D01*
X137733000Y-88429400D01*
X137733000Y-88409400D01*
X136539845Y-88409400D01*
X136418524Y-88639290D01*
X136463175Y-88786499D01*
X136588359Y-89049320D01*
X136762412Y-89282669D01*
X136978645Y-89477578D01*
X137095534Y-89547205D01*
X136913368Y-89668925D01*
X136706525Y-89875768D01*
X136544010Y-90118989D01*
X136432068Y-90389242D01*
X136375000Y-90676140D01*
X136375000Y-90968660D01*
X136432068Y-91255558D01*
X136544010Y-91525811D01*
X136706525Y-91769032D01*
X136913368Y-91975875D01*
X137087760Y-92092400D01*
X136913368Y-92208925D01*
X136706525Y-92415768D01*
X136544010Y-92658989D01*
X136432068Y-92929242D01*
X136375000Y-93216140D01*
X136375000Y-93508660D01*
X136432068Y-93795558D01*
X136477359Y-93904900D01*
X132662602Y-93904900D01*
X131799104Y-93041402D01*
X131775301Y-93012399D01*
X131659576Y-92917426D01*
X131527547Y-92846854D01*
X131384286Y-92803397D01*
X131342796Y-92799311D01*
X131213475Y-92605768D01*
X131006632Y-92398925D01*
X130832240Y-92282400D01*
X131006632Y-92165875D01*
X131213475Y-91959032D01*
X131375990Y-91715811D01*
X131487932Y-91445558D01*
X131545000Y-91158660D01*
X131545000Y-90866140D01*
X131487932Y-90579242D01*
X131375990Y-90308989D01*
X131213475Y-90065768D01*
X131006632Y-89858925D01*
X130824466Y-89737205D01*
X130941355Y-89667578D01*
X131157588Y-89472669D01*
X131331641Y-89239320D01*
X131456825Y-88976499D01*
X131501476Y-88829290D01*
X131380155Y-88599400D01*
X130187000Y-88599400D01*
X130187000Y-88619400D01*
X129933000Y-88619400D01*
X129933000Y-88599400D01*
X128739845Y-88599400D01*
X128618524Y-88829290D01*
X128663175Y-88976499D01*
X128788359Y-89239320D01*
X128962412Y-89472669D01*
X129178645Y-89667578D01*
X129295534Y-89737205D01*
X129113368Y-89858925D01*
X128906525Y-90065768D01*
X128744010Y-90308989D01*
X128632068Y-90579242D01*
X128575000Y-90866140D01*
X128575000Y-91158660D01*
X128632068Y-91445558D01*
X128667924Y-91532122D01*
X126550688Y-89414886D01*
X126681641Y-89239320D01*
X126806825Y-88976499D01*
X126851476Y-88829290D01*
X126730155Y-88599400D01*
X125537000Y-88599400D01*
X125537000Y-88619400D01*
X125283000Y-88619400D01*
X125283000Y-88599400D01*
X125263000Y-88599400D01*
X125263000Y-88345400D01*
X125283000Y-88345400D01*
X125283000Y-88325400D01*
X125537000Y-88325400D01*
X125537000Y-88345400D01*
X126730155Y-88345400D01*
X126851476Y-88115510D01*
X126833729Y-88057000D01*
X128636271Y-88057000D01*
X128618524Y-88115510D01*
X128739845Y-88345400D01*
X129933000Y-88345400D01*
X129933000Y-88325400D01*
X130187000Y-88325400D01*
X130187000Y-88345400D01*
X131380155Y-88345400D01*
X131501476Y-88115510D01*
X131456825Y-87968301D01*
X131331641Y-87705480D01*
X131225723Y-87563478D01*
X136949311Y-81839891D01*
X137087760Y-81932400D01*
X136913368Y-82048925D01*
X136706525Y-82255768D01*
X136544010Y-82498989D01*
X136432068Y-82769242D01*
X136375000Y-83056140D01*
X136375000Y-83348660D01*
X136432068Y-83635558D01*
X136544010Y-83905811D01*
X136706525Y-84149032D01*
X136913368Y-84355875D01*
X137087760Y-84472400D01*
X136913368Y-84588925D01*
X136706525Y-84795768D01*
X136544010Y-85038989D01*
X136432068Y-85309242D01*
X136375000Y-85596140D01*
X136375000Y-85888660D01*
X136432068Y-86175558D01*
X136544010Y-86445811D01*
X136706525Y-86689032D01*
X136913368Y-86895875D01*
X137095534Y-87017595D01*
X136978645Y-87087222D01*
X136762412Y-87282131D01*
X136588359Y-87515480D01*
X136463175Y-87778301D01*
X136418524Y-87925510D01*
X136539845Y-88155400D01*
X137733000Y-88155400D01*
X137733000Y-88135400D01*
X137987000Y-88135400D01*
X137987000Y-88155400D01*
X139180155Y-88155400D01*
X139301476Y-87925510D01*
X139300128Y-87921065D01*
X142965000Y-87921065D01*
X142965000Y-88203735D01*
X143020147Y-88480974D01*
X143128320Y-88742127D01*
X143285363Y-88977159D01*
X143485241Y-89177037D01*
X143720273Y-89334080D01*
X143981426Y-89442253D01*
X144258665Y-89497400D01*
X144541335Y-89497400D01*
X144818574Y-89442253D01*
X145079727Y-89334080D01*
X145314759Y-89177037D01*
X145514637Y-88977159D01*
X145671680Y-88742127D01*
X145779853Y-88480974D01*
X145835000Y-88203735D01*
X145835000Y-87921065D01*
X145779853Y-87643826D01*
X145671680Y-87382673D01*
X145514637Y-87147641D01*
X145314759Y-86947763D01*
X145079727Y-86790720D01*
X144818574Y-86682547D01*
X144541335Y-86627400D01*
X144258665Y-86627400D01*
X143981426Y-86682547D01*
X143720273Y-86790720D01*
X143485241Y-86947763D01*
X143285363Y-87147641D01*
X143128320Y-87382673D01*
X143020147Y-87643826D01*
X142965000Y-87921065D01*
X139300128Y-87921065D01*
X139256825Y-87778301D01*
X139131641Y-87515480D01*
X138957588Y-87282131D01*
X138741355Y-87087222D01*
X138624466Y-87017595D01*
X138806632Y-86895875D01*
X139013475Y-86689032D01*
X139175990Y-86445811D01*
X139287932Y-86175558D01*
X139345000Y-85888660D01*
X139345000Y-85596140D01*
X139287932Y-85309242D01*
X139175990Y-85038989D01*
X139013475Y-84795768D01*
X138806632Y-84588925D01*
X138632240Y-84472400D01*
X138806632Y-84355875D01*
X139013475Y-84149032D01*
X139175990Y-83905811D01*
X139287932Y-83635558D01*
X139345000Y-83348660D01*
X139345000Y-83056140D01*
X139287932Y-82769242D01*
X139175990Y-82498989D01*
X139013475Y-82255768D01*
X138806632Y-82048925D01*
X138632240Y-81932400D01*
X138806632Y-81815875D01*
X139013475Y-81609032D01*
X139175990Y-81365811D01*
X139287932Y-81095558D01*
X139345000Y-80808660D01*
X139345000Y-80516140D01*
X139287932Y-80229242D01*
X139256103Y-80152400D01*
X139604999Y-80152400D01*
X143442801Y-83990203D01*
X143285363Y-84147641D01*
X143128320Y-84382673D01*
X143020147Y-84643826D01*
X142965000Y-84921065D01*
X142965000Y-85203735D01*
X143020147Y-85480974D01*
X143128320Y-85742127D01*
X143285363Y-85977159D01*
X143485241Y-86177037D01*
X143720273Y-86334080D01*
X143981426Y-86442253D01*
X144258665Y-86497400D01*
X144541335Y-86497400D01*
X144818574Y-86442253D01*
X145079727Y-86334080D01*
X145314759Y-86177037D01*
X145514637Y-85977159D01*
X145671680Y-85742127D01*
X145779853Y-85480974D01*
X145835000Y-85203735D01*
X145835000Y-84921065D01*
X145779853Y-84643826D01*
X145671680Y-84382673D01*
X145634748Y-84327400D01*
X146084899Y-84327400D01*
X150330901Y-88573403D01*
X150354699Y-88602401D01*
X150383697Y-88626199D01*
X150470423Y-88697374D01*
X150600737Y-88767029D01*
X150602453Y-88767946D01*
X150745714Y-88811403D01*
X150798053Y-88816558D01*
X150905363Y-88977159D01*
X151105241Y-89177037D01*
X151340273Y-89334080D01*
X151601426Y-89442253D01*
X151878665Y-89497400D01*
X152161335Y-89497400D01*
X152438574Y-89442253D01*
X152699727Y-89334080D01*
X152934759Y-89177037D01*
X153134637Y-88977159D01*
X153291680Y-88742127D01*
X153399853Y-88480974D01*
X153455000Y-88203735D01*
X153455000Y-87921065D01*
X153399853Y-87643826D01*
X153291680Y-87382673D01*
X153134637Y-87147641D01*
X152934759Y-86947763D01*
X152699727Y-86790720D01*
X152438574Y-86682547D01*
X152161335Y-86627400D01*
X151878665Y-86627400D01*
X151601426Y-86682547D01*
X151340273Y-86790720D01*
X151105241Y-86947763D01*
X150980053Y-87072951D01*
X149318541Y-85411439D01*
X150628096Y-85411439D01*
X150668754Y-85545487D01*
X150788963Y-85799820D01*
X150956481Y-86025814D01*
X151164869Y-86214785D01*
X151406119Y-86359470D01*
X151670960Y-86454309D01*
X151893000Y-86333024D01*
X151893000Y-85189400D01*
X152147000Y-85189400D01*
X152147000Y-86333024D01*
X152369040Y-86454309D01*
X152633881Y-86359470D01*
X152875131Y-86214785D01*
X153083519Y-86025814D01*
X153251037Y-85799820D01*
X153371246Y-85545487D01*
X153411904Y-85411439D01*
X153289915Y-85189400D01*
X152147000Y-85189400D01*
X151893000Y-85189400D01*
X150750085Y-85189400D01*
X150628096Y-85411439D01*
X149318541Y-85411439D01*
X148620463Y-84713361D01*
X150628096Y-84713361D01*
X150750085Y-84935400D01*
X151893000Y-84935400D01*
X151893000Y-83791776D01*
X152147000Y-83791776D01*
X152147000Y-84935400D01*
X153289915Y-84935400D01*
X153411904Y-84713361D01*
X153371246Y-84579313D01*
X153251037Y-84324980D01*
X153083519Y-84098986D01*
X152875131Y-83910015D01*
X152633881Y-83765330D01*
X152369040Y-83670491D01*
X152147000Y-83791776D01*
X151893000Y-83791776D01*
X151670960Y-83670491D01*
X151406119Y-83765330D01*
X151164869Y-83910015D01*
X150956481Y-84098986D01*
X150788963Y-84324980D01*
X150668754Y-84579313D01*
X150628096Y-84713361D01*
X148620463Y-84713361D01*
X146963504Y-83056403D01*
X146939701Y-83027399D01*
X146823976Y-82932426D01*
X146691947Y-82861854D01*
X146548686Y-82818397D01*
X146437033Y-82807400D01*
X146437022Y-82807400D01*
X146399700Y-82803724D01*
X146362378Y-82807400D01*
X145634748Y-82807400D01*
X145671680Y-82752127D01*
X145779853Y-82490974D01*
X145793684Y-82421439D01*
X150628096Y-82421439D01*
X150668754Y-82555487D01*
X150788963Y-82809820D01*
X150956481Y-83035814D01*
X151164869Y-83224785D01*
X151406119Y-83369470D01*
X151670960Y-83464309D01*
X151893000Y-83343024D01*
X151893000Y-82199400D01*
X152147000Y-82199400D01*
X152147000Y-83343024D01*
X152369040Y-83464309D01*
X152633881Y-83369470D01*
X152875131Y-83224785D01*
X153083519Y-83035814D01*
X153251037Y-82809820D01*
X153371246Y-82555487D01*
X153411904Y-82421439D01*
X153289915Y-82199400D01*
X152147000Y-82199400D01*
X151893000Y-82199400D01*
X150750085Y-82199400D01*
X150628096Y-82421439D01*
X145793684Y-82421439D01*
X145835000Y-82213735D01*
X145835000Y-81931065D01*
X145793685Y-81723361D01*
X150628096Y-81723361D01*
X150750085Y-81945400D01*
X151893000Y-81945400D01*
X151893000Y-80801776D01*
X152147000Y-80801776D01*
X152147000Y-81945400D01*
X153289915Y-81945400D01*
X153411904Y-81723361D01*
X153371246Y-81589313D01*
X153251037Y-81334980D01*
X153083519Y-81108986D01*
X152875131Y-80920015D01*
X152633881Y-80775330D01*
X152369040Y-80680491D01*
X152147000Y-80801776D01*
X151893000Y-80801776D01*
X151670960Y-80680491D01*
X151406119Y-80775330D01*
X151164869Y-80920015D01*
X150956481Y-81108986D01*
X150788963Y-81334980D01*
X150668754Y-81589313D01*
X150628096Y-81723361D01*
X145793685Y-81723361D01*
X145779853Y-81653826D01*
X145671680Y-81392673D01*
X145514637Y-81157641D01*
X145314759Y-80957763D01*
X145079727Y-80800720D01*
X144818574Y-80692547D01*
X144541335Y-80637400D01*
X144258665Y-80637400D01*
X143981426Y-80692547D01*
X143720273Y-80800720D01*
X143485241Y-80957763D01*
X143285363Y-81157641D01*
X143128320Y-81392673D01*
X143089235Y-81487033D01*
X140483604Y-78881403D01*
X140459801Y-78852399D01*
X140344076Y-78757426D01*
X140212047Y-78686854D01*
X140068786Y-78643397D01*
X139957133Y-78632400D01*
X139957122Y-78632400D01*
X139919800Y-78628724D01*
X139882478Y-78632400D01*
X139256103Y-78632400D01*
X139287932Y-78555558D01*
X139345000Y-78268660D01*
X139345000Y-77976140D01*
X139287932Y-77689242D01*
X139175990Y-77418989D01*
X139013475Y-77175768D01*
X138806632Y-76968925D01*
X138632240Y-76852400D01*
X138806632Y-76735875D01*
X139013475Y-76529032D01*
X139175990Y-76285811D01*
X139287932Y-76015558D01*
X139345000Y-75728660D01*
X139345000Y-75436140D01*
X139287932Y-75149242D01*
X139175990Y-74878989D01*
X139013475Y-74635768D01*
X138806632Y-74428925D01*
X138624466Y-74307205D01*
X138741355Y-74237578D01*
X138957588Y-74042669D01*
X139131641Y-73809320D01*
X139241846Y-73577947D01*
X143561024Y-77897126D01*
G04 #@! TA.AperFunction,Conductor*
D24*
G36*
X143561024Y-77897126D02*
G01*
X143485241Y-77947763D01*
X143285363Y-78147641D01*
X143128320Y-78382673D01*
X143020147Y-78643826D01*
X142965000Y-78921065D01*
X142965000Y-79203735D01*
X143020147Y-79480974D01*
X143128320Y-79742127D01*
X143285363Y-79977159D01*
X143485241Y-80177037D01*
X143720273Y-80334080D01*
X143981426Y-80442253D01*
X144258665Y-80497400D01*
X144541335Y-80497400D01*
X144818574Y-80442253D01*
X145079727Y-80334080D01*
X145314759Y-80177037D01*
X145514637Y-79977159D01*
X145671680Y-79742127D01*
X145779853Y-79480974D01*
X145835000Y-79203735D01*
X145835000Y-78921065D01*
X145779853Y-78643826D01*
X145671680Y-78382673D01*
X145584635Y-78252400D01*
X150835365Y-78252400D01*
X150748320Y-78382673D01*
X150640147Y-78643826D01*
X150585000Y-78921065D01*
X150585000Y-79203735D01*
X150640147Y-79480974D01*
X150748320Y-79742127D01*
X150905363Y-79977159D01*
X151105241Y-80177037D01*
X151340273Y-80334080D01*
X151601426Y-80442253D01*
X151878665Y-80497400D01*
X152161335Y-80497400D01*
X152438574Y-80442253D01*
X152566438Y-80389290D01*
X158348524Y-80389290D01*
X158393175Y-80536499D01*
X158518359Y-80799320D01*
X158692412Y-81032669D01*
X158908645Y-81227578D01*
X159158748Y-81376557D01*
X159433109Y-81473881D01*
X159663000Y-81353214D01*
X159663000Y-80159400D01*
X159917000Y-80159400D01*
X159917000Y-81353214D01*
X160146891Y-81473881D01*
X160421252Y-81376557D01*
X160671355Y-81227578D01*
X160887588Y-81032669D01*
X161061641Y-80799320D01*
X161186825Y-80536499D01*
X161231476Y-80389290D01*
X161110155Y-80159400D01*
X159917000Y-80159400D01*
X159663000Y-80159400D01*
X158469845Y-80159400D01*
X158348524Y-80389290D01*
X152566438Y-80389290D01*
X152699727Y-80334080D01*
X152934759Y-80177037D01*
X153134637Y-79977159D01*
X153291680Y-79742127D01*
X153399853Y-79480974D01*
X153455000Y-79203735D01*
X153455000Y-78921065D01*
X153399853Y-78643826D01*
X153291680Y-78382673D01*
X153204635Y-78252400D01*
X158511822Y-78252400D01*
X158636525Y-78439032D01*
X158843368Y-78645875D01*
X159025534Y-78767595D01*
X158908645Y-78837222D01*
X158692412Y-79032131D01*
X158518359Y-79265480D01*
X158393175Y-79528301D01*
X158348524Y-79675510D01*
X158469845Y-79905400D01*
X159663000Y-79905400D01*
X159663000Y-79885400D01*
X159917000Y-79885400D01*
X159917000Y-79905400D01*
X161110155Y-79905400D01*
X161231476Y-79675510D01*
X161186825Y-79528301D01*
X161061641Y-79265480D01*
X160887588Y-79032131D01*
X160671355Y-78837222D01*
X160554466Y-78767595D01*
X160736632Y-78645875D01*
X160943475Y-78439032D01*
X161105990Y-78195811D01*
X161217932Y-77925558D01*
X161275000Y-77638660D01*
X161275000Y-77346140D01*
X161217932Y-77059242D01*
X161208309Y-77036011D01*
X163431288Y-79258991D01*
X163301958Y-79452547D01*
X163188990Y-79725275D01*
X163131400Y-80014801D01*
X163131400Y-80309999D01*
X163188990Y-80599525D01*
X163301958Y-80872253D01*
X163465961Y-81117702D01*
X163674698Y-81326439D01*
X163833281Y-81432400D01*
X163674698Y-81538361D01*
X163465961Y-81747098D01*
X163301958Y-81992547D01*
X163188990Y-82265275D01*
X163131400Y-82554801D01*
X163131400Y-82849999D01*
X163188990Y-83139525D01*
X163301958Y-83412253D01*
X163465961Y-83657702D01*
X163674698Y-83866439D01*
X163833281Y-83972400D01*
X163674698Y-84078361D01*
X163465961Y-84287098D01*
X163301958Y-84532547D01*
X163188990Y-84805275D01*
X163131400Y-85094801D01*
X163131400Y-85389999D01*
X163188990Y-85679525D01*
X163301958Y-85952253D01*
X163446429Y-86168470D01*
X161127920Y-88486979D01*
X160993475Y-88285768D01*
X160861620Y-88153913D01*
X160934180Y-88131902D01*
X161044494Y-88072937D01*
X161141185Y-87993585D01*
X161220537Y-87896894D01*
X161279502Y-87786580D01*
X161315812Y-87666882D01*
X161328072Y-87542400D01*
X161328072Y-85842400D01*
X161315812Y-85717918D01*
X161279502Y-85598220D01*
X161220537Y-85487906D01*
X161141185Y-85391215D01*
X161044494Y-85311863D01*
X160934180Y-85252898D01*
X160814482Y-85216588D01*
X160690000Y-85204328D01*
X158990000Y-85204328D01*
X158865518Y-85216588D01*
X158745820Y-85252898D01*
X158635506Y-85311863D01*
X158538815Y-85391215D01*
X158459463Y-85487906D01*
X158400498Y-85598220D01*
X158364188Y-85717918D01*
X158351928Y-85842400D01*
X158351928Y-87542400D01*
X158364188Y-87666882D01*
X158400498Y-87786580D01*
X158459463Y-87896894D01*
X158538815Y-87993585D01*
X158635506Y-88072937D01*
X158745820Y-88131902D01*
X158818380Y-88153913D01*
X158686525Y-88285768D01*
X158524010Y-88528989D01*
X158412068Y-88799242D01*
X158355000Y-89086140D01*
X158355000Y-89378660D01*
X158412068Y-89665558D01*
X158524010Y-89935811D01*
X158686525Y-90179032D01*
X158893368Y-90385875D01*
X159067760Y-90502400D01*
X158893368Y-90618925D01*
X158686525Y-90825768D01*
X158524010Y-91068989D01*
X158412068Y-91339242D01*
X158355000Y-91626140D01*
X158355000Y-91918660D01*
X158412068Y-92205558D01*
X158524010Y-92475811D01*
X158686525Y-92719032D01*
X158893368Y-92925875D01*
X159067760Y-93042400D01*
X158893368Y-93158925D01*
X158686525Y-93365768D01*
X158524010Y-93608989D01*
X158412068Y-93879242D01*
X158355000Y-94166140D01*
X158355000Y-94458660D01*
X158412068Y-94745558D01*
X158524010Y-95015811D01*
X158662469Y-95223029D01*
X158153698Y-95731801D01*
X158124700Y-95755599D01*
X158100902Y-95784597D01*
X158100901Y-95784598D01*
X158029726Y-95871324D01*
X157959154Y-96003354D01*
X157951769Y-96027701D01*
X157915698Y-96146614D01*
X157907093Y-96233985D01*
X157901024Y-96295600D01*
X157904701Y-96332932D01*
X157904700Y-99846677D01*
X157901024Y-99884000D01*
X157904700Y-99921322D01*
X157904700Y-99921332D01*
X157915697Y-100032985D01*
X157948585Y-100141403D01*
X157959154Y-100176246D01*
X158029726Y-100308276D01*
X158051495Y-100334801D01*
X158124699Y-100424001D01*
X158153702Y-100447803D01*
X158697817Y-100991919D01*
X158568359Y-101165480D01*
X158443175Y-101428301D01*
X158398524Y-101575510D01*
X158519845Y-101805400D01*
X159713000Y-101805400D01*
X159713000Y-101785400D01*
X159967000Y-101785400D01*
X159967000Y-101805400D01*
X161160155Y-101805400D01*
X161281476Y-101575510D01*
X161236825Y-101428301D01*
X161234014Y-101422400D01*
X161553199Y-101422400D01*
X162475300Y-102344502D01*
X162499099Y-102373501D01*
X162528097Y-102397299D01*
X162614824Y-102468474D01*
X162746853Y-102539046D01*
X162890114Y-102582503D01*
X163039100Y-102597177D01*
X163076433Y-102593500D01*
X163187354Y-102593500D01*
X163131400Y-102874801D01*
X163131400Y-103169999D01*
X163188990Y-103459525D01*
X163301958Y-103732253D01*
X163465961Y-103977702D01*
X163674698Y-104186439D01*
X163833281Y-104292400D01*
X163674698Y-104398361D01*
X163465961Y-104607098D01*
X163301958Y-104852547D01*
X163188990Y-105125275D01*
X163131400Y-105414801D01*
X163131400Y-105709999D01*
X163188990Y-105999525D01*
X163252769Y-106153500D01*
X153866302Y-106153500D01*
X147172525Y-99459723D01*
X149433000Y-99459723D01*
X149433000Y-99985077D01*
X149535492Y-100500335D01*
X149736536Y-100985698D01*
X150028406Y-101422513D01*
X150399887Y-101793994D01*
X150836702Y-102085864D01*
X151322065Y-102286908D01*
X151837323Y-102389400D01*
X152362677Y-102389400D01*
X152865959Y-102289290D01*
X158398524Y-102289290D01*
X158443175Y-102436499D01*
X158568359Y-102699320D01*
X158742412Y-102932669D01*
X158958645Y-103127578D01*
X159208748Y-103276557D01*
X159483109Y-103373881D01*
X159713000Y-103253214D01*
X159713000Y-102059400D01*
X159967000Y-102059400D01*
X159967000Y-103253214D01*
X160196891Y-103373881D01*
X160471252Y-103276557D01*
X160721355Y-103127578D01*
X160937588Y-102932669D01*
X161111641Y-102699320D01*
X161236825Y-102436499D01*
X161281476Y-102289290D01*
X161160155Y-102059400D01*
X159967000Y-102059400D01*
X159713000Y-102059400D01*
X158519845Y-102059400D01*
X158398524Y-102289290D01*
X152865959Y-102289290D01*
X152877935Y-102286908D01*
X153363298Y-102085864D01*
X153800113Y-101793994D01*
X154171594Y-101422513D01*
X154463464Y-100985698D01*
X154664508Y-100500335D01*
X154767000Y-99985077D01*
X154767000Y-99459723D01*
X154664508Y-98944465D01*
X154463464Y-98459102D01*
X154171594Y-98022287D01*
X153800113Y-97650806D01*
X153363298Y-97358936D01*
X152877935Y-97157892D01*
X152362677Y-97055400D01*
X151837323Y-97055400D01*
X151322065Y-97157892D01*
X150836702Y-97358936D01*
X150399887Y-97650806D01*
X150028406Y-98022287D01*
X149736536Y-98459102D01*
X149535492Y-98944465D01*
X149433000Y-99459723D01*
X147172525Y-99459723D01*
X141866704Y-94153903D01*
X141842901Y-94124899D01*
X141727176Y-94029926D01*
X141595147Y-93959354D01*
X141451886Y-93915897D01*
X141340233Y-93904900D01*
X141340222Y-93904900D01*
X141302900Y-93901224D01*
X141265578Y-93904900D01*
X139242641Y-93904900D01*
X139287932Y-93795558D01*
X139345000Y-93508660D01*
X139345000Y-93216140D01*
X139287932Y-92929242D01*
X139175990Y-92658989D01*
X139013475Y-92415768D01*
X138806632Y-92208925D01*
X138632240Y-92092400D01*
X138651212Y-92079723D01*
X145613000Y-92079723D01*
X145613000Y-92605077D01*
X145715492Y-93120335D01*
X145916536Y-93605698D01*
X146208406Y-94042513D01*
X146579887Y-94413994D01*
X147016702Y-94705864D01*
X147502065Y-94906908D01*
X148017323Y-95009400D01*
X148542677Y-95009400D01*
X149057935Y-94906908D01*
X149543298Y-94705864D01*
X149980113Y-94413994D01*
X150351594Y-94042513D01*
X150643464Y-93605698D01*
X150844508Y-93120335D01*
X150947000Y-92605077D01*
X150947000Y-92079723D01*
X150844508Y-91564465D01*
X150643464Y-91079102D01*
X150351594Y-90642287D01*
X149980113Y-90270806D01*
X149543298Y-89978936D01*
X149057935Y-89777892D01*
X148542677Y-89675400D01*
X148017323Y-89675400D01*
X147502065Y-89777892D01*
X147016702Y-89978936D01*
X146579887Y-90270806D01*
X146208406Y-90642287D01*
X145916536Y-91079102D01*
X145715492Y-91564465D01*
X145613000Y-92079723D01*
X138651212Y-92079723D01*
X138806632Y-91975875D01*
X139013475Y-91769032D01*
X139175990Y-91525811D01*
X139287932Y-91255558D01*
X139345000Y-90968660D01*
X139345000Y-90676140D01*
X139287932Y-90389242D01*
X139175990Y-90118989D01*
X139013475Y-89875768D01*
X138806632Y-89668925D01*
X138624466Y-89547205D01*
X138741355Y-89477578D01*
X138957588Y-89282669D01*
X139131641Y-89049320D01*
X139256825Y-88786499D01*
X139301476Y-88639290D01*
X139180155Y-88409400D01*
X137987000Y-88409400D01*
X137987000Y-88429400D01*
X137733000Y-88429400D01*
X137733000Y-88409400D01*
X136539845Y-88409400D01*
X136418524Y-88639290D01*
X136463175Y-88786499D01*
X136588359Y-89049320D01*
X136762412Y-89282669D01*
X136978645Y-89477578D01*
X137095534Y-89547205D01*
X136913368Y-89668925D01*
X136706525Y-89875768D01*
X136544010Y-90118989D01*
X136432068Y-90389242D01*
X136375000Y-90676140D01*
X136375000Y-90968660D01*
X136432068Y-91255558D01*
X136544010Y-91525811D01*
X136706525Y-91769032D01*
X136913368Y-91975875D01*
X137087760Y-92092400D01*
X136913368Y-92208925D01*
X136706525Y-92415768D01*
X136544010Y-92658989D01*
X136432068Y-92929242D01*
X136375000Y-93216140D01*
X136375000Y-93508660D01*
X136432068Y-93795558D01*
X136477359Y-93904900D01*
X132662602Y-93904900D01*
X131799104Y-93041402D01*
X131775301Y-93012399D01*
X131659576Y-92917426D01*
X131527547Y-92846854D01*
X131384286Y-92803397D01*
X131342796Y-92799311D01*
X131213475Y-92605768D01*
X131006632Y-92398925D01*
X130832240Y-92282400D01*
X131006632Y-92165875D01*
X131213475Y-91959032D01*
X131375990Y-91715811D01*
X131487932Y-91445558D01*
X131545000Y-91158660D01*
X131545000Y-90866140D01*
X131487932Y-90579242D01*
X131375990Y-90308989D01*
X131213475Y-90065768D01*
X131006632Y-89858925D01*
X130824466Y-89737205D01*
X130941355Y-89667578D01*
X131157588Y-89472669D01*
X131331641Y-89239320D01*
X131456825Y-88976499D01*
X131501476Y-88829290D01*
X131380155Y-88599400D01*
X130187000Y-88599400D01*
X130187000Y-88619400D01*
X129933000Y-88619400D01*
X129933000Y-88599400D01*
X128739845Y-88599400D01*
X128618524Y-88829290D01*
X128663175Y-88976499D01*
X128788359Y-89239320D01*
X128962412Y-89472669D01*
X129178645Y-89667578D01*
X129295534Y-89737205D01*
X129113368Y-89858925D01*
X128906525Y-90065768D01*
X128744010Y-90308989D01*
X128632068Y-90579242D01*
X128575000Y-90866140D01*
X128575000Y-91158660D01*
X128632068Y-91445558D01*
X128667924Y-91532122D01*
X126550688Y-89414886D01*
X126681641Y-89239320D01*
X126806825Y-88976499D01*
X126851476Y-88829290D01*
X126730155Y-88599400D01*
X125537000Y-88599400D01*
X125537000Y-88619400D01*
X125283000Y-88619400D01*
X125283000Y-88599400D01*
X125263000Y-88599400D01*
X125263000Y-88345400D01*
X125283000Y-88345400D01*
X125283000Y-88325400D01*
X125537000Y-88325400D01*
X125537000Y-88345400D01*
X126730155Y-88345400D01*
X126851476Y-88115510D01*
X126833729Y-88057000D01*
X128636271Y-88057000D01*
X128618524Y-88115510D01*
X128739845Y-88345400D01*
X129933000Y-88345400D01*
X129933000Y-88325400D01*
X130187000Y-88325400D01*
X130187000Y-88345400D01*
X131380155Y-88345400D01*
X131501476Y-88115510D01*
X131456825Y-87968301D01*
X131331641Y-87705480D01*
X131225723Y-87563478D01*
X136949311Y-81839891D01*
X137087760Y-81932400D01*
X136913368Y-82048925D01*
X136706525Y-82255768D01*
X136544010Y-82498989D01*
X136432068Y-82769242D01*
X136375000Y-83056140D01*
X136375000Y-83348660D01*
X136432068Y-83635558D01*
X136544010Y-83905811D01*
X136706525Y-84149032D01*
X136913368Y-84355875D01*
X137087760Y-84472400D01*
X136913368Y-84588925D01*
X136706525Y-84795768D01*
X136544010Y-85038989D01*
X136432068Y-85309242D01*
X136375000Y-85596140D01*
X136375000Y-85888660D01*
X136432068Y-86175558D01*
X136544010Y-86445811D01*
X136706525Y-86689032D01*
X136913368Y-86895875D01*
X137095534Y-87017595D01*
X136978645Y-87087222D01*
X136762412Y-87282131D01*
X136588359Y-87515480D01*
X136463175Y-87778301D01*
X136418524Y-87925510D01*
X136539845Y-88155400D01*
X137733000Y-88155400D01*
X137733000Y-88135400D01*
X137987000Y-88135400D01*
X137987000Y-88155400D01*
X139180155Y-88155400D01*
X139301476Y-87925510D01*
X139300128Y-87921065D01*
X142965000Y-87921065D01*
X142965000Y-88203735D01*
X143020147Y-88480974D01*
X143128320Y-88742127D01*
X143285363Y-88977159D01*
X143485241Y-89177037D01*
X143720273Y-89334080D01*
X143981426Y-89442253D01*
X144258665Y-89497400D01*
X144541335Y-89497400D01*
X144818574Y-89442253D01*
X145079727Y-89334080D01*
X145314759Y-89177037D01*
X145514637Y-88977159D01*
X145671680Y-88742127D01*
X145779853Y-88480974D01*
X145835000Y-88203735D01*
X145835000Y-87921065D01*
X145779853Y-87643826D01*
X145671680Y-87382673D01*
X145514637Y-87147641D01*
X145314759Y-86947763D01*
X145079727Y-86790720D01*
X144818574Y-86682547D01*
X144541335Y-86627400D01*
X144258665Y-86627400D01*
X143981426Y-86682547D01*
X143720273Y-86790720D01*
X143485241Y-86947763D01*
X143285363Y-87147641D01*
X143128320Y-87382673D01*
X143020147Y-87643826D01*
X142965000Y-87921065D01*
X139300128Y-87921065D01*
X139256825Y-87778301D01*
X139131641Y-87515480D01*
X138957588Y-87282131D01*
X138741355Y-87087222D01*
X138624466Y-87017595D01*
X138806632Y-86895875D01*
X139013475Y-86689032D01*
X139175990Y-86445811D01*
X139287932Y-86175558D01*
X139345000Y-85888660D01*
X139345000Y-85596140D01*
X139287932Y-85309242D01*
X139175990Y-85038989D01*
X139013475Y-84795768D01*
X138806632Y-84588925D01*
X138632240Y-84472400D01*
X138806632Y-84355875D01*
X139013475Y-84149032D01*
X139175990Y-83905811D01*
X139287932Y-83635558D01*
X139345000Y-83348660D01*
X139345000Y-83056140D01*
X139287932Y-82769242D01*
X139175990Y-82498989D01*
X139013475Y-82255768D01*
X138806632Y-82048925D01*
X138632240Y-81932400D01*
X138806632Y-81815875D01*
X139013475Y-81609032D01*
X139175990Y-81365811D01*
X139287932Y-81095558D01*
X139345000Y-80808660D01*
X139345000Y-80516140D01*
X139287932Y-80229242D01*
X139256103Y-80152400D01*
X139604999Y-80152400D01*
X143442801Y-83990203D01*
X143285363Y-84147641D01*
X143128320Y-84382673D01*
X143020147Y-84643826D01*
X142965000Y-84921065D01*
X142965000Y-85203735D01*
X143020147Y-85480974D01*
X143128320Y-85742127D01*
X143285363Y-85977159D01*
X143485241Y-86177037D01*
X143720273Y-86334080D01*
X143981426Y-86442253D01*
X144258665Y-86497400D01*
X144541335Y-86497400D01*
X144818574Y-86442253D01*
X145079727Y-86334080D01*
X145314759Y-86177037D01*
X145514637Y-85977159D01*
X145671680Y-85742127D01*
X145779853Y-85480974D01*
X145835000Y-85203735D01*
X145835000Y-84921065D01*
X145779853Y-84643826D01*
X145671680Y-84382673D01*
X145634748Y-84327400D01*
X146084899Y-84327400D01*
X150330901Y-88573403D01*
X150354699Y-88602401D01*
X150383697Y-88626199D01*
X150470423Y-88697374D01*
X150600737Y-88767029D01*
X150602453Y-88767946D01*
X150745714Y-88811403D01*
X150798053Y-88816558D01*
X150905363Y-88977159D01*
X151105241Y-89177037D01*
X151340273Y-89334080D01*
X151601426Y-89442253D01*
X151878665Y-89497400D01*
X152161335Y-89497400D01*
X152438574Y-89442253D01*
X152699727Y-89334080D01*
X152934759Y-89177037D01*
X153134637Y-88977159D01*
X153291680Y-88742127D01*
X153399853Y-88480974D01*
X153455000Y-88203735D01*
X153455000Y-87921065D01*
X153399853Y-87643826D01*
X153291680Y-87382673D01*
X153134637Y-87147641D01*
X152934759Y-86947763D01*
X152699727Y-86790720D01*
X152438574Y-86682547D01*
X152161335Y-86627400D01*
X151878665Y-86627400D01*
X151601426Y-86682547D01*
X151340273Y-86790720D01*
X151105241Y-86947763D01*
X150980053Y-87072951D01*
X149318541Y-85411439D01*
X150628096Y-85411439D01*
X150668754Y-85545487D01*
X150788963Y-85799820D01*
X150956481Y-86025814D01*
X151164869Y-86214785D01*
X151406119Y-86359470D01*
X151670960Y-86454309D01*
X151893000Y-86333024D01*
X151893000Y-85189400D01*
X152147000Y-85189400D01*
X152147000Y-86333024D01*
X152369040Y-86454309D01*
X152633881Y-86359470D01*
X152875131Y-86214785D01*
X153083519Y-86025814D01*
X153251037Y-85799820D01*
X153371246Y-85545487D01*
X153411904Y-85411439D01*
X153289915Y-85189400D01*
X152147000Y-85189400D01*
X151893000Y-85189400D01*
X150750085Y-85189400D01*
X150628096Y-85411439D01*
X149318541Y-85411439D01*
X148620463Y-84713361D01*
X150628096Y-84713361D01*
X150750085Y-84935400D01*
X151893000Y-84935400D01*
X151893000Y-83791776D01*
X152147000Y-83791776D01*
X152147000Y-84935400D01*
X153289915Y-84935400D01*
X153411904Y-84713361D01*
X153371246Y-84579313D01*
X153251037Y-84324980D01*
X153083519Y-84098986D01*
X152875131Y-83910015D01*
X152633881Y-83765330D01*
X152369040Y-83670491D01*
X152147000Y-83791776D01*
X151893000Y-83791776D01*
X151670960Y-83670491D01*
X151406119Y-83765330D01*
X151164869Y-83910015D01*
X150956481Y-84098986D01*
X150788963Y-84324980D01*
X150668754Y-84579313D01*
X150628096Y-84713361D01*
X148620463Y-84713361D01*
X146963504Y-83056403D01*
X146939701Y-83027399D01*
X146823976Y-82932426D01*
X146691947Y-82861854D01*
X146548686Y-82818397D01*
X146437033Y-82807400D01*
X146437022Y-82807400D01*
X146399700Y-82803724D01*
X146362378Y-82807400D01*
X145634748Y-82807400D01*
X145671680Y-82752127D01*
X145779853Y-82490974D01*
X145793684Y-82421439D01*
X150628096Y-82421439D01*
X150668754Y-82555487D01*
X150788963Y-82809820D01*
X150956481Y-83035814D01*
X151164869Y-83224785D01*
X151406119Y-83369470D01*
X151670960Y-83464309D01*
X151893000Y-83343024D01*
X151893000Y-82199400D01*
X152147000Y-82199400D01*
X152147000Y-83343024D01*
X152369040Y-83464309D01*
X152633881Y-83369470D01*
X152875131Y-83224785D01*
X153083519Y-83035814D01*
X153251037Y-82809820D01*
X153371246Y-82555487D01*
X153411904Y-82421439D01*
X153289915Y-82199400D01*
X152147000Y-82199400D01*
X151893000Y-82199400D01*
X150750085Y-82199400D01*
X150628096Y-82421439D01*
X145793684Y-82421439D01*
X145835000Y-82213735D01*
X145835000Y-81931065D01*
X145793685Y-81723361D01*
X150628096Y-81723361D01*
X150750085Y-81945400D01*
X151893000Y-81945400D01*
X151893000Y-80801776D01*
X152147000Y-80801776D01*
X152147000Y-81945400D01*
X153289915Y-81945400D01*
X153411904Y-81723361D01*
X153371246Y-81589313D01*
X153251037Y-81334980D01*
X153083519Y-81108986D01*
X152875131Y-80920015D01*
X152633881Y-80775330D01*
X152369040Y-80680491D01*
X152147000Y-80801776D01*
X151893000Y-80801776D01*
X151670960Y-80680491D01*
X151406119Y-80775330D01*
X151164869Y-80920015D01*
X150956481Y-81108986D01*
X150788963Y-81334980D01*
X150668754Y-81589313D01*
X150628096Y-81723361D01*
X145793685Y-81723361D01*
X145779853Y-81653826D01*
X145671680Y-81392673D01*
X145514637Y-81157641D01*
X145314759Y-80957763D01*
X145079727Y-80800720D01*
X144818574Y-80692547D01*
X144541335Y-80637400D01*
X144258665Y-80637400D01*
X143981426Y-80692547D01*
X143720273Y-80800720D01*
X143485241Y-80957763D01*
X143285363Y-81157641D01*
X143128320Y-81392673D01*
X143089235Y-81487033D01*
X140483604Y-78881403D01*
X140459801Y-78852399D01*
X140344076Y-78757426D01*
X140212047Y-78686854D01*
X140068786Y-78643397D01*
X139957133Y-78632400D01*
X139957122Y-78632400D01*
X139919800Y-78628724D01*
X139882478Y-78632400D01*
X139256103Y-78632400D01*
X139287932Y-78555558D01*
X139345000Y-78268660D01*
X139345000Y-77976140D01*
X139287932Y-77689242D01*
X139175990Y-77418989D01*
X139013475Y-77175768D01*
X138806632Y-76968925D01*
X138632240Y-76852400D01*
X138806632Y-76735875D01*
X139013475Y-76529032D01*
X139175990Y-76285811D01*
X139287932Y-76015558D01*
X139345000Y-75728660D01*
X139345000Y-75436140D01*
X139287932Y-75149242D01*
X139175990Y-74878989D01*
X139013475Y-74635768D01*
X138806632Y-74428925D01*
X138624466Y-74307205D01*
X138741355Y-74237578D01*
X138957588Y-74042669D01*
X139131641Y-73809320D01*
X139241846Y-73577947D01*
X143561024Y-77897126D01*
G37*
G04 #@! TD.AperFunction*
D23*
X123831928Y-66912400D02*
X123844188Y-67036882D01*
X123880498Y-67156580D01*
X123939463Y-67266894D01*
X124018815Y-67363585D01*
X124115506Y-67442937D01*
X124225820Y-67501902D01*
X124298380Y-67523913D01*
X124166525Y-67655768D01*
X124004010Y-67898989D01*
X123892068Y-68169242D01*
X123835000Y-68456140D01*
X123835000Y-68748660D01*
X123892068Y-69035558D01*
X124004010Y-69305811D01*
X124166525Y-69549032D01*
X124373368Y-69755875D01*
X124555534Y-69877595D01*
X124438645Y-69947222D01*
X124222412Y-70142131D01*
X124048359Y-70375480D01*
X123923175Y-70638301D01*
X123878524Y-70785510D01*
X123999845Y-71015400D01*
X125193000Y-71015400D01*
X125193000Y-70995400D01*
X125447000Y-70995400D01*
X125447000Y-71015400D01*
X126640155Y-71015400D01*
X126761476Y-70785510D01*
X126716825Y-70638301D01*
X126591641Y-70375480D01*
X126417588Y-70142131D01*
X126201355Y-69947222D01*
X126084466Y-69877595D01*
X126266632Y-69755875D01*
X126473475Y-69549032D01*
X126635990Y-69305811D01*
X126747932Y-69035558D01*
X126805000Y-68748660D01*
X126805000Y-68457501D01*
X127490900Y-69143402D01*
X127514699Y-69172401D01*
X127543697Y-69196199D01*
X127630424Y-69267374D01*
X127762453Y-69337946D01*
X127905714Y-69381403D01*
X127947204Y-69385489D01*
X128076525Y-69579032D01*
X128283368Y-69785875D01*
X128465534Y-69907595D01*
X128348645Y-69977222D01*
X128132412Y-70172131D01*
X127958359Y-70405480D01*
X127833175Y-70668301D01*
X127788524Y-70815510D01*
X127909845Y-71045400D01*
X129103000Y-71045400D01*
X129103000Y-71025400D01*
X129357000Y-71025400D01*
X129357000Y-71045400D01*
X130550155Y-71045400D01*
X130671476Y-70815510D01*
X130626825Y-70668301D01*
X130501641Y-70405480D01*
X130327588Y-70172131D01*
X130111355Y-69977222D01*
X129994466Y-69907595D01*
X130176632Y-69785875D01*
X130383475Y-69579032D01*
X130508178Y-69392400D01*
X134499899Y-69392400D01*
X136120901Y-71013403D01*
X136144699Y-71042401D01*
X136260424Y-71137374D01*
X136371928Y-71196975D01*
X136371928Y-71352400D01*
X136384188Y-71476882D01*
X136420498Y-71596580D01*
X136479463Y-71706894D01*
X136558815Y-71803585D01*
X136655506Y-71882937D01*
X136765820Y-71941902D01*
X136846466Y-71966366D01*
X136762412Y-72042131D01*
X136588359Y-72275480D01*
X136463175Y-72538301D01*
X136418524Y-72685510D01*
X136539845Y-72915400D01*
X137733000Y-72915400D01*
X137733000Y-72895400D01*
X137987000Y-72895400D01*
X137987000Y-72915400D01*
X138007000Y-72915400D01*
X138007000Y-73169400D01*
X137987000Y-73169400D01*
X137987000Y-73189400D01*
X137733000Y-73189400D01*
X137733000Y-73169400D01*
X136539845Y-73169400D01*
X136418524Y-73399290D01*
X136463175Y-73546499D01*
X136588359Y-73809320D01*
X136762412Y-74042669D01*
X136978645Y-74237578D01*
X137095534Y-74307205D01*
X136913368Y-74428925D01*
X136706525Y-74635768D01*
X136544010Y-74878989D01*
X136432068Y-75149242D01*
X136375000Y-75436140D01*
X136375000Y-75728660D01*
X136432068Y-76015558D01*
X136544010Y-76285811D01*
X136706525Y-76529032D01*
X136913368Y-76735875D01*
X137087760Y-76852400D01*
X136913368Y-76968925D01*
X136706525Y-77175768D01*
X136544010Y-77418989D01*
X136432068Y-77689242D01*
X136375000Y-77976140D01*
X136375000Y-78268660D01*
X136432068Y-78555558D01*
X136463897Y-78632400D01*
X135578002Y-78632400D01*
X131417004Y-74471403D01*
X131393201Y-74442399D01*
X131277476Y-74347426D01*
X131145447Y-74276854D01*
X131002186Y-74233397D01*
X130890533Y-74222400D01*
X130890522Y-74222400D01*
X130853200Y-74218724D01*
X130815878Y-74222400D01*
X130626103Y-74222400D01*
X130657932Y-74145558D01*
X130715000Y-73858660D01*
X130715000Y-73566140D01*
X130657932Y-73279242D01*
X130545990Y-73008989D01*
X130383475Y-72765768D01*
X130176632Y-72558925D01*
X129994466Y-72437205D01*
X130111355Y-72367578D01*
X130327588Y-72172669D01*
X130501641Y-71939320D01*
X130626825Y-71676499D01*
X130671476Y-71529290D01*
X130550155Y-71299400D01*
X129357000Y-71299400D01*
X129357000Y-71319400D01*
X129103000Y-71319400D01*
X129103000Y-71299400D01*
X127909845Y-71299400D01*
X127788524Y-71529290D01*
X127833175Y-71676499D01*
X127958359Y-71939320D01*
X128132412Y-72172669D01*
X128348645Y-72367578D01*
X128465534Y-72437205D01*
X128283368Y-72558925D01*
X128076525Y-72765768D01*
X127914010Y-73008989D01*
X127851677Y-73159475D01*
X126679904Y-71987703D01*
X126656101Y-71958699D01*
X126592847Y-71906788D01*
X126716825Y-71646499D01*
X126761476Y-71499290D01*
X126640155Y-71269400D01*
X125447000Y-71269400D01*
X125447000Y-71289400D01*
X125193000Y-71289400D01*
X125193000Y-71269400D01*
X123999845Y-71269400D01*
X123878524Y-71499290D01*
X123923175Y-71646499D01*
X124048359Y-71909320D01*
X124152183Y-72048515D01*
X119791590Y-76409109D01*
X119706719Y-76352400D01*
X119865302Y-76246439D01*
X120074039Y-76037702D01*
X120238042Y-75792253D01*
X120351010Y-75519525D01*
X120408600Y-75229999D01*
X120408600Y-74934801D01*
X120351010Y-74645275D01*
X120238042Y-74372547D01*
X120074039Y-74127098D01*
X119865302Y-73918361D01*
X119706719Y-73812400D01*
X119865302Y-73706439D01*
X120074039Y-73497702D01*
X120238042Y-73252253D01*
X120351010Y-72979525D01*
X120408600Y-72689999D01*
X120408600Y-72394801D01*
X120351010Y-72105275D01*
X120238042Y-71832547D01*
X120074039Y-71587098D01*
X119865302Y-71378361D01*
X119706719Y-71272400D01*
X119865302Y-71166439D01*
X120074039Y-70957702D01*
X120238042Y-70712253D01*
X120351010Y-70439525D01*
X120408600Y-70149999D01*
X120408600Y-69854801D01*
X120351010Y-69565275D01*
X120238042Y-69292547D01*
X120074039Y-69047098D01*
X119865302Y-68838361D01*
X119706719Y-68732400D01*
X119865302Y-68626439D01*
X120074039Y-68417702D01*
X120209347Y-68215199D01*
X120247886Y-68211403D01*
X120391147Y-68167946D01*
X120523176Y-68097374D01*
X120638901Y-68002401D01*
X120662704Y-67973397D01*
X121813702Y-66822400D01*
X123831928Y-66822400D01*
X123831928Y-66912400D01*
G04 #@! TA.AperFunction,Conductor*
D24*
G36*
X123831928Y-66912400D02*
G01*
X123844188Y-67036882D01*
X123880498Y-67156580D01*
X123939463Y-67266894D01*
X124018815Y-67363585D01*
X124115506Y-67442937D01*
X124225820Y-67501902D01*
X124298380Y-67523913D01*
X124166525Y-67655768D01*
X124004010Y-67898989D01*
X123892068Y-68169242D01*
X123835000Y-68456140D01*
X123835000Y-68748660D01*
X123892068Y-69035558D01*
X124004010Y-69305811D01*
X124166525Y-69549032D01*
X124373368Y-69755875D01*
X124555534Y-69877595D01*
X124438645Y-69947222D01*
X124222412Y-70142131D01*
X124048359Y-70375480D01*
X123923175Y-70638301D01*
X123878524Y-70785510D01*
X123999845Y-71015400D01*
X125193000Y-71015400D01*
X125193000Y-70995400D01*
X125447000Y-70995400D01*
X125447000Y-71015400D01*
X126640155Y-71015400D01*
X126761476Y-70785510D01*
X126716825Y-70638301D01*
X126591641Y-70375480D01*
X126417588Y-70142131D01*
X126201355Y-69947222D01*
X126084466Y-69877595D01*
X126266632Y-69755875D01*
X126473475Y-69549032D01*
X126635990Y-69305811D01*
X126747932Y-69035558D01*
X126805000Y-68748660D01*
X126805000Y-68457501D01*
X127490900Y-69143402D01*
X127514699Y-69172401D01*
X127543697Y-69196199D01*
X127630424Y-69267374D01*
X127762453Y-69337946D01*
X127905714Y-69381403D01*
X127947204Y-69385489D01*
X128076525Y-69579032D01*
X128283368Y-69785875D01*
X128465534Y-69907595D01*
X128348645Y-69977222D01*
X128132412Y-70172131D01*
X127958359Y-70405480D01*
X127833175Y-70668301D01*
X127788524Y-70815510D01*
X127909845Y-71045400D01*
X129103000Y-71045400D01*
X129103000Y-71025400D01*
X129357000Y-71025400D01*
X129357000Y-71045400D01*
X130550155Y-71045400D01*
X130671476Y-70815510D01*
X130626825Y-70668301D01*
X130501641Y-70405480D01*
X130327588Y-70172131D01*
X130111355Y-69977222D01*
X129994466Y-69907595D01*
X130176632Y-69785875D01*
X130383475Y-69579032D01*
X130508178Y-69392400D01*
X134499899Y-69392400D01*
X136120901Y-71013403D01*
X136144699Y-71042401D01*
X136260424Y-71137374D01*
X136371928Y-71196975D01*
X136371928Y-71352400D01*
X136384188Y-71476882D01*
X136420498Y-71596580D01*
X136479463Y-71706894D01*
X136558815Y-71803585D01*
X136655506Y-71882937D01*
X136765820Y-71941902D01*
X136846466Y-71966366D01*
X136762412Y-72042131D01*
X136588359Y-72275480D01*
X136463175Y-72538301D01*
X136418524Y-72685510D01*
X136539845Y-72915400D01*
X137733000Y-72915400D01*
X137733000Y-72895400D01*
X137987000Y-72895400D01*
X137987000Y-72915400D01*
X138007000Y-72915400D01*
X138007000Y-73169400D01*
X137987000Y-73169400D01*
X137987000Y-73189400D01*
X137733000Y-73189400D01*
X137733000Y-73169400D01*
X136539845Y-73169400D01*
X136418524Y-73399290D01*
X136463175Y-73546499D01*
X136588359Y-73809320D01*
X136762412Y-74042669D01*
X136978645Y-74237578D01*
X137095534Y-74307205D01*
X136913368Y-74428925D01*
X136706525Y-74635768D01*
X136544010Y-74878989D01*
X136432068Y-75149242D01*
X136375000Y-75436140D01*
X136375000Y-75728660D01*
X136432068Y-76015558D01*
X136544010Y-76285811D01*
X136706525Y-76529032D01*
X136913368Y-76735875D01*
X137087760Y-76852400D01*
X136913368Y-76968925D01*
X136706525Y-77175768D01*
X136544010Y-77418989D01*
X136432068Y-77689242D01*
X136375000Y-77976140D01*
X136375000Y-78268660D01*
X136432068Y-78555558D01*
X136463897Y-78632400D01*
X135578002Y-78632400D01*
X131417004Y-74471403D01*
X131393201Y-74442399D01*
X131277476Y-74347426D01*
X131145447Y-74276854D01*
X131002186Y-74233397D01*
X130890533Y-74222400D01*
X130890522Y-74222400D01*
X130853200Y-74218724D01*
X130815878Y-74222400D01*
X130626103Y-74222400D01*
X130657932Y-74145558D01*
X130715000Y-73858660D01*
X130715000Y-73566140D01*
X130657932Y-73279242D01*
X130545990Y-73008989D01*
X130383475Y-72765768D01*
X130176632Y-72558925D01*
X129994466Y-72437205D01*
X130111355Y-72367578D01*
X130327588Y-72172669D01*
X130501641Y-71939320D01*
X130626825Y-71676499D01*
X130671476Y-71529290D01*
X130550155Y-71299400D01*
X129357000Y-71299400D01*
X129357000Y-71319400D01*
X129103000Y-71319400D01*
X129103000Y-71299400D01*
X127909845Y-71299400D01*
X127788524Y-71529290D01*
X127833175Y-71676499D01*
X127958359Y-71939320D01*
X128132412Y-72172669D01*
X128348645Y-72367578D01*
X128465534Y-72437205D01*
X128283368Y-72558925D01*
X128076525Y-72765768D01*
X127914010Y-73008989D01*
X127851677Y-73159475D01*
X126679904Y-71987703D01*
X126656101Y-71958699D01*
X126592847Y-71906788D01*
X126716825Y-71646499D01*
X126761476Y-71499290D01*
X126640155Y-71269400D01*
X125447000Y-71269400D01*
X125447000Y-71289400D01*
X125193000Y-71289400D01*
X125193000Y-71269400D01*
X123999845Y-71269400D01*
X123878524Y-71499290D01*
X123923175Y-71646499D01*
X124048359Y-71909320D01*
X124152183Y-72048515D01*
X119791590Y-76409109D01*
X119706719Y-76352400D01*
X119865302Y-76246439D01*
X120074039Y-76037702D01*
X120238042Y-75792253D01*
X120351010Y-75519525D01*
X120408600Y-75229999D01*
X120408600Y-74934801D01*
X120351010Y-74645275D01*
X120238042Y-74372547D01*
X120074039Y-74127098D01*
X119865302Y-73918361D01*
X119706719Y-73812400D01*
X119865302Y-73706439D01*
X120074039Y-73497702D01*
X120238042Y-73252253D01*
X120351010Y-72979525D01*
X120408600Y-72689999D01*
X120408600Y-72394801D01*
X120351010Y-72105275D01*
X120238042Y-71832547D01*
X120074039Y-71587098D01*
X119865302Y-71378361D01*
X119706719Y-71272400D01*
X119865302Y-71166439D01*
X120074039Y-70957702D01*
X120238042Y-70712253D01*
X120351010Y-70439525D01*
X120408600Y-70149999D01*
X120408600Y-69854801D01*
X120351010Y-69565275D01*
X120238042Y-69292547D01*
X120074039Y-69047098D01*
X119865302Y-68838361D01*
X119706719Y-68732400D01*
X119865302Y-68626439D01*
X120074039Y-68417702D01*
X120209347Y-68215199D01*
X120247886Y-68211403D01*
X120391147Y-68167946D01*
X120523176Y-68097374D01*
X120638901Y-68002401D01*
X120662704Y-67973397D01*
X121813702Y-66822400D01*
X123831928Y-66822400D01*
X123831928Y-66912400D01*
G37*
G04 #@! TD.AperFunction*
D23*
X154425820Y-50322898D02*
X154315506Y-50381863D01*
X154218815Y-50461215D01*
X154139463Y-50557906D01*
X154080498Y-50668220D01*
X154044188Y-50787918D01*
X154031928Y-50912400D01*
X154035000Y-51526650D01*
X154193750Y-51685400D01*
X155443000Y-51685400D01*
X155443000Y-51665400D01*
X155697000Y-51665400D01*
X155697000Y-51685400D01*
X156946250Y-51685400D01*
X157105000Y-51526650D01*
X157108072Y-50912400D01*
X157095812Y-50787918D01*
X157059502Y-50668220D01*
X157000537Y-50557906D01*
X156921185Y-50461215D01*
X156824494Y-50381863D01*
X156714180Y-50322898D01*
X156700242Y-50318670D01*
X159577212Y-50318670D01*
X159488815Y-50391215D01*
X159409463Y-50487906D01*
X159350498Y-50598220D01*
X159314188Y-50717918D01*
X159301928Y-50842400D01*
X159305000Y-51456650D01*
X159463750Y-51615400D01*
X160713000Y-51615400D01*
X160713000Y-51595400D01*
X160967000Y-51595400D01*
X160967000Y-51615400D01*
X162216250Y-51615400D01*
X162375000Y-51456650D01*
X162378072Y-50842400D01*
X162365812Y-50717918D01*
X162329502Y-50598220D01*
X162270537Y-50487906D01*
X162191185Y-50391215D01*
X162102788Y-50318670D01*
X165489758Y-50318670D01*
X165475820Y-50322898D01*
X165365506Y-50381863D01*
X165268815Y-50461215D01*
X165189463Y-50557906D01*
X165130498Y-50668220D01*
X165094188Y-50787918D01*
X165081928Y-50912400D01*
X165085000Y-51526650D01*
X165243750Y-51685400D01*
X166493000Y-51685400D01*
X166493000Y-51665400D01*
X166747000Y-51665400D01*
X166747000Y-51685400D01*
X167996250Y-51685400D01*
X168155000Y-51526650D01*
X168158072Y-50912400D01*
X168145812Y-50787918D01*
X168109502Y-50668220D01*
X168050537Y-50557906D01*
X167971185Y-50461215D01*
X167874494Y-50381863D01*
X167764180Y-50322898D01*
X167750242Y-50318670D01*
X168438831Y-50318670D01*
X168438831Y-61588913D01*
X168276854Y-61372107D01*
X168058488Y-61175583D01*
X167805978Y-61025436D01*
X167529027Y-60927437D01*
X167297000Y-61047936D01*
X167297000Y-62255400D01*
X167317000Y-62255400D01*
X167317000Y-62509400D01*
X167297000Y-62509400D01*
X167297000Y-62529400D01*
X167043000Y-62529400D01*
X167043000Y-62509400D01*
X164757000Y-62509400D01*
X164757000Y-62529400D01*
X164503000Y-62529400D01*
X164503000Y-62509400D01*
X163290150Y-62509400D01*
X163131400Y-62668150D01*
X163128328Y-63246000D01*
X163140588Y-63370482D01*
X163176898Y-63490180D01*
X163235863Y-63600494D01*
X163315215Y-63697185D01*
X163411906Y-63776537D01*
X163522220Y-63835502D01*
X163580023Y-63853036D01*
X163465961Y-63967098D01*
X163301958Y-64212547D01*
X163188990Y-64485275D01*
X163131400Y-64774801D01*
X163131400Y-65069999D01*
X163188990Y-65359525D01*
X163301958Y-65632253D01*
X163465961Y-65877702D01*
X163674698Y-66086439D01*
X163833281Y-66192400D01*
X163674698Y-66298361D01*
X163465961Y-66507098D01*
X163301958Y-66752547D01*
X163188990Y-67025275D01*
X163131400Y-67314801D01*
X163131400Y-67609999D01*
X163188990Y-67899525D01*
X163301958Y-68172253D01*
X163465961Y-68417702D01*
X163674698Y-68626439D01*
X163833281Y-68732400D01*
X163674698Y-68838361D01*
X163465961Y-69047098D01*
X163301958Y-69292547D01*
X163188990Y-69565275D01*
X163131400Y-69854801D01*
X163131400Y-70149999D01*
X163188990Y-70439525D01*
X163252769Y-70593500D01*
X162351202Y-70593500D01*
X160794109Y-69036407D01*
X160799727Y-69034080D01*
X161034759Y-68877037D01*
X161234637Y-68677159D01*
X161391680Y-68442127D01*
X161499853Y-68180974D01*
X161555000Y-67903735D01*
X161555000Y-67621065D01*
X161499853Y-67343826D01*
X161391680Y-67082673D01*
X161234637Y-66847641D01*
X161109449Y-66722453D01*
X162206604Y-65625298D01*
X162235601Y-65601501D01*
X162284105Y-65542399D01*
X162330574Y-65485777D01*
X162401146Y-65353747D01*
X162411770Y-65318723D01*
X162444603Y-65210486D01*
X162455600Y-65098833D01*
X162455600Y-65098823D01*
X162459276Y-65061500D01*
X162455600Y-65024177D01*
X162455600Y-61518800D01*
X163128328Y-61518800D01*
X163131400Y-62096650D01*
X163290150Y-62255400D01*
X164503000Y-62255400D01*
X164503000Y-61042550D01*
X164757000Y-61042550D01*
X164757000Y-62255400D01*
X167043000Y-62255400D01*
X167043000Y-61047936D01*
X166810973Y-60927437D01*
X166534022Y-61025436D01*
X166281512Y-61175583D01*
X166102053Y-61337092D01*
X166083102Y-61274620D01*
X166024137Y-61164306D01*
X165944785Y-61067615D01*
X165848094Y-60988263D01*
X165737780Y-60929298D01*
X165618082Y-60892988D01*
X165493600Y-60880728D01*
X164915750Y-60883800D01*
X164757000Y-61042550D01*
X164503000Y-61042550D01*
X164344250Y-60883800D01*
X163766400Y-60880728D01*
X163641918Y-60892988D01*
X163522220Y-60929298D01*
X163411906Y-60988263D01*
X163315215Y-61067615D01*
X163235863Y-61164306D01*
X163176898Y-61274620D01*
X163140588Y-61394318D01*
X163128328Y-61518800D01*
X162455600Y-61518800D01*
X162455600Y-59591601D01*
X166211070Y-55836131D01*
X166468816Y-55887400D01*
X166771184Y-55887400D01*
X167067743Y-55828411D01*
X167347095Y-55712699D01*
X167598505Y-55544712D01*
X167812312Y-55330905D01*
X167980299Y-55079495D01*
X168096011Y-54800143D01*
X168155000Y-54503584D01*
X168155000Y-54201216D01*
X168096011Y-53904657D01*
X167980299Y-53625305D01*
X167812312Y-53373895D01*
X167745873Y-53307456D01*
X167764180Y-53301902D01*
X167874494Y-53242937D01*
X167971185Y-53163585D01*
X168050537Y-53066894D01*
X168109502Y-52956580D01*
X168145812Y-52836882D01*
X168158072Y-52712400D01*
X168155000Y-52098150D01*
X167996250Y-51939400D01*
X166747000Y-51939400D01*
X166747000Y-51959400D01*
X166493000Y-51959400D01*
X166493000Y-51939400D01*
X165243750Y-51939400D01*
X165085000Y-52098150D01*
X165081928Y-52712400D01*
X165094188Y-52836882D01*
X165130498Y-52956580D01*
X165189463Y-53066894D01*
X165268815Y-53163585D01*
X165365506Y-53242937D01*
X165475820Y-53301902D01*
X165494127Y-53307456D01*
X165427688Y-53373895D01*
X165259701Y-53625305D01*
X165143989Y-53904657D01*
X165085000Y-54201216D01*
X165085000Y-54503584D01*
X165136269Y-54761330D01*
X162005300Y-57892299D01*
X162005300Y-55287917D01*
X162032312Y-55260905D01*
X162200299Y-55009495D01*
X162316011Y-54730143D01*
X162375000Y-54433584D01*
X162375000Y-54131216D01*
X162316011Y-53834657D01*
X162200299Y-53555305D01*
X162032312Y-53303895D01*
X161965873Y-53237456D01*
X161984180Y-53231902D01*
X162094494Y-53172937D01*
X162191185Y-53093585D01*
X162270537Y-52996894D01*
X162329502Y-52886580D01*
X162365812Y-52766882D01*
X162378072Y-52642400D01*
X162375000Y-52028150D01*
X162216250Y-51869400D01*
X160967000Y-51869400D01*
X160967000Y-51889400D01*
X160713000Y-51889400D01*
X160713000Y-51869400D01*
X159463750Y-51869400D01*
X159305000Y-52028150D01*
X159301928Y-52642400D01*
X159314188Y-52766882D01*
X159350498Y-52886580D01*
X159409463Y-52996894D01*
X159488815Y-53093585D01*
X159585506Y-53172937D01*
X159695820Y-53231902D01*
X159714127Y-53237456D01*
X159647688Y-53303895D01*
X159479701Y-53555305D01*
X159363989Y-53834657D01*
X159305000Y-54131216D01*
X159305000Y-54433584D01*
X159363989Y-54730143D01*
X159479701Y-55009495D01*
X159647688Y-55260905D01*
X159861495Y-55474712D01*
X160112905Y-55642699D01*
X160392257Y-55758411D01*
X160485301Y-55776918D01*
X160485300Y-60381950D01*
X160261335Y-60337400D01*
X159978665Y-60337400D01*
X159701426Y-60392547D01*
X159440273Y-60500720D01*
X159205241Y-60657763D01*
X159005363Y-60857641D01*
X158850000Y-61090159D01*
X158694637Y-60857641D01*
X158494759Y-60657763D01*
X158259727Y-60500720D01*
X157998574Y-60392547D01*
X157721335Y-60337400D01*
X157438665Y-60337400D01*
X157161426Y-60392547D01*
X156900273Y-60500720D01*
X156665241Y-60657763D01*
X156465363Y-60857641D01*
X156308320Y-61092673D01*
X156200147Y-61353826D01*
X156145000Y-61631065D01*
X156145000Y-61913735D01*
X156200147Y-62190974D01*
X156308320Y-62452127D01*
X156465363Y-62687159D01*
X156665241Y-62887037D01*
X156900273Y-63044080D01*
X157161426Y-63152253D01*
X157438665Y-63207400D01*
X157721335Y-63207400D01*
X157998574Y-63152253D01*
X158259727Y-63044080D01*
X158494759Y-62887037D01*
X158694637Y-62687159D01*
X158850000Y-62454641D01*
X159005363Y-62687159D01*
X159205241Y-62887037D01*
X159440273Y-63044080D01*
X159615597Y-63116702D01*
X159608998Y-63123301D01*
X159580000Y-63147099D01*
X159556202Y-63176097D01*
X159556201Y-63176098D01*
X159485026Y-63262824D01*
X159414454Y-63394854D01*
X159370998Y-63538115D01*
X159365843Y-63590452D01*
X159205241Y-63697763D01*
X159005363Y-63897641D01*
X158850000Y-64130159D01*
X158694637Y-63897641D01*
X158494759Y-63697763D01*
X158259727Y-63540720D01*
X157998574Y-63432547D01*
X157721335Y-63377400D01*
X157438665Y-63377400D01*
X157161426Y-63432547D01*
X156900273Y-63540720D01*
X156665241Y-63697763D01*
X156465363Y-63897641D01*
X156308320Y-64132673D01*
X156200147Y-64393826D01*
X156145000Y-64671065D01*
X156145000Y-64953735D01*
X156200147Y-65230974D01*
X156308320Y-65492127D01*
X156465363Y-65727159D01*
X156665241Y-65927037D01*
X156900273Y-66084080D01*
X157161426Y-66192253D01*
X157438665Y-66247400D01*
X157721335Y-66247400D01*
X157903886Y-66211088D01*
X158090001Y-66397203D01*
X158090001Y-66420417D01*
X157998574Y-66382547D01*
X157721335Y-66327400D01*
X157438665Y-66327400D01*
X157161426Y-66382547D01*
X156900273Y-66490720D01*
X156665241Y-66647763D01*
X156465363Y-66847641D01*
X156308320Y-67082673D01*
X156200147Y-67343826D01*
X156145000Y-67621065D01*
X156145000Y-67903735D01*
X156200147Y-68180974D01*
X156308320Y-68442127D01*
X156465363Y-68677159D01*
X156665241Y-68877037D01*
X156900273Y-69034080D01*
X157161426Y-69142253D01*
X157438665Y-69197400D01*
X157721335Y-69197400D01*
X157903887Y-69161088D01*
X163147301Y-74404503D01*
X163171099Y-74433501D01*
X163249917Y-74498185D01*
X163188990Y-74645275D01*
X163131400Y-74934801D01*
X163131400Y-75229999D01*
X163188990Y-75519525D01*
X163301958Y-75792253D01*
X163465961Y-76037702D01*
X163674698Y-76246439D01*
X163833281Y-76352400D01*
X163674698Y-76458361D01*
X163465961Y-76667098D01*
X163301958Y-76912547D01*
X163282185Y-76960283D01*
X161725300Y-75403399D01*
X161725300Y-74989733D01*
X161728977Y-74952400D01*
X161714303Y-74803414D01*
X161670846Y-74660153D01*
X161600274Y-74528124D01*
X161505301Y-74412399D01*
X161389576Y-74317426D01*
X161278072Y-74257825D01*
X161278072Y-74102400D01*
X161265812Y-73977918D01*
X161229502Y-73858220D01*
X161170537Y-73747906D01*
X161091185Y-73651215D01*
X160994494Y-73571863D01*
X160884180Y-73512898D01*
X160764482Y-73476588D01*
X160640000Y-73464328D01*
X158940000Y-73464328D01*
X158815518Y-73476588D01*
X158695820Y-73512898D01*
X158585506Y-73571863D01*
X158488815Y-73651215D01*
X158409463Y-73747906D01*
X158350498Y-73858220D01*
X158314188Y-73977918D01*
X158301928Y-74102400D01*
X158301928Y-75802400D01*
X158314188Y-75926882D01*
X158350498Y-76046580D01*
X158409463Y-76156894D01*
X158488815Y-76253585D01*
X158585506Y-76332937D01*
X158695820Y-76391902D01*
X158768380Y-76413913D01*
X158636525Y-76545768D01*
X158511822Y-76732400D01*
X153295709Y-76732400D01*
X153399853Y-76480974D01*
X153455000Y-76203735D01*
X153455000Y-75921065D01*
X153399853Y-75643826D01*
X153291680Y-75382673D01*
X153134637Y-75147641D01*
X152934759Y-74947763D01*
X152699727Y-74790720D01*
X152438574Y-74682547D01*
X152161335Y-74627400D01*
X151878665Y-74627400D01*
X151601426Y-74682547D01*
X151340273Y-74790720D01*
X151105241Y-74947763D01*
X150905363Y-75147641D01*
X150748320Y-75382673D01*
X150640147Y-75643826D01*
X150585000Y-75921065D01*
X150585000Y-76203735D01*
X150640147Y-76480974D01*
X150744291Y-76732400D01*
X145675709Y-76732400D01*
X145779853Y-76480974D01*
X145835000Y-76203735D01*
X145835000Y-75921065D01*
X145779853Y-75643826D01*
X145671680Y-75382673D01*
X145514637Y-75147641D01*
X145314759Y-74947763D01*
X145160000Y-74844357D01*
X145160000Y-73837233D01*
X145163677Y-73799900D01*
X145149003Y-73650914D01*
X145105546Y-73507653D01*
X145034974Y-73375624D01*
X144963799Y-73288897D01*
X144940001Y-73259899D01*
X144911004Y-73236102D01*
X142974625Y-71299723D01*
X145503000Y-71299723D01*
X145503000Y-71825077D01*
X145605492Y-72340335D01*
X145806536Y-72825698D01*
X146098406Y-73262513D01*
X146469887Y-73633994D01*
X146906702Y-73925864D01*
X147392065Y-74126908D01*
X147907323Y-74229400D01*
X148432677Y-74229400D01*
X148947935Y-74126908D01*
X149433298Y-73925864D01*
X149870113Y-73633994D01*
X150241594Y-73262513D01*
X150533464Y-72825698D01*
X150734508Y-72340335D01*
X150837000Y-71825077D01*
X150837000Y-71299723D01*
X150734508Y-70784465D01*
X150533464Y-70299102D01*
X150241594Y-69862287D01*
X149870113Y-69490806D01*
X149433298Y-69198936D01*
X148947935Y-68997892D01*
X148432677Y-68895400D01*
X147907323Y-68895400D01*
X147392065Y-68997892D01*
X146906702Y-69198936D01*
X146469887Y-69490806D01*
X146098406Y-69862287D01*
X145806536Y-70299102D01*
X145605492Y-70784465D01*
X145503000Y-71299723D01*
X142974625Y-71299723D01*
X136598571Y-64923670D01*
X153168849Y-64923670D01*
X153200100Y-64926748D01*
X153231351Y-64923670D01*
X153244246Y-64922400D01*
X153324831Y-64914463D01*
X153444768Y-64878081D01*
X153555303Y-64818998D01*
X153652187Y-64739487D01*
X153731698Y-64642603D01*
X153790781Y-64532068D01*
X153827163Y-64412131D01*
X153836370Y-64318651D01*
X153836370Y-64318650D01*
X153839448Y-64287400D01*
X153836370Y-64256149D01*
X153836370Y-52712400D01*
X154031928Y-52712400D01*
X154044188Y-52836882D01*
X154080498Y-52956580D01*
X154139463Y-53066894D01*
X154218815Y-53163585D01*
X154315506Y-53242937D01*
X154425820Y-53301902D01*
X154444127Y-53307456D01*
X154377688Y-53373895D01*
X154209701Y-53625305D01*
X154093989Y-53904657D01*
X154035000Y-54201216D01*
X154035000Y-54503584D01*
X154093989Y-54800143D01*
X154209701Y-55079495D01*
X154377688Y-55330905D01*
X154591495Y-55544712D01*
X154842905Y-55712699D01*
X155122257Y-55828411D01*
X155418816Y-55887400D01*
X155721184Y-55887400D01*
X156017743Y-55828411D01*
X156297095Y-55712699D01*
X156548505Y-55544712D01*
X156762312Y-55330905D01*
X156930299Y-55079495D01*
X157046011Y-54800143D01*
X157105000Y-54503584D01*
X157105000Y-54201216D01*
X157046011Y-53904657D01*
X156930299Y-53625305D01*
X156762312Y-53373895D01*
X156695873Y-53307456D01*
X156714180Y-53301902D01*
X156824494Y-53242937D01*
X156921185Y-53163585D01*
X157000537Y-53066894D01*
X157059502Y-52956580D01*
X157095812Y-52836882D01*
X157108072Y-52712400D01*
X157105000Y-52098150D01*
X156946250Y-51939400D01*
X155697000Y-51939400D01*
X155697000Y-51959400D01*
X155443000Y-51959400D01*
X155443000Y-51939400D01*
X154193750Y-51939400D01*
X154035000Y-52098150D01*
X154031928Y-52712400D01*
X153836370Y-52712400D01*
X153836370Y-50318670D01*
X154439758Y-50318670D01*
X154425820Y-50322898D01*
G04 #@! TA.AperFunction,Conductor*
D24*
G36*
X154425820Y-50322898D02*
G01*
X154315506Y-50381863D01*
X154218815Y-50461215D01*
X154139463Y-50557906D01*
X154080498Y-50668220D01*
X154044188Y-50787918D01*
X154031928Y-50912400D01*
X154035000Y-51526650D01*
X154193750Y-51685400D01*
X155443000Y-51685400D01*
X155443000Y-51665400D01*
X155697000Y-51665400D01*
X155697000Y-51685400D01*
X156946250Y-51685400D01*
X157105000Y-51526650D01*
X157108072Y-50912400D01*
X157095812Y-50787918D01*
X157059502Y-50668220D01*
X157000537Y-50557906D01*
X156921185Y-50461215D01*
X156824494Y-50381863D01*
X156714180Y-50322898D01*
X156700242Y-50318670D01*
X159577212Y-50318670D01*
X159488815Y-50391215D01*
X159409463Y-50487906D01*
X159350498Y-50598220D01*
X159314188Y-50717918D01*
X159301928Y-50842400D01*
X159305000Y-51456650D01*
X159463750Y-51615400D01*
X160713000Y-51615400D01*
X160713000Y-51595400D01*
X160967000Y-51595400D01*
X160967000Y-51615400D01*
X162216250Y-51615400D01*
X162375000Y-51456650D01*
X162378072Y-50842400D01*
X162365812Y-50717918D01*
X162329502Y-50598220D01*
X162270537Y-50487906D01*
X162191185Y-50391215D01*
X162102788Y-50318670D01*
X165489758Y-50318670D01*
X165475820Y-50322898D01*
X165365506Y-50381863D01*
X165268815Y-50461215D01*
X165189463Y-50557906D01*
X165130498Y-50668220D01*
X165094188Y-50787918D01*
X165081928Y-50912400D01*
X165085000Y-51526650D01*
X165243750Y-51685400D01*
X166493000Y-51685400D01*
X166493000Y-51665400D01*
X166747000Y-51665400D01*
X166747000Y-51685400D01*
X167996250Y-51685400D01*
X168155000Y-51526650D01*
X168158072Y-50912400D01*
X168145812Y-50787918D01*
X168109502Y-50668220D01*
X168050537Y-50557906D01*
X167971185Y-50461215D01*
X167874494Y-50381863D01*
X167764180Y-50322898D01*
X167750242Y-50318670D01*
X168438831Y-50318670D01*
X168438831Y-61588913D01*
X168276854Y-61372107D01*
X168058488Y-61175583D01*
X167805978Y-61025436D01*
X167529027Y-60927437D01*
X167297000Y-61047936D01*
X167297000Y-62255400D01*
X167317000Y-62255400D01*
X167317000Y-62509400D01*
X167297000Y-62509400D01*
X167297000Y-62529400D01*
X167043000Y-62529400D01*
X167043000Y-62509400D01*
X164757000Y-62509400D01*
X164757000Y-62529400D01*
X164503000Y-62529400D01*
X164503000Y-62509400D01*
X163290150Y-62509400D01*
X163131400Y-62668150D01*
X163128328Y-63246000D01*
X163140588Y-63370482D01*
X163176898Y-63490180D01*
X163235863Y-63600494D01*
X163315215Y-63697185D01*
X163411906Y-63776537D01*
X163522220Y-63835502D01*
X163580023Y-63853036D01*
X163465961Y-63967098D01*
X163301958Y-64212547D01*
X163188990Y-64485275D01*
X163131400Y-64774801D01*
X163131400Y-65069999D01*
X163188990Y-65359525D01*
X163301958Y-65632253D01*
X163465961Y-65877702D01*
X163674698Y-66086439D01*
X163833281Y-66192400D01*
X163674698Y-66298361D01*
X163465961Y-66507098D01*
X163301958Y-66752547D01*
X163188990Y-67025275D01*
X163131400Y-67314801D01*
X163131400Y-67609999D01*
X163188990Y-67899525D01*
X163301958Y-68172253D01*
X163465961Y-68417702D01*
X163674698Y-68626439D01*
X163833281Y-68732400D01*
X163674698Y-68838361D01*
X163465961Y-69047098D01*
X163301958Y-69292547D01*
X163188990Y-69565275D01*
X163131400Y-69854801D01*
X163131400Y-70149999D01*
X163188990Y-70439525D01*
X163252769Y-70593500D01*
X162351202Y-70593500D01*
X160794109Y-69036407D01*
X160799727Y-69034080D01*
X161034759Y-68877037D01*
X161234637Y-68677159D01*
X161391680Y-68442127D01*
X161499853Y-68180974D01*
X161555000Y-67903735D01*
X161555000Y-67621065D01*
X161499853Y-67343826D01*
X161391680Y-67082673D01*
X161234637Y-66847641D01*
X161109449Y-66722453D01*
X162206604Y-65625298D01*
X162235601Y-65601501D01*
X162284105Y-65542399D01*
X162330574Y-65485777D01*
X162401146Y-65353747D01*
X162411770Y-65318723D01*
X162444603Y-65210486D01*
X162455600Y-65098833D01*
X162455600Y-65098823D01*
X162459276Y-65061500D01*
X162455600Y-65024177D01*
X162455600Y-61518800D01*
X163128328Y-61518800D01*
X163131400Y-62096650D01*
X163290150Y-62255400D01*
X164503000Y-62255400D01*
X164503000Y-61042550D01*
X164757000Y-61042550D01*
X164757000Y-62255400D01*
X167043000Y-62255400D01*
X167043000Y-61047936D01*
X166810973Y-60927437D01*
X166534022Y-61025436D01*
X166281512Y-61175583D01*
X166102053Y-61337092D01*
X166083102Y-61274620D01*
X166024137Y-61164306D01*
X165944785Y-61067615D01*
X165848094Y-60988263D01*
X165737780Y-60929298D01*
X165618082Y-60892988D01*
X165493600Y-60880728D01*
X164915750Y-60883800D01*
X164757000Y-61042550D01*
X164503000Y-61042550D01*
X164344250Y-60883800D01*
X163766400Y-60880728D01*
X163641918Y-60892988D01*
X163522220Y-60929298D01*
X163411906Y-60988263D01*
X163315215Y-61067615D01*
X163235863Y-61164306D01*
X163176898Y-61274620D01*
X163140588Y-61394318D01*
X163128328Y-61518800D01*
X162455600Y-61518800D01*
X162455600Y-59591601D01*
X166211070Y-55836131D01*
X166468816Y-55887400D01*
X166771184Y-55887400D01*
X167067743Y-55828411D01*
X167347095Y-55712699D01*
X167598505Y-55544712D01*
X167812312Y-55330905D01*
X167980299Y-55079495D01*
X168096011Y-54800143D01*
X168155000Y-54503584D01*
X168155000Y-54201216D01*
X168096011Y-53904657D01*
X167980299Y-53625305D01*
X167812312Y-53373895D01*
X167745873Y-53307456D01*
X167764180Y-53301902D01*
X167874494Y-53242937D01*
X167971185Y-53163585D01*
X168050537Y-53066894D01*
X168109502Y-52956580D01*
X168145812Y-52836882D01*
X168158072Y-52712400D01*
X168155000Y-52098150D01*
X167996250Y-51939400D01*
X166747000Y-51939400D01*
X166747000Y-51959400D01*
X166493000Y-51959400D01*
X166493000Y-51939400D01*
X165243750Y-51939400D01*
X165085000Y-52098150D01*
X165081928Y-52712400D01*
X165094188Y-52836882D01*
X165130498Y-52956580D01*
X165189463Y-53066894D01*
X165268815Y-53163585D01*
X165365506Y-53242937D01*
X165475820Y-53301902D01*
X165494127Y-53307456D01*
X165427688Y-53373895D01*
X165259701Y-53625305D01*
X165143989Y-53904657D01*
X165085000Y-54201216D01*
X165085000Y-54503584D01*
X165136269Y-54761330D01*
X162005300Y-57892299D01*
X162005300Y-55287917D01*
X162032312Y-55260905D01*
X162200299Y-55009495D01*
X162316011Y-54730143D01*
X162375000Y-54433584D01*
X162375000Y-54131216D01*
X162316011Y-53834657D01*
X162200299Y-53555305D01*
X162032312Y-53303895D01*
X161965873Y-53237456D01*
X161984180Y-53231902D01*
X162094494Y-53172937D01*
X162191185Y-53093585D01*
X162270537Y-52996894D01*
X162329502Y-52886580D01*
X162365812Y-52766882D01*
X162378072Y-52642400D01*
X162375000Y-52028150D01*
X162216250Y-51869400D01*
X160967000Y-51869400D01*
X160967000Y-51889400D01*
X160713000Y-51889400D01*
X160713000Y-51869400D01*
X159463750Y-51869400D01*
X159305000Y-52028150D01*
X159301928Y-52642400D01*
X159314188Y-52766882D01*
X159350498Y-52886580D01*
X159409463Y-52996894D01*
X159488815Y-53093585D01*
X159585506Y-53172937D01*
X159695820Y-53231902D01*
X159714127Y-53237456D01*
X159647688Y-53303895D01*
X159479701Y-53555305D01*
X159363989Y-53834657D01*
X159305000Y-54131216D01*
X159305000Y-54433584D01*
X159363989Y-54730143D01*
X159479701Y-55009495D01*
X159647688Y-55260905D01*
X159861495Y-55474712D01*
X160112905Y-55642699D01*
X160392257Y-55758411D01*
X160485301Y-55776918D01*
X160485300Y-60381950D01*
X160261335Y-60337400D01*
X159978665Y-60337400D01*
X159701426Y-60392547D01*
X159440273Y-60500720D01*
X159205241Y-60657763D01*
X159005363Y-60857641D01*
X158850000Y-61090159D01*
X158694637Y-60857641D01*
X158494759Y-60657763D01*
X158259727Y-60500720D01*
X157998574Y-60392547D01*
X157721335Y-60337400D01*
X157438665Y-60337400D01*
X157161426Y-60392547D01*
X156900273Y-60500720D01*
X156665241Y-60657763D01*
X156465363Y-60857641D01*
X156308320Y-61092673D01*
X156200147Y-61353826D01*
X156145000Y-61631065D01*
X156145000Y-61913735D01*
X156200147Y-62190974D01*
X156308320Y-62452127D01*
X156465363Y-62687159D01*
X156665241Y-62887037D01*
X156900273Y-63044080D01*
X157161426Y-63152253D01*
X157438665Y-63207400D01*
X157721335Y-63207400D01*
X157998574Y-63152253D01*
X158259727Y-63044080D01*
X158494759Y-62887037D01*
X158694637Y-62687159D01*
X158850000Y-62454641D01*
X159005363Y-62687159D01*
X159205241Y-62887037D01*
X159440273Y-63044080D01*
X159615597Y-63116702D01*
X159608998Y-63123301D01*
X159580000Y-63147099D01*
X159556202Y-63176097D01*
X159556201Y-63176098D01*
X159485026Y-63262824D01*
X159414454Y-63394854D01*
X159370998Y-63538115D01*
X159365843Y-63590452D01*
X159205241Y-63697763D01*
X159005363Y-63897641D01*
X158850000Y-64130159D01*
X158694637Y-63897641D01*
X158494759Y-63697763D01*
X158259727Y-63540720D01*
X157998574Y-63432547D01*
X157721335Y-63377400D01*
X157438665Y-63377400D01*
X157161426Y-63432547D01*
X156900273Y-63540720D01*
X156665241Y-63697763D01*
X156465363Y-63897641D01*
X156308320Y-64132673D01*
X156200147Y-64393826D01*
X156145000Y-64671065D01*
X156145000Y-64953735D01*
X156200147Y-65230974D01*
X156308320Y-65492127D01*
X156465363Y-65727159D01*
X156665241Y-65927037D01*
X156900273Y-66084080D01*
X157161426Y-66192253D01*
X157438665Y-66247400D01*
X157721335Y-66247400D01*
X157903886Y-66211088D01*
X158090001Y-66397203D01*
X158090001Y-66420417D01*
X157998574Y-66382547D01*
X157721335Y-66327400D01*
X157438665Y-66327400D01*
X157161426Y-66382547D01*
X156900273Y-66490720D01*
X156665241Y-66647763D01*
X156465363Y-66847641D01*
X156308320Y-67082673D01*
X156200147Y-67343826D01*
X156145000Y-67621065D01*
X156145000Y-67903735D01*
X156200147Y-68180974D01*
X156308320Y-68442127D01*
X156465363Y-68677159D01*
X156665241Y-68877037D01*
X156900273Y-69034080D01*
X157161426Y-69142253D01*
X157438665Y-69197400D01*
X157721335Y-69197400D01*
X157903887Y-69161088D01*
X163147301Y-74404503D01*
X163171099Y-74433501D01*
X163249917Y-74498185D01*
X163188990Y-74645275D01*
X163131400Y-74934801D01*
X163131400Y-75229999D01*
X163188990Y-75519525D01*
X163301958Y-75792253D01*
X163465961Y-76037702D01*
X163674698Y-76246439D01*
X163833281Y-76352400D01*
X163674698Y-76458361D01*
X163465961Y-76667098D01*
X163301958Y-76912547D01*
X163282185Y-76960283D01*
X161725300Y-75403399D01*
X161725300Y-74989733D01*
X161728977Y-74952400D01*
X161714303Y-74803414D01*
X161670846Y-74660153D01*
X161600274Y-74528124D01*
X161505301Y-74412399D01*
X161389576Y-74317426D01*
X161278072Y-74257825D01*
X161278072Y-74102400D01*
X161265812Y-73977918D01*
X161229502Y-73858220D01*
X161170537Y-73747906D01*
X161091185Y-73651215D01*
X160994494Y-73571863D01*
X160884180Y-73512898D01*
X160764482Y-73476588D01*
X160640000Y-73464328D01*
X158940000Y-73464328D01*
X158815518Y-73476588D01*
X158695820Y-73512898D01*
X158585506Y-73571863D01*
X158488815Y-73651215D01*
X158409463Y-73747906D01*
X158350498Y-73858220D01*
X158314188Y-73977918D01*
X158301928Y-74102400D01*
X158301928Y-75802400D01*
X158314188Y-75926882D01*
X158350498Y-76046580D01*
X158409463Y-76156894D01*
X158488815Y-76253585D01*
X158585506Y-76332937D01*
X158695820Y-76391902D01*
X158768380Y-76413913D01*
X158636525Y-76545768D01*
X158511822Y-76732400D01*
X153295709Y-76732400D01*
X153399853Y-76480974D01*
X153455000Y-76203735D01*
X153455000Y-75921065D01*
X153399853Y-75643826D01*
X153291680Y-75382673D01*
X153134637Y-75147641D01*
X152934759Y-74947763D01*
X152699727Y-74790720D01*
X152438574Y-74682547D01*
X152161335Y-74627400D01*
X151878665Y-74627400D01*
X151601426Y-74682547D01*
X151340273Y-74790720D01*
X151105241Y-74947763D01*
X150905363Y-75147641D01*
X150748320Y-75382673D01*
X150640147Y-75643826D01*
X150585000Y-75921065D01*
X150585000Y-76203735D01*
X150640147Y-76480974D01*
X150744291Y-76732400D01*
X145675709Y-76732400D01*
X145779853Y-76480974D01*
X145835000Y-76203735D01*
X145835000Y-75921065D01*
X145779853Y-75643826D01*
X145671680Y-75382673D01*
X145514637Y-75147641D01*
X145314759Y-74947763D01*
X145160000Y-74844357D01*
X145160000Y-73837233D01*
X145163677Y-73799900D01*
X145149003Y-73650914D01*
X145105546Y-73507653D01*
X145034974Y-73375624D01*
X144963799Y-73288897D01*
X144940001Y-73259899D01*
X144911004Y-73236102D01*
X142974625Y-71299723D01*
X145503000Y-71299723D01*
X145503000Y-71825077D01*
X145605492Y-72340335D01*
X145806536Y-72825698D01*
X146098406Y-73262513D01*
X146469887Y-73633994D01*
X146906702Y-73925864D01*
X147392065Y-74126908D01*
X147907323Y-74229400D01*
X148432677Y-74229400D01*
X148947935Y-74126908D01*
X149433298Y-73925864D01*
X149870113Y-73633994D01*
X150241594Y-73262513D01*
X150533464Y-72825698D01*
X150734508Y-72340335D01*
X150837000Y-71825077D01*
X150837000Y-71299723D01*
X150734508Y-70784465D01*
X150533464Y-70299102D01*
X150241594Y-69862287D01*
X149870113Y-69490806D01*
X149433298Y-69198936D01*
X148947935Y-68997892D01*
X148432677Y-68895400D01*
X147907323Y-68895400D01*
X147392065Y-68997892D01*
X146906702Y-69198936D01*
X146469887Y-69490806D01*
X146098406Y-69862287D01*
X145806536Y-70299102D01*
X145605492Y-70784465D01*
X145503000Y-71299723D01*
X142974625Y-71299723D01*
X136598571Y-64923670D01*
X153168849Y-64923670D01*
X153200100Y-64926748D01*
X153231351Y-64923670D01*
X153244246Y-64922400D01*
X153324831Y-64914463D01*
X153444768Y-64878081D01*
X153555303Y-64818998D01*
X153652187Y-64739487D01*
X153731698Y-64642603D01*
X153790781Y-64532068D01*
X153827163Y-64412131D01*
X153836370Y-64318651D01*
X153836370Y-64318650D01*
X153839448Y-64287400D01*
X153836370Y-64256149D01*
X153836370Y-52712400D01*
X154031928Y-52712400D01*
X154044188Y-52836882D01*
X154080498Y-52956580D01*
X154139463Y-53066894D01*
X154218815Y-53163585D01*
X154315506Y-53242937D01*
X154425820Y-53301902D01*
X154444127Y-53307456D01*
X154377688Y-53373895D01*
X154209701Y-53625305D01*
X154093989Y-53904657D01*
X154035000Y-54201216D01*
X154035000Y-54503584D01*
X154093989Y-54800143D01*
X154209701Y-55079495D01*
X154377688Y-55330905D01*
X154591495Y-55544712D01*
X154842905Y-55712699D01*
X155122257Y-55828411D01*
X155418816Y-55887400D01*
X155721184Y-55887400D01*
X156017743Y-55828411D01*
X156297095Y-55712699D01*
X156548505Y-55544712D01*
X156762312Y-55330905D01*
X156930299Y-55079495D01*
X157046011Y-54800143D01*
X157105000Y-54503584D01*
X157105000Y-54201216D01*
X157046011Y-53904657D01*
X156930299Y-53625305D01*
X156762312Y-53373895D01*
X156695873Y-53307456D01*
X156714180Y-53301902D01*
X156824494Y-53242937D01*
X156921185Y-53163585D01*
X157000537Y-53066894D01*
X157059502Y-52956580D01*
X157095812Y-52836882D01*
X157108072Y-52712400D01*
X157105000Y-52098150D01*
X156946250Y-51939400D01*
X155697000Y-51939400D01*
X155697000Y-51959400D01*
X155443000Y-51959400D01*
X155443000Y-51939400D01*
X154193750Y-51939400D01*
X154035000Y-52098150D01*
X154031928Y-52712400D01*
X153836370Y-52712400D01*
X153836370Y-50318670D01*
X154439758Y-50318670D01*
X154425820Y-50322898D01*
G37*
G04 #@! TD.AperFunction*
D23*
X134783830Y-63108929D02*
X133085300Y-61410399D01*
X133085300Y-53902922D01*
X133088976Y-53865599D01*
X133085300Y-53828276D01*
X133085300Y-53828267D01*
X133074303Y-53716614D01*
X133030846Y-53573353D01*
X133001646Y-53518724D01*
X132960274Y-53441323D01*
X132889099Y-53354597D01*
X132865301Y-53325599D01*
X132836304Y-53301802D01*
X132327531Y-52793030D01*
X132465990Y-52585811D01*
X132577932Y-52315558D01*
X132635000Y-52028660D01*
X132635000Y-51736140D01*
X132577932Y-51449242D01*
X132465990Y-51178989D01*
X132303475Y-50935768D01*
X132096632Y-50728925D01*
X131922240Y-50612400D01*
X132096632Y-50495875D01*
X132303475Y-50289032D01*
X132465990Y-50045811D01*
X132577932Y-49775558D01*
X132635000Y-49488660D01*
X132635000Y-49196140D01*
X132577932Y-48909242D01*
X132465990Y-48638989D01*
X132303475Y-48395768D01*
X132171620Y-48263913D01*
X132244180Y-48241902D01*
X132354494Y-48182937D01*
X132451185Y-48103585D01*
X132530537Y-48006894D01*
X132589502Y-47896580D01*
X132625812Y-47776882D01*
X132638072Y-47652400D01*
X132638072Y-45952400D01*
X132625812Y-45827918D01*
X132589502Y-45708220D01*
X132530537Y-45597906D01*
X132451185Y-45501215D01*
X132354494Y-45421863D01*
X132244180Y-45362898D01*
X132124482Y-45326588D01*
X132000000Y-45314328D01*
X130300000Y-45314328D01*
X130175518Y-45326588D01*
X130055820Y-45362898D01*
X129945506Y-45421863D01*
X129848815Y-45501215D01*
X129769463Y-45597906D01*
X129710498Y-45708220D01*
X129674188Y-45827918D01*
X129661928Y-45952400D01*
X129661928Y-46042400D01*
X125030101Y-46042400D01*
X124969104Y-45981403D01*
X124945301Y-45952399D01*
X124829576Y-45857426D01*
X124718072Y-45797825D01*
X124718072Y-45642400D01*
X124705812Y-45517918D01*
X124669502Y-45398220D01*
X124610537Y-45287906D01*
X124531185Y-45191215D01*
X124434494Y-45111863D01*
X124324180Y-45052898D01*
X124204482Y-45016588D01*
X124080000Y-45004328D01*
X122380000Y-45004328D01*
X122255518Y-45016588D01*
X122135820Y-45052898D01*
X122025506Y-45111863D01*
X121928815Y-45191215D01*
X121849463Y-45287906D01*
X121790498Y-45398220D01*
X121754188Y-45517918D01*
X121741928Y-45642400D01*
X121741928Y-47342400D01*
X121754188Y-47466882D01*
X121790498Y-47586580D01*
X121849463Y-47696894D01*
X121928815Y-47793585D01*
X122025506Y-47872937D01*
X122135820Y-47931902D01*
X122208380Y-47953913D01*
X122076525Y-48085768D01*
X121914010Y-48328989D01*
X121802068Y-48599242D01*
X121745000Y-48886140D01*
X121745000Y-49178660D01*
X121802068Y-49465558D01*
X121914010Y-49735811D01*
X122076525Y-49979032D01*
X122283368Y-50185875D01*
X122457760Y-50302400D01*
X122283368Y-50418925D01*
X122076525Y-50625768D01*
X121914010Y-50868989D01*
X121802068Y-51139242D01*
X121745000Y-51426140D01*
X121745000Y-51718660D01*
X121802068Y-52005558D01*
X121914010Y-52275811D01*
X122076525Y-52519032D01*
X122283368Y-52725875D01*
X122465534Y-52847595D01*
X122348645Y-52917222D01*
X122132412Y-53112131D01*
X121958359Y-53345480D01*
X121833175Y-53608301D01*
X121788524Y-53755510D01*
X121909845Y-53985400D01*
X123103000Y-53985400D01*
X123103000Y-53965400D01*
X123357000Y-53965400D01*
X123357000Y-53985400D01*
X124550155Y-53985400D01*
X124671476Y-53755510D01*
X124626825Y-53608301D01*
X124501641Y-53345480D01*
X124327588Y-53112131D01*
X124111355Y-52917222D01*
X123994466Y-52847595D01*
X124176632Y-52725875D01*
X124383475Y-52519032D01*
X124545990Y-52275811D01*
X124657932Y-52005558D01*
X124715000Y-51718660D01*
X124715000Y-51426140D01*
X124657932Y-51139242D01*
X124545990Y-50868989D01*
X124383475Y-50625768D01*
X124176632Y-50418925D01*
X124002240Y-50302400D01*
X124176632Y-50185875D01*
X124383475Y-49979032D01*
X124545990Y-49735811D01*
X124657932Y-49465558D01*
X124715000Y-49178660D01*
X124715000Y-48886140D01*
X124657932Y-48599242D01*
X124545990Y-48328989D01*
X124383475Y-48085768D01*
X124251620Y-47953913D01*
X124324180Y-47931902D01*
X124434494Y-47872937D01*
X124531185Y-47793585D01*
X124610537Y-47696894D01*
X124669502Y-47586580D01*
X124676870Y-47562292D01*
X124677967Y-47562400D01*
X124677976Y-47562400D01*
X124715299Y-47566076D01*
X124752622Y-47562400D01*
X129661928Y-47562400D01*
X129661928Y-47652400D01*
X129674188Y-47776882D01*
X129710498Y-47896580D01*
X129769463Y-48006894D01*
X129848815Y-48103585D01*
X129945506Y-48182937D01*
X130055820Y-48241902D01*
X130128380Y-48263913D01*
X129996525Y-48395768D01*
X129834010Y-48638989D01*
X129722068Y-48909242D01*
X129665000Y-49196140D01*
X129665000Y-49488660D01*
X129722068Y-49775558D01*
X129834010Y-50045811D01*
X129996525Y-50289032D01*
X130203368Y-50495875D01*
X130377760Y-50612400D01*
X130203368Y-50728925D01*
X129996525Y-50935768D01*
X129834010Y-51178989D01*
X129722068Y-51449242D01*
X129665000Y-51736140D01*
X129665000Y-52028660D01*
X129722068Y-52315558D01*
X129834010Y-52585811D01*
X129996525Y-52829032D01*
X130203368Y-53035875D01*
X130385534Y-53157595D01*
X130268645Y-53227222D01*
X130052412Y-53422131D01*
X129878359Y-53655480D01*
X129753175Y-53918301D01*
X129708524Y-54065510D01*
X129829845Y-54295400D01*
X131023000Y-54295400D01*
X131023000Y-54275400D01*
X131277000Y-54275400D01*
X131277000Y-54295400D01*
X131297000Y-54295400D01*
X131297000Y-54549400D01*
X131277000Y-54549400D01*
X131277000Y-55743214D01*
X131506891Y-55863881D01*
X131565300Y-55843162D01*
X131565301Y-61687868D01*
X131561624Y-61725200D01*
X131565301Y-61762533D01*
X131576141Y-61872586D01*
X131576298Y-61874185D01*
X131619754Y-62017446D01*
X131690326Y-62149476D01*
X131761501Y-62236202D01*
X131785300Y-62265201D01*
X131814298Y-62288999D01*
X138539626Y-69014328D01*
X137010000Y-69014328D01*
X136885518Y-69026588D01*
X136765820Y-69062898D01*
X136655506Y-69121863D01*
X136558815Y-69201215D01*
X136513515Y-69256413D01*
X135378504Y-68121403D01*
X135354701Y-68092399D01*
X135238976Y-67997426D01*
X135106947Y-67926854D01*
X134963686Y-67883397D01*
X134852033Y-67872400D01*
X134852022Y-67872400D01*
X134814700Y-67868724D01*
X134777378Y-67872400D01*
X130508178Y-67872400D01*
X130383475Y-67685768D01*
X130251620Y-67553913D01*
X130324180Y-67531902D01*
X130434494Y-67472937D01*
X130531185Y-67393585D01*
X130610537Y-67296894D01*
X130669502Y-67186580D01*
X130705812Y-67066882D01*
X130718072Y-66942400D01*
X130718072Y-65242400D01*
X130705812Y-65117918D01*
X130669502Y-64998220D01*
X130610537Y-64887906D01*
X130531185Y-64791215D01*
X130434494Y-64711863D01*
X130324180Y-64652898D01*
X130204482Y-64616588D01*
X130080000Y-64604328D01*
X128380000Y-64604328D01*
X128255518Y-64616588D01*
X128135820Y-64652898D01*
X128025506Y-64711863D01*
X127928815Y-64791215D01*
X127849463Y-64887906D01*
X127790498Y-64998220D01*
X127754188Y-65117918D01*
X127741928Y-65242400D01*
X127741928Y-66942400D01*
X127754188Y-67066882D01*
X127790498Y-67186580D01*
X127849463Y-67296894D01*
X127928815Y-67393585D01*
X128025506Y-67472937D01*
X128135820Y-67531902D01*
X128208380Y-67553913D01*
X128129697Y-67632596D01*
X127413204Y-66916103D01*
X127389401Y-66887099D01*
X127273676Y-66792126D01*
X127255300Y-66782304D01*
X127255300Y-65057022D01*
X127258976Y-65019699D01*
X127255300Y-64982377D01*
X127255300Y-64982367D01*
X127244303Y-64870714D01*
X127200846Y-64727453D01*
X127130274Y-64595424D01*
X127035301Y-64479699D01*
X127006297Y-64455896D01*
X126926404Y-64376003D01*
X126902601Y-64346999D01*
X126786876Y-64252026D01*
X126654847Y-64181454D01*
X126511586Y-64137997D01*
X126399933Y-64127000D01*
X126399922Y-64127000D01*
X126362600Y-64123324D01*
X126325278Y-64127000D01*
X120180882Y-64127000D01*
X120162464Y-64099437D01*
X124790053Y-59471849D01*
X124915241Y-59597037D01*
X125147759Y-59752400D01*
X124915241Y-59907763D01*
X124715363Y-60107641D01*
X124558320Y-60342673D01*
X124450147Y-60603826D01*
X124395000Y-60881065D01*
X124395000Y-61163735D01*
X124450147Y-61440974D01*
X124558320Y-61702127D01*
X124715363Y-61937159D01*
X124915241Y-62137037D01*
X125150273Y-62294080D01*
X125411426Y-62402253D01*
X125688665Y-62457400D01*
X125971335Y-62457400D01*
X126248574Y-62402253D01*
X126509727Y-62294080D01*
X126744759Y-62137037D01*
X126944637Y-61937159D01*
X127101680Y-61702127D01*
X127209853Y-61440974D01*
X127265000Y-61163735D01*
X127265000Y-60881065D01*
X127209853Y-60603826D01*
X127101680Y-60342673D01*
X126944637Y-60107641D01*
X126744759Y-59907763D01*
X126512241Y-59752400D01*
X126561971Y-59719172D01*
X127521312Y-60678514D01*
X127485000Y-60861065D01*
X127485000Y-61143735D01*
X127540147Y-61420974D01*
X127648320Y-61682127D01*
X127805363Y-61917159D01*
X128005241Y-62117037D01*
X128240273Y-62274080D01*
X128501426Y-62382253D01*
X128778665Y-62437400D01*
X129061335Y-62437400D01*
X129338574Y-62382253D01*
X129599727Y-62274080D01*
X129834759Y-62117037D01*
X130034637Y-61917159D01*
X130191680Y-61682127D01*
X130299853Y-61420974D01*
X130355000Y-61143735D01*
X130355000Y-60861065D01*
X130299853Y-60583826D01*
X130191680Y-60322673D01*
X130034637Y-60087641D01*
X129834759Y-59887763D01*
X129602241Y-59732400D01*
X129834759Y-59577037D01*
X130034637Y-59377159D01*
X130191680Y-59142127D01*
X130299853Y-58880974D01*
X130355000Y-58603735D01*
X130355000Y-58321065D01*
X130299853Y-58043826D01*
X130191680Y-57782673D01*
X130034637Y-57547641D01*
X129834759Y-57347763D01*
X129599727Y-57190720D01*
X129338574Y-57082547D01*
X129061335Y-57027400D01*
X128778665Y-57027400D01*
X128501426Y-57082547D01*
X128240273Y-57190720D01*
X128005241Y-57347763D01*
X127805363Y-57547641D01*
X127648320Y-57782673D01*
X127553025Y-58012736D01*
X127495301Y-57942399D01*
X127379576Y-57847426D01*
X127247547Y-57776854D01*
X127104286Y-57733397D01*
X127051947Y-57728242D01*
X126944637Y-57567641D01*
X126744759Y-57367763D01*
X126509727Y-57210720D01*
X126248574Y-57102547D01*
X125971335Y-57047400D01*
X125688665Y-57047400D01*
X125411426Y-57102547D01*
X125150273Y-57210720D01*
X124915241Y-57367763D01*
X124715363Y-57567641D01*
X124608053Y-57728242D01*
X124555714Y-57733397D01*
X124412453Y-57776854D01*
X124280423Y-57847426D01*
X124196783Y-57916068D01*
X124164699Y-57942399D01*
X124140901Y-57971397D01*
X120293535Y-61818764D01*
X120192684Y-61607456D01*
X120016854Y-61372107D01*
X119798488Y-61175583D01*
X119545978Y-61025436D01*
X119269027Y-60927437D01*
X119037000Y-61047936D01*
X119037000Y-62255400D01*
X119057000Y-62255400D01*
X119057000Y-62509400D01*
X119037000Y-62509400D01*
X119037000Y-62529400D01*
X118783000Y-62529400D01*
X118783000Y-62509400D01*
X116497000Y-62509400D01*
X116497000Y-62529400D01*
X116243000Y-62529400D01*
X116243000Y-62509400D01*
X116223000Y-62509400D01*
X116223000Y-62255400D01*
X116243000Y-62255400D01*
X116243000Y-61042550D01*
X116497000Y-61042550D01*
X116497000Y-62255400D01*
X118783000Y-62255400D01*
X118783000Y-61047936D01*
X118550973Y-60927437D01*
X118274022Y-61025436D01*
X118021512Y-61175583D01*
X117842053Y-61337092D01*
X117823102Y-61274620D01*
X117764137Y-61164306D01*
X117684785Y-61067615D01*
X117588094Y-60988263D01*
X117477780Y-60929298D01*
X117358082Y-60892988D01*
X117233600Y-60880728D01*
X116655750Y-60883800D01*
X116497000Y-61042550D01*
X116243000Y-61042550D01*
X116084250Y-60883800D01*
X115506400Y-60880728D01*
X115381918Y-60892988D01*
X115262220Y-60929298D01*
X115151906Y-60988263D01*
X115101370Y-61029737D01*
X115101370Y-58589290D01*
X115568524Y-58589290D01*
X115613175Y-58736499D01*
X115738359Y-58999320D01*
X115912412Y-59232669D01*
X116128645Y-59427578D01*
X116378748Y-59576557D01*
X116653109Y-59673881D01*
X116883000Y-59553214D01*
X116883000Y-58359400D01*
X117137000Y-58359400D01*
X117137000Y-59553214D01*
X117366891Y-59673881D01*
X117641252Y-59576557D01*
X117891355Y-59427578D01*
X118107588Y-59232669D01*
X118281641Y-58999320D01*
X118406825Y-58736499D01*
X118451476Y-58589290D01*
X118330155Y-58359400D01*
X117137000Y-58359400D01*
X116883000Y-58359400D01*
X115689845Y-58359400D01*
X115568524Y-58589290D01*
X115101370Y-58589290D01*
X115101370Y-54842400D01*
X115521928Y-54842400D01*
X115521928Y-56542400D01*
X115534188Y-56666882D01*
X115570498Y-56786580D01*
X115629463Y-56896894D01*
X115708815Y-56993585D01*
X115805506Y-57072937D01*
X115915820Y-57131902D01*
X115996466Y-57156366D01*
X115912412Y-57232131D01*
X115738359Y-57465480D01*
X115613175Y-57728301D01*
X115568524Y-57875510D01*
X115689845Y-58105400D01*
X116883000Y-58105400D01*
X116883000Y-58085400D01*
X117137000Y-58085400D01*
X117137000Y-58105400D01*
X118330155Y-58105400D01*
X118451476Y-57875510D01*
X118406825Y-57728301D01*
X118281641Y-57465480D01*
X118107588Y-57232131D01*
X118023534Y-57156366D01*
X118104180Y-57131902D01*
X118214494Y-57072937D01*
X118311185Y-56993585D01*
X118390537Y-56896894D01*
X118449502Y-56786580D01*
X118485812Y-56666882D01*
X118498072Y-56542400D01*
X118498072Y-54842400D01*
X118485812Y-54717918D01*
X118449502Y-54598220D01*
X118390537Y-54487906D01*
X118375260Y-54469290D01*
X121788524Y-54469290D01*
X121833175Y-54616499D01*
X121958359Y-54879320D01*
X122132412Y-55112669D01*
X122348645Y-55307578D01*
X122598748Y-55456557D01*
X122873109Y-55553881D01*
X123103000Y-55433214D01*
X123103000Y-54239400D01*
X123357000Y-54239400D01*
X123357000Y-55433214D01*
X123586891Y-55553881D01*
X123861252Y-55456557D01*
X124111355Y-55307578D01*
X124327588Y-55112669D01*
X124501641Y-54879320D01*
X124549286Y-54779290D01*
X129708524Y-54779290D01*
X129753175Y-54926499D01*
X129878359Y-55189320D01*
X130052412Y-55422669D01*
X130268645Y-55617578D01*
X130518748Y-55766557D01*
X130793109Y-55863881D01*
X131023000Y-55743214D01*
X131023000Y-54549400D01*
X129829845Y-54549400D01*
X129708524Y-54779290D01*
X124549286Y-54779290D01*
X124626825Y-54616499D01*
X124671476Y-54469290D01*
X124550155Y-54239400D01*
X123357000Y-54239400D01*
X123103000Y-54239400D01*
X121909845Y-54239400D01*
X121788524Y-54469290D01*
X118375260Y-54469290D01*
X118311185Y-54391215D01*
X118214494Y-54311863D01*
X118104180Y-54252898D01*
X117984482Y-54216588D01*
X117860000Y-54204328D01*
X116160000Y-54204328D01*
X116035518Y-54216588D01*
X115915820Y-54252898D01*
X115805506Y-54311863D01*
X115708815Y-54391215D01*
X115629463Y-54487906D01*
X115570498Y-54598220D01*
X115534188Y-54717918D01*
X115521928Y-54842400D01*
X115101370Y-54842400D01*
X115101370Y-49072404D01*
X115173659Y-48153882D01*
X115382891Y-47282367D01*
X115725884Y-46454311D01*
X116194188Y-45690109D01*
X116776274Y-45008574D01*
X117457809Y-44426487D01*
X118222011Y-43958184D01*
X119050069Y-43615191D01*
X119921582Y-43405959D01*
X120840104Y-43333670D01*
X134783831Y-43333670D01*
X134783830Y-63108929D01*
G04 #@! TA.AperFunction,Conductor*
D24*
G36*
X134783830Y-63108929D02*
G01*
X133085300Y-61410399D01*
X133085300Y-53902922D01*
X133088976Y-53865599D01*
X133085300Y-53828276D01*
X133085300Y-53828267D01*
X133074303Y-53716614D01*
X133030846Y-53573353D01*
X133001646Y-53518724D01*
X132960274Y-53441323D01*
X132889099Y-53354597D01*
X132865301Y-53325599D01*
X132836304Y-53301802D01*
X132327531Y-52793030D01*
X132465990Y-52585811D01*
X132577932Y-52315558D01*
X132635000Y-52028660D01*
X132635000Y-51736140D01*
X132577932Y-51449242D01*
X132465990Y-51178989D01*
X132303475Y-50935768D01*
X132096632Y-50728925D01*
X131922240Y-50612400D01*
X132096632Y-50495875D01*
X132303475Y-50289032D01*
X132465990Y-50045811D01*
X132577932Y-49775558D01*
X132635000Y-49488660D01*
X132635000Y-49196140D01*
X132577932Y-48909242D01*
X132465990Y-48638989D01*
X132303475Y-48395768D01*
X132171620Y-48263913D01*
X132244180Y-48241902D01*
X132354494Y-48182937D01*
X132451185Y-48103585D01*
X132530537Y-48006894D01*
X132589502Y-47896580D01*
X132625812Y-47776882D01*
X132638072Y-47652400D01*
X132638072Y-45952400D01*
X132625812Y-45827918D01*
X132589502Y-45708220D01*
X132530537Y-45597906D01*
X132451185Y-45501215D01*
X132354494Y-45421863D01*
X132244180Y-45362898D01*
X132124482Y-45326588D01*
X132000000Y-45314328D01*
X130300000Y-45314328D01*
X130175518Y-45326588D01*
X130055820Y-45362898D01*
X129945506Y-45421863D01*
X129848815Y-45501215D01*
X129769463Y-45597906D01*
X129710498Y-45708220D01*
X129674188Y-45827918D01*
X129661928Y-45952400D01*
X129661928Y-46042400D01*
X125030101Y-46042400D01*
X124969104Y-45981403D01*
X124945301Y-45952399D01*
X124829576Y-45857426D01*
X124718072Y-45797825D01*
X124718072Y-45642400D01*
X124705812Y-45517918D01*
X124669502Y-45398220D01*
X124610537Y-45287906D01*
X124531185Y-45191215D01*
X124434494Y-45111863D01*
X124324180Y-45052898D01*
X124204482Y-45016588D01*
X124080000Y-45004328D01*
X122380000Y-45004328D01*
X122255518Y-45016588D01*
X122135820Y-45052898D01*
X122025506Y-45111863D01*
X121928815Y-45191215D01*
X121849463Y-45287906D01*
X121790498Y-45398220D01*
X121754188Y-45517918D01*
X121741928Y-45642400D01*
X121741928Y-47342400D01*
X121754188Y-47466882D01*
X121790498Y-47586580D01*
X121849463Y-47696894D01*
X121928815Y-47793585D01*
X122025506Y-47872937D01*
X122135820Y-47931902D01*
X122208380Y-47953913D01*
X122076525Y-48085768D01*
X121914010Y-48328989D01*
X121802068Y-48599242D01*
X121745000Y-48886140D01*
X121745000Y-49178660D01*
X121802068Y-49465558D01*
X121914010Y-49735811D01*
X122076525Y-49979032D01*
X122283368Y-50185875D01*
X122457760Y-50302400D01*
X122283368Y-50418925D01*
X122076525Y-50625768D01*
X121914010Y-50868989D01*
X121802068Y-51139242D01*
X121745000Y-51426140D01*
X121745000Y-51718660D01*
X121802068Y-52005558D01*
X121914010Y-52275811D01*
X122076525Y-52519032D01*
X122283368Y-52725875D01*
X122465534Y-52847595D01*
X122348645Y-52917222D01*
X122132412Y-53112131D01*
X121958359Y-53345480D01*
X121833175Y-53608301D01*
X121788524Y-53755510D01*
X121909845Y-53985400D01*
X123103000Y-53985400D01*
X123103000Y-53965400D01*
X123357000Y-53965400D01*
X123357000Y-53985400D01*
X124550155Y-53985400D01*
X124671476Y-53755510D01*
X124626825Y-53608301D01*
X124501641Y-53345480D01*
X124327588Y-53112131D01*
X124111355Y-52917222D01*
X123994466Y-52847595D01*
X124176632Y-52725875D01*
X124383475Y-52519032D01*
X124545990Y-52275811D01*
X124657932Y-52005558D01*
X124715000Y-51718660D01*
X124715000Y-51426140D01*
X124657932Y-51139242D01*
X124545990Y-50868989D01*
X124383475Y-50625768D01*
X124176632Y-50418925D01*
X124002240Y-50302400D01*
X124176632Y-50185875D01*
X124383475Y-49979032D01*
X124545990Y-49735811D01*
X124657932Y-49465558D01*
X124715000Y-49178660D01*
X124715000Y-48886140D01*
X124657932Y-48599242D01*
X124545990Y-48328989D01*
X124383475Y-48085768D01*
X124251620Y-47953913D01*
X124324180Y-47931902D01*
X124434494Y-47872937D01*
X124531185Y-47793585D01*
X124610537Y-47696894D01*
X124669502Y-47586580D01*
X124676870Y-47562292D01*
X124677967Y-47562400D01*
X124677976Y-47562400D01*
X124715299Y-47566076D01*
X124752622Y-47562400D01*
X129661928Y-47562400D01*
X129661928Y-47652400D01*
X129674188Y-47776882D01*
X129710498Y-47896580D01*
X129769463Y-48006894D01*
X129848815Y-48103585D01*
X129945506Y-48182937D01*
X130055820Y-48241902D01*
X130128380Y-48263913D01*
X129996525Y-48395768D01*
X129834010Y-48638989D01*
X129722068Y-48909242D01*
X129665000Y-49196140D01*
X129665000Y-49488660D01*
X129722068Y-49775558D01*
X129834010Y-50045811D01*
X129996525Y-50289032D01*
X130203368Y-50495875D01*
X130377760Y-50612400D01*
X130203368Y-50728925D01*
X129996525Y-50935768D01*
X129834010Y-51178989D01*
X129722068Y-51449242D01*
X129665000Y-51736140D01*
X129665000Y-52028660D01*
X129722068Y-52315558D01*
X129834010Y-52585811D01*
X129996525Y-52829032D01*
X130203368Y-53035875D01*
X130385534Y-53157595D01*
X130268645Y-53227222D01*
X130052412Y-53422131D01*
X129878359Y-53655480D01*
X129753175Y-53918301D01*
X129708524Y-54065510D01*
X129829845Y-54295400D01*
X131023000Y-54295400D01*
X131023000Y-54275400D01*
X131277000Y-54275400D01*
X131277000Y-54295400D01*
X131297000Y-54295400D01*
X131297000Y-54549400D01*
X131277000Y-54549400D01*
X131277000Y-55743214D01*
X131506891Y-55863881D01*
X131565300Y-55843162D01*
X131565301Y-61687868D01*
X131561624Y-61725200D01*
X131565301Y-61762533D01*
X131576141Y-61872586D01*
X131576298Y-61874185D01*
X131619754Y-62017446D01*
X131690326Y-62149476D01*
X131761501Y-62236202D01*
X131785300Y-62265201D01*
X131814298Y-62288999D01*
X138539626Y-69014328D01*
X137010000Y-69014328D01*
X136885518Y-69026588D01*
X136765820Y-69062898D01*
X136655506Y-69121863D01*
X136558815Y-69201215D01*
X136513515Y-69256413D01*
X135378504Y-68121403D01*
X135354701Y-68092399D01*
X135238976Y-67997426D01*
X135106947Y-67926854D01*
X134963686Y-67883397D01*
X134852033Y-67872400D01*
X134852022Y-67872400D01*
X134814700Y-67868724D01*
X134777378Y-67872400D01*
X130508178Y-67872400D01*
X130383475Y-67685768D01*
X130251620Y-67553913D01*
X130324180Y-67531902D01*
X130434494Y-67472937D01*
X130531185Y-67393585D01*
X130610537Y-67296894D01*
X130669502Y-67186580D01*
X130705812Y-67066882D01*
X130718072Y-66942400D01*
X130718072Y-65242400D01*
X130705812Y-65117918D01*
X130669502Y-64998220D01*
X130610537Y-64887906D01*
X130531185Y-64791215D01*
X130434494Y-64711863D01*
X130324180Y-64652898D01*
X130204482Y-64616588D01*
X130080000Y-64604328D01*
X128380000Y-64604328D01*
X128255518Y-64616588D01*
X128135820Y-64652898D01*
X128025506Y-64711863D01*
X127928815Y-64791215D01*
X127849463Y-64887906D01*
X127790498Y-64998220D01*
X127754188Y-65117918D01*
X127741928Y-65242400D01*
X127741928Y-66942400D01*
X127754188Y-67066882D01*
X127790498Y-67186580D01*
X127849463Y-67296894D01*
X127928815Y-67393585D01*
X128025506Y-67472937D01*
X128135820Y-67531902D01*
X128208380Y-67553913D01*
X128129697Y-67632596D01*
X127413204Y-66916103D01*
X127389401Y-66887099D01*
X127273676Y-66792126D01*
X127255300Y-66782304D01*
X127255300Y-65057022D01*
X127258976Y-65019699D01*
X127255300Y-64982377D01*
X127255300Y-64982367D01*
X127244303Y-64870714D01*
X127200846Y-64727453D01*
X127130274Y-64595424D01*
X127035301Y-64479699D01*
X127006297Y-64455896D01*
X126926404Y-64376003D01*
X126902601Y-64346999D01*
X126786876Y-64252026D01*
X126654847Y-64181454D01*
X126511586Y-64137997D01*
X126399933Y-64127000D01*
X126399922Y-64127000D01*
X126362600Y-64123324D01*
X126325278Y-64127000D01*
X120180882Y-64127000D01*
X120162464Y-64099437D01*
X124790053Y-59471849D01*
X124915241Y-59597037D01*
X125147759Y-59752400D01*
X124915241Y-59907763D01*
X124715363Y-60107641D01*
X124558320Y-60342673D01*
X124450147Y-60603826D01*
X124395000Y-60881065D01*
X124395000Y-61163735D01*
X124450147Y-61440974D01*
X124558320Y-61702127D01*
X124715363Y-61937159D01*
X124915241Y-62137037D01*
X125150273Y-62294080D01*
X125411426Y-62402253D01*
X125688665Y-62457400D01*
X125971335Y-62457400D01*
X126248574Y-62402253D01*
X126509727Y-62294080D01*
X126744759Y-62137037D01*
X126944637Y-61937159D01*
X127101680Y-61702127D01*
X127209853Y-61440974D01*
X127265000Y-61163735D01*
X127265000Y-60881065D01*
X127209853Y-60603826D01*
X127101680Y-60342673D01*
X126944637Y-60107641D01*
X126744759Y-59907763D01*
X126512241Y-59752400D01*
X126561971Y-59719172D01*
X127521312Y-60678514D01*
X127485000Y-60861065D01*
X127485000Y-61143735D01*
X127540147Y-61420974D01*
X127648320Y-61682127D01*
X127805363Y-61917159D01*
X128005241Y-62117037D01*
X128240273Y-62274080D01*
X128501426Y-62382253D01*
X128778665Y-62437400D01*
X129061335Y-62437400D01*
X129338574Y-62382253D01*
X129599727Y-62274080D01*
X129834759Y-62117037D01*
X130034637Y-61917159D01*
X130191680Y-61682127D01*
X130299853Y-61420974D01*
X130355000Y-61143735D01*
X130355000Y-60861065D01*
X130299853Y-60583826D01*
X130191680Y-60322673D01*
X130034637Y-60087641D01*
X129834759Y-59887763D01*
X129602241Y-59732400D01*
X129834759Y-59577037D01*
X130034637Y-59377159D01*
X130191680Y-59142127D01*
X130299853Y-58880974D01*
X130355000Y-58603735D01*
X130355000Y-58321065D01*
X130299853Y-58043826D01*
X130191680Y-57782673D01*
X130034637Y-57547641D01*
X129834759Y-57347763D01*
X129599727Y-57190720D01*
X129338574Y-57082547D01*
X129061335Y-57027400D01*
X128778665Y-57027400D01*
X128501426Y-57082547D01*
X128240273Y-57190720D01*
X128005241Y-57347763D01*
X127805363Y-57547641D01*
X127648320Y-57782673D01*
X127553025Y-58012736D01*
X127495301Y-57942399D01*
X127379576Y-57847426D01*
X127247547Y-57776854D01*
X127104286Y-57733397D01*
X127051947Y-57728242D01*
X126944637Y-57567641D01*
X126744759Y-57367763D01*
X126509727Y-57210720D01*
X126248574Y-57102547D01*
X125971335Y-57047400D01*
X125688665Y-57047400D01*
X125411426Y-57102547D01*
X125150273Y-57210720D01*
X124915241Y-57367763D01*
X124715363Y-57567641D01*
X124608053Y-57728242D01*
X124555714Y-57733397D01*
X124412453Y-57776854D01*
X124280423Y-57847426D01*
X124196783Y-57916068D01*
X124164699Y-57942399D01*
X124140901Y-57971397D01*
X120293535Y-61818764D01*
X120192684Y-61607456D01*
X120016854Y-61372107D01*
X119798488Y-61175583D01*
X119545978Y-61025436D01*
X119269027Y-60927437D01*
X119037000Y-61047936D01*
X119037000Y-62255400D01*
X119057000Y-62255400D01*
X119057000Y-62509400D01*
X119037000Y-62509400D01*
X119037000Y-62529400D01*
X118783000Y-62529400D01*
X118783000Y-62509400D01*
X116497000Y-62509400D01*
X116497000Y-62529400D01*
X116243000Y-62529400D01*
X116243000Y-62509400D01*
X116223000Y-62509400D01*
X116223000Y-62255400D01*
X116243000Y-62255400D01*
X116243000Y-61042550D01*
X116497000Y-61042550D01*
X116497000Y-62255400D01*
X118783000Y-62255400D01*
X118783000Y-61047936D01*
X118550973Y-60927437D01*
X118274022Y-61025436D01*
X118021512Y-61175583D01*
X117842053Y-61337092D01*
X117823102Y-61274620D01*
X117764137Y-61164306D01*
X117684785Y-61067615D01*
X117588094Y-60988263D01*
X117477780Y-60929298D01*
X117358082Y-60892988D01*
X117233600Y-60880728D01*
X116655750Y-60883800D01*
X116497000Y-61042550D01*
X116243000Y-61042550D01*
X116084250Y-60883800D01*
X115506400Y-60880728D01*
X115381918Y-60892988D01*
X115262220Y-60929298D01*
X115151906Y-60988263D01*
X115101370Y-61029737D01*
X115101370Y-58589290D01*
X115568524Y-58589290D01*
X115613175Y-58736499D01*
X115738359Y-58999320D01*
X115912412Y-59232669D01*
X116128645Y-59427578D01*
X116378748Y-59576557D01*
X116653109Y-59673881D01*
X116883000Y-59553214D01*
X116883000Y-58359400D01*
X117137000Y-58359400D01*
X117137000Y-59553214D01*
X117366891Y-59673881D01*
X117641252Y-59576557D01*
X117891355Y-59427578D01*
X118107588Y-59232669D01*
X118281641Y-58999320D01*
X118406825Y-58736499D01*
X118451476Y-58589290D01*
X118330155Y-58359400D01*
X117137000Y-58359400D01*
X116883000Y-58359400D01*
X115689845Y-58359400D01*
X115568524Y-58589290D01*
X115101370Y-58589290D01*
X115101370Y-54842400D01*
X115521928Y-54842400D01*
X115521928Y-56542400D01*
X115534188Y-56666882D01*
X115570498Y-56786580D01*
X115629463Y-56896894D01*
X115708815Y-56993585D01*
X115805506Y-57072937D01*
X115915820Y-57131902D01*
X115996466Y-57156366D01*
X115912412Y-57232131D01*
X115738359Y-57465480D01*
X115613175Y-57728301D01*
X115568524Y-57875510D01*
X115689845Y-58105400D01*
X116883000Y-58105400D01*
X116883000Y-58085400D01*
X117137000Y-58085400D01*
X117137000Y-58105400D01*
X118330155Y-58105400D01*
X118451476Y-57875510D01*
X118406825Y-57728301D01*
X118281641Y-57465480D01*
X118107588Y-57232131D01*
X118023534Y-57156366D01*
X118104180Y-57131902D01*
X118214494Y-57072937D01*
X118311185Y-56993585D01*
X118390537Y-56896894D01*
X118449502Y-56786580D01*
X118485812Y-56666882D01*
X118498072Y-56542400D01*
X118498072Y-54842400D01*
X118485812Y-54717918D01*
X118449502Y-54598220D01*
X118390537Y-54487906D01*
X118375260Y-54469290D01*
X121788524Y-54469290D01*
X121833175Y-54616499D01*
X121958359Y-54879320D01*
X122132412Y-55112669D01*
X122348645Y-55307578D01*
X122598748Y-55456557D01*
X122873109Y-55553881D01*
X123103000Y-55433214D01*
X123103000Y-54239400D01*
X123357000Y-54239400D01*
X123357000Y-55433214D01*
X123586891Y-55553881D01*
X123861252Y-55456557D01*
X124111355Y-55307578D01*
X124327588Y-55112669D01*
X124501641Y-54879320D01*
X124549286Y-54779290D01*
X129708524Y-54779290D01*
X129753175Y-54926499D01*
X129878359Y-55189320D01*
X130052412Y-55422669D01*
X130268645Y-55617578D01*
X130518748Y-55766557D01*
X130793109Y-55863881D01*
X131023000Y-55743214D01*
X131023000Y-54549400D01*
X129829845Y-54549400D01*
X129708524Y-54779290D01*
X124549286Y-54779290D01*
X124626825Y-54616499D01*
X124671476Y-54469290D01*
X124550155Y-54239400D01*
X123357000Y-54239400D01*
X123103000Y-54239400D01*
X121909845Y-54239400D01*
X121788524Y-54469290D01*
X118375260Y-54469290D01*
X118311185Y-54391215D01*
X118214494Y-54311863D01*
X118104180Y-54252898D01*
X117984482Y-54216588D01*
X117860000Y-54204328D01*
X116160000Y-54204328D01*
X116035518Y-54216588D01*
X115915820Y-54252898D01*
X115805506Y-54311863D01*
X115708815Y-54391215D01*
X115629463Y-54487906D01*
X115570498Y-54598220D01*
X115534188Y-54717918D01*
X115521928Y-54842400D01*
X115101370Y-54842400D01*
X115101370Y-49072404D01*
X115173659Y-48153882D01*
X115382891Y-47282367D01*
X115725884Y-46454311D01*
X116194188Y-45690109D01*
X116776274Y-45008574D01*
X117457809Y-44426487D01*
X118222011Y-43958184D01*
X119050069Y-43615191D01*
X119921582Y-43405959D01*
X120840104Y-43333670D01*
X134783831Y-43333670D01*
X134783830Y-63108929D01*
G37*
G04 #@! TD.AperFunction*
M02*
