M48
INCH,TZ
T1C0.0157
T2C0.0295
T3C0.0315
T4C0.0354
T5C0.0394
T6C0.0400
T7C0.1339
%
G90
G05
T1
X47944Y-31064
X48647Y-34840
X52086Y-41990
X61188Y-44481
T2
X63402Y-48001
X63402Y-48501
X63402Y-49001
T3
X49539Y-23025
X49539Y-24025
X50756Y-23017
X50756Y-24017
X56850Y-29946
X56850Y-31127
X56850Y-32312
X56850Y-33489
X56850Y-34670
X59850Y-29946
X59850Y-31127
X59850Y-32312
X59850Y-33489
X59850Y-34670
X62039Y-24320
X62039Y-25517
X62039Y-26678
X63039Y-24320
X63039Y-25517
X63039Y-26678
T4
X61248Y-20399
X61248Y-21399
X63323Y-20371
X63323Y-21371
X65598Y-20399
X65598Y-21399
T5
X46067Y-21926
X46067Y-22926
X48220Y-48241
X48220Y-49241
X48516Y-18304
X48516Y-19304
X48516Y-20304
X48516Y-21304
X49339Y-26009
X49339Y-27009
X49339Y-28009
X49339Y-29009
X49339Y-30009
X49374Y-32832
X49374Y-33832
X49374Y-34832
X49374Y-35832
X49374Y-36832
X49598Y-39662
X49598Y-40662
X49598Y-41662
X49598Y-42662
X49598Y-43662
X49598Y-44662
X49598Y-45662
X50319Y-48867
X50319Y-49867
X50323Y-47835
X50878Y-26021
X50878Y-27021
X50878Y-28021
X50878Y-29021
X50878Y-30021
X51205Y-32832
X51205Y-33832
X51205Y-34832
X51205Y-35832
X51205Y-36832
X51319Y-48867
X51319Y-49867
X51323Y-47835
X51634Y-18426
X51634Y-19426
X51634Y-20426
X51634Y-21426
X52319Y-48867
X52319Y-49867
X52323Y-47835
X53319Y-48867
X53319Y-49867
X53323Y-47835
X54276Y-27757
X54276Y-28757
X54276Y-29757
X54276Y-30757
X54276Y-31757
X54276Y-32757
X54276Y-33757
X54276Y-34757
X54276Y-35757
X54276Y-36757
X54319Y-48867
X54319Y-49867
X54323Y-47835
X55319Y-48867
X55319Y-49867
X55323Y-47835
X55917Y-38910
X55917Y-39910
X55917Y-40910
X55917Y-41910
X55917Y-42910
X55917Y-43910
X55917Y-44910
X55917Y-45910
X56319Y-48867
X56319Y-49867
X56323Y-47835
X57319Y-48867
X57319Y-49867
X57323Y-47835
X58319Y-48867
X58319Y-49867
X58323Y-47835
X59319Y-48867
X59319Y-49867
X59323Y-47835
X60319Y-48867
X60319Y-49867
X60323Y-47835
X61319Y-48867
X61319Y-49867
X61323Y-47835
X62909Y-29509
X62909Y-30509
X62909Y-31509
X62917Y-42741
X62917Y-43741
X62917Y-44741
X62917Y-45741
X62929Y-34131
X62929Y-35131
X62929Y-36131
X62929Y-37131
X62929Y-38131
X62929Y-39131
X62929Y-40131
T6
X45815Y-24560
X45815Y-25560
X45815Y-26560
X45815Y-27560
X45815Y-28560
X45815Y-29560
X45815Y-30560
X45815Y-31560
X45815Y-32560
X45815Y-33560
X45815Y-34560
X45815Y-35560
X45815Y-36560
X45815Y-37560
X45815Y-38560
X45815Y-39560
X45815Y-40560
X45815Y-41560
X45815Y-42560
X45815Y-43560
X45815Y-44560
X45815Y-45560
X45815Y-46560
X46815Y-24560
X46815Y-25560
X46815Y-26560
X46815Y-27560
X46815Y-28560
X46815Y-29560
X46815Y-30560
X46815Y-31560
X46815Y-32560
X46815Y-33560
X46815Y-34560
X46815Y-35560
X46815Y-36560
X46815Y-37560
X46815Y-38560
X46815Y-39560
X46815Y-40560
X46815Y-41560
X46815Y-42560
X46815Y-43560
X46815Y-44560
X46815Y-45560
X46815Y-46560
X64815Y-24560
X64815Y-25560
X64815Y-26560
X64815Y-27560
X64815Y-28560
X64815Y-29560
X64815Y-30560
X64815Y-31560
X64815Y-32560
X64815Y-33560
X64815Y-34560
X64815Y-35560
X64815Y-36560
X64815Y-37560
X64815Y-38560
X64815Y-39560
X64815Y-40560
X64815Y-41560
X64815Y-42560
X64815Y-43560
X64815Y-44560
X64815Y-45560
X64815Y-46560
X65815Y-24560
X65815Y-25560
X65815Y-26560
X65815Y-27560
X65815Y-28560
X65815Y-29560
X65815Y-30560
X65815Y-31560
X65815Y-32560
X65815Y-33560
X65815Y-34560
X65815Y-35560
X65815Y-36560
X65815Y-37560
X65815Y-38560
X65815Y-39560
X65815Y-40560
X65815Y-41560
X65815Y-42560
X65815Y-43560
X65815Y-44560
X65815Y-45560
X65815Y-46560
T7
X53016Y-45150
X58335Y-28174
X58378Y-36355
X59882Y-39261
X59886Y-45674
T0
M30
